solid OpenSCAD_Model
  facet normal 0 0 -1
    outer loop
      vertex -3 18.5 -8
      vertex -2.77164 19.648 -8
      vertex -2.77164 17.3519 -8
    endloop
  endfacet
  facet normal 0 0 -1
    outer loop
      vertex -2.77164 17.3519 -8
      vertex -2.77164 19.648 -8
      vertex -2.12132 20.6213 -8
    endloop
  endfacet
  facet normal 0 0 -1
    outer loop
      vertex -2.77164 17.3519 -8
      vertex -2.12132 20.6213 -8
      vertex -1.14805 21.2716 -8
    endloop
  endfacet
  facet normal 0 0 -1
    outer loop
      vertex -2.77164 17.3519 -8
      vertex -1.14805 21.2716 -8
      vertex 0 21.5 -8
    endloop
  endfacet
  facet normal 0 0 -1
    outer loop
      vertex -0.7625 19.8207 -8
      vertex 0 21.5 -8
      vertex 1.14805 21.2716 -8
    endloop
  endfacet
  facet normal 0 0 -1
    outer loop
      vertex 0 20.025 -8
      vertex 1.14805 21.2716 -8
      vertex 2.12132 20.6213 -8
    endloop
  endfacet
  facet normal 0 0 -1
    outer loop
      vertex 1.32069 19.2625 -8
      vertex 2.12132 20.6213 -8
      vertex 2.77164 19.648 -8
    endloop
  endfacet
  facet normal 0 0 -1
    outer loop
      vertex 1.525 18.5 -8
      vertex 2.77164 19.648 -8
      vertex 3 18.5 -8
    endloop
  endfacet
  facet normal 0 0 -1
    outer loop
      vertex 1.32069 17.7375 -8
      vertex 3 18.5 -8
      vertex 2.77164 17.3519 -8
    endloop
  endfacet
  facet normal 0 0 -1
    outer loop
      vertex 0 16.975 -8
      vertex 2.77164 17.3519 -8
      vertex 2.12132 16.3787 -8
    endloop
  endfacet
  facet normal 0 0 -1
    outer loop
      vertex -2.77164 17.3519 -8
      vertex 2.12132 16.3787 -8
      vertex 1.14805 15.7284 -8
    endloop
  endfacet
  facet normal 0 0 -1
    outer loop
      vertex -2.77164 17.3519 -8
      vertex 1.14805 15.7284 -8
      vertex 0 15.5 -8
    endloop
  endfacet
  facet normal 0 0 -1
    outer loop
      vertex -2.77164 17.3519 -8
      vertex 0 15.5 -8
      vertex -1.14805 15.7284 -8
    endloop
  endfacet
  facet normal 0 0 -1
    outer loop
      vertex -2.77164 17.3519 -8
      vertex -1.14805 15.7284 -8
      vertex -2.12132 16.3787 -8
    endloop
  endfacet
  facet normal 0 0 -1
    outer loop
      vertex -1.32069 17.7375 -8
      vertex -2.77164 17.3519 -8
      vertex -1.525 18.5 -8
    endloop
  endfacet
  facet normal 0 0 -1
    outer loop
      vertex -0.7625 17.1793 -8
      vertex -2.77164 17.3519 -8
      vertex -1.32069 17.7375 -8
    endloop
  endfacet
  facet normal 0 0 -1
    outer loop
      vertex 1.32069 17.7375 -8
      vertex 2.77164 17.3519 -8
      vertex 0.7625 17.1793 -8
    endloop
  endfacet
  facet normal 0 0 -1
    outer loop
      vertex -2.77164 17.3519 -8
      vertex -0.7625 17.1793 -8
      vertex 2.12132 16.3787 -8
    endloop
  endfacet
  facet normal 0 0 -1
    outer loop
      vertex 0.7625 17.1793 -8
      vertex 2.77164 17.3519 -8
      vertex 0 16.975 -8
    endloop
  endfacet
  facet normal 0 0 -1
    outer loop
      vertex -0.7625 17.1793 -8
      vertex 0 16.975 -8
      vertex 2.12132 16.3787 -8
    endloop
  endfacet
  facet normal 0 0 -1
    outer loop
      vertex 1.32069 19.2625 -8
      vertex 2.77164 19.648 -8
      vertex 1.525 18.5 -8
    endloop
  endfacet
  facet normal 0 0 -1
    outer loop
      vertex 1.525 18.5 -8
      vertex 3 18.5 -8
      vertex 1.32069 17.7375 -8
    endloop
  endfacet
  facet normal 0 0 -1
    outer loop
      vertex -0.7625 19.8207 -8
      vertex 1.14805 21.2716 -8
      vertex 0 20.025 -8
    endloop
  endfacet
  facet normal 0 0 -1
    outer loop
      vertex -1.32069 19.2625 -8
      vertex 0 21.5 -8
      vertex -0.7625 19.8207 -8
    endloop
  endfacet
  facet normal 0 0 -1
    outer loop
      vertex 0.7625 19.8207 -8
      vertex 2.12132 20.6213 -8
      vertex 1.32069 19.2625 -8
    endloop
  endfacet
  facet normal 0 0 -1
    outer loop
      vertex -2.77164 17.3519 -8
      vertex 0 21.5 -8
      vertex -1.32069 19.2625 -8
    endloop
  endfacet
  facet normal 0 0 -1
    outer loop
      vertex -1.525 18.5 -8
      vertex -2.77164 17.3519 -8
      vertex -1.32069 19.2625 -8
    endloop
  endfacet
  facet normal 0 0 -1
    outer loop
      vertex 0 20.025 -8
      vertex 2.12132 20.6213 -8
      vertex 0.7625 19.8207 -8
    endloop
  endfacet
  facet normal -0.980785 0.19509 0
    outer loop
      vertex -3 18.5 -8
      vertex -3 18.5 8
      vertex -2.77164 19.648 -8
    endloop
  endfacet
  facet normal -0.980785 0.19509 0
    outer loop
      vertex -2.77164 19.648 -8
      vertex -3 18.5 8
      vertex -2.77164 19.648 8
    endloop
  endfacet
  facet normal -0.980785 -0.19509 0
    outer loop
      vertex -3 18.5 -8
      vertex -2.77164 17.3519 -8
      vertex -3 18.5 8
    endloop
  endfacet
  facet normal -0.980785 -0.19509 0
    outer loop
      vertex -3 18.5 8
      vertex -2.77164 17.3519 -8
      vertex -2.77164 17.3519 8
    endloop
  endfacet
  facet normal -0.831469 -0.555571 0
    outer loop
      vertex -2.77164 17.3519 -8
      vertex -2.12132 16.3787 -8
      vertex -2.77164 17.3519 8
    endloop
  endfacet
  facet normal -0.831469 -0.555571 0
    outer loop
      vertex -2.77164 17.3519 8
      vertex -2.12132 16.3787 -8
      vertex -2.12132 16.3787 8
    endloop
  endfacet
  facet normal -0.555571 -0.831469 0
    outer loop
      vertex -2.12132 16.3787 8
      vertex -2.12132 16.3787 -8
      vertex -1.14805 15.7284 -8
    endloop
  endfacet
  facet normal -0.555571 -0.831469 0
    outer loop
      vertex -1.14805 15.7284 8
      vertex -2.12132 16.3787 8
      vertex -1.14805 15.7284 -8
    endloop
  endfacet
  facet normal -0.19509 -0.980785 0
    outer loop
      vertex -1.14805 15.7284 8
      vertex -1.14805 15.7284 -8
      vertex 0 15.5 -8
    endloop
  endfacet
  facet normal -0.19509 -0.980785 0
    outer loop
      vertex 0 15.5 8
      vertex -1.14805 15.7284 8
      vertex 0 15.5 -8
    endloop
  endfacet
  facet normal 0.19509 -0.980785 0
    outer loop
      vertex 0 15.5 8
      vertex 0 15.5 -8
      vertex 1.14805 15.7284 -8
    endloop
  endfacet
  facet normal 0.19509 -0.980785 0
    outer loop
      vertex 1.14805 15.7284 8
      vertex 0 15.5 8
      vertex 1.14805 15.7284 -8
    endloop
  endfacet
  facet normal 0.555571 -0.831469 0
    outer loop
      vertex 1.14805 15.7284 8
      vertex 1.14805 15.7284 -8
      vertex 2.12132 16.3787 -8
    endloop
  endfacet
  facet normal 0.555571 -0.831469 0
    outer loop
      vertex 2.12132 16.3787 8
      vertex 1.14805 15.7284 8
      vertex 2.12132 16.3787 -8
    endloop
  endfacet
  facet normal 0.831469 -0.555571 0
    outer loop
      vertex 2.12132 16.3787 8
      vertex 2.12132 16.3787 -8
      vertex 2.77164 17.3519 -8
    endloop
  endfacet
  facet normal 0.831469 -0.555571 0
    outer loop
      vertex 2.77164 17.3519 8
      vertex 2.12132 16.3787 8
      vertex 2.77164 17.3519 -8
    endloop
  endfacet
  facet normal 0.980785 -0.19509 0
    outer loop
      vertex 2.77164 17.3519 8
      vertex 2.77164 17.3519 -8
      vertex 3 18.5 -8
    endloop
  endfacet
  facet normal 0.980785 -0.19509 0
    outer loop
      vertex 3 18.5 8
      vertex 2.77164 17.3519 8
      vertex 3 18.5 -8
    endloop
  endfacet
  facet normal 0.980785 0.19509 0
    outer loop
      vertex 3 18.5 -8
      vertex 2.77164 19.648 -8
      vertex 2.77164 19.648 8
    endloop
  endfacet
  facet normal 0.980785 0.19509 0
    outer loop
      vertex 3 18.5 8
      vertex 3 18.5 -8
      vertex 2.77164 19.648 8
    endloop
  endfacet
  facet normal 0.831469 0.555571 0
    outer loop
      vertex 2.77164 19.648 -8
      vertex 2.12132 20.6213 -8
      vertex 2.12132 20.6213 8
    endloop
  endfacet
  facet normal 0.831469 0.555571 0
    outer loop
      vertex 2.77164 19.648 8
      vertex 2.77164 19.648 -8
      vertex 2.12132 20.6213 8
    endloop
  endfacet
  facet normal 0.555571 0.831469 0
    outer loop
      vertex 1.14805 21.2716 -8
      vertex 1.14805 21.2716 8
      vertex 2.12132 20.6213 -8
    endloop
  endfacet
  facet normal 0.555571 0.831469 0
    outer loop
      vertex 2.12132 20.6213 -8
      vertex 1.14805 21.2716 8
      vertex 2.12132 20.6213 8
    endloop
  endfacet
  facet normal 0.19509 0.980785 0
    outer loop
      vertex 0 21.5 -8
      vertex 0 21.5 8
      vertex 1.14805 21.2716 -8
    endloop
  endfacet
  facet normal 0.19509 0.980785 0
    outer loop
      vertex 1.14805 21.2716 -8
      vertex 0 21.5 8
      vertex 1.14805 21.2716 8
    endloop
  endfacet
  facet normal -0.19509 0.980785 0
    outer loop
      vertex -1.14805 21.2716 -8
      vertex -1.14805 21.2716 8
      vertex 0 21.5 -8
    endloop
  endfacet
  facet normal -0.19509 0.980785 0
    outer loop
      vertex 0 21.5 -8
      vertex -1.14805 21.2716 8
      vertex 0 21.5 8
    endloop
  endfacet
  facet normal -0.555571 0.831469 0
    outer loop
      vertex -2.12132 20.6213 -8
      vertex -2.12132 20.6213 8
      vertex -1.14805 21.2716 -8
    endloop
  endfacet
  facet normal -0.555571 0.831469 0
    outer loop
      vertex -1.14805 21.2716 -8
      vertex -2.12132 20.6213 8
      vertex -1.14805 21.2716 8
    endloop
  endfacet
  facet normal -0.831469 0.555571 0
    outer loop
      vertex -2.77164 19.648 -8
      vertex -2.77164 19.648 8
      vertex -2.12132 20.6213 -8
    endloop
  endfacet
  facet normal -0.831469 0.555571 0
    outer loop
      vertex -2.12132 20.6213 -8
      vertex -2.77164 19.648 8
      vertex -2.12132 20.6213 8
    endloop
  endfacet
  facet normal 0.965926 0.258819 0
    outer loop
      vertex -1.525 18.5 8
      vertex -1.32069 17.7375 8
      vertex -1.32069 17.7375 -8
    endloop
  endfacet
  facet normal 0.965926 0.258819 0
    outer loop
      vertex -1.525 18.5 -8
      vertex -1.525 18.5 8
      vertex -1.32069 17.7375 -8
    endloop
  endfacet
  facet normal 0.965926 -0.258819 0
    outer loop
      vertex -1.32069 19.2625 -8
      vertex -1.32069 19.2625 8
      vertex -1.525 18.5 8
    endloop
  endfacet
  facet normal 0.965926 -0.258819 0
    outer loop
      vertex -1.525 18.5 -8
      vertex -1.32069 19.2625 -8
      vertex -1.525 18.5 8
    endloop
  endfacet
  facet normal 0.707107 -0.707107 0
    outer loop
      vertex -0.7625 19.8207 -8
      vertex -0.7625 19.8207 8
      vertex -1.32069 19.2625 8
    endloop
  endfacet
  facet normal 0.707107 -0.707107 0
    outer loop
      vertex -1.32069 19.2625 -8
      vertex -0.7625 19.8207 -8
      vertex -1.32069 19.2625 8
    endloop
  endfacet
  facet normal 0.258819 -0.965926 0
    outer loop
      vertex 0 20.025 -8
      vertex 0 20.025 8
      vertex -0.7625 19.8207 8
    endloop
  endfacet
  facet normal 0.258819 -0.965926 0
    outer loop
      vertex -0.7625 19.8207 -8
      vertex 0 20.025 -8
      vertex -0.7625 19.8207 8
    endloop
  endfacet
  facet normal -0.258819 -0.965926 0
    outer loop
      vertex 0.7625 19.8207 -8
      vertex 0.7625 19.8207 8
      vertex 0 20.025 8
    endloop
  endfacet
  facet normal -0.258819 -0.965926 0
    outer loop
      vertex 0 20.025 -8
      vertex 0.7625 19.8207 -8
      vertex 0 20.025 8
    endloop
  endfacet
  facet normal -0.707107 -0.707107 0
    outer loop
      vertex 1.32069 19.2625 -8
      vertex 1.32069 19.2625 8
      vertex 0.7625 19.8207 8
    endloop
  endfacet
  facet normal -0.707107 -0.707107 0
    outer loop
      vertex 0.7625 19.8207 -8
      vertex 1.32069 19.2625 -8
      vertex 0.7625 19.8207 8
    endloop
  endfacet
  facet normal -0.965926 -0.258819 0
    outer loop
      vertex 1.525 18.5 8
      vertex 1.32069 19.2625 8
      vertex 1.525 18.5 -8
    endloop
  endfacet
  facet normal -0.965926 -0.258819 0
    outer loop
      vertex 1.525 18.5 -8
      vertex 1.32069 19.2625 8
      vertex 1.32069 19.2625 -8
    endloop
  endfacet
  facet normal -0.965926 0.258819 0
    outer loop
      vertex 1.525 18.5 8
      vertex 1.525 18.5 -8
      vertex 1.32069 17.7375 8
    endloop
  endfacet
  facet normal -0.965926 0.258819 0
    outer loop
      vertex 1.32069 17.7375 8
      vertex 1.525 18.5 -8
      vertex 1.32069 17.7375 -8
    endloop
  endfacet
  facet normal -0.707107 0.707107 0
    outer loop
      vertex 1.32069 17.7375 8
      vertex 1.32069 17.7375 -8
      vertex 0.7625 17.1793 8
    endloop
  endfacet
  facet normal -0.707107 0.707107 0
    outer loop
      vertex 0.7625 17.1793 8
      vertex 1.32069 17.7375 -8
      vertex 0.7625 17.1793 -8
    endloop
  endfacet
  facet normal -0.258819 0.965926 0
    outer loop
      vertex 0.7625 17.1793 8
      vertex 0.7625 17.1793 -8
      vertex 0 16.975 8
    endloop
  endfacet
  facet normal -0.258819 0.965926 0
    outer loop
      vertex 0 16.975 8
      vertex 0.7625 17.1793 -8
      vertex 0 16.975 -8
    endloop
  endfacet
  facet normal 0.258819 0.965926 0
    outer loop
      vertex 0 16.975 8
      vertex 0 16.975 -8
      vertex -0.7625 17.1793 8
    endloop
  endfacet
  facet normal 0.258819 0.965926 0
    outer loop
      vertex -0.7625 17.1793 8
      vertex 0 16.975 -8
      vertex -0.7625 17.1793 -8
    endloop
  endfacet
  facet normal 0.707107 0.707107 0
    outer loop
      vertex -0.7625 17.1793 8
      vertex -0.7625 17.1793 -8
      vertex -1.32069 17.7375 8
    endloop
  endfacet
  facet normal 0.707107 0.707107 0
    outer loop
      vertex -1.32069 17.7375 8
      vertex -0.7625 17.1793 -8
      vertex -1.32069 17.7375 -8
    endloop
  endfacet
  facet normal 0 0 1
    outer loop
      vertex -2.77164 19.648 8
      vertex -3 18.5 8
      vertex -2.77164 17.3519 8
    endloop
  endfacet
  facet normal 0 0 1
    outer loop
      vertex -1.14805 15.7284 8
      vertex -2.77164 19.648 8
      vertex -2.12132 16.3787 8
    endloop
  endfacet
  facet normal 0 0 1
    outer loop
      vertex -2.12132 16.3787 8
      vertex -2.77164 19.648 8
      vertex -2.77164 17.3519 8
    endloop
  endfacet
  facet normal 0 0 1
    outer loop
      vertex 0 15.5 8
      vertex -2.77164 19.648 8
      vertex -1.14805 15.7284 8
    endloop
  endfacet
  facet normal 0 0 1
    outer loop
      vertex -1.32069 17.7375 8
      vertex -2.77164 19.648 8
      vertex 0 15.5 8
    endloop
  endfacet
  facet normal 0 0 1
    outer loop
      vertex 1.525 18.5 8
      vertex 1.32069 17.7375 8
      vertex 2.77164 17.3519 8
    endloop
  endfacet
  facet normal 0 0 1
    outer loop
      vertex 1.32069 19.2625 8
      vertex 1.525 18.5 8
      vertex 3 18.5 8
    endloop
  endfacet
  facet normal 0 0 1
    outer loop
      vertex 1.14805 21.2716 8
      vertex -2.77164 19.648 8
      vertex 2.12132 20.6213 8
    endloop
  endfacet
  facet normal 0 0 1
    outer loop
      vertex 0 21.5 8
      vertex -2.77164 19.648 8
      vertex 1.14805 21.2716 8
    endloop
  endfacet
  facet normal 0 0 1
    outer loop
      vertex -1.14805 21.2716 8
      vertex -2.77164 19.648 8
      vertex 0 21.5 8
    endloop
  endfacet
  facet normal 0 0 1
    outer loop
      vertex -2.12132 20.6213 8
      vertex -2.77164 19.648 8
      vertex -1.14805 21.2716 8
    endloop
  endfacet
  facet normal 0 0 1
    outer loop
      vertex -0.7625 17.1793 8
      vertex -1.32069 17.7375 8
      vertex 0 15.5 8
    endloop
  endfacet
  facet normal 0 0 1
    outer loop
      vertex 0.7625 17.1793 8
      vertex 0 16.975 8
      vertex 2.12132 16.3787 8
    endloop
  endfacet
  facet normal 0 0 1
    outer loop
      vertex 1.32069 17.7375 8
      vertex 0.7625 17.1793 8
      vertex 2.12132 16.3787 8
    endloop
  endfacet
  facet normal 0 0 1
    outer loop
      vertex 2.12132 20.6213 8
      vertex -2.77164 19.648 8
      vertex -0.7625 19.8207 8
    endloop
  endfacet
  facet normal 0 0 1
    outer loop
      vertex 2.12132 20.6213 8
      vertex 0 20.025 8
      vertex 2.77164 19.648 8
    endloop
  endfacet
  facet normal 0 0 1
    outer loop
      vertex 2.12132 20.6213 8
      vertex -0.7625 19.8207 8
      vertex 0 20.025 8
    endloop
  endfacet
  facet normal 0 0 1
    outer loop
      vertex 0 20.025 8
      vertex 0.7625 19.8207 8
      vertex 2.77164 19.648 8
    endloop
  endfacet
  facet normal 0 0 1
    outer loop
      vertex 2.77164 19.648 8
      vertex 1.32069 19.2625 8
      vertex 3 18.5 8
    endloop
  endfacet
  facet normal 0 0 1
    outer loop
      vertex 0.7625 19.8207 8
      vertex 1.32069 19.2625 8
      vertex 2.77164 19.648 8
    endloop
  endfacet
  facet normal 0 0 1
    outer loop
      vertex 3 18.5 8
      vertex 1.525 18.5 8
      vertex 2.77164 17.3519 8
    endloop
  endfacet
  facet normal 0 0 1
    outer loop
      vertex 2.77164 17.3519 8
      vertex 1.32069 17.7375 8
      vertex 2.12132 16.3787 8
    endloop
  endfacet
  facet normal 0 0 1
    outer loop
      vertex 0 16.975 8
      vertex -0.7625 17.1793 8
      vertex 1.14805 15.7284 8
    endloop
  endfacet
  facet normal 0 0 1
    outer loop
      vertex -1.32069 19.2625 8
      vertex -0.7625 19.8207 8
      vertex -2.77164 19.648 8
    endloop
  endfacet
  facet normal 0 0 1
    outer loop
      vertex 2.12132 16.3787 8
      vertex 0 16.975 8
      vertex 1.14805 15.7284 8
    endloop
  endfacet
  facet normal 0 0 1
    outer loop
      vertex 1.14805 15.7284 8
      vertex -0.7625 17.1793 8
      vertex 0 15.5 8
    endloop
  endfacet
  facet normal 0 0 1
    outer loop
      vertex -1.32069 17.7375 8
      vertex -1.525 18.5 8
      vertex -2.77164 19.648 8
    endloop
  endfacet
  facet normal 0 0 1
    outer loop
      vertex -1.525 18.5 8
      vertex -1.32069 19.2625 8
      vertex -2.77164 19.648 8
    endloop
  endfacet
  facet normal 0 0 -1
    outer loop
      vertex -18.9958 -9.64158 -8
      vertex -18.9192 -8.47354 -8
      vertex -18.6195 -10.75 -8
    endloop
  endfacet
  facet normal 0 0 -1
    outer loop
      vertex -18.6195 -10.75 -8
      vertex -18.9192 -8.47354 -8
      vertex -18.4015 -7.42372 -8
    endloop
  endfacet
  facet normal 0 0 -1
    outer loop
      vertex -18.6195 -10.75 -8
      vertex -18.4015 -7.42372 -8
      vertex -17.5215 -6.65192 -8
    endloop
  endfacet
  facet normal 0 0 -1
    outer loop
      vertex -18.6195 -10.75 -8
      vertex -17.5215 -6.65192 -8
      vertex -16.413 -6.27567 -8
    endloop
  endfacet
  facet normal 0 0 -1
    outer loop
      vertex -17.3422 -8.4875 -8
      vertex -16.413 -6.27567 -8
      vertex -15.245 -6.35222 -8
    endloop
  endfacet
  facet normal 0 0 -1
    outer loop
      vertex -16.0215 -7.725 -8
      vertex -15.245 -6.35222 -8
      vertex -14.1952 -6.86994 -8
    endloop
  endfacet
  facet normal 0 0 -1
    outer loop
      vertex -16.0215 -7.725 -8
      vertex -14.1952 -6.86994 -8
      vertex -15.259 -7.92931 -8
    endloop
  endfacet
  facet normal 0 0 -1
    outer loop
      vertex -14.7008 -8.4875 -8
      vertex -13.4234 -7.75 -8
      vertex -13.0471 -8.85842 -8
    endloop
  endfacet
  facet normal 0 0 -1
    outer loop
      vertex -14.7008 -10.0125 -8
      vertex -13.0471 -8.85842 -8
      vertex -13.1237 -10.0265 -8
    endloop
  endfacet
  facet normal 0 0 -1
    outer loop
      vertex -15.259 -10.5707 -8
      vertex -13.1237 -10.0265 -8
      vertex -13.6414 -11.0763 -8
    endloop
  endfacet
  facet normal 0 0 -1
    outer loop
      vertex -18.6195 -10.75 -8
      vertex -13.6414 -11.0763 -8
      vertex -14.5215 -11.8481 -8
    endloop
  endfacet
  facet normal 0 0 -1
    outer loop
      vertex -18.6195 -10.75 -8
      vertex -14.5215 -11.8481 -8
      vertex -15.6299 -12.2243 -8
    endloop
  endfacet
  facet normal 0 0 -1
    outer loop
      vertex -18.6195 -10.75 -8
      vertex -15.6299 -12.2243 -8
      vertex -16.7979 -12.1478 -8
    endloop
  endfacet
  facet normal 0 0 -1
    outer loop
      vertex -18.6195 -10.75 -8
      vertex -16.7979 -12.1478 -8
      vertex -17.8478 -11.6301 -8
    endloop
  endfacet
  facet normal 0 0 -1
    outer loop
      vertex -18.6195 -10.75 -8
      vertex -16.413 -6.27567 -8
      vertex -17.3422 -8.4875 -8
    endloop
  endfacet
  facet normal 0 0 -1
    outer loop
      vertex -16.784 -7.92931 -8
      vertex -17.3422 -8.4875 -8
      vertex -15.245 -6.35222 -8
    endloop
  endfacet
  facet normal 0 0 -1
    outer loop
      vertex -18.6195 -10.75 -8
      vertex -17.3422 -8.4875 -8
      vertex -17.5465 -9.25 -8
    endloop
  endfacet
  facet normal 0 0 -1
    outer loop
      vertex -15.259 -10.5707 -8
      vertex -13.6414 -11.0763 -8
      vertex -16.0215 -10.775 -8
    endloop
  endfacet
  facet normal 0 0 -1
    outer loop
      vertex -18.6195 -10.75 -8
      vertex -16.784 -10.5707 -8
      vertex -16.0215 -10.775 -8
    endloop
  endfacet
  facet normal 0 0 -1
    outer loop
      vertex -18.6195 -10.75 -8
      vertex -16.0215 -10.775 -8
      vertex -13.6414 -11.0763 -8
    endloop
  endfacet
  facet normal 0 0 -1
    outer loop
      vertex -14.7008 -10.0125 -8
      vertex -13.1237 -10.0265 -8
      vertex -15.259 -10.5707 -8
    endloop
  endfacet
  facet normal 0 0 -1
    outer loop
      vertex -14.1952 -6.86994 -8
      vertex -13.4234 -7.75 -8
      vertex -14.7008 -8.4875 -8
    endloop
  endfacet
  facet normal 0 0 -1
    outer loop
      vertex -15.259 -7.92931 -8
      vertex -14.1952 -6.86994 -8
      vertex -14.7008 -8.4875 -8
    endloop
  endfacet
  facet normal 0 0 -1
    outer loop
      vertex -14.4965 -9.25 -8
      vertex -13.0471 -8.85842 -8
      vertex -14.7008 -10.0125 -8
    endloop
  endfacet
  facet normal 0 0 -1
    outer loop
      vertex -16.784 -10.5707 -8
      vertex -18.6195 -10.75 -8
      vertex -17.3422 -10.0125 -8
    endloop
  endfacet
  facet normal 0 0 -1
    outer loop
      vertex -14.7008 -8.4875 -8
      vertex -13.0471 -8.85842 -8
      vertex -14.4965 -9.25 -8
    endloop
  endfacet
  facet normal 0 0 -1
    outer loop
      vertex -17.3422 -10.0125 -8
      vertex -18.6195 -10.75 -8
      vertex -17.5465 -9.25 -8
    endloop
  endfacet
  facet normal 0 0 -1
    outer loop
      vertex -16.784 -7.92931 -8
      vertex -15.245 -6.35222 -8
      vertex -16.0215 -7.725 -8
    endloop
  endfacet
  facet normal -0.997859 0.0654037 0
    outer loop
      vertex -18.9958 -9.64158 -8
      vertex -18.9958 -9.64158 8
      vertex -18.9192 -8.47354 -8
    endloop
  endfacet
  facet normal -0.997859 0.0654037 0
    outer loop
      vertex -18.9192 -8.47354 -8
      vertex -18.9958 -9.64158 8
      vertex -18.9192 -8.47354 8
    endloop
  endfacet
  facet normal -0.94693 -0.32144 0
    outer loop
      vertex -18.9958 -9.64158 -8
      vertex -18.6195 -10.75 -8
      vertex -18.9958 -9.64158 8
    endloop
  endfacet
  facet normal -0.94693 -0.32144 0
    outer loop
      vertex -18.9958 -9.64158 8
      vertex -18.6195 -10.75 -8
      vertex -18.6195 -10.75 8
    endloop
  endfacet
  facet normal -0.75184 -0.659346 0
    outer loop
      vertex -18.6195 -10.75 -8
      vertex -17.8478 -11.6301 -8
      vertex -18.6195 -10.75 8
    endloop
  endfacet
  facet normal -0.75184 -0.659346 0
    outer loop
      vertex -18.6195 -10.75 8
      vertex -17.8478 -11.6301 -8
      vertex -17.8478 -11.6301 8
    endloop
  endfacet
  facet normal -0.442288 -0.896873 0
    outer loop
      vertex -17.8478 -11.6301 8
      vertex -17.8478 -11.6301 -8
      vertex -16.7979 -12.1478 -8
    endloop
  endfacet
  facet normal -0.442288 -0.896873 0
    outer loop
      vertex -16.7979 -12.1478 8
      vertex -17.8478 -11.6301 8
      vertex -16.7979 -12.1478 -8
    endloop
  endfacet
  facet normal -0.0654037 -0.997859 0
    outer loop
      vertex -16.7979 -12.1478 8
      vertex -16.7979 -12.1478 -8
      vertex -15.6299 -12.2243 -8
    endloop
  endfacet
  facet normal -0.0654037 -0.997859 0
    outer loop
      vertex -15.6299 -12.2243 8
      vertex -16.7979 -12.1478 8
      vertex -15.6299 -12.2243 -8
    endloop
  endfacet
  facet normal 0.32144 -0.94693 0
    outer loop
      vertex -15.6299 -12.2243 8
      vertex -15.6299 -12.2243 -8
      vertex -14.5215 -11.8481 -8
    endloop
  endfacet
  facet normal 0.32144 -0.94693 0
    outer loop
      vertex -14.5215 -11.8481 8
      vertex -15.6299 -12.2243 8
      vertex -14.5215 -11.8481 -8
    endloop
  endfacet
  facet normal 0.659346 -0.75184 0
    outer loop
      vertex -14.5215 -11.8481 8
      vertex -14.5215 -11.8481 -8
      vertex -13.6414 -11.0763 -8
    endloop
  endfacet
  facet normal 0.659346 -0.75184 0
    outer loop
      vertex -13.6414 -11.0763 8
      vertex -14.5215 -11.8481 8
      vertex -13.6414 -11.0763 -8
    endloop
  endfacet
  facet normal 0.896873 -0.442288 0
    outer loop
      vertex -13.6414 -11.0763 8
      vertex -13.6414 -11.0763 -8
      vertex -13.1237 -10.0265 -8
    endloop
  endfacet
  facet normal 0.896873 -0.442288 0
    outer loop
      vertex -13.1237 -10.0265 8
      vertex -13.6414 -11.0763 8
      vertex -13.1237 -10.0265 -8
    endloop
  endfacet
  facet normal 0.997859 -0.0654037 0
    outer loop
      vertex -13.1237 -10.0265 8
      vertex -13.1237 -10.0265 -8
      vertex -13.0471 -8.85842 -8
    endloop
  endfacet
  facet normal 0.997859 -0.0654037 0
    outer loop
      vertex -13.0471 -8.85842 8
      vertex -13.1237 -10.0265 8
      vertex -13.0471 -8.85842 -8
    endloop
  endfacet
  facet normal 0.94693 0.32144 0
    outer loop
      vertex -13.0471 -8.85842 -8
      vertex -13.4234 -7.75 -8
      vertex -13.4234 -7.75 8
    endloop
  endfacet
  facet normal 0.94693 0.32144 0
    outer loop
      vertex -13.0471 -8.85842 8
      vertex -13.0471 -8.85842 -8
      vertex -13.4234 -7.75 8
    endloop
  endfacet
  facet normal 0.75184 0.659346 0
    outer loop
      vertex -13.4234 -7.75 -8
      vertex -14.1952 -6.86994 -8
      vertex -14.1952 -6.86994 8
    endloop
  endfacet
  facet normal 0.75184 0.659346 0
    outer loop
      vertex -13.4234 -7.75 8
      vertex -13.4234 -7.75 -8
      vertex -14.1952 -6.86994 8
    endloop
  endfacet
  facet normal 0.442288 0.896873 0
    outer loop
      vertex -15.245 -6.35222 -8
      vertex -15.245 -6.35222 8
      vertex -14.1952 -6.86994 -8
    endloop
  endfacet
  facet normal 0.442288 0.896873 0
    outer loop
      vertex -14.1952 -6.86994 -8
      vertex -15.245 -6.35222 8
      vertex -14.1952 -6.86994 8
    endloop
  endfacet
  facet normal 0.0654037 0.997859 0
    outer loop
      vertex -16.413 -6.27567 -8
      vertex -16.413 -6.27567 8
      vertex -15.245 -6.35222 -8
    endloop
  endfacet
  facet normal 0.0654037 0.997859 0
    outer loop
      vertex -15.245 -6.35222 -8
      vertex -16.413 -6.27567 8
      vertex -15.245 -6.35222 8
    endloop
  endfacet
  facet normal -0.32144 0.94693 0
    outer loop
      vertex -17.5215 -6.65192 -8
      vertex -17.5215 -6.65192 8
      vertex -16.413 -6.27567 -8
    endloop
  endfacet
  facet normal -0.32144 0.94693 0
    outer loop
      vertex -16.413 -6.27567 -8
      vertex -17.5215 -6.65192 8
      vertex -16.413 -6.27567 8
    endloop
  endfacet
  facet normal -0.659346 0.75184 0
    outer loop
      vertex -18.4015 -7.42372 -8
      vertex -18.4015 -7.42372 8
      vertex -17.5215 -6.65192 -8
    endloop
  endfacet
  facet normal -0.659346 0.75184 0
    outer loop
      vertex -17.5215 -6.65192 -8
      vertex -18.4015 -7.42372 8
      vertex -17.5215 -6.65192 8
    endloop
  endfacet
  facet normal -0.896873 0.442288 0
    outer loop
      vertex -18.9192 -8.47354 -8
      vertex -18.9192 -8.47354 8
      vertex -18.4015 -7.42372 -8
    endloop
  endfacet
  facet normal -0.896873 0.442288 0
    outer loop
      vertex -18.4015 -7.42372 -8
      vertex -18.9192 -8.47354 8
      vertex -18.4015 -7.42372 8
    endloop
  endfacet
  facet normal 0.965926 -0.258819 0
    outer loop
      vertex -17.3422 -8.4875 -8
      vertex -17.3422 -8.4875 8
      vertex -17.5465 -9.25 8
    endloop
  endfacet
  facet normal 0.965926 -0.258819 0
    outer loop
      vertex -17.5465 -9.25 -8
      vertex -17.3422 -8.4875 -8
      vertex -17.5465 -9.25 8
    endloop
  endfacet
  facet normal 0.707107 -0.707107 0
    outer loop
      vertex -16.784 -7.92931 -8
      vertex -16.784 -7.92931 8
      vertex -17.3422 -8.4875 8
    endloop
  endfacet
  facet normal 0.707107 -0.707107 0
    outer loop
      vertex -17.3422 -8.4875 -8
      vertex -16.784 -7.92931 -8
      vertex -17.3422 -8.4875 8
    endloop
  endfacet
  facet normal 0.258819 -0.965926 0
    outer loop
      vertex -16.0215 -7.725 -8
      vertex -16.0215 -7.725 8
      vertex -16.784 -7.92931 8
    endloop
  endfacet
  facet normal 0.258819 -0.965926 0
    outer loop
      vertex -16.784 -7.92931 -8
      vertex -16.0215 -7.725 -8
      vertex -16.784 -7.92931 8
    endloop
  endfacet
  facet normal -0.258819 -0.965926 0
    outer loop
      vertex -15.259 -7.92931 -8
      vertex -15.259 -7.92931 8
      vertex -16.0215 -7.725 8
    endloop
  endfacet
  facet normal -0.258819 -0.965926 0
    outer loop
      vertex -16.0215 -7.725 -8
      vertex -15.259 -7.92931 -8
      vertex -16.0215 -7.725 8
    endloop
  endfacet
  facet normal -0.707107 -0.707107 0
    outer loop
      vertex -14.7008 -8.4875 8
      vertex -15.259 -7.92931 8
      vertex -14.7008 -8.4875 -8
    endloop
  endfacet
  facet normal -0.707107 -0.707107 0
    outer loop
      vertex -14.7008 -8.4875 -8
      vertex -15.259 -7.92931 8
      vertex -15.259 -7.92931 -8
    endloop
  endfacet
  facet normal -0.965926 -0.258819 0
    outer loop
      vertex -14.4965 -9.25 8
      vertex -14.7008 -8.4875 8
      vertex -14.4965 -9.25 -8
    endloop
  endfacet
  facet normal -0.965926 -0.258819 0
    outer loop
      vertex -14.4965 -9.25 -8
      vertex -14.7008 -8.4875 8
      vertex -14.7008 -8.4875 -8
    endloop
  endfacet
  facet normal -0.965926 0.258819 0
    outer loop
      vertex -14.4965 -9.25 8
      vertex -14.4965 -9.25 -8
      vertex -14.7008 -10.0125 8
    endloop
  endfacet
  facet normal -0.965926 0.258819 0
    outer loop
      vertex -14.7008 -10.0125 8
      vertex -14.4965 -9.25 -8
      vertex -14.7008 -10.0125 -8
    endloop
  endfacet
  facet normal -0.707107 0.707107 0
    outer loop
      vertex -14.7008 -10.0125 8
      vertex -14.7008 -10.0125 -8
      vertex -15.259 -10.5707 8
    endloop
  endfacet
  facet normal -0.707107 0.707107 0
    outer loop
      vertex -15.259 -10.5707 8
      vertex -14.7008 -10.0125 -8
      vertex -15.259 -10.5707 -8
    endloop
  endfacet
  facet normal -0.258819 0.965926 0
    outer loop
      vertex -15.259 -10.5707 8
      vertex -15.259 -10.5707 -8
      vertex -16.0215 -10.775 8
    endloop
  endfacet
  facet normal -0.258819 0.965926 0
    outer loop
      vertex -16.0215 -10.775 8
      vertex -15.259 -10.5707 -8
      vertex -16.0215 -10.775 -8
    endloop
  endfacet
  facet normal 0.258819 0.965926 0
    outer loop
      vertex -16.0215 -10.775 8
      vertex -16.0215 -10.775 -8
      vertex -16.784 -10.5707 8
    endloop
  endfacet
  facet normal 0.258819 0.965926 0
    outer loop
      vertex -16.784 -10.5707 8
      vertex -16.0215 -10.775 -8
      vertex -16.784 -10.5707 -8
    endloop
  endfacet
  facet normal 0.707107 0.707107 0
    outer loop
      vertex -17.3422 -10.0125 8
      vertex -16.784 -10.5707 8
      vertex -16.784 -10.5707 -8
    endloop
  endfacet
  facet normal 0.707107 0.707107 0
    outer loop
      vertex -17.3422 -10.0125 -8
      vertex -17.3422 -10.0125 8
      vertex -16.784 -10.5707 -8
    endloop
  endfacet
  facet normal 0.965926 0.258819 0
    outer loop
      vertex -17.5465 -9.25 8
      vertex -17.3422 -10.0125 8
      vertex -17.3422 -10.0125 -8
    endloop
  endfacet
  facet normal 0.965926 0.258819 0
    outer loop
      vertex -17.5465 -9.25 -8
      vertex -17.5465 -9.25 8
      vertex -17.3422 -10.0125 -8
    endloop
  endfacet
  facet normal 0 0 1
    outer loop
      vertex -18.9192 -8.47354 8
      vertex -18.9958 -9.64158 8
      vertex -18.6195 -10.75 8
    endloop
  endfacet
  facet normal 0 0 1
    outer loop
      vertex -16.7979 -12.1478 8
      vertex -18.9192 -8.47354 8
      vertex -17.8478 -11.6301 8
    endloop
  endfacet
  facet normal 0 0 1
    outer loop
      vertex -17.8478 -11.6301 8
      vertex -18.9192 -8.47354 8
      vertex -18.6195 -10.75 8
    endloop
  endfacet
  facet normal 0 0 1
    outer loop
      vertex -15.6299 -12.2243 8
      vertex -18.9192 -8.47354 8
      vertex -16.7979 -12.1478 8
    endloop
  endfacet
  facet normal 0 0 1
    outer loop
      vertex -16.784 -10.5707 8
      vertex -18.9192 -8.47354 8
      vertex -15.6299 -12.2243 8
    endloop
  endfacet
  facet normal 0 0 1
    outer loop
      vertex -17.3422 -8.4875 8
      vertex -16.784 -7.92931 8
      vertex -18.9192 -8.47354 8
    endloop
  endfacet
  facet normal 0 0 1
    outer loop
      vertex -14.7008 -8.4875 8
      vertex -14.4965 -9.25 8
      vertex -13.0471 -8.85842 8
    endloop
  endfacet
  facet normal 0 0 1
    outer loop
      vertex -16.0215 -7.725 8
      vertex -15.259 -7.92931 8
      vertex -13.4234 -7.75 8
    endloop
  endfacet
  facet normal 0 0 1
    outer loop
      vertex -15.245 -6.35222 8
      vertex -18.9192 -8.47354 8
      vertex -14.1952 -6.86994 8
    endloop
  endfacet
  facet normal 0 0 1
    outer loop
      vertex -16.413 -6.27567 8
      vertex -18.9192 -8.47354 8
      vertex -15.245 -6.35222 8
    endloop
  endfacet
  facet normal 0 0 1
    outer loop
      vertex -17.5215 -6.65192 8
      vertex -18.9192 -8.47354 8
      vertex -16.413 -6.27567 8
    endloop
  endfacet
  facet normal 0 0 1
    outer loop
      vertex -18.4015 -7.42372 8
      vertex -18.9192 -8.47354 8
      vertex -17.5215 -6.65192 8
    endloop
  endfacet
  facet normal 0 0 1
    outer loop
      vertex -14.4965 -9.25 8
      vertex -14.7008 -10.0125 8
      vertex -13.1237 -10.0265 8
    endloop
  endfacet
  facet normal 0 0 1
    outer loop
      vertex -14.7008 -10.0125 8
      vertex -15.259 -10.5707 8
      vertex -13.6414 -11.0763 8
    endloop
  endfacet
  facet normal 0 0 1
    outer loop
      vertex -15.259 -7.92931 8
      vertex -14.7008 -8.4875 8
      vertex -13.4234 -7.75 8
    endloop
  endfacet
  facet normal 0 0 1
    outer loop
      vertex -14.1952 -6.86994 8
      vertex -18.9192 -8.47354 8
      vertex -16.784 -7.92931 8
    endloop
  endfacet
  facet normal 0 0 1
    outer loop
      vertex -14.1952 -6.86994 8
      vertex -16.0215 -7.725 8
      vertex -13.4234 -7.75 8
    endloop
  endfacet
  facet normal 0 0 1
    outer loop
      vertex -14.1952 -6.86994 8
      vertex -16.784 -7.92931 8
      vertex -16.0215 -7.725 8
    endloop
  endfacet
  facet normal 0 0 1
    outer loop
      vertex -13.4234 -7.75 8
      vertex -14.7008 -8.4875 8
      vertex -13.0471 -8.85842 8
    endloop
  endfacet
  facet normal 0 0 1
    outer loop
      vertex -13.0471 -8.85842 8
      vertex -14.4965 -9.25 8
      vertex -13.1237 -10.0265 8
    endloop
  endfacet
  facet normal 0 0 1
    outer loop
      vertex -13.1237 -10.0265 8
      vertex -14.7008 -10.0125 8
      vertex -13.6414 -11.0763 8
    endloop
  endfacet
  facet normal 0 0 1
    outer loop
      vertex -13.6414 -11.0763 8
      vertex -15.259 -10.5707 8
      vertex -14.5215 -11.8481 8
    endloop
  endfacet
  facet normal 0 0 1
    outer loop
      vertex -14.5215 -11.8481 8
      vertex -16.0215 -10.775 8
      vertex -15.6299 -12.2243 8
    endloop
  endfacet
  facet normal 0 0 1
    outer loop
      vertex -16.0215 -10.775 8
      vertex -16.784 -10.5707 8
      vertex -15.6299 -12.2243 8
    endloop
  endfacet
  facet normal 0 0 1
    outer loop
      vertex -17.3422 -10.0125 8
      vertex -18.9192 -8.47354 8
      vertex -16.784 -10.5707 8
    endloop
  endfacet
  facet normal 0 0 1
    outer loop
      vertex -17.3422 -10.0125 8
      vertex -17.5465 -9.25 8
      vertex -18.9192 -8.47354 8
    endloop
  endfacet
  facet normal 0 0 1
    outer loop
      vertex -15.259 -10.5707 8
      vertex -16.0215 -10.775 8
      vertex -14.5215 -11.8481 8
    endloop
  endfacet
  facet normal 0 0 1
    outer loop
      vertex -17.5465 -9.25 8
      vertex -17.3422 -8.4875 8
      vertex -18.9192 -8.47354 8
    endloop
  endfacet
  facet normal 0 0 -1
    outer loop
      vertex 13.0471 -8.85842 -8
      vertex 13.4234 -7.75 -8
      vertex 13.1237 -10.0265 -8
    endloop
  endfacet
  facet normal 0 0 -1
    outer loop
      vertex 13.1237 -10.0265 -8
      vertex 13.4234 -7.75 -8
      vertex 14.1952 -6.86994 -8
    endloop
  endfacet
  facet normal 0 0 -1
    outer loop
      vertex 13.1237 -10.0265 -8
      vertex 14.1952 -6.86994 -8
      vertex 15.245 -6.35222 -8
    endloop
  endfacet
  facet normal 0 0 -1
    outer loop
      vertex 13.1237 -10.0265 -8
      vertex 15.245 -6.35222 -8
      vertex 16.413 -6.27567 -8
    endloop
  endfacet
  facet normal 0 0 -1
    outer loop
      vertex 16.0215 -7.725 -8
      vertex 16.413 -6.27567 -8
      vertex 17.5215 -6.65192 -8
    endloop
  endfacet
  facet normal 0 0 -1
    outer loop
      vertex 16.784 -7.92931 -8
      vertex 17.5215 -6.65192 -8
      vertex 18.4015 -7.42372 -8
    endloop
  endfacet
  facet normal 0 0 -1
    outer loop
      vertex 17.3422 -8.4875 -8
      vertex 18.4015 -7.42372 -8
      vertex 18.9192 -8.47354 -8
    endloop
  endfacet
  facet normal 0 0 -1
    outer loop
      vertex 17.5465 -9.25 -8
      vertex 18.9192 -8.47354 -8
      vertex 18.9958 -9.64158 -8
    endloop
  endfacet
  facet normal 0 0 -1
    outer loop
      vertex 17.3422 -10.0125 -8
      vertex 18.9958 -9.64158 -8
      vertex 18.6195 -10.75 -8
    endloop
  endfacet
  facet normal 0 0 -1
    outer loop
      vertex 16.0215 -10.775 -8
      vertex 18.6195 -10.75 -8
      vertex 17.8478 -11.6301 -8
    endloop
  endfacet
  facet normal 0 0 -1
    outer loop
      vertex 13.1237 -10.0265 -8
      vertex 17.8478 -11.6301 -8
      vertex 16.7979 -12.1478 -8
    endloop
  endfacet
  facet normal 0 0 -1
    outer loop
      vertex 13.1237 -10.0265 -8
      vertex 16.7979 -12.1478 -8
      vertex 15.6299 -12.2243 -8
    endloop
  endfacet
  facet normal 0 0 -1
    outer loop
      vertex 13.1237 -10.0265 -8
      vertex 15.6299 -12.2243 -8
      vertex 14.5215 -11.8481 -8
    endloop
  endfacet
  facet normal 0 0 -1
    outer loop
      vertex 13.1237 -10.0265 -8
      vertex 14.5215 -11.8481 -8
      vertex 13.6414 -11.0763 -8
    endloop
  endfacet
  facet normal 0 0 -1
    outer loop
      vertex 14.7008 -10.0125 -8
      vertex 13.1237 -10.0265 -8
      vertex 14.4965 -9.25 -8
    endloop
  endfacet
  facet normal 0 0 -1
    outer loop
      vertex 15.259 -10.5707 -8
      vertex 13.1237 -10.0265 -8
      vertex 14.7008 -10.0125 -8
    endloop
  endfacet
  facet normal 0 0 -1
    outer loop
      vertex 17.3422 -10.0125 -8
      vertex 18.6195 -10.75 -8
      vertex 16.784 -10.5707 -8
    endloop
  endfacet
  facet normal 0 0 -1
    outer loop
      vertex 13.1237 -10.0265 -8
      vertex 15.259 -10.5707 -8
      vertex 17.8478 -11.6301 -8
    endloop
  endfacet
  facet normal 0 0 -1
    outer loop
      vertex 15.259 -10.5707 -8
      vertex 16.0215 -10.775 -8
      vertex 17.8478 -11.6301 -8
    endloop
  endfacet
  facet normal 0 0 -1
    outer loop
      vertex 16.784 -10.5707 -8
      vertex 18.6195 -10.75 -8
      vertex 16.0215 -10.775 -8
    endloop
  endfacet
  facet normal 0 0 -1
    outer loop
      vertex 17.5465 -9.25 -8
      vertex 18.9958 -9.64158 -8
      vertex 17.3422 -10.0125 -8
    endloop
  endfacet
  facet normal 0 0 -1
    outer loop
      vertex 16.0215 -7.725 -8
      vertex 17.5215 -6.65192 -8
      vertex 16.784 -7.92931 -8
    endloop
  endfacet
  facet normal 0 0 -1
    outer loop
      vertex 15.259 -7.92931 -8
      vertex 16.413 -6.27567 -8
      vertex 16.0215 -7.725 -8
    endloop
  endfacet
  facet normal 0 0 -1
    outer loop
      vertex 13.1237 -10.0265 -8
      vertex 16.413 -6.27567 -8
      vertex 15.259 -7.92931 -8
    endloop
  endfacet
  facet normal 0 0 -1
    outer loop
      vertex 13.1237 -10.0265 -8
      vertex 15.259 -7.92931 -8
      vertex 14.7008 -8.4875 -8
    endloop
  endfacet
  facet normal 0 0 -1
    outer loop
      vertex 16.784 -7.92931 -8
      vertex 18.4015 -7.42372 -8
      vertex 17.3422 -8.4875 -8
    endloop
  endfacet
  facet normal 0 0 -1
    outer loop
      vertex 14.4965 -9.25 -8
      vertex 13.1237 -10.0265 -8
      vertex 14.7008 -8.4875 -8
    endloop
  endfacet
  facet normal 0 0 -1
    outer loop
      vertex 17.3422 -8.4875 -8
      vertex 18.9192 -8.47354 -8
      vertex 17.5465 -9.25 -8
    endloop
  endfacet
  facet normal -0.94693 0.32144 0
    outer loop
      vertex 13.0471 -8.85842 -8
      vertex 13.0471 -8.85842 8
      vertex 13.4234 -7.75 -8
    endloop
  endfacet
  facet normal -0.94693 0.32144 0
    outer loop
      vertex 13.4234 -7.75 -8
      vertex 13.0471 -8.85842 8
      vertex 13.4234 -7.75 8
    endloop
  endfacet
  facet normal -0.997859 -0.0654037 0
    outer loop
      vertex 13.0471 -8.85842 -8
      vertex 13.1237 -10.0265 -8
      vertex 13.0471 -8.85842 8
    endloop
  endfacet
  facet normal -0.997859 -0.0654037 0
    outer loop
      vertex 13.0471 -8.85842 8
      vertex 13.1237 -10.0265 -8
      vertex 13.1237 -10.0265 8
    endloop
  endfacet
  facet normal -0.896873 -0.442288 0
    outer loop
      vertex 13.1237 -10.0265 -8
      vertex 13.6414 -11.0763 -8
      vertex 13.1237 -10.0265 8
    endloop
  endfacet
  facet normal -0.896873 -0.442288 0
    outer loop
      vertex 13.1237 -10.0265 8
      vertex 13.6414 -11.0763 -8
      vertex 13.6414 -11.0763 8
    endloop
  endfacet
  facet normal -0.659346 -0.75184 0
    outer loop
      vertex 13.6414 -11.0763 8
      vertex 13.6414 -11.0763 -8
      vertex 14.5215 -11.8481 -8
    endloop
  endfacet
  facet normal -0.659346 -0.75184 0
    outer loop
      vertex 14.5215 -11.8481 8
      vertex 13.6414 -11.0763 8
      vertex 14.5215 -11.8481 -8
    endloop
  endfacet
  facet normal -0.32144 -0.94693 0
    outer loop
      vertex 14.5215 -11.8481 8
      vertex 14.5215 -11.8481 -8
      vertex 15.6299 -12.2243 -8
    endloop
  endfacet
  facet normal -0.32144 -0.94693 0
    outer loop
      vertex 15.6299 -12.2243 8
      vertex 14.5215 -11.8481 8
      vertex 15.6299 -12.2243 -8
    endloop
  endfacet
  facet normal 0.0654037 -0.997859 0
    outer loop
      vertex 15.6299 -12.2243 8
      vertex 15.6299 -12.2243 -8
      vertex 16.7979 -12.1478 -8
    endloop
  endfacet
  facet normal 0.0654037 -0.997859 0
    outer loop
      vertex 16.7979 -12.1478 8
      vertex 15.6299 -12.2243 8
      vertex 16.7979 -12.1478 -8
    endloop
  endfacet
  facet normal 0.442288 -0.896873 0
    outer loop
      vertex 16.7979 -12.1478 8
      vertex 16.7979 -12.1478 -8
      vertex 17.8478 -11.6301 -8
    endloop
  endfacet
  facet normal 0.442288 -0.896873 0
    outer loop
      vertex 17.8478 -11.6301 8
      vertex 16.7979 -12.1478 8
      vertex 17.8478 -11.6301 -8
    endloop
  endfacet
  facet normal 0.75184 -0.659346 0
    outer loop
      vertex 17.8478 -11.6301 8
      vertex 17.8478 -11.6301 -8
      vertex 18.6195 -10.75 -8
    endloop
  endfacet
  facet normal 0.75184 -0.659346 0
    outer loop
      vertex 18.6195 -10.75 8
      vertex 17.8478 -11.6301 8
      vertex 18.6195 -10.75 -8
    endloop
  endfacet
  facet normal 0.94693 -0.32144 0
    outer loop
      vertex 18.6195 -10.75 8
      vertex 18.6195 -10.75 -8
      vertex 18.9958 -9.64158 -8
    endloop
  endfacet
  facet normal 0.94693 -0.32144 0
    outer loop
      vertex 18.9958 -9.64158 8
      vertex 18.6195 -10.75 8
      vertex 18.9958 -9.64158 -8
    endloop
  endfacet
  facet normal 0.997859 0.0654037 0
    outer loop
      vertex 18.9958 -9.64158 -8
      vertex 18.9192 -8.47354 -8
      vertex 18.9192 -8.47354 8
    endloop
  endfacet
  facet normal 0.997859 0.0654037 0
    outer loop
      vertex 18.9958 -9.64158 8
      vertex 18.9958 -9.64158 -8
      vertex 18.9192 -8.47354 8
    endloop
  endfacet
  facet normal 0.896873 0.442288 0
    outer loop
      vertex 18.9192 -8.47354 -8
      vertex 18.4015 -7.42372 -8
      vertex 18.4015 -7.42372 8
    endloop
  endfacet
  facet normal 0.896873 0.442288 0
    outer loop
      vertex 18.9192 -8.47354 8
      vertex 18.9192 -8.47354 -8
      vertex 18.4015 -7.42372 8
    endloop
  endfacet
  facet normal 0.659346 0.75184 0
    outer loop
      vertex 17.5215 -6.65192 -8
      vertex 17.5215 -6.65192 8
      vertex 18.4015 -7.42372 -8
    endloop
  endfacet
  facet normal 0.659346 0.75184 0
    outer loop
      vertex 18.4015 -7.42372 -8
      vertex 17.5215 -6.65192 8
      vertex 18.4015 -7.42372 8
    endloop
  endfacet
  facet normal 0.32144 0.94693 0
    outer loop
      vertex 16.413 -6.27567 -8
      vertex 16.413 -6.27567 8
      vertex 17.5215 -6.65192 -8
    endloop
  endfacet
  facet normal 0.32144 0.94693 0
    outer loop
      vertex 17.5215 -6.65192 -8
      vertex 16.413 -6.27567 8
      vertex 17.5215 -6.65192 8
    endloop
  endfacet
  facet normal -0.0654037 0.997859 0
    outer loop
      vertex 15.245 -6.35222 -8
      vertex 15.245 -6.35222 8
      vertex 16.413 -6.27567 -8
    endloop
  endfacet
  facet normal -0.0654037 0.997859 0
    outer loop
      vertex 16.413 -6.27567 -8
      vertex 15.245 -6.35222 8
      vertex 16.413 -6.27567 8
    endloop
  endfacet
  facet normal -0.442288 0.896873 0
    outer loop
      vertex 14.1952 -6.86994 -8
      vertex 14.1952 -6.86994 8
      vertex 15.245 -6.35222 -8
    endloop
  endfacet
  facet normal -0.442288 0.896873 0
    outer loop
      vertex 15.245 -6.35222 -8
      vertex 14.1952 -6.86994 8
      vertex 15.245 -6.35222 8
    endloop
  endfacet
  facet normal -0.75184 0.659346 0
    outer loop
      vertex 13.4234 -7.75 -8
      vertex 13.4234 -7.75 8
      vertex 14.1952 -6.86994 -8
    endloop
  endfacet
  facet normal -0.75184 0.659346 0
    outer loop
      vertex 14.1952 -6.86994 -8
      vertex 13.4234 -7.75 8
      vertex 14.1952 -6.86994 8
    endloop
  endfacet
  facet normal 0.965926 0.258819 0
    outer loop
      vertex 14.4965 -9.25 8
      vertex 14.7008 -10.0125 8
      vertex 14.7008 -10.0125 -8
    endloop
  endfacet
  facet normal 0.965926 0.258819 0
    outer loop
      vertex 14.4965 -9.25 -8
      vertex 14.4965 -9.25 8
      vertex 14.7008 -10.0125 -8
    endloop
  endfacet
  facet normal 0.965926 -0.258819 0
    outer loop
      vertex 14.7008 -8.4875 -8
      vertex 14.7008 -8.4875 8
      vertex 14.4965 -9.25 8
    endloop
  endfacet
  facet normal 0.965926 -0.258819 0
    outer loop
      vertex 14.4965 -9.25 -8
      vertex 14.7008 -8.4875 -8
      vertex 14.4965 -9.25 8
    endloop
  endfacet
  facet normal 0.707107 -0.707107 0
    outer loop
      vertex 15.259 -7.92931 -8
      vertex 15.259 -7.92931 8
      vertex 14.7008 -8.4875 8
    endloop
  endfacet
  facet normal 0.707107 -0.707107 0
    outer loop
      vertex 14.7008 -8.4875 -8
      vertex 15.259 -7.92931 -8
      vertex 14.7008 -8.4875 8
    endloop
  endfacet
  facet normal 0.258819 -0.965926 0
    outer loop
      vertex 16.0215 -7.725 -8
      vertex 16.0215 -7.725 8
      vertex 15.259 -7.92931 8
    endloop
  endfacet
  facet normal 0.258819 -0.965926 0
    outer loop
      vertex 15.259 -7.92931 -8
      vertex 16.0215 -7.725 -8
      vertex 15.259 -7.92931 8
    endloop
  endfacet
  facet normal -0.258819 -0.965926 0
    outer loop
      vertex 16.784 -7.92931 -8
      vertex 16.784 -7.92931 8
      vertex 16.0215 -7.725 8
    endloop
  endfacet
  facet normal -0.258819 -0.965926 0
    outer loop
      vertex 16.0215 -7.725 -8
      vertex 16.784 -7.92931 -8
      vertex 16.0215 -7.725 8
    endloop
  endfacet
  facet normal -0.707107 -0.707107 0
    outer loop
      vertex 17.3422 -8.4875 -8
      vertex 17.3422 -8.4875 8
      vertex 16.784 -7.92931 8
    endloop
  endfacet
  facet normal -0.707107 -0.707107 0
    outer loop
      vertex 16.784 -7.92931 -8
      vertex 17.3422 -8.4875 -8
      vertex 16.784 -7.92931 8
    endloop
  endfacet
  facet normal -0.965926 -0.258819 0
    outer loop
      vertex 17.5465 -9.25 8
      vertex 17.3422 -8.4875 8
      vertex 17.5465 -9.25 -8
    endloop
  endfacet
  facet normal -0.965926 -0.258819 0
    outer loop
      vertex 17.5465 -9.25 -8
      vertex 17.3422 -8.4875 8
      vertex 17.3422 -8.4875 -8
    endloop
  endfacet
  facet normal -0.965926 0.258819 0
    outer loop
      vertex 17.5465 -9.25 8
      vertex 17.5465 -9.25 -8
      vertex 17.3422 -10.0125 8
    endloop
  endfacet
  facet normal -0.965926 0.258819 0
    outer loop
      vertex 17.3422 -10.0125 8
      vertex 17.5465 -9.25 -8
      vertex 17.3422 -10.0125 -8
    endloop
  endfacet
  facet normal -0.707107 0.707107 0
    outer loop
      vertex 17.3422 -10.0125 8
      vertex 17.3422 -10.0125 -8
      vertex 16.784 -10.5707 8
    endloop
  endfacet
  facet normal -0.707107 0.707107 0
    outer loop
      vertex 16.784 -10.5707 8
      vertex 17.3422 -10.0125 -8
      vertex 16.784 -10.5707 -8
    endloop
  endfacet
  facet normal -0.258819 0.965926 0
    outer loop
      vertex 16.784 -10.5707 8
      vertex 16.784 -10.5707 -8
      vertex 16.0215 -10.775 8
    endloop
  endfacet
  facet normal -0.258819 0.965926 0
    outer loop
      vertex 16.0215 -10.775 8
      vertex 16.784 -10.5707 -8
      vertex 16.0215 -10.775 -8
    endloop
  endfacet
  facet normal 0.258819 0.965926 0
    outer loop
      vertex 16.0215 -10.775 8
      vertex 16.0215 -10.775 -8
      vertex 15.259 -10.5707 8
    endloop
  endfacet
  facet normal 0.258819 0.965926 0
    outer loop
      vertex 15.259 -10.5707 8
      vertex 16.0215 -10.775 -8
      vertex 15.259 -10.5707 -8
    endloop
  endfacet
  facet normal 0.707107 0.707107 0
    outer loop
      vertex 15.259 -10.5707 8
      vertex 15.259 -10.5707 -8
      vertex 14.7008 -10.0125 8
    endloop
  endfacet
  facet normal 0.707107 0.707107 0
    outer loop
      vertex 14.7008 -10.0125 8
      vertex 15.259 -10.5707 -8
      vertex 14.7008 -10.0125 -8
    endloop
  endfacet
  facet normal 0 0 1
    outer loop
      vertex 13.4234 -7.75 8
      vertex 13.0471 -8.85842 8
      vertex 13.1237 -10.0265 8
    endloop
  endfacet
  facet normal 0 0 1
    outer loop
      vertex 14.5215 -11.8481 8
      vertex 13.4234 -7.75 8
      vertex 13.6414 -11.0763 8
    endloop
  endfacet
  facet normal 0 0 1
    outer loop
      vertex 13.6414 -11.0763 8
      vertex 13.4234 -7.75 8
      vertex 13.1237 -10.0265 8
    endloop
  endfacet
  facet normal 0 0 1
    outer loop
      vertex 15.6299 -12.2243 8
      vertex 13.4234 -7.75 8
      vertex 14.5215 -11.8481 8
    endloop
  endfacet
  facet normal 0 0 1
    outer loop
      vertex 14.7008 -10.0125 8
      vertex 13.4234 -7.75 8
      vertex 15.6299 -12.2243 8
    endloop
  endfacet
  facet normal 0 0 1
    outer loop
      vertex 18.6195 -10.75 8
      vertex 17.3422 -10.0125 8
      vertex 17.8478 -11.6301 8
    endloop
  endfacet
  facet normal 0 0 1
    outer loop
      vertex 17.5465 -9.25 8
      vertex 17.3422 -10.0125 8
      vertex 18.9958 -9.64158 8
    endloop
  endfacet
  facet normal 0 0 1
    outer loop
      vertex 16.0215 -10.775 8
      vertex 15.259 -10.5707 8
      vertex 16.7979 -12.1478 8
    endloop
  endfacet
  facet normal 0 0 1
    outer loop
      vertex 17.5215 -6.65192 8
      vertex 13.4234 -7.75 8
      vertex 18.4015 -7.42372 8
    endloop
  endfacet
  facet normal 0 0 1
    outer loop
      vertex 16.413 -6.27567 8
      vertex 13.4234 -7.75 8
      vertex 17.5215 -6.65192 8
    endloop
  endfacet
  facet normal 0 0 1
    outer loop
      vertex 15.245 -6.35222 8
      vertex 13.4234 -7.75 8
      vertex 16.413 -6.27567 8
    endloop
  endfacet
  facet normal 0 0 1
    outer loop
      vertex 14.1952 -6.86994 8
      vertex 13.4234 -7.75 8
      vertex 15.245 -6.35222 8
    endloop
  endfacet
  facet normal 0 0 1
    outer loop
      vertex 16.7979 -12.1478 8
      vertex 14.7008 -10.0125 8
      vertex 15.6299 -12.2243 8
    endloop
  endfacet
  facet normal 0 0 1
    outer loop
      vertex 14.4965 -9.25 8
      vertex 13.4234 -7.75 8
      vertex 14.7008 -10.0125 8
    endloop
  endfacet
  facet normal 0 0 1
    outer loop
      vertex 14.7008 -8.4875 8
      vertex 15.259 -7.92931 8
      vertex 13.4234 -7.75 8
    endloop
  endfacet
  facet normal 0 0 1
    outer loop
      vertex 17.3422 -8.4875 8
      vertex 17.5465 -9.25 8
      vertex 18.9958 -9.64158 8
    endloop
  endfacet
  facet normal 0 0 1
    outer loop
      vertex 16.0215 -7.725 8
      vertex 13.4234 -7.75 8
      vertex 15.259 -7.92931 8
    endloop
  endfacet
  facet normal 0 0 1
    outer loop
      vertex 16.784 -7.92931 8
      vertex 17.3422 -8.4875 8
      vertex 18.9192 -8.47354 8
    endloop
  endfacet
  facet normal 0 0 1
    outer loop
      vertex 18.4015 -7.42372 8
      vertex 13.4234 -7.75 8
      vertex 16.0215 -7.725 8
    endloop
  endfacet
  facet normal 0 0 1
    outer loop
      vertex 18.4015 -7.42372 8
      vertex 16.784 -7.92931 8
      vertex 18.9192 -8.47354 8
    endloop
  endfacet
  facet normal 0 0 1
    outer loop
      vertex 18.9192 -8.47354 8
      vertex 17.3422 -8.4875 8
      vertex 18.9958 -9.64158 8
    endloop
  endfacet
  facet normal 0 0 1
    outer loop
      vertex 16.0215 -7.725 8
      vertex 16.784 -7.92931 8
      vertex 18.4015 -7.42372 8
    endloop
  endfacet
  facet normal 0 0 1
    outer loop
      vertex 17.3422 -10.0125 8
      vertex 16.784 -10.5707 8
      vertex 17.8478 -11.6301 8
    endloop
  endfacet
  facet normal 0 0 1
    outer loop
      vertex 18.9958 -9.64158 8
      vertex 17.3422 -10.0125 8
      vertex 18.6195 -10.75 8
    endloop
  endfacet
  facet normal 0 0 1
    outer loop
      vertex 17.8478 -11.6301 8
      vertex 16.0215 -10.775 8
      vertex 16.7979 -12.1478 8
    endloop
  endfacet
  facet normal 0 0 1
    outer loop
      vertex 16.7979 -12.1478 8
      vertex 15.259 -10.5707 8
      vertex 14.7008 -10.0125 8
    endloop
  endfacet
  facet normal 0 0 1
    outer loop
      vertex 16.784 -10.5707 8
      vertex 16.0215 -10.775 8
      vertex 17.8478 -11.6301 8
    endloop
  endfacet
  facet normal 0 0 1
    outer loop
      vertex 14.4965 -9.25 8
      vertex 14.7008 -8.4875 8
      vertex 13.4234 -7.75 8
    endloop
  endfacet
endsolid OpenSCAD_Model
