solid OpenSCAD_Model
  facet normal -1 0 0
    outer loop
      vertex -23 55 1.11022e-15
      vertex -23 55 15
      vertex -23 60 0
    endloop
  endfacet
  facet normal -1 0 0
    outer loop
      vertex -23 60 0
      vertex -23 55 15
      vertex -23 60 15
    endloop
  endfacet
  facet normal 0 -1 2.22045e-16
    outer loop
      vertex -17.8 55 3.61436
      vertex -23 55 1.11022e-15
      vertex -12 55 1.11022e-15
    endloop
  endfacet
  facet normal 0 -1 2.22045e-16
    outer loop
      vertex -3 55 15
      vertex -23 55 15
      vertex -12 55 15
    endloop
  endfacet
  facet normal 0 -1 2.22045e-16
    outer loop
      vertex -15.4 55 5
      vertex -16.2 55 3.61436
      vertex -12 55 1.11022e-15
    endloop
  endfacet
  facet normal 0 -1 2.22045e-16
    outer loop
      vertex -16.2 55 3.61436
      vertex -17.8 55 3.61436
      vertex -12 55 1.11022e-15
    endloop
  endfacet
  facet normal 0 -1 2.22045e-16
    outer loop
      vertex -18.6 55 5
      vertex -23 55 1.11022e-15
      vertex -17.8 55 3.61436
    endloop
  endfacet
  facet normal 0 -1 2.22045e-16
    outer loop
      vertex -23 55 15
      vertex -23 55 1.11022e-15
      vertex -18.6 55 5
    endloop
  endfacet
  facet normal 0 -1 2.22045e-16
    outer loop
      vertex -17.8 55 11.3856
      vertex -16.2 55 11.3856
      vertex -12 55 15
    endloop
  endfacet
  facet normal 0 -1 2.22045e-16
    outer loop
      vertex -12 55 15
      vertex -16.2 55 6.38564
      vertex -12 55 1.11022e-15
    endloop
  endfacet
  facet normal 0 -1 2.22045e-16
    outer loop
      vertex -17.8 55 8.61436
      vertex -23 55 15
      vertex -16.2 55 6.38564
    endloop
  endfacet
  facet normal 0 -1 2.22045e-16
    outer loop
      vertex -16.2 55 6.38564
      vertex -15.4 55 5
      vertex -12 55 1.11022e-15
    endloop
  endfacet
  facet normal 0 -1 2.22045e-16
    outer loop
      vertex -16.2 55 8.61436
      vertex -17.8 55 8.61436
      vertex -16.2 55 6.38564
    endloop
  endfacet
  facet normal 0 -1 2.22045e-16
    outer loop
      vertex -18.6 55 10
      vertex -23 55 15
      vertex -17.8 55 8.61436
    endloop
  endfacet
  facet normal 0 -1 2.22045e-16
    outer loop
      vertex -17.8 55 11.3856
      vertex -23 55 15
      vertex -18.6 55 10
    endloop
  endfacet
  facet normal 0 -1 2.22045e-16
    outer loop
      vertex -16.2 55 11.3856
      vertex -15.4 55 10
      vertex -12 55 15
    endloop
  endfacet
  facet normal 0 -1 2.22045e-16
    outer loop
      vertex -12 55 15
      vertex -23 55 15
      vertex -17.8 55 11.3856
    endloop
  endfacet
  facet normal 0 -1 2.22045e-16
    outer loop
      vertex -12 55 15
      vertex -15.4 55 10
      vertex -16.2 55 6.38564
    endloop
  endfacet
  facet normal 0 -1 2.22045e-16
    outer loop
      vertex -15.4 55 10
      vertex -16.2 55 8.61436
      vertex -16.2 55 6.38564
    endloop
  endfacet
  facet normal 0 -1 2.22045e-16
    outer loop
      vertex -18.6 55 5
      vertex -17.8 55 6.38564
      vertex -23 55 15
    endloop
  endfacet
  facet normal 0 -1 2.22045e-16
    outer loop
      vertex -17.8 55 6.38564
      vertex -16.2 55 6.38564
      vertex -23 55 15
    endloop
  endfacet
  facet normal 0 -2.22045e-16 -1
    outer loop
      vertex -23 55 1.11022e-15
      vertex -23 60 0
      vertex -12 55 1.11022e-15
    endloop
  endfacet
  facet normal 0 -2.22045e-16 -1
    outer loop
      vertex -12 55 1.11022e-15
      vertex -23 60 0
      vertex -12 60 0
    endloop
  endfacet
  facet normal 0 1 -2.22045e-16
    outer loop
      vertex -12 60 12
      vertex -23 60 15
      vertex -3 60 15
    endloop
  endfacet
  facet normal 0 1 -2.22045e-16
    outer loop
      vertex -15.4123 60 12.75
      vertex -23 60 15
      vertex -12 60 12
    endloop
  endfacet
  facet normal 0 1 -2.22045e-16
    outer loop
      vertex -18.5877 60 2.25
      vertex -23 60 0
      vertex -20.1754 60 5
    endloop
  endfacet
  facet normal 0 1 -2.22045e-16
    outer loop
      vertex -23 60 0
      vertex -23 60 15
      vertex -20.1754 60 5
    endloop
  endfacet
  facet normal 0 1 -2.22045e-16
    outer loop
      vertex -13.8246 60 5
      vertex -12 60 0
      vertex -15.4123 60 2.25
    endloop
  endfacet
  facet normal 0 1 -2.22045e-16
    outer loop
      vertex -23 60 0
      vertex -18.5877 60 2.25
      vertex -12 60 0
    endloop
  endfacet
  facet normal 0 1 -2.22045e-16
    outer loop
      vertex -18.5877 60 2.25
      vertex -15.4123 60 2.25
      vertex -12 60 0
    endloop
  endfacet
  facet normal 0 1 -2.22045e-16
    outer loop
      vertex -20.1754 60 10
      vertex -23 60 15
      vertex -18.5877 60 12.75
    endloop
  endfacet
  facet normal 0 1 -2.22045e-16
    outer loop
      vertex -12 60 0
      vertex -13.8246 60 5
      vertex -12 60 12
    endloop
  endfacet
  facet normal 0 1 -2.22045e-16
    outer loop
      vertex -13.8246 60 5
      vertex -15.2679 60 7.5
      vertex -12 60 12
    endloop
  endfacet
  facet normal 0 1 -2.22045e-16
    outer loop
      vertex -15.2679 60 7.5
      vertex -13.8246 60 10
      vertex -12 60 12
    endloop
  endfacet
  facet normal 0 1 -2.22045e-16
    outer loop
      vertex -18.5877 60 12.75
      vertex -23 60 15
      vertex -15.4123 60 12.75
    endloop
  endfacet
  facet normal 0 1 -2.22045e-16
    outer loop
      vertex -13.8246 60 10
      vertex -15.4123 60 12.75
      vertex -12 60 12
    endloop
  endfacet
  facet normal 0 1 -2.22045e-16
    outer loop
      vertex -20.1754 60 5
      vertex -23 60 15
      vertex -20.1754 60 10
    endloop
  endfacet
  facet normal 0 1 -2.22045e-16
    outer loop
      vertex -20.1754 60 5
      vertex -20.1754 60 10
      vertex -18.7321 60 7.5
    endloop
  endfacet
  facet normal 0 1 -2.22045e-16
    outer loop
      vertex -12 60 12
      vertex -3 60 15
      vertex -3 60 3
    endloop
  endfacet
  facet normal 0 2.22045e-16 1
    outer loop
      vertex -23 60 15
      vertex -23 55 15
      vertex -3 55 15
    endloop
  endfacet
  facet normal 0 2.22045e-16 1
    outer loop
      vertex -3 60 15
      vertex -23 60 15
      vertex -3 55 15
    endloop
  endfacet
  facet normal 0 0 1
    outer loop
      vertex -12 55 15
      vertex -12 2.66454e-15 15
      vertex 0 0 15
    endloop
  endfacet
  facet normal 0 0 1
    outer loop
      vertex -3 55 15
      vertex -12 55 15
      vertex 0 0 15
    endloop
  endfacet
  facet normal 0 0 1
    outer loop
      vertex 1.33227e-14 60 15
      vertex -3 55 15
      vertex 0 0 15
    endloop
  endfacet
  facet normal 0 0 1
    outer loop
      vertex -3 60 15
      vertex -3 55 15
      vertex 1.33227e-14 60 15
    endloop
  endfacet
  facet normal -1 2.22045e-16 0
    outer loop
      vertex -12 2.66454e-15 0
      vertex -12 2.66454e-15 15
      vertex -12 55 1.11022e-15
    endloop
  endfacet
  facet normal -1 2.22045e-16 0
    outer loop
      vertex -12 2.66454e-15 0
      vertex -12 55 1.11022e-15
      vertex -12 60 0
    endloop
  endfacet
  facet normal -1 2.22045e-16 0
    outer loop
      vertex -12 55 1.11022e-15
      vertex -12 2.66454e-15 15
      vertex -12 55 15
    endloop
  endfacet
  facet normal 0 2.22045e-16 1
    outer loop
      vertex -16.2 55 3.61436
      vertex -16.2 57 3.61436
      vertex -17.8 57 3.61436
    endloop
  endfacet
  facet normal 0 2.22045e-16 1
    outer loop
      vertex -17.8 55 3.61436
      vertex -16.2 55 3.61436
      vertex -17.8 57 3.61436
    endloop
  endfacet
  facet normal 0.866025 1.11022e-16 0.5
    outer loop
      vertex -17.8 55 3.61436
      vertex -17.8 57 3.61436
      vertex -18.6 57 5
    endloop
  endfacet
  facet normal 0.866025 1.11022e-16 0.5
    outer loop
      vertex -18.6 55 5
      vertex -17.8 55 3.61436
      vertex -18.6 57 5
    endloop
  endfacet
  facet normal -0.866025 1.11022e-16 0.5
    outer loop
      vertex -15.4 57 5
      vertex -16.2 57 3.61436
      vertex -15.4 55 5
    endloop
  endfacet
  facet normal -0.866025 1.11022e-16 0.5
    outer loop
      vertex -15.4 55 5
      vertex -16.2 57 3.61436
      vertex -16.2 55 3.61436
    endloop
  endfacet
  facet normal -0.866025 -1.11022e-16 -0.5
    outer loop
      vertex -15.4 57 5
      vertex -15.4 55 5
      vertex -16.2 57 6.38564
    endloop
  endfacet
  facet normal -0.866025 -1.11022e-16 -0.5
    outer loop
      vertex -16.2 57 6.38564
      vertex -15.4 55 5
      vertex -16.2 55 6.38564
    endloop
  endfacet
  facet normal 0 -2.22045e-16 -1
    outer loop
      vertex -16.2 57 6.38564
      vertex -16.2 55 6.38564
      vertex -17.8 57 6.38564
    endloop
  endfacet
  facet normal 0 -2.22045e-16 -1
    outer loop
      vertex -17.8 57 6.38564
      vertex -16.2 55 6.38564
      vertex -17.8 55 6.38564
    endloop
  endfacet
  facet normal 0.866025 -1.11022e-16 -0.5
    outer loop
      vertex -18.6 57 5
      vertex -17.8 57 6.38564
      vertex -17.8 55 6.38564
    endloop
  endfacet
  facet normal 0.866025 -1.11022e-16 -0.5
    outer loop
      vertex -18.6 55 5
      vertex -18.6 57 5
      vertex -17.8 55 6.38564
    endloop
  endfacet
  facet normal 0.866025 1.11022e-16 0.5
    outer loop
      vertex -17.8 55 8.61436
      vertex -17.8 57 8.61436
      vertex -18.6 57 10
    endloop
  endfacet
  facet normal 0.866025 1.11022e-16 0.5
    outer loop
      vertex -18.6 55 10
      vertex -17.8 55 8.61436
      vertex -18.6 57 10
    endloop
  endfacet
  facet normal 0 2.22045e-16 1
    outer loop
      vertex -16.2 55 8.61436
      vertex -16.2 57 8.61436
      vertex -17.8 57 8.61436
    endloop
  endfacet
  facet normal 0 2.22045e-16 1
    outer loop
      vertex -17.8 55 8.61436
      vertex -16.2 55 8.61436
      vertex -17.8 57 8.61436
    endloop
  endfacet
  facet normal -0.866025 1.11022e-16 0.5
    outer loop
      vertex -15.4 57 10
      vertex -16.2 57 8.61436
      vertex -15.4 55 10
    endloop
  endfacet
  facet normal -0.866025 1.11022e-16 0.5
    outer loop
      vertex -15.4 55 10
      vertex -16.2 57 8.61436
      vertex -16.2 55 8.61436
    endloop
  endfacet
  facet normal -0.866025 -1.11022e-16 -0.5
    outer loop
      vertex -15.4 57 10
      vertex -15.4 55 10
      vertex -16.2 57 11.3856
    endloop
  endfacet
  facet normal -0.866025 -1.11022e-16 -0.5
    outer loop
      vertex -16.2 57 11.3856
      vertex -15.4 55 10
      vertex -16.2 55 11.3856
    endloop
  endfacet
  facet normal 0 -2.22045e-16 -1
    outer loop
      vertex -16.2 57 11.3856
      vertex -16.2 55 11.3856
      vertex -17.8 57 11.3856
    endloop
  endfacet
  facet normal 0 -2.22045e-16 -1
    outer loop
      vertex -17.8 57 11.3856
      vertex -16.2 55 11.3856
      vertex -17.8 55 11.3856
    endloop
  endfacet
  facet normal 0.866025 -1.11022e-16 -0.5
    outer loop
      vertex -18.6 57 10
      vertex -17.8 57 11.3856
      vertex -17.8 55 11.3856
    endloop
  endfacet
  facet normal 0.866025 -1.11022e-16 -0.5
    outer loop
      vertex -18.6 55 10
      vertex -18.6 57 10
      vertex -17.8 55 11.3856
    endloop
  endfacet
  facet normal 0 0 -1
    outer loop
      vertex -12 2.66454e-15 0
      vertex -12 60 0
      vertex 0 0 0
    endloop
  endfacet
  facet normal 0 0 -1
    outer loop
      vertex 2.66454e-15 12 0
      vertex -12 60 0
      vertex 1.33227e-14 60 0
    endloop
  endfacet
  facet normal 0 0 -1
    outer loop
      vertex 0 0 0
      vertex -12 60 0
      vertex 2.66454e-15 12 0
    endloop
  endfacet
  facet normal 0 0 -1
    outer loop
      vertex 11.5877 3.25 0
      vertex 80 12 0
      vertex 0 0 0
    endloop
  endfacet
  facet normal 0 0 -1
    outer loop
      vertex 73.1754 6 0
      vertex 80 12 0
      vertex 80 0 0
    endloop
  endfacet
  facet normal 0 0 -1
    outer loop
      vertex 66.8246 6 0
      vertex 0 0 0
      vertex 68.4123 8.75 0
    endloop
  endfacet
  facet normal 0 0 -1
    outer loop
      vertex 2.66454e-15 12 0
      vertex 6.82457 6 0
      vertex 0 0 0
    endloop
  endfacet
  facet normal 0 0 -1
    outer loop
      vertex 11.5877 8.75 0
      vertex 80 12 0
      vertex 13.1754 6 0
    endloop
  endfacet
  facet normal 0 0 -1
    outer loop
      vertex 6.82457 6 0
      vertex 8.41229 3.25 0
      vertex 0 0 0
    endloop
  endfacet
  facet normal 0 0 -1
    outer loop
      vertex 8.41229 3.25 0
      vertex 11.5877 3.25 0
      vertex 0 0 0
    endloop
  endfacet
  facet normal 0 0 -1
    outer loop
      vertex 2.66454e-15 12 0
      vertex 80 12 0
      vertex 11.5877 8.75 0
    endloop
  endfacet
  facet normal 0 0 -1
    outer loop
      vertex 2.66454e-15 12 0
      vertex 11.5877 8.75 0
      vertex 8.41229 8.75 0
    endloop
  endfacet
  facet normal 0 0 -1
    outer loop
      vertex 2.66454e-15 12 0
      vertex 8.41229 8.75 0
      vertex 6.82457 6 0
    endloop
  endfacet
  facet normal 0 0 -1
    outer loop
      vertex 0 0 0
      vertex 66.8246 6 0
      vertex 68.4123 3.25 0
    endloop
  endfacet
  facet normal 0 0 -1
    outer loop
      vertex 0 0 0
      vertex 68.4123 3.25 0
      vertex 80 0 0
    endloop
  endfacet
  facet normal 0 0 -1
    outer loop
      vertex 68.4123 3.25 0
      vertex 71.5877 3.25 0
      vertex 80 0 0
    endloop
  endfacet
  facet normal 0 0 -1
    outer loop
      vertex 71.5877 8.75 0
      vertex 80 12 0
      vertex 73.1754 6 0
    endloop
  endfacet
  facet normal 0 0 -1
    outer loop
      vertex 68.4123 8.75 0
      vertex 80 12 0
      vertex 71.5877 8.75 0
    endloop
  endfacet
  facet normal 0 0 -1
    outer loop
      vertex 73.1754 6 0
      vertex 80 0 0
      vertex 71.5877 3.25 0
    endloop
  endfacet
  facet normal 0 0 -1
    outer loop
      vertex 0 0 0
      vertex 80 12 0
      vertex 68.4123 8.75 0
    endloop
  endfacet
  facet normal 0 0 -1
    outer loop
      vertex 13.1754 6 0
      vertex 80 12 0
      vertex 11.5877 3.25 0
    endloop
  endfacet
  facet normal 2.22045e-16 1 0
    outer loop
      vertex -12 60 0
      vertex -3 60 3
      vertex 1.33227e-14 60 0
    endloop
  endfacet
  facet normal 2.22045e-16 1 0
    outer loop
      vertex -12 60 0
      vertex -12 60 12
      vertex -3 60 3
    endloop
  endfacet
  facet normal 2.22045e-16 1 0
    outer loop
      vertex -3 60 3
      vertex -3 60 15
      vertex 1.33227e-14 60 0
    endloop
  endfacet
  facet normal 2.22045e-16 1 0
    outer loop
      vertex -3 60 15
      vertex 1.33227e-14 60 15
      vertex 1.33227e-14 60 0
    endloop
  endfacet
  facet normal 0.866025 -1.11022e-16 -0.5
    outer loop
      vertex -20.1754 60 5
      vertex -18.7321 60 7.5
      vertex -18.7321 57 7.5
    endloop
  endfacet
  facet normal 0.866025 -1.11022e-16 -0.5
    outer loop
      vertex -20.1754 57 5
      vertex -20.1754 60 5
      vertex -18.7321 57 7.5
    endloop
  endfacet
  facet normal 0.866025 1.11022e-16 0.5
    outer loop
      vertex -18.7321 57 7.5
      vertex -18.7321 60 7.5
      vertex -20.1754 60 10
    endloop
  endfacet
  facet normal 0.866025 1.11022e-16 0.5
    outer loop
      vertex -20.1754 57 10
      vertex -18.7321 57 7.5
      vertex -20.1754 60 10
    endloop
  endfacet
  facet normal 0.866025 -1.11022e-16 -0.5
    outer loop
      vertex -20.1754 60 10
      vertex -18.5877 60 12.75
      vertex -18.5877 57 12.75
    endloop
  endfacet
  facet normal 0.866025 -1.11022e-16 -0.5
    outer loop
      vertex -20.1754 57 10
      vertex -20.1754 60 10
      vertex -18.5877 57 12.75
    endloop
  endfacet
  facet normal 0 -2.22045e-16 -1
    outer loop
      vertex -15.4123 60 12.75
      vertex -15.4123 57 12.75
      vertex -18.5877 60 12.75
    endloop
  endfacet
  facet normal 0 -2.22045e-16 -1
    outer loop
      vertex -18.5877 60 12.75
      vertex -15.4123 57 12.75
      vertex -18.5877 57 12.75
    endloop
  endfacet
  facet normal -0.866025 -1.11022e-16 -0.5
    outer loop
      vertex -13.8246 60 10
      vertex -13.8246 57 10
      vertex -15.4123 60 12.75
    endloop
  endfacet
  facet normal -0.866025 -1.11022e-16 -0.5
    outer loop
      vertex -15.4123 60 12.75
      vertex -13.8246 57 10
      vertex -15.4123 57 12.75
    endloop
  endfacet
  facet normal -0.866025 1.11022e-16 0.5
    outer loop
      vertex -13.8246 60 10
      vertex -15.2679 60 7.5
      vertex -13.8246 57 10
    endloop
  endfacet
  facet normal -0.866025 1.11022e-16 0.5
    outer loop
      vertex -13.8246 57 10
      vertex -15.2679 60 7.5
      vertex -15.2679 57 7.5
    endloop
  endfacet
  facet normal -0.866025 -1.11022e-16 -0.5
    outer loop
      vertex -13.8246 60 5
      vertex -13.8246 57 5
      vertex -15.2679 60 7.5
    endloop
  endfacet
  facet normal -0.866025 -1.11022e-16 -0.5
    outer loop
      vertex -15.2679 60 7.5
      vertex -13.8246 57 5
      vertex -15.2679 57 7.5
    endloop
  endfacet
  facet normal -0.866025 1.11022e-16 0.5
    outer loop
      vertex -13.8246 60 5
      vertex -15.4123 60 2.25
      vertex -13.8246 57 5
    endloop
  endfacet
  facet normal -0.866025 1.11022e-16 0.5
    outer loop
      vertex -13.8246 57 5
      vertex -15.4123 60 2.25
      vertex -15.4123 57 2.25
    endloop
  endfacet
  facet normal 0 2.22045e-16 1
    outer loop
      vertex -15.4123 57 2.25
      vertex -15.4123 60 2.25
      vertex -18.5877 60 2.25
    endloop
  endfacet
  facet normal 0 2.22045e-16 1
    outer loop
      vertex -18.5877 57 2.25
      vertex -15.4123 57 2.25
      vertex -18.5877 60 2.25
    endloop
  endfacet
  facet normal 0.866025 1.11022e-16 0.5
    outer loop
      vertex -18.5877 57 2.25
      vertex -18.5877 60 2.25
      vertex -20.1754 60 5
    endloop
  endfacet
  facet normal 0.866025 1.11022e-16 0.5
    outer loop
      vertex -20.1754 57 5
      vertex -18.5877 57 2.25
      vertex -20.1754 60 5
    endloop
  endfacet
  facet normal 1 -2.22045e-16 0
    outer loop
      vertex 0 0 15
      vertex 0 0 8
      vertex 2.66454e-15 12 8
    endloop
  endfacet
  facet normal 1 -2.22045e-16 0
    outer loop
      vertex 1.33227e-14 60 0
      vertex 0 0 15
      vertex 2.66454e-15 12 8
    endloop
  endfacet
  facet normal 1 -2.22045e-16 0
    outer loop
      vertex 2.66454e-15 12 0
      vertex 1.33227e-14 60 0
      vertex 2.66454e-15 12 8
    endloop
  endfacet
  facet normal 1 -2.22045e-16 0
    outer loop
      vertex 1.33227e-14 60 0
      vertex 1.33227e-14 60 15
      vertex 0 0 15
    endloop
  endfacet
  facet normal -2.22045e-16 -1 0
    outer loop
      vertex -12 2.66454e-15 15
      vertex -12 2.66454e-15 0
      vertex 0 0 0
    endloop
  endfacet
  facet normal -2.22045e-16 -1 0
    outer loop
      vertex 0 0 15
      vertex -12 2.66454e-15 15
      vertex 0 0 8
    endloop
  endfacet
  facet normal -2.22045e-16 -1 0
    outer loop
      vertex 0 0 8
      vertex -12 2.66454e-15 15
      vertex 0 0 0
    endloop
  endfacet
  facet normal 0 1 -2.22045e-16
    outer loop
      vertex -20.1754 57 10
      vertex -18.5877 57 12.75
      vertex -18.7321 57 7.5
    endloop
  endfacet
  facet normal 0 1 -2.22045e-16
    outer loop
      vertex -17.8 57 11.3856
      vertex -18.5877 57 12.75
      vertex -15.4123 57 12.75
    endloop
  endfacet
  facet normal 0 1 -2.22045e-16
    outer loop
      vertex -15.4 57 10
      vertex -15.4123 57 12.75
      vertex -13.8246 57 10
    endloop
  endfacet
  facet normal 0 1 -2.22045e-16
    outer loop
      vertex -16.2 57 8.61436
      vertex -13.8246 57 10
      vertex -15.2679 57 7.5
    endloop
  endfacet
  facet normal 0 1 -2.22045e-16
    outer loop
      vertex -16.2 57 6.38564
      vertex -15.2679 57 7.5
      vertex -13.8246 57 5
    endloop
  endfacet
  facet normal 0 1 -2.22045e-16
    outer loop
      vertex -16.2 57 3.61436
      vertex -13.8246 57 5
      vertex -15.4123 57 2.25
    endloop
  endfacet
  facet normal 0 1 -2.22045e-16
    outer loop
      vertex -17.8 57 3.61436
      vertex -15.4123 57 2.25
      vertex -18.5877 57 2.25
    endloop
  endfacet
  facet normal 0 1 -2.22045e-16
    outer loop
      vertex -16.2 57 3.61436
      vertex -15.4123 57 2.25
      vertex -17.8 57 3.61436
    endloop
  endfacet
  facet normal 0 1 -2.22045e-16
    outer loop
      vertex -18.6 57 5
      vertex -17.8 57 3.61436
      vertex -18.5877 57 2.25
    endloop
  endfacet
  facet normal 0 1 -2.22045e-16
    outer loop
      vertex -15.4 57 5
      vertex -13.8246 57 5
      vertex -16.2 57 3.61436
    endloop
  endfacet
  facet normal 0 1 -2.22045e-16
    outer loop
      vertex -16.2 57 6.38564
      vertex -13.8246 57 5
      vertex -15.4 57 5
    endloop
  endfacet
  facet normal 0 1 -2.22045e-16
    outer loop
      vertex -18.7321 57 7.5
      vertex -15.2679 57 7.5
      vertex -16.2 57 6.38564
    endloop
  endfacet
  facet normal 0 1 -2.22045e-16
    outer loop
      vertex -17.8 57 6.38564
      vertex -18.7321 57 7.5
      vertex -16.2 57 6.38564
    endloop
  endfacet
  facet normal 0 1 -2.22045e-16
    outer loop
      vertex -18.6 57 5
      vertex -18.7321 57 7.5
      vertex -17.8 57 6.38564
    endloop
  endfacet
  facet normal 0 1 -2.22045e-16
    outer loop
      vertex -17.8 57 8.61436
      vertex -18.7321 57 7.5
      vertex -18.6 57 10
    endloop
  endfacet
  facet normal 0 1 -2.22045e-16
    outer loop
      vertex -18.7321 57 7.5
      vertex -18.6 57 5
      vertex -18.5877 57 2.25
    endloop
  endfacet
  facet normal 0 1 -2.22045e-16
    outer loop
      vertex -17.8 57 11.3856
      vertex -15.4123 57 12.75
      vertex -16.2 57 11.3856
    endloop
  endfacet
  facet normal 0 1 -2.22045e-16
    outer loop
      vertex -15.4 57 10
      vertex -13.8246 57 10
      vertex -16.2 57 8.61436
    endloop
  endfacet
  facet normal 0 1 -2.22045e-16
    outer loop
      vertex -18.7321 57 7.5
      vertex -16.2 57 8.61436
      vertex -15.2679 57 7.5
    endloop
  endfacet
  facet normal 0 1 -2.22045e-16
    outer loop
      vertex -16.2 57 11.3856
      vertex -15.4123 57 12.75
      vertex -15.4 57 10
    endloop
  endfacet
  facet normal 0 1 -2.22045e-16
    outer loop
      vertex -16.2 57 8.61436
      vertex -18.7321 57 7.5
      vertex -17.8 57 8.61436
    endloop
  endfacet
  facet normal 0 1 -2.22045e-16
    outer loop
      vertex -18.6 57 10
      vertex -18.5877 57 12.75
      vertex -17.8 57 11.3856
    endloop
  endfacet
  facet normal 0 1 -2.22045e-16
    outer loop
      vertex -18.7321 57 7.5
      vertex -18.5877 57 12.75
      vertex -18.6 57 10
    endloop
  endfacet
  facet normal 0 1 -2.22045e-16
    outer loop
      vertex -18.7321 57 7.5
      vertex -18.5877 57 2.25
      vertex -20.1754 57 5
    endloop
  endfacet
  facet normal 0 -1 0
    outer loop
      vertex 0 0 8
      vertex 0 0 0
      vertex 80 0 0
    endloop
  endfacet
  facet normal 0 -1 0
    outer loop
      vertex 80 0 8
      vertex 0 0 8
      vertex 80 0 0
    endloop
  endfacet
  facet normal 1 0 0
    outer loop
      vertex 80 0 8
      vertex 80 0 0
      vertex 80 12 0
    endloop
  endfacet
  facet normal 1 0 0
    outer loop
      vertex 80 12 8
      vertex 80 0 8
      vertex 80 12 0
    endloop
  endfacet
  facet normal 0 1 0
    outer loop
      vertex 2.66454e-15 12 0
      vertex 2.66454e-15 12 8
      vertex 80 12 0
    endloop
  endfacet
  facet normal 0 1 0
    outer loop
      vertex 80 12 0
      vertex 2.66454e-15 12 8
      vertex 80 12 8
    endloop
  endfacet
  facet normal 0.866025 0.5 0
    outer loop
      vertex 6.82457 6 3
      vertex 8.41229 3.25 3
      vertex 8.41229 3.25 0
    endloop
  endfacet
  facet normal 0.866025 0.5 0
    outer loop
      vertex 6.82457 6 0
      vertex 6.82457 6 3
      vertex 8.41229 3.25 0
    endloop
  endfacet
  facet normal 0.866025 -0.5 0
    outer loop
      vertex 8.41229 8.75 0
      vertex 8.41229 8.75 3
      vertex 6.82457 6 3
    endloop
  endfacet
  facet normal 0.866025 -0.5 0
    outer loop
      vertex 6.82457 6 0
      vertex 8.41229 8.75 0
      vertex 6.82457 6 3
    endloop
  endfacet
  facet normal 0 -1 0
    outer loop
      vertex 11.5877 8.75 0
      vertex 11.5877 8.75 3
      vertex 8.41229 8.75 3
    endloop
  endfacet
  facet normal 0 -1 0
    outer loop
      vertex 8.41229 8.75 0
      vertex 11.5877 8.75 0
      vertex 8.41229 8.75 3
    endloop
  endfacet
  facet normal -0.866025 -0.5 0
    outer loop
      vertex 13.1754 6 3
      vertex 11.5877 8.75 3
      vertex 13.1754 6 0
    endloop
  endfacet
  facet normal -0.866025 -0.5 0
    outer loop
      vertex 13.1754 6 0
      vertex 11.5877 8.75 3
      vertex 11.5877 8.75 0
    endloop
  endfacet
  facet normal -0.866025 0.5 0
    outer loop
      vertex 13.1754 6 3
      vertex 13.1754 6 0
      vertex 11.5877 3.25 3
    endloop
  endfacet
  facet normal -0.866025 0.5 0
    outer loop
      vertex 11.5877 3.25 3
      vertex 13.1754 6 0
      vertex 11.5877 3.25 0
    endloop
  endfacet
  facet normal 0 1 0
    outer loop
      vertex 11.5877 3.25 3
      vertex 11.5877 3.25 0
      vertex 8.41229 3.25 3
    endloop
  endfacet
  facet normal 0 1 0
    outer loop
      vertex 8.41229 3.25 3
      vertex 11.5877 3.25 0
      vertex 8.41229 3.25 0
    endloop
  endfacet
  facet normal 0.866025 0.5 0
    outer loop
      vertex 66.8246 6 3
      vertex 68.4123 3.25 3
      vertex 68.4123 3.25 0
    endloop
  endfacet
  facet normal 0.866025 0.5 0
    outer loop
      vertex 66.8246 6 0
      vertex 66.8246 6 3
      vertex 68.4123 3.25 0
    endloop
  endfacet
  facet normal 0.866025 -0.5 0
    outer loop
      vertex 68.4123 8.75 0
      vertex 68.4123 8.75 3
      vertex 66.8246 6 3
    endloop
  endfacet
  facet normal 0.866025 -0.5 0
    outer loop
      vertex 66.8246 6 0
      vertex 68.4123 8.75 0
      vertex 66.8246 6 3
    endloop
  endfacet
  facet normal 0 -1 0
    outer loop
      vertex 71.5877 8.75 0
      vertex 71.5877 8.75 3
      vertex 68.4123 8.75 3
    endloop
  endfacet
  facet normal 0 -1 0
    outer loop
      vertex 68.4123 8.75 0
      vertex 71.5877 8.75 0
      vertex 68.4123 8.75 3
    endloop
  endfacet
  facet normal -0.866025 -0.5 0
    outer loop
      vertex 73.1754 6 3
      vertex 71.5877 8.75 3
      vertex 73.1754 6 0
    endloop
  endfacet
  facet normal -0.866025 -0.5 0
    outer loop
      vertex 73.1754 6 0
      vertex 71.5877 8.75 3
      vertex 71.5877 8.75 0
    endloop
  endfacet
  facet normal -0.866025 0.5 0
    outer loop
      vertex 73.1754 6 3
      vertex 73.1754 6 0
      vertex 71.5877 3.25 3
    endloop
  endfacet
  facet normal -0.866025 0.5 0
    outer loop
      vertex 71.5877 3.25 3
      vertex 73.1754 6 0
      vertex 71.5877 3.25 0
    endloop
  endfacet
  facet normal 0 1 0
    outer loop
      vertex 71.5877 3.25 3
      vertex 71.5877 3.25 0
      vertex 68.4123 3.25 3
    endloop
  endfacet
  facet normal 0 1 0
    outer loop
      vertex 68.4123 3.25 3
      vertex 71.5877 3.25 0
      vertex 68.4123 3.25 0
    endloop
  endfacet
  facet normal 0 0 1
    outer loop
      vertex 11.3501 3.0437 8
      vertex 0 0 8
      vertex 80 0 8
    endloop
  endfacet
  facet normal 0 0 1
    outer loop
      vertex 69.5375 2.78308 8
      vertex 2.66454e-15 12 8
      vertex 80 0 8
    endloop
  endfacet
  facet normal 0 0 1
    outer loop
      vertex 9.53748 2.78308 8
      vertex 7.8717 3.54381 8
      vertex 0 0 8
    endloop
  endfacet
  facet normal 0 0 1
    outer loop
      vertex 2.66454e-15 12 8
      vertex 0 0 8
      vertex 6.88165 5.08437 8
    endloop
  endfacet
  facet normal 0 0 1
    outer loop
      vertex 13.25 6 8
      vertex 12.7341 4.24292 8
      vertex 80 0 8
    endloop
  endfacet
  facet normal 0 0 1
    outer loop
      vertex 2.66454e-15 12 8
      vertex 6.88165 5.08437 8
      vertex 6.88165 6.91563 8
    endloop
  endfacet
  facet normal 0 0 1
    outer loop
      vertex 12.7341 7.75708 8
      vertex 13.25 6 8
      vertex 80 0 8
    endloop
  endfacet
  facet normal 0 0 1
    outer loop
      vertex 2.66454e-15 12 8
      vertex 6.88165 6.91563 8
      vertex 7.8717 8.45619 8
    endloop
  endfacet
  facet normal 0 0 1
    outer loop
      vertex 2.66454e-15 12 8
      vertex 9.53748 9.21692 8
      vertex 80 0 8
    endloop
  endfacet
  facet normal 0 0 1
    outer loop
      vertex 2.66454e-15 12 8
      vertex 7.8717 8.45619 8
      vertex 9.53748 9.21692 8
    endloop
  endfacet
  facet normal 0 0 1
    outer loop
      vertex 9.53748 9.21692 8
      vertex 11.3501 8.9563 8
      vertex 80 0 8
    endloop
  endfacet
  facet normal 0 0 1
    outer loop
      vertex 12.7341 4.24292 8
      vertex 11.3501 3.0437 8
      vertex 80 0 8
    endloop
  endfacet
  facet normal 0 0 1
    outer loop
      vertex 9.53748 2.78308 8
      vertex 0 0 8
      vertex 11.3501 3.0437 8
    endloop
  endfacet
  facet normal 0 0 1
    outer loop
      vertex 69.5375 9.21692 8
      vertex 71.3501 8.9563 8
      vertex 80 12 8
    endloop
  endfacet
  facet normal 0 0 1
    outer loop
      vertex 6.88165 5.08437 8
      vertex 0 0 8
      vertex 7.8717 3.54381 8
    endloop
  endfacet
  facet normal 0 0 1
    outer loop
      vertex 69.5375 2.78308 8
      vertex 67.8717 3.54381 8
      vertex 2.66454e-15 12 8
    endloop
  endfacet
  facet normal 0 0 1
    outer loop
      vertex 66.8816 6.91563 8
      vertex 2.66454e-15 12 8
      vertex 66.8816 5.08437 8
    endloop
  endfacet
  facet normal 0 0 1
    outer loop
      vertex 72.7341 4.24292 8
      vertex 71.3501 3.0437 8
      vertex 80 0 8
    endloop
  endfacet
  facet normal 0 0 1
    outer loop
      vertex 67.8717 8.45619 8
      vertex 2.66454e-15 12 8
      vertex 66.8816 6.91563 8
    endloop
  endfacet
  facet normal 0 0 1
    outer loop
      vertex 69.5375 9.21692 8
      vertex 2.66454e-15 12 8
      vertex 67.8717 8.45619 8
    endloop
  endfacet
  facet normal 0 0 1
    outer loop
      vertex 80 12 8
      vertex 2.66454e-15 12 8
      vertex 69.5375 9.21692 8
    endloop
  endfacet
  facet normal 0 0 1
    outer loop
      vertex 80 12 8
      vertex 72.7341 7.75708 8
      vertex 80 0 8
    endloop
  endfacet
  facet normal 0 0 1
    outer loop
      vertex 72.7341 7.75708 8
      vertex 73.25 6 8
      vertex 80 0 8
    endloop
  endfacet
  facet normal 0 0 1
    outer loop
      vertex 73.25 6 8
      vertex 72.7341 4.24292 8
      vertex 80 0 8
    endloop
  endfacet
  facet normal 0 0 1
    outer loop
      vertex 71.3501 3.0437 8
      vertex 69.5375 2.78308 8
      vertex 80 0 8
    endloop
  endfacet
  facet normal 0 0 1
    outer loop
      vertex 66.8816 5.08437 8
      vertex 2.66454e-15 12 8
      vertex 67.8717 3.54381 8
    endloop
  endfacet
  facet normal 0 0 1
    outer loop
      vertex 11.3501 8.9563 8
      vertex 12.7341 7.75708 8
      vertex 80 0 8
    endloop
  endfacet
  facet normal 0 0 1
    outer loop
      vertex 71.3501 8.9563 8
      vertex 72.7341 7.75708 8
      vertex 80 12 8
    endloop
  endfacet
  facet normal 0 0 -1
    outer loop
      vertex 9.2 7.38564 3
      vertex 8.41229 8.75 3
      vertex 10.8 7.38564 3
    endloop
  endfacet
  facet normal 0 0 -1
    outer loop
      vertex 11.6 6 3
      vertex 13.1754 6 3
      vertex 11.5877 3.25 3
    endloop
  endfacet
  facet normal 0 0 -1
    outer loop
      vertex 9.2 4.61436 3
      vertex 11.5877 3.25 3
      vertex 8.41229 3.25 3
    endloop
  endfacet
  facet normal 0 0 -1
    outer loop
      vertex 8.4 6 3
      vertex 8.41229 3.25 3
      vertex 6.82457 6 3
    endloop
  endfacet
  facet normal 0 0 -1
    outer loop
      vertex 10.8 4.61436 3
      vertex 11.5877 3.25 3
      vertex 9.2 4.61436 3
    endloop
  endfacet
  facet normal 0 0 -1
    outer loop
      vertex 11.6 6 3
      vertex 11.5877 3.25 3
      vertex 10.8 4.61436 3
    endloop
  endfacet
  facet normal 0 0 -1
    outer loop
      vertex 10.8 7.38564 3
      vertex 13.1754 6 3
      vertex 11.6 6 3
    endloop
  endfacet
  facet normal 0 0 -1
    outer loop
      vertex 11.5877 8.75 3
      vertex 13.1754 6 3
      vertex 10.8 7.38564 3
    endloop
  endfacet
  facet normal 0 0 -1
    outer loop
      vertex 11.5877 8.75 3
      vertex 10.8 7.38564 3
      vertex 8.41229 8.75 3
    endloop
  endfacet
  facet normal 0 0 -1
    outer loop
      vertex 8.4 6 3
      vertex 8.41229 8.75 3
      vertex 9.2 7.38564 3
    endloop
  endfacet
  facet normal 0 0 -1
    outer loop
      vertex 8.41229 8.75 3
      vertex 8.4 6 3
      vertex 6.82457 6 3
    endloop
  endfacet
  facet normal 0 0 -1
    outer loop
      vertex 9.2 4.61436 3
      vertex 8.41229 3.25 3
      vertex 8.4 6 3
    endloop
  endfacet
  facet normal 0 0 -1
    outer loop
      vertex 69.2 7.38564 3
      vertex 68.4123 8.75 3
      vertex 70.8 7.38564 3
    endloop
  endfacet
  facet normal 0 0 -1
    outer loop
      vertex 71.6 6 3
      vertex 73.1754 6 3
      vertex 71.5877 3.25 3
    endloop
  endfacet
  facet normal 0 0 -1
    outer loop
      vertex 69.2 4.61436 3
      vertex 71.5877 3.25 3
      vertex 68.4123 3.25 3
    endloop
  endfacet
  facet normal 0 0 -1
    outer loop
      vertex 68.4 6 3
      vertex 68.4123 3.25 3
      vertex 66.8246 6 3
    endloop
  endfacet
  facet normal 0 0 -1
    outer loop
      vertex 70.8 4.61436 3
      vertex 71.5877 3.25 3
      vertex 69.2 4.61436 3
    endloop
  endfacet
  facet normal 0 0 -1
    outer loop
      vertex 71.6 6 3
      vertex 71.5877 3.25 3
      vertex 70.8 4.61436 3
    endloop
  endfacet
  facet normal 0 0 -1
    outer loop
      vertex 70.8 7.38564 3
      vertex 73.1754 6 3
      vertex 71.6 6 3
    endloop
  endfacet
  facet normal 0 0 -1
    outer loop
      vertex 71.5877 8.75 3
      vertex 73.1754 6 3
      vertex 70.8 7.38564 3
    endloop
  endfacet
  facet normal 0 0 -1
    outer loop
      vertex 71.5877 8.75 3
      vertex 70.8 7.38564 3
      vertex 68.4123 8.75 3
    endloop
  endfacet
  facet normal 0 0 -1
    outer loop
      vertex 68.4 6 3
      vertex 68.4123 8.75 3
      vertex 69.2 7.38564 3
    endloop
  endfacet
  facet normal 0 0 -1
    outer loop
      vertex 68.4123 8.75 3
      vertex 68.4 6 3
      vertex 66.8246 6 3
    endloop
  endfacet
  facet normal 0 0 -1
    outer loop
      vertex 69.2 4.61436 3
      vertex 68.4123 3.25 3
      vertex 68.4 6 3
    endloop
  endfacet
  facet normal 1 0 0
    outer loop
      vertex 6.88165 6.91563 5
      vertex 6.88165 6.91563 8
      vertex 6.88165 5.08437 8
    endloop
  endfacet
  facet normal 1 0 0
    outer loop
      vertex 6.88165 5.08437 5
      vertex 6.88165 6.91563 5
      vertex 6.88165 5.08437 8
    endloop
  endfacet
  facet normal 0.841253 0.540641 0
    outer loop
      vertex 6.88165 5.08437 8
      vertex 7.8717 3.54381 8
      vertex 7.8717 3.54381 5
    endloop
  endfacet
  facet normal 0.841253 0.540641 0
    outer loop
      vertex 6.88165 5.08437 5
      vertex 6.88165 5.08437 8
      vertex 7.8717 3.54381 5
    endloop
  endfacet
  facet normal 0.415415 0.909632 0
    outer loop
      vertex 9.53748 2.78308 8
      vertex 9.53748 2.78308 5
      vertex 7.8717 3.54381 8
    endloop
  endfacet
  facet normal 0.415415 0.909632 0
    outer loop
      vertex 7.8717 3.54381 8
      vertex 9.53748 2.78308 5
      vertex 7.8717 3.54381 5
    endloop
  endfacet
  facet normal -0.142315 0.989821 0
    outer loop
      vertex 11.3501 3.0437 8
      vertex 11.3501 3.0437 5
      vertex 9.53748 2.78308 8
    endloop
  endfacet
  facet normal -0.142315 0.989821 0
    outer loop
      vertex 9.53748 2.78308 8
      vertex 11.3501 3.0437 5
      vertex 9.53748 2.78308 5
    endloop
  endfacet
  facet normal -0.654861 0.75575 0
    outer loop
      vertex 12.7341 4.24292 8
      vertex 12.7341 4.24292 5
      vertex 11.3501 3.0437 8
    endloop
  endfacet
  facet normal -0.654861 0.75575 0
    outer loop
      vertex 11.3501 3.0437 8
      vertex 12.7341 4.24292 5
      vertex 11.3501 3.0437 5
    endloop
  endfacet
  facet normal -0.959493 0.281732 0
    outer loop
      vertex 13.25 6 8
      vertex 13.25 6 5
      vertex 12.7341 4.24292 8
    endloop
  endfacet
  facet normal -0.959493 0.281732 0
    outer loop
      vertex 12.7341 4.24292 8
      vertex 13.25 6 5
      vertex 12.7341 4.24292 5
    endloop
  endfacet
  facet normal -0.959493 -0.281732 0
    outer loop
      vertex 13.25 6 8
      vertex 12.7341 7.75708 8
      vertex 13.25 6 5
    endloop
  endfacet
  facet normal -0.959493 -0.281732 0
    outer loop
      vertex 13.25 6 5
      vertex 12.7341 7.75708 8
      vertex 12.7341 7.75708 5
    endloop
  endfacet
  facet normal -0.654861 -0.75575 0
    outer loop
      vertex 12.7341 7.75708 5
      vertex 12.7341 7.75708 8
      vertex 11.3501 8.9563 8
    endloop
  endfacet
  facet normal -0.654861 -0.75575 0
    outer loop
      vertex 11.3501 8.9563 5
      vertex 12.7341 7.75708 5
      vertex 11.3501 8.9563 8
    endloop
  endfacet
  facet normal -0.142315 -0.989821 0
    outer loop
      vertex 11.3501 8.9563 5
      vertex 11.3501 8.9563 8
      vertex 9.53748 9.21692 8
    endloop
  endfacet
  facet normal -0.142315 -0.989821 0
    outer loop
      vertex 9.53748 9.21692 5
      vertex 11.3501 8.9563 5
      vertex 9.53748 9.21692 8
    endloop
  endfacet
  facet normal 0.415415 -0.909632 0
    outer loop
      vertex 9.53748 9.21692 5
      vertex 9.53748 9.21692 8
      vertex 7.8717 8.45619 8
    endloop
  endfacet
  facet normal 0.415415 -0.909632 0
    outer loop
      vertex 7.8717 8.45619 5
      vertex 9.53748 9.21692 5
      vertex 7.8717 8.45619 8
    endloop
  endfacet
  facet normal 0.841253 -0.540641 0
    outer loop
      vertex 7.8717 8.45619 5
      vertex 7.8717 8.45619 8
      vertex 6.88165 6.91563 8
    endloop
  endfacet
  facet normal 0.841253 -0.540641 0
    outer loop
      vertex 6.88165 6.91563 5
      vertex 7.8717 8.45619 5
      vertex 6.88165 6.91563 8
    endloop
  endfacet
  facet normal 1 0 0
    outer loop
      vertex 66.8816 6.91563 5
      vertex 66.8816 6.91563 8
      vertex 66.8816 5.08437 8
    endloop
  endfacet
  facet normal 1 0 0
    outer loop
      vertex 66.8816 5.08437 5
      vertex 66.8816 6.91563 5
      vertex 66.8816 5.08437 8
    endloop
  endfacet
  facet normal 0.841253 0.540641 0
    outer loop
      vertex 66.8816 5.08437 8
      vertex 67.8717 3.54381 8
      vertex 67.8717 3.54381 5
    endloop
  endfacet
  facet normal 0.841253 0.540641 0
    outer loop
      vertex 66.8816 5.08437 5
      vertex 66.8816 5.08437 8
      vertex 67.8717 3.54381 5
    endloop
  endfacet
  facet normal 0.415415 0.909632 0
    outer loop
      vertex 69.5375 2.78308 8
      vertex 69.5375 2.78308 5
      vertex 67.8717 3.54381 8
    endloop
  endfacet
  facet normal 0.415415 0.909632 0
    outer loop
      vertex 67.8717 3.54381 8
      vertex 69.5375 2.78308 5
      vertex 67.8717 3.54381 5
    endloop
  endfacet
  facet normal -0.142315 0.989821 0
    outer loop
      vertex 71.3501 3.0437 8
      vertex 71.3501 3.0437 5
      vertex 69.5375 2.78308 8
    endloop
  endfacet
  facet normal -0.142315 0.989821 0
    outer loop
      vertex 69.5375 2.78308 8
      vertex 71.3501 3.0437 5
      vertex 69.5375 2.78308 5
    endloop
  endfacet
  facet normal -0.654861 0.75575 0
    outer loop
      vertex 72.7341 4.24292 8
      vertex 72.7341 4.24292 5
      vertex 71.3501 3.0437 8
    endloop
  endfacet
  facet normal -0.654861 0.75575 0
    outer loop
      vertex 71.3501 3.0437 8
      vertex 72.7341 4.24292 5
      vertex 71.3501 3.0437 5
    endloop
  endfacet
  facet normal -0.959493 0.281732 0
    outer loop
      vertex 73.25 6 8
      vertex 73.25 6 5
      vertex 72.7341 4.24292 8
    endloop
  endfacet
  facet normal -0.959493 0.281732 0
    outer loop
      vertex 72.7341 4.24292 8
      vertex 73.25 6 5
      vertex 72.7341 4.24292 5
    endloop
  endfacet
  facet normal -0.959493 -0.281732 0
    outer loop
      vertex 73.25 6 8
      vertex 72.7341 7.75708 8
      vertex 73.25 6 5
    endloop
  endfacet
  facet normal -0.959493 -0.281732 0
    outer loop
      vertex 73.25 6 5
      vertex 72.7341 7.75708 8
      vertex 72.7341 7.75708 5
    endloop
  endfacet
  facet normal -0.654861 -0.75575 0
    outer loop
      vertex 72.7341 7.75708 5
      vertex 72.7341 7.75708 8
      vertex 71.3501 8.9563 8
    endloop
  endfacet
  facet normal -0.654861 -0.75575 0
    outer loop
      vertex 71.3501 8.9563 5
      vertex 72.7341 7.75708 5
      vertex 71.3501 8.9563 8
    endloop
  endfacet
  facet normal -0.142315 -0.989821 0
    outer loop
      vertex 71.3501 8.9563 5
      vertex 71.3501 8.9563 8
      vertex 69.5375 9.21692 8
    endloop
  endfacet
  facet normal -0.142315 -0.989821 0
    outer loop
      vertex 69.5375 9.21692 5
      vertex 71.3501 8.9563 5
      vertex 69.5375 9.21692 8
    endloop
  endfacet
  facet normal 0.415415 -0.909632 0
    outer loop
      vertex 69.5375 9.21692 5
      vertex 69.5375 9.21692 8
      vertex 67.8717 8.45619 8
    endloop
  endfacet
  facet normal 0.415415 -0.909632 0
    outer loop
      vertex 67.8717 8.45619 5
      vertex 69.5375 9.21692 5
      vertex 67.8717 8.45619 8
    endloop
  endfacet
  facet normal 0.841253 -0.540641 0
    outer loop
      vertex 67.8717 8.45619 5
      vertex 67.8717 8.45619 8
      vertex 66.8816 6.91563 8
    endloop
  endfacet
  facet normal 0.841253 -0.540641 0
    outer loop
      vertex 66.8816 6.91563 5
      vertex 67.8717 8.45619 5
      vertex 66.8816 6.91563 8
    endloop
  endfacet
  facet normal 0.866025 0.5 0
    outer loop
      vertex 8.4 6 5
      vertex 9.2 4.61436 5
      vertex 9.2 4.61436 3
    endloop
  endfacet
  facet normal 0.866025 0.5 0
    outer loop
      vertex 8.4 6 3
      vertex 8.4 6 5
      vertex 9.2 4.61436 3
    endloop
  endfacet
  facet normal 0 1 0
    outer loop
      vertex 10.8 4.61436 5
      vertex 10.8 4.61436 3
      vertex 9.2 4.61436 5
    endloop
  endfacet
  facet normal 0 1 0
    outer loop
      vertex 9.2 4.61436 5
      vertex 10.8 4.61436 3
      vertex 9.2 4.61436 3
    endloop
  endfacet
  facet normal 0.866025 -0.5 0
    outer loop
      vertex 9.2 7.38564 3
      vertex 9.2 7.38564 5
      vertex 8.4 6 5
    endloop
  endfacet
  facet normal 0.866025 -0.5 0
    outer loop
      vertex 8.4 6 3
      vertex 9.2 7.38564 3
      vertex 8.4 6 5
    endloop
  endfacet
  facet normal 0 -1 0
    outer loop
      vertex 10.8 7.38564 3
      vertex 10.8 7.38564 5
      vertex 9.2 7.38564 5
    endloop
  endfacet
  facet normal 0 -1 0
    outer loop
      vertex 9.2 7.38564 3
      vertex 10.8 7.38564 3
      vertex 9.2 7.38564 5
    endloop
  endfacet
  facet normal -0.866025 -0.5 0
    outer loop
      vertex 11.6 6 5
      vertex 10.8 7.38564 5
      vertex 11.6 6 3
    endloop
  endfacet
  facet normal -0.866025 -0.5 0
    outer loop
      vertex 11.6 6 3
      vertex 10.8 7.38564 5
      vertex 10.8 7.38564 3
    endloop
  endfacet
  facet normal -0.866025 0.5 0
    outer loop
      vertex 11.6 6 5
      vertex 11.6 6 3
      vertex 10.8 4.61436 5
    endloop
  endfacet
  facet normal -0.866025 0.5 0
    outer loop
      vertex 10.8 4.61436 5
      vertex 11.6 6 3
      vertex 10.8 4.61436 3
    endloop
  endfacet
  facet normal 0.866025 0.5 0
    outer loop
      vertex 68.4 6 5
      vertex 69.2 4.61436 5
      vertex 69.2 4.61436 3
    endloop
  endfacet
  facet normal 0.866025 0.5 0
    outer loop
      vertex 68.4 6 3
      vertex 68.4 6 5
      vertex 69.2 4.61436 3
    endloop
  endfacet
  facet normal 0 1 0
    outer loop
      vertex 70.8 4.61436 5
      vertex 70.8 4.61436 3
      vertex 69.2 4.61436 5
    endloop
  endfacet
  facet normal 0 1 0
    outer loop
      vertex 69.2 4.61436 5
      vertex 70.8 4.61436 3
      vertex 69.2 4.61436 3
    endloop
  endfacet
  facet normal 0.866025 -0.5 0
    outer loop
      vertex 69.2 7.38564 3
      vertex 69.2 7.38564 5
      vertex 68.4 6 5
    endloop
  endfacet
  facet normal 0.866025 -0.5 0
    outer loop
      vertex 68.4 6 3
      vertex 69.2 7.38564 3
      vertex 68.4 6 5
    endloop
  endfacet
  facet normal 0 -1 0
    outer loop
      vertex 70.8 7.38564 3
      vertex 70.8 7.38564 5
      vertex 69.2 7.38564 5
    endloop
  endfacet
  facet normal 0 -1 0
    outer loop
      vertex 69.2 7.38564 3
      vertex 70.8 7.38564 3
      vertex 69.2 7.38564 5
    endloop
  endfacet
  facet normal -0.866025 -0.5 0
    outer loop
      vertex 71.6 6 5
      vertex 70.8 7.38564 5
      vertex 71.6 6 3
    endloop
  endfacet
  facet normal -0.866025 -0.5 0
    outer loop
      vertex 71.6 6 3
      vertex 70.8 7.38564 5
      vertex 70.8 7.38564 3
    endloop
  endfacet
  facet normal -0.866025 0.5 0
    outer loop
      vertex 71.6 6 5
      vertex 71.6 6 3
      vertex 70.8 4.61436 5
    endloop
  endfacet
  facet normal -0.866025 0.5 0
    outer loop
      vertex 70.8 4.61436 5
      vertex 71.6 6 3
      vertex 70.8 4.61436 3
    endloop
  endfacet
  facet normal 0 0 1
    outer loop
      vertex 6.88165 6.91563 5
      vertex 6.88165 5.08437 5
      vertex 7.8717 3.54381 5
    endloop
  endfacet
  facet normal 0 0 1
    outer loop
      vertex 9.2 4.61436 5
      vertex 6.88165 6.91563 5
      vertex 9.53748 2.78308 5
    endloop
  endfacet
  facet normal 0 0 1
    outer loop
      vertex 9.53748 2.78308 5
      vertex 6.88165 6.91563 5
      vertex 7.8717 3.54381 5
    endloop
  endfacet
  facet normal 0 0 1
    outer loop
      vertex 11.6 6 5
      vertex 10.8 4.61436 5
      vertex 12.7341 4.24292 5
    endloop
  endfacet
  facet normal 0 0 1
    outer loop
      vertex 9.53748 9.21692 5
      vertex 6.88165 6.91563 5
      vertex 11.3501 8.9563 5
    endloop
  endfacet
  facet normal 0 0 1
    outer loop
      vertex 7.8717 8.45619 5
      vertex 6.88165 6.91563 5
      vertex 9.53748 9.21692 5
    endloop
  endfacet
  facet normal 0 0 1
    outer loop
      vertex 11.3501 3.0437 5
      vertex 9.2 4.61436 5
      vertex 9.53748 2.78308 5
    endloop
  endfacet
  facet normal 0 0 1
    outer loop
      vertex 9.2 7.38564 5
      vertex 10.8 7.38564 5
      vertex 12.7341 7.75708 5
    endloop
  endfacet
  facet normal 0 0 1
    outer loop
      vertex 11.3501 8.9563 5
      vertex 9.2 7.38564 5
      vertex 12.7341 7.75708 5
    endloop
  endfacet
  facet normal 0 0 1
    outer loop
      vertex 11.3501 8.9563 5
      vertex 6.88165 6.91563 5
      vertex 9.2 7.38564 5
    endloop
  endfacet
  facet normal 0 0 1
    outer loop
      vertex 12.7341 7.75708 5
      vertex 10.8 7.38564 5
      vertex 13.25 6 5
    endloop
  endfacet
  facet normal 0 0 1
    outer loop
      vertex 10.8 7.38564 5
      vertex 11.6 6 5
      vertex 13.25 6 5
    endloop
  endfacet
  facet normal 0 0 1
    outer loop
      vertex 13.25 6 5
      vertex 11.6 6 5
      vertex 12.7341 4.24292 5
    endloop
  endfacet
  facet normal 0 0 1
    outer loop
      vertex 12.7341 4.24292 5
      vertex 10.8 4.61436 5
      vertex 11.3501 3.0437 5
    endloop
  endfacet
  facet normal 0 0 1
    outer loop
      vertex 9.2 4.61436 5
      vertex 8.4 6 5
      vertex 6.88165 6.91563 5
    endloop
  endfacet
  facet normal 0 0 1
    outer loop
      vertex 10.8 4.61436 5
      vertex 9.2 4.61436 5
      vertex 11.3501 3.0437 5
    endloop
  endfacet
  facet normal 0 0 1
    outer loop
      vertex 8.4 6 5
      vertex 9.2 7.38564 5
      vertex 6.88165 6.91563 5
    endloop
  endfacet
  facet normal 0 0 1
    outer loop
      vertex 66.8816 6.91563 5
      vertex 66.8816 5.08437 5
      vertex 67.8717 3.54381 5
    endloop
  endfacet
  facet normal 0 0 1
    outer loop
      vertex 69.2 4.61436 5
      vertex 66.8816 6.91563 5
      vertex 69.5375 2.78308 5
    endloop
  endfacet
  facet normal 0 0 1
    outer loop
      vertex 69.5375 2.78308 5
      vertex 66.8816 6.91563 5
      vertex 67.8717 3.54381 5
    endloop
  endfacet
  facet normal 0 0 1
    outer loop
      vertex 71.6 6 5
      vertex 70.8 4.61436 5
      vertex 72.7341 4.24292 5
    endloop
  endfacet
  facet normal 0 0 1
    outer loop
      vertex 69.5375 9.21692 5
      vertex 66.8816 6.91563 5
      vertex 71.3501 8.9563 5
    endloop
  endfacet
  facet normal 0 0 1
    outer loop
      vertex 67.8717 8.45619 5
      vertex 66.8816 6.91563 5
      vertex 69.5375 9.21692 5
    endloop
  endfacet
  facet normal 0 0 1
    outer loop
      vertex 71.3501 3.0437 5
      vertex 69.2 4.61436 5
      vertex 69.5375 2.78308 5
    endloop
  endfacet
  facet normal 0 0 1
    outer loop
      vertex 69.2 7.38564 5
      vertex 70.8 7.38564 5
      vertex 72.7341 7.75708 5
    endloop
  endfacet
  facet normal 0 0 1
    outer loop
      vertex 71.3501 8.9563 5
      vertex 69.2 7.38564 5
      vertex 72.7341 7.75708 5
    endloop
  endfacet
  facet normal 0 0 1
    outer loop
      vertex 71.3501 8.9563 5
      vertex 66.8816 6.91563 5
      vertex 69.2 7.38564 5
    endloop
  endfacet
  facet normal 0 0 1
    outer loop
      vertex 72.7341 7.75708 5
      vertex 70.8 7.38564 5
      vertex 73.25 6 5
    endloop
  endfacet
  facet normal 0 0 1
    outer loop
      vertex 70.8 7.38564 5
      vertex 71.6 6 5
      vertex 73.25 6 5
    endloop
  endfacet
  facet normal 0 0 1
    outer loop
      vertex 73.25 6 5
      vertex 71.6 6 5
      vertex 72.7341 4.24292 5
    endloop
  endfacet
  facet normal 0 0 1
    outer loop
      vertex 72.7341 4.24292 5
      vertex 70.8 4.61436 5
      vertex 71.3501 3.0437 5
    endloop
  endfacet
  facet normal 0 0 1
    outer loop
      vertex 69.2 4.61436 5
      vertex 68.4 6 5
      vertex 66.8816 6.91563 5
    endloop
  endfacet
  facet normal 0 0 1
    outer loop
      vertex 70.8 4.61436 5
      vertex 69.2 4.61436 5
      vertex 71.3501 3.0437 5
    endloop
  endfacet
  facet normal 0 0 1
    outer loop
      vertex 68.4 6 5
      vertex 69.2 7.38564 5
      vertex 66.8816 6.91563 5
    endloop
  endfacet
endsolid OpenSCAD_Model
