solid OpenSCAD_Model
  facet normal -1 0 -0
    outer loop
      vertex 0 5 0
      vertex 0 5 -20
      vertex 0 0 -20
    endloop
  endfacet
  facet normal -1 0 -0
    outer loop
      vertex 0 50 2
      vertex 0 50 0
      vertex 0 5 0
    endloop
  endfacet
  facet normal -1 -0 0
    outer loop
      vertex 0 50 2
      vertex 0 5 0
      vertex 0 0 2
    endloop
  endfacet
  facet normal -1 0 0
    outer loop
      vertex 0 0 2
      vertex 0 5 0
      vertex 0 0 -20
    endloop
  endfacet
  facet normal -0 -1 0
    outer loop
      vertex 68 0 2
      vertex 0 0 2
      vertex 53 0 -7.5
    endloop
  endfacet
  facet normal -0 -1 0
    outer loop
      vertex 12.5 0 -10
      vertex 0 0 2
      vertex 0 0 -20
    endloop
  endfacet
  facet normal 0 -1 -0
    outer loop
      vertex 12.5 0 -10
      vertex 0 0 -20
      vertex 13.1276 0 -11.5152
    endloop
  endfacet
  facet normal -0 -1 0
    outer loop
      vertex 13.1276 0 -8.48477
      vertex 0 0 2
      vertex 12.5 0 -10
    endloop
  endfacet
  facet normal -0 -1 0
    outer loop
      vertex 13.2322 0 -8.23223
      vertex 0 0 2
      vertex 13.1276 0 -8.48477
    endloop
  endfacet
  facet normal -0 -1 0
    outer loop
      vertex 13.4848 0 -8.12763
      vertex 0 0 2
      vertex 13.2322 0 -8.23223
    endloop
  endfacet
  facet normal 0 -1 0
    outer loop
      vertex 16.8724 0 -8.48477
      vertex 17.5 0 -10
      vertex 50.5 0 -10
    endloop
  endfacet
  facet normal -0 -1 0
    outer loop
      vertex 15 0 -7.5
      vertex 0 0 2
      vertex 13.4848 0 -8.12763
    endloop
  endfacet
  facet normal 0 -1 0
    outer loop
      vertex 16.7678 0 -8.23223
      vertex 51.1276 0 -8.48477
      vertex 51.2322 0 -8.23223
    endloop
  endfacet
  facet normal 0 -1 0
    outer loop
      vertex 16.5152 0 -8.12763
      vertex 51.4848 0 -8.12763
      vertex 15 0 -7.5
    endloop
  endfacet
  facet normal 0 -1 0
    outer loop
      vertex 17.5 0 -10
      vertex 51.1276 0 -11.5152
      vertex 50.5 0 -10
    endloop
  endfacet
  facet normal 0 -1 0
    outer loop
      vertex 16.8724 0 -8.48477
      vertex 51.1276 0 -8.48477
      vertex 16.7678 0 -8.23223
    endloop
  endfacet
  facet normal 0 -1 -0
    outer loop
      vertex 17.5 0 -10
      vertex 16.8724 0 -11.5152
      vertex 51.1276 0 -11.5152
    endloop
  endfacet
  facet normal 0 -1 -0
    outer loop
      vertex 13.1276 0 -11.5152
      vertex 0 0 -20
      vertex 13.2322 0 -11.7678
    endloop
  endfacet
  facet normal 0 -1 0
    outer loop
      vertex 16.8724 0 -11.5152
      vertex 51.2322 0 -11.7678
      vertex 51.1276 0 -11.5152
    endloop
  endfacet
  facet normal 0 -1 -0
    outer loop
      vertex 15 0 -12.5
      vertex 0 0 -20
      vertex 68 0 -20
    endloop
  endfacet
  facet normal 0 -1 0
    outer loop
      vertex 51.4848 0 -11.8724
      vertex 16.7678 0 -11.7678
      vertex 16.5152 0 -11.8724
    endloop
  endfacet
  facet normal 0 -1 -0
    outer loop
      vertex 13.4848 0 -11.8724
      vertex 0 0 -20
      vertex 15 0 -12.5
    endloop
  endfacet
  facet normal 0 -1 -0
    outer loop
      vertex 13.2322 0 -11.7678
      vertex 0 0 -20
      vertex 13.4848 0 -11.8724
    endloop
  endfacet
  facet normal 0 -1 -0
    outer loop
      vertex 16.5152 0 -11.8724
      vertex 15 0 -12.5
      vertex 53 0 -12.5
    endloop
  endfacet
  facet normal 0 -1 0
    outer loop
      vertex 16.8724 0 -8.48477
      vertex 50.5 0 -10
      vertex 51.1276 0 -8.48477
    endloop
  endfacet
  facet normal 0 -1 0
    outer loop
      vertex 16.7678 0 -8.23223
      vertex 51.2322 0 -8.23223
      vertex 16.5152 0 -8.12763
    endloop
  endfacet
  facet normal 0 -1 0
    outer loop
      vertex 15 0 -7.5
      vertex 53 0 -7.5
      vertex 0 0 2
    endloop
  endfacet
  facet normal 0 -1 0
    outer loop
      vertex 51.2322 0 -8.23223
      vertex 51.4848 0 -8.12763
      vertex 16.5152 0 -8.12763
    endloop
  endfacet
  facet normal 0 -1 0
    outer loop
      vertex 51.4848 0 -8.12763
      vertex 53 0 -7.5
      vertex 15 0 -7.5
    endloop
  endfacet
  facet normal 0 -1 0
    outer loop
      vertex 53 0 -7.5
      vertex 54.5152 0 -8.12763
      vertex 68 0 2
    endloop
  endfacet
  facet normal 0 -1 0
    outer loop
      vertex 53 0 -12.5
      vertex 68 0 -20
      vertex 54.5152 0 -11.8724
    endloop
  endfacet
  facet normal 0 -1 0
    outer loop
      vertex 54.5152 0 -8.12763
      vertex 54.7678 0 -8.23223
      vertex 68 0 2
    endloop
  endfacet
  facet normal 0 -1 0
    outer loop
      vertex 55.5 0 -10
      vertex 68 0 -20
      vertex 68 0 2
    endloop
  endfacet
  facet normal 0 -1 0
    outer loop
      vertex 54.8724 0 -8.48477
      vertex 68 0 2
      vertex 54.7678 0 -8.23223
    endloop
  endfacet
  facet normal 0 -1 0
    outer loop
      vertex 55.5 0 -10
      vertex 68 0 2
      vertex 54.8724 0 -8.48477
    endloop
  endfacet
  facet normal 0 -1 0
    outer loop
      vertex 54.8724 0 -11.5152
      vertex 68 0 -20
      vertex 55.5 0 -10
    endloop
  endfacet
  facet normal 0 -1 0
    outer loop
      vertex 54.7678 0 -11.7678
      vertex 68 0 -20
      vertex 54.8724 0 -11.5152
    endloop
  endfacet
  facet normal 0 -1 0
    outer loop
      vertex 54.5152 0 -11.8724
      vertex 68 0 -20
      vertex 54.7678 0 -11.7678
    endloop
  endfacet
  facet normal -0 -1 -0
    outer loop
      vertex 53 0 -12.5
      vertex 15 0 -12.5
      vertex 68 0 -20
    endloop
  endfacet
  facet normal 0 -1 0
    outer loop
      vertex 53 0 -12.5
      vertex 51.4848 0 -11.8724
      vertex 16.5152 0 -11.8724
    endloop
  endfacet
  facet normal 0 -1 0
    outer loop
      vertex 51.4848 0 -11.8724
      vertex 51.2322 0 -11.7678
      vertex 16.7678 0 -11.7678
    endloop
  endfacet
  facet normal 0 -1 0
    outer loop
      vertex 51.2322 0 -11.7678
      vertex 16.8724 0 -11.5152
      vertex 16.7678 0 -11.7678
    endloop
  endfacet
  facet normal 0 -0 -1
    outer loop
      vertex 68 50 0
      vertex 68 5 0
      vertex 65 46 0
    endloop
  endfacet
  facet normal 0 0 -1
    outer loop
      vertex 39 50 0
      vertex 68 50 0
      vertex 62.2865 46.8817 0
    endloop
  endfacet
  facet normal 0 0 -1
    outer loop
      vertex 39 50 0
      vertex 62.2865 9.88168 0
      vertex 39 5 0
    endloop
  endfacet
  facet normal 0 -0 -1
    outer loop
      vertex 65 9 0
      vertex 68 5 0
      vertex 63.9635 7.57342 0
    endloop
  endfacet
  facet normal 0 -0 -1
    outer loop
      vertex 62.2865 9.88168 0
      vertex 62.2865 8.11832 0
      vertex 39 5 0
    endloop
  endfacet
  facet normal 0 -0 -1
    outer loop
      vertex 62.2865 8.11832 0
      vertex 68 5 0
      vertex 39 5 0
    endloop
  endfacet
  facet normal -0 -0 -1
    outer loop
      vertex 63.9635 7.57342 0
      vertex 68 5 0
      vertex 62.2865 8.11832 0
    endloop
  endfacet
  facet normal 0 0 -1
    outer loop
      vertex 68 5 0
      vertex 65 9 0
      vertex 65 46 0
    endloop
  endfacet
  facet normal 0 0 -1
    outer loop
      vertex 39 50 0
      vertex 62.2865 45.1183 0
      vertex 62.2865 9.88168 0
    endloop
  endfacet
  facet normal 0 0 -1
    outer loop
      vertex 65 9 0
      vertex 63.9635 10.4266 0
      vertex 63.9635 44.5734 0
    endloop
  endfacet
  facet normal -0 -0 -1
    outer loop
      vertex 62.2865 46.8817 0
      vertex 62.2865 45.1183 0
      vertex 39 50 0
    endloop
  endfacet
  facet normal 0 -0 -1
    outer loop
      vertex 63.9635 44.5734 0
      vertex 63.9635 10.4266 0
      vertex 62.2865 9.88168 0
    endloop
  endfacet
  facet normal 0 0 -1
    outer loop
      vertex 65 9 0
      vertex 63.9635 44.5734 0
      vertex 65 46 0
    endloop
  endfacet
  facet normal -0 0 -1
    outer loop
      vertex 63.9635 44.5734 0
      vertex 62.2865 9.88168 0
      vertex 62.2865 45.1183 0
    endloop
  endfacet
  facet normal 0 0 -1
    outer loop
      vertex 68 50 0
      vertex 65 46 0
      vertex 63.9635 47.4266 0
    endloop
  endfacet
  facet normal 0 0 -1
    outer loop
      vertex 68 50 0
      vertex 63.9635 47.4266 0
      vertex 62.2865 46.8817 0
    endloop
  endfacet
  facet normal 0 0 -1
    outer loop
      vertex 29 5 0
      vertex 7 9 0
      vertex 5.96353 10.4266 0
    endloop
  endfacet
  facet normal 0 0 -1
    outer loop
      vertex 0 50 0
      vertex 4.28647 9.88168 0
      vertex 0 5 0
    endloop
  endfacet
  facet normal 0 0 -1
    outer loop
      vertex 4.28647 9.88168 0
      vertex 4.28647 8.11832 0
      vertex 0 5 0
    endloop
  endfacet
  facet normal 0 -0 -1
    outer loop
      vertex 29 50 0
      vertex 29 5 0
      vertex 5.96353 10.4266 0
    endloop
  endfacet
  facet normal 0 -0 -1
    outer loop
      vertex 4.28647 8.11832 0
      vertex 5.96353 7.57342 0
      vertex 0 5 0
    endloop
  endfacet
  facet normal 0 -0 -1
    outer loop
      vertex 5.96353 7.57342 0
      vertex 29 5 0
      vertex 0 5 0
    endloop
  endfacet
  facet normal 0 -0 -1
    outer loop
      vertex 7 9 0
      vertex 29 5 0
      vertex 5.96353 7.57342 0
    endloop
  endfacet
  facet normal 0 0 -1
    outer loop
      vertex 29 50 0
      vertex 5.96353 10.4266 0
      vertex 5.96353 44.5734 0
    endloop
  endfacet
  facet normal -0 0 -1
    outer loop
      vertex 5.96353 10.4266 0
      vertex 4.28647 9.88168 0
      vertex 5.96353 44.5734 0
    endloop
  endfacet
  facet normal -0 0 -1
    outer loop
      vertex 4.28647 46.8817 0
      vertex 4.28647 45.1183 0
      vertex 0 50 0
    endloop
  endfacet
  facet normal -0 -0 -1
    outer loop
      vertex 4.28647 45.1183 0
      vertex 4.28647 9.88168 0
      vertex 0 50 0
    endloop
  endfacet
  facet normal 0 0 -1
    outer loop
      vertex 29 50 0
      vertex 5.96353 44.5734 0
      vertex 7 46 0
    endloop
  endfacet
  facet normal -0 0 -1
    outer loop
      vertex 5.96353 44.5734 0
      vertex 4.28647 9.88168 0
      vertex 4.28647 45.1183 0
    endloop
  endfacet
  facet normal 0 0 -1
    outer loop
      vertex 29 50 0
      vertex 7 46 0
      vertex 5.96353 47.4266 0
    endloop
  endfacet
  facet normal -0 0 -1
    outer loop
      vertex 29 50 0
      vertex 5.96353 47.4266 0
      vertex 0 50 0
    endloop
  endfacet
  facet normal -0 0 -1
    outer loop
      vertex 5.96353 47.4266 0
      vertex 4.28647 46.8817 0
      vertex 0 50 0
    endloop
  endfacet
  facet normal 0 1 0
    outer loop
      vertex 0 50 2
      vertex 29 50 0
      vertex 0 50 0
    endloop
  endfacet
  facet normal 0 1 0
    outer loop
      vertex 0 50 2
      vertex 39 50 0
      vertex 29 50 0
    endloop
  endfacet
  facet normal 0 1 0
    outer loop
      vertex 68 50 2
      vertex 68 50 0
      vertex 39 50 0
    endloop
  endfacet
  facet normal 0 1 0
    outer loop
      vertex 68 50 2
      vertex 39 50 0
      vertex 0 50 2
    endloop
  endfacet
  facet normal 0 1 -0
    outer loop
      vertex 39 50 -20
      vertex 29 50 0
      vertex 39 50 0
    endloop
  endfacet
  facet normal 0 1 0
    outer loop
      vertex 29 50 -20
      vertex 29 50 0
      vertex 39 50 -20
    endloop
  endfacet
  facet normal 0 0 1
    outer loop
      vertex 68 50 2
      vertex 0 50 2
      vertex 5.96353 47.4266 2
    endloop
  endfacet
  facet normal 0 0 1
    outer loop
      vertex 4.28647 9.88168 2
      vertex 0 50 2
      vertex 0 0 2
    endloop
  endfacet
  facet normal 0 0 1
    outer loop
      vertex 0 50 2
      vertex 4.28647 9.88168 2
      vertex 4.28647 45.1183 2
    endloop
  endfacet
  facet normal 0 0 1
    outer loop
      vertex 4.28647 9.88168 2
      vertex 0 0 2
      vertex 4.28647 8.11832 2
    endloop
  endfacet
  facet normal 0 0 1
    outer loop
      vertex 7 46 2
      vertex 7 9 2
      vertex 62.2865 9.88168 2
    endloop
  endfacet
  facet normal 0 0 1
    outer loop
      vertex 4.28647 8.11832 2
      vertex 0 0 2
      vertex 5.96353 7.57342 2
    endloop
  endfacet
  facet normal 0 0 1
    outer loop
      vertex 7 9 2
      vertex 5.96353 7.57342 2
      vertex 62.2865 8.11832 2
    endloop
  endfacet
  facet normal 0 0 1
    outer loop
      vertex 5.96353 7.57342 2
      vertex 0 0 2
      vertex 68 0 2
    endloop
  endfacet
  facet normal 0 0 1
    outer loop
      vertex 4.28647 9.88168 2
      vertex 5.96353 10.4266 2
      vertex 5.96353 44.5734 2
    endloop
  endfacet
  facet normal 0 0 1
    outer loop
      vertex 4.28647 45.1183 2
      vertex 4.28647 9.88168 2
      vertex 5.96353 44.5734 2
    endloop
  endfacet
  facet normal 0 0 1
    outer loop
      vertex 4.28647 46.8817 2
      vertex 0 50 2
      vertex 4.28647 45.1183 2
    endloop
  endfacet
  facet normal 0 0 1
    outer loop
      vertex 68 50 2
      vertex 5.96353 47.4266 2
      vertex 62.2865 46.8817 2
    endloop
  endfacet
  facet normal 0 0 1
    outer loop
      vertex 5.96353 47.4266 2
      vertex 0 50 2
      vertex 4.28647 46.8817 2
    endloop
  endfacet
  facet normal 0 0 1
    outer loop
      vertex 5.96353 47.4266 2
      vertex 7 46 2
      vertex 62.2865 46.8817 2
    endloop
  endfacet
  facet normal 0 0 1
    outer loop
      vertex 7 46 2
      vertex 5.96353 10.4266 2
      vertex 7 9 2
    endloop
  endfacet
  facet normal -0 0 1
    outer loop
      vertex 5.96353 44.5734 2
      vertex 5.96353 10.4266 2
      vertex 7 46 2
    endloop
  endfacet
  facet normal 0 0 1
    outer loop
      vertex 62.2865 8.11832 2
      vertex 5.96353 7.57342 2
      vertex 68 0 2
    endloop
  endfacet
  facet normal 0 0 1
    outer loop
      vertex 62.2865 45.1183 2
      vertex 62.2865 9.88168 2
      vertex 63.9635 44.5734 2
    endloop
  endfacet
  facet normal 0 0 1
    outer loop
      vertex 62.2865 9.88168 2
      vertex 7 9 2
      vertex 62.2865 8.11832 2
    endloop
  endfacet
  facet normal 0 0 1
    outer loop
      vertex 63.9635 44.5734 2
      vertex 63.9635 10.4266 2
      vertex 65 9 2
    endloop
  endfacet
  facet normal 0 0 1
    outer loop
      vertex 68 50 2
      vertex 65 9 2
      vertex 68 0 2
    endloop
  endfacet
  facet normal 0 0 1
    outer loop
      vertex 65 9 2
      vertex 63.9635 7.57342 2
      vertex 68 0 2
    endloop
  endfacet
  facet normal 0 0 1
    outer loop
      vertex 63.9635 7.57342 2
      vertex 62.2865 8.11832 2
      vertex 68 0 2
    endloop
  endfacet
  facet normal 0 0 1
    outer loop
      vertex 62.2865 45.1183 2
      vertex 7 46 2
      vertex 62.2865 9.88168 2
    endloop
  endfacet
  facet normal 0 0 1
    outer loop
      vertex 68 50 2
      vertex 62.2865 46.8817 2
      vertex 63.9635 47.4266 2
    endloop
  endfacet
  facet normal 0 0 1
    outer loop
      vertex 62.2865 46.8817 2
      vertex 7 46 2
      vertex 62.2865 45.1183 2
    endloop
  endfacet
  facet normal 0 0 1
    outer loop
      vertex 68 50 2
      vertex 63.9635 47.4266 2
      vertex 65 46 2
    endloop
  endfacet
  facet normal 0 0 1
    outer loop
      vertex 68 50 2
      vertex 65 46 2
      vertex 65 9 2
    endloop
  endfacet
  facet normal 0 0 1
    outer loop
      vertex 65 46 2
      vertex 63.9635 44.5734 2
      vertex 65 9 2
    endloop
  endfacet
  facet normal 0 0 1
    outer loop
      vertex 63.9635 44.5734 2
      vertex 62.2865 9.88168 2
      vertex 63.9635 10.4266 2
    endloop
  endfacet
  facet normal 1 0 0
    outer loop
      vertex 68 5 0
      vertex 68 0 2
      vertex 68 0 -20
    endloop
  endfacet
  facet normal 1 0 -0
    outer loop
      vertex 68 5 -20
      vertex 68 5 0
      vertex 68 0 -20
    endloop
  endfacet
  facet normal 1 0 0
    outer loop
      vertex 68 50 2
      vertex 68 0 2
      vertex 68 5 0
    endloop
  endfacet
  facet normal 1 0 -0
    outer loop
      vertex 68 50 0
      vertex 68 50 2
      vertex 68 5 0
    endloop
  endfacet
  facet normal -1 0 0
    outer loop
      vertex 29 5 0
      vertex 29 50 -20
      vertex 29 5 -20
    endloop
  endfacet
  facet normal -1 0 0
    outer loop
      vertex 29 5 0
      vertex 29 50 0
      vertex 29 50 -20
    endloop
  endfacet
  facet normal 0 -0 -1
    outer loop
      vertex 39 5 -20
      vertex 68 0 -20
      vertex 0 0 -20
    endloop
  endfacet
  facet normal 0 0 -1
    outer loop
      vertex 0 5 -20
      vertex 29 5 -20
      vertex 0 0 -20
    endloop
  endfacet
  facet normal -0 -0 -1
    outer loop
      vertex 68 5 -20
      vertex 68 0 -20
      vertex 39 5 -20
    endloop
  endfacet
  facet normal 0 0 -1
    outer loop
      vertex 29 50 -20
      vertex 39 5 -20
      vertex 29 5 -20
    endloop
  endfacet
  facet normal -0 -0 -1
    outer loop
      vertex 39 50 -20
      vertex 39 5 -20
      vertex 29 50 -20
    endloop
  endfacet
  facet normal -0 0 -1
    outer loop
      vertex 39 5 -20
      vertex 0 0 -20
      vertex 29 5 -20
    endloop
  endfacet
  facet normal 1 0 0
    outer loop
      vertex 39 50 -20
      vertex 39 5 0
      vertex 39 5 -20
    endloop
  endfacet
  facet normal 1 0 -0
    outer loop
      vertex 39 50 -20
      vertex 39 50 0
      vertex 39 5 0
    endloop
  endfacet
  facet normal 0 1 0
    outer loop
      vertex 0 5 0
      vertex 12.5 5 -10
      vertex 0 5 -20
    endloop
  endfacet
  facet normal 0 1 0
    outer loop
      vertex 12.5 5 -10
      vertex 12.6046 5 -10.2525
      vertex 0 5 -20
    endloop
  endfacet
  facet normal 0 1 0
    outer loop
      vertex 29 5 0
      vertex 29 5 -20
      vertex 17.5 5 -10
    endloop
  endfacet
  facet normal 0 1 0
    outer loop
      vertex 12.6046 5 -10.2525
      vertex 13.2322 5 -11.7678
      vertex 0 5 -20
    endloop
  endfacet
  facet normal 0 1 0
    outer loop
      vertex 15 5 -12.5
      vertex 29 5 -20
      vertex 0 5 -20
    endloop
  endfacet
  facet normal 0 1 0
    outer loop
      vertex 14.7475 5 -12.3954
      vertex 0 5 -20
      vertex 13.2322 5 -11.7678
    endloop
  endfacet
  facet normal 0 1 0
    outer loop
      vertex 15 5 -12.5
      vertex 0 5 -20
      vertex 14.7475 5 -12.3954
    endloop
  endfacet
  facet normal 0 1 0
    outer loop
      vertex 15.2525 5 -12.3954
      vertex 29 5 -20
      vertex 15 5 -12.5
    endloop
  endfacet
  facet normal 0 1 0
    outer loop
      vertex 29 5 -20
      vertex 16.7678 5 -11.7678
      vertex 17.3954 5 -10.2525
    endloop
  endfacet
  facet normal 0 1 0
    outer loop
      vertex 16.7678 5 -11.7678
      vertex 29 5 -20
      vertex 15.2525 5 -12.3954
    endloop
  endfacet
  facet normal 0 1 0
    outer loop
      vertex 29 5 -20
      vertex 17.3954 5 -10.2525
      vertex 17.5 5 -10
    endloop
  endfacet
  facet normal 0 1 0
    outer loop
      vertex 29 5 0
      vertex 17.5 5 -10
      vertex 17.3954 5 -9.74746
    endloop
  endfacet
  facet normal 0 1 0
    outer loop
      vertex 29 5 0
      vertex 17.3954 5 -9.74746
      vertex 16.7678 5 -8.23223
    endloop
  endfacet
  facet normal 0 1 0
    outer loop
      vertex 29 5 0
      vertex 15 5 -7.5
      vertex 0 5 0
    endloop
  endfacet
  facet normal 0 1 -0
    outer loop
      vertex 16.7678 5 -8.23223
      vertex 15.2525 5 -7.6046
      vertex 29 5 0
    endloop
  endfacet
  facet normal 0 1 -0
    outer loop
      vertex 15.2525 5 -7.6046
      vertex 15 5 -7.5
      vertex 29 5 0
    endloop
  endfacet
  facet normal 0 1 0
    outer loop
      vertex 15 5 -7.5
      vertex 14.7475 5 -7.6046
      vertex 0 5 0
    endloop
  endfacet
  facet normal 0 1 0
    outer loop
      vertex 14.7475 5 -7.6046
      vertex 13.2322 5 -8.23223
      vertex 0 5 0
    endloop
  endfacet
  facet normal 0 1 0
    outer loop
      vertex 13.2322 5 -8.23223
      vertex 12.6046 5 -9.74746
      vertex 0 5 0
    endloop
  endfacet
  facet normal 0 1 0
    outer loop
      vertex 12.6046 5 -9.74746
      vertex 12.5 5 -10
      vertex 0 5 0
    endloop
  endfacet
  facet normal 0 1 0
    outer loop
      vertex 39 5 0
      vertex 50.5 5 -10
      vertex 39 5 -20
    endloop
  endfacet
  facet normal 0 1 0
    outer loop
      vertex 50.5 5 -10
      vertex 50.6046 5 -10.2525
      vertex 39 5 -20
    endloop
  endfacet
  facet normal 0 1 0
    outer loop
      vertex 68 5 0
      vertex 68 5 -20
      vertex 55.5 5 -10
    endloop
  endfacet
  facet normal 0 1 0
    outer loop
      vertex 50.6046 5 -10.2525
      vertex 51.2322 5 -11.7678
      vertex 39 5 -20
    endloop
  endfacet
  facet normal 0 1 0
    outer loop
      vertex 53 5 -12.5
      vertex 68 5 -20
      vertex 39 5 -20
    endloop
  endfacet
  facet normal 0 1 0
    outer loop
      vertex 52.7475 5 -12.3954
      vertex 39 5 -20
      vertex 51.2322 5 -11.7678
    endloop
  endfacet
  facet normal 0 1 0
    outer loop
      vertex 53 5 -12.5
      vertex 39 5 -20
      vertex 52.7475 5 -12.3954
    endloop
  endfacet
  facet normal 0 1 0
    outer loop
      vertex 53.2525 5 -12.3954
      vertex 68 5 -20
      vertex 53 5 -12.5
    endloop
  endfacet
  facet normal 0 1 0
    outer loop
      vertex 68 5 -20
      vertex 54.7678 5 -11.7678
      vertex 55.3954 5 -10.2525
    endloop
  endfacet
  facet normal 0 1 0
    outer loop
      vertex 54.7678 5 -11.7678
      vertex 68 5 -20
      vertex 53.2525 5 -12.3954
    endloop
  endfacet
  facet normal 0 1 0
    outer loop
      vertex 68 5 -20
      vertex 55.3954 5 -10.2525
      vertex 55.5 5 -10
    endloop
  endfacet
  facet normal 0 1 0
    outer loop
      vertex 68 5 0
      vertex 55.5 5 -10
      vertex 55.3954 5 -9.74746
    endloop
  endfacet
  facet normal 0 1 0
    outer loop
      vertex 68 5 0
      vertex 55.3954 5 -9.74746
      vertex 54.7678 5 -8.23223
    endloop
  endfacet
  facet normal 0 1 0
    outer loop
      vertex 68 5 0
      vertex 53 5 -7.5
      vertex 39 5 0
    endloop
  endfacet
  facet normal 0 1 -0
    outer loop
      vertex 54.7678 5 -8.23223
      vertex 53.2525 5 -7.6046
      vertex 68 5 0
    endloop
  endfacet
  facet normal 0 1 -0
    outer loop
      vertex 53.2525 5 -7.6046
      vertex 53 5 -7.5
      vertex 68 5 0
    endloop
  endfacet
  facet normal 0 1 0
    outer loop
      vertex 53 5 -7.5
      vertex 52.7475 5 -7.6046
      vertex 39 5 0
    endloop
  endfacet
  facet normal 0 1 0
    outer loop
      vertex 52.7475 5 -7.6046
      vertex 51.2322 5 -8.23223
      vertex 39 5 0
    endloop
  endfacet
  facet normal 0 1 0
    outer loop
      vertex 51.2322 5 -8.23223
      vertex 50.6046 5 -9.74746
      vertex 39 5 0
    endloop
  endfacet
  facet normal 0 1 0
    outer loop
      vertex 50.6046 5 -9.74746
      vertex 50.5 5 -10
      vertex 39 5 0
    endloop
  endfacet
  facet normal 1 -5.03686e-16 0
    outer loop
      vertex 4.28647 8.11832 2
      vertex 4.28647 9.88168 0
      vertex 4.28647 9.88168 2
    endloop
  endfacet
  facet normal 1 -5.03686e-16 0
    outer loop
      vertex 4.28647 8.11832 2
      vertex 4.28647 8.11832 0
      vertex 4.28647 9.88168 0
    endloop
  endfacet
  facet normal -0.809017 0.587785 0
    outer loop
      vertex 7 9 0
      vertex 5.96353 7.57342 2
      vertex 7 9 2
    endloop
  endfacet
  facet normal -0.809017 0.587785 0
    outer loop
      vertex 7 9 0
      vertex 5.96353 7.57342 0
      vertex 5.96353 7.57342 2
    endloop
  endfacet
  facet normal 0.309017 0.951057 -0
    outer loop
      vertex 5.96353 7.57342 0
      vertex 4.28647 8.11832 2
      vertex 5.96353 7.57342 2
    endloop
  endfacet
  facet normal 0.309017 0.951057 0
    outer loop
      vertex 5.96353 7.57342 0
      vertex 4.28647 8.11832 0
      vertex 4.28647 8.11832 2
    endloop
  endfacet
  facet normal 0.309017 -0.951057 0
    outer loop
      vertex 4.28647 9.88168 2
      vertex 5.96353 10.4266 0
      vertex 5.96353 10.4266 2
    endloop
  endfacet
  facet normal 0.309017 -0.951057 0
    outer loop
      vertex 4.28647 9.88168 2
      vertex 4.28647 9.88168 0
      vertex 5.96353 10.4266 0
    endloop
  endfacet
  facet normal -0.809017 -0.587785 0
    outer loop
      vertex 5.96353 10.4266 0
      vertex 7 9 0
      vertex 7 9 2
    endloop
  endfacet
  facet normal -0.809017 -0.587785 -0
    outer loop
      vertex 5.96353 10.4266 2
      vertex 5.96353 10.4266 0
      vertex 7 9 2
    endloop
  endfacet
  facet normal 1 -5.03686e-16 0
    outer loop
      vertex 4.28647 45.1183 2
      vertex 4.28647 46.8817 0
      vertex 4.28647 46.8817 2
    endloop
  endfacet
  facet normal 1 -5.03686e-16 0
    outer loop
      vertex 4.28647 45.1183 2
      vertex 4.28647 45.1183 0
      vertex 4.28647 46.8817 0
    endloop
  endfacet
  facet normal -0.809017 0.587785 0
    outer loop
      vertex 7 46 0
      vertex 5.96353 44.5734 2
      vertex 7 46 2
    endloop
  endfacet
  facet normal -0.809017 0.587785 0
    outer loop
      vertex 7 46 0
      vertex 5.96353 44.5734 0
      vertex 5.96353 44.5734 2
    endloop
  endfacet
  facet normal 0.309017 0.951057 -0
    outer loop
      vertex 5.96353 44.5734 0
      vertex 4.28647 45.1183 2
      vertex 5.96353 44.5734 2
    endloop
  endfacet
  facet normal 0.309017 0.951057 0
    outer loop
      vertex 5.96353 44.5734 0
      vertex 4.28647 45.1183 0
      vertex 4.28647 45.1183 2
    endloop
  endfacet
  facet normal 0.309017 -0.951057 0
    outer loop
      vertex 4.28647 46.8817 2
      vertex 5.96353 47.4266 0
      vertex 5.96353 47.4266 2
    endloop
  endfacet
  facet normal 0.309017 -0.951057 0
    outer loop
      vertex 4.28647 46.8817 2
      vertex 4.28647 46.8817 0
      vertex 5.96353 47.4266 0
    endloop
  endfacet
  facet normal -0.809017 -0.587785 0
    outer loop
      vertex 5.96353 47.4266 0
      vertex 7 46 0
      vertex 7 46 2
    endloop
  endfacet
  facet normal -0.809017 -0.587785 -0
    outer loop
      vertex 5.96353 47.4266 2
      vertex 5.96353 47.4266 0
      vertex 7 46 2
    endloop
  endfacet
  facet normal 1 -0 0
    outer loop
      vertex 62.2865 8.11832 2
      vertex 62.2865 9.88168 0
      vertex 62.2865 9.88168 2
    endloop
  endfacet
  facet normal 1 0 0
    outer loop
      vertex 62.2865 8.11832 2
      vertex 62.2865 8.11832 0
      vertex 62.2865 9.88168 0
    endloop
  endfacet
  facet normal -0.809017 0.587785 0
    outer loop
      vertex 65 9 0
      vertex 63.9635 7.57342 2
      vertex 65 9 2
    endloop
  endfacet
  facet normal -0.809017 0.587785 0
    outer loop
      vertex 65 9 0
      vertex 63.9635 7.57342 0
      vertex 63.9635 7.57342 2
    endloop
  endfacet
  facet normal 0.309017 0.951057 -0
    outer loop
      vertex 63.9635 7.57342 0
      vertex 62.2865 8.11832 2
      vertex 63.9635 7.57342 2
    endloop
  endfacet
  facet normal 0.309017 0.951057 0
    outer loop
      vertex 63.9635 7.57342 0
      vertex 62.2865 8.11832 0
      vertex 62.2865 8.11832 2
    endloop
  endfacet
  facet normal 0.309017 -0.951057 0
    outer loop
      vertex 62.2865 9.88168 2
      vertex 63.9635 10.4266 0
      vertex 63.9635 10.4266 2
    endloop
  endfacet
  facet normal 0.309017 -0.951057 0
    outer loop
      vertex 62.2865 9.88168 2
      vertex 62.2865 9.88168 0
      vertex 63.9635 10.4266 0
    endloop
  endfacet
  facet normal -0.809017 -0.587785 0
    outer loop
      vertex 63.9635 10.4266 0
      vertex 65 9 0
      vertex 65 9 2
    endloop
  endfacet
  facet normal -0.809017 -0.587785 -0
    outer loop
      vertex 63.9635 10.4266 2
      vertex 63.9635 10.4266 0
      vertex 65 9 2
    endloop
  endfacet
  facet normal 1 -0 0
    outer loop
      vertex 62.2865 45.1183 2
      vertex 62.2865 46.8817 0
      vertex 62.2865 46.8817 2
    endloop
  endfacet
  facet normal 1 0 0
    outer loop
      vertex 62.2865 45.1183 2
      vertex 62.2865 45.1183 0
      vertex 62.2865 46.8817 0
    endloop
  endfacet
  facet normal -0.809017 0.587785 0
    outer loop
      vertex 65 46 0
      vertex 63.9635 44.5734 2
      vertex 65 46 2
    endloop
  endfacet
  facet normal -0.809017 0.587785 0
    outer loop
      vertex 65 46 0
      vertex 63.9635 44.5734 0
      vertex 63.9635 44.5734 2
    endloop
  endfacet
  facet normal 0.309017 0.951057 -0
    outer loop
      vertex 63.9635 44.5734 0
      vertex 62.2865 45.1183 2
      vertex 63.9635 44.5734 2
    endloop
  endfacet
  facet normal 0.309017 0.951057 0
    outer loop
      vertex 63.9635 44.5734 0
      vertex 62.2865 45.1183 0
      vertex 62.2865 45.1183 2
    endloop
  endfacet
  facet normal 0.309017 -0.951057 0
    outer loop
      vertex 62.2865 46.8817 2
      vertex 63.9635 47.4266 0
      vertex 63.9635 47.4266 2
    endloop
  endfacet
  facet normal 0.309017 -0.951057 0
    outer loop
      vertex 62.2865 46.8817 2
      vertex 62.2865 46.8817 0
      vertex 63.9635 47.4266 0
    endloop
  endfacet
  facet normal -0.809017 -0.587785 0
    outer loop
      vertex 63.9635 47.4266 0
      vertex 65 46 0
      vertex 65 46 2
    endloop
  endfacet
  facet normal -0.809017 -0.587785 -0
    outer loop
      vertex 63.9635 47.4266 2
      vertex 63.9635 47.4266 0
      vertex 65 46 2
    endloop
  endfacet
  facet normal 0.92388 1.14064e-15 0.382683
    outer loop
      vertex 50.5 0 -10
      vertex 51.1276 0 -11.5152
      vertex 50.6046 5 -10.2525
    endloop
  endfacet
  facet normal 0.92388 0 0.382683
    outer loop
      vertex 50.5 5 -10
      vertex 50.5 0 -10
      vertex 50.6046 5 -10.2525
    endloop
  endfacet
  facet normal 0.92388 0 -0.382683
    outer loop
      vertex 51.1276 0 -8.48477
      vertex 51.2322 5 -8.23223
      vertex 51.2322 0 -8.23223
    endloop
  endfacet
  facet normal 0.92388 -1.15079e-16 -0.382683
    outer loop
      vertex 51.1276 0 -8.48477
      vertex 50.6046 5 -9.74746
      vertex 51.2322 5 -8.23223
    endloop
  endfacet
  facet normal -0.92388 4.40008e-17 0.382683
    outer loop
      vertex 54.7678 5 -11.7678
      vertex 54.8724 0 -11.5152
      vertex 55.3954 5 -10.2525
    endloop
  endfacet
  facet normal -0.92388 0 0.382683
    outer loop
      vertex 54.7678 5 -11.7678
      vertex 54.7678 0 -11.7678
      vertex 54.8724 0 -11.5152
    endloop
  endfacet
  facet normal 0.92388 0 -0.382683
    outer loop
      vertex 50.5 0 -10
      vertex 50.5 5 -10
      vertex 50.6046 5 -9.74746
    endloop
  endfacet
  facet normal 0.92388 -1.0831e-16 -0.382683
    outer loop
      vertex 51.1276 0 -8.48477
      vertex 50.5 0 -10
      vertex 50.6046 5 -9.74746
    endloop
  endfacet
  facet normal 0.382683 -1.79388e-16 0.92388
    outer loop
      vertex 51.2322 5 -11.7678
      vertex 51.4848 0 -11.8724
      vertex 52.7475 5 -12.3954
    endloop
  endfacet
  facet normal 0.382683 0 0.92388
    outer loop
      vertex 51.2322 5 -11.7678
      vertex 51.2322 0 -11.7678
      vertex 51.4848 0 -11.8724
    endloop
  endfacet
  facet normal -0.382683 -1.64114e-16 -0.92388
    outer loop
      vertex 53 0 -7.5
      vertex 53 5 -7.5
      vertex 53.2525 5 -7.6046
    endloop
  endfacet
  facet normal -0.382683 -3.38468e-16 -0.92388
    outer loop
      vertex 54.5152 0 -8.12763
      vertex 53 0 -7.5
      vertex 53.2525 5 -7.6046
    endloop
  endfacet
  facet normal -0.382683 0 -0.92388
    outer loop
      vertex 54.5152 0 -8.12763
      vertex 54.7678 5 -8.23223
      vertex 54.7678 0 -8.23223
    endloop
  endfacet
  facet normal -0.382683 2.43697e-16 -0.92388
    outer loop
      vertex 54.5152 0 -8.12763
      vertex 53.2525 5 -7.6046
      vertex 54.7678 5 -8.23223
    endloop
  endfacet
  facet normal 0.92388 0 0.382683
    outer loop
      vertex 51.2322 5 -11.7678
      vertex 51.1276 0 -11.5152
      vertex 51.2322 0 -11.7678
    endloop
  endfacet
  facet normal 0.92388 -1.04925e-15 0.382683
    outer loop
      vertex 51.2322 5 -11.7678
      vertex 50.6046 5 -10.2525
      vertex 51.1276 0 -11.5152
    endloop
  endfacet
  facet normal 0.382683 -2.0985e-16 -0.92388
    outer loop
      vertex 51.4848 0 -8.12763
      vertex 51.2322 5 -8.23223
      vertex 52.7475 5 -7.6046
    endloop
  endfacet
  facet normal 0.382683 0 -0.92388
    outer loop
      vertex 51.4848 0 -8.12763
      vertex 51.2322 0 -8.23223
      vertex 51.2322 5 -8.23223
    endloop
  endfacet
  facet normal 0.382683 -1.64114e-16 -0.92388
    outer loop
      vertex 53 0 -7.5
      vertex 52.7475 5 -7.6046
      vertex 53 5 -7.5
    endloop
  endfacet
  facet normal 0.382683 1.04925e-16 -0.92388
    outer loop
      vertex 53 0 -7.5
      vertex 51.4848 0 -8.12763
      vertex 52.7475 5 -7.6046
    endloop
  endfacet
  facet normal -0.92388 9.78172e-16 -0.382683
    outer loop
      vertex 54.8724 0 -8.48477
      vertex 54.7678 5 -8.23223
      vertex 55.3954 5 -9.74746
    endloop
  endfacet
  facet normal -0.92388 0 -0.382683
    outer loop
      vertex 54.8724 0 -8.48477
      vertex 54.7678 0 -8.23223
      vertex 54.7678 5 -8.23223
    endloop
  endfacet
  facet normal -0.382683 0 0.92388
    outer loop
      vertex 54.7678 5 -11.7678
      vertex 54.5152 0 -11.8724
      vertex 54.7678 0 -11.7678
    endloop
  endfacet
  facet normal -0.382683 2.70774e-16 0.92388
    outer loop
      vertex 54.7678 5 -11.7678
      vertex 53.2525 5 -12.3954
      vertex 54.5152 0 -11.8724
    endloop
  endfacet
  facet normal -0.92388 0 0.382683
    outer loop
      vertex 55.3954 5 -10.2525
      vertex 55.5 0 -10
      vertex 55.5 5 -10
    endloop
  endfacet
  facet normal -0.92388 4.40008e-17 0.382683
    outer loop
      vertex 55.3954 5 -10.2525
      vertex 54.8724 0 -11.5152
      vertex 55.5 0 -10
    endloop
  endfacet
  facet normal -0.92388 0 -0.382683
    outer loop
      vertex 55.5 0 -10
      vertex 55.3954 5 -9.74746
      vertex 55.5 5 -10
    endloop
  endfacet
  facet normal -0.92388 -1.20495e-15 -0.382683
    outer loop
      vertex 55.5 0 -10
      vertex 54.8724 0 -8.48477
      vertex 55.3954 5 -9.74746
    endloop
  endfacet
  facet normal -0.382683 -1.79388e-16 0.92388
    outer loop
      vertex 53 0 -12.5
      vertex 54.5152 0 -11.8724
      vertex 53.2525 5 -12.3954
    endloop
  endfacet
  facet normal -0.382683 0 0.92388
    outer loop
      vertex 53 5 -12.5
      vertex 53 0 -12.5
      vertex 53.2525 5 -12.3954
    endloop
  endfacet
  facet normal 0.382683 0 0.92388
    outer loop
      vertex 52.7475 5 -12.3954
      vertex 53 0 -12.5
      vertex 53 5 -12.5
    endloop
  endfacet
  facet normal 0.382683 2.70774e-16 0.92388
    outer loop
      vertex 52.7475 5 -12.3954
      vertex 51.4848 0 -11.8724
      vertex 53 0 -12.5
    endloop
  endfacet
  facet normal 0.92388 3.1816e-16 0.382683
    outer loop
      vertex 12.5 0 -10
      vertex 13.1276 0 -11.5152
      vertex 12.6046 5 -10.2525
    endloop
  endfacet
  facet normal 0.92388 0 0.382683
    outer loop
      vertex 12.5 5 -10
      vertex 12.5 0 -10
      vertex 12.6046 5 -10.2525
    endloop
  endfacet
  facet normal 0.92388 0 -0.382683
    outer loop
      vertex 13.1276 0 -8.48477
      vertex 13.2322 5 -8.23223
      vertex 13.2322 0 -8.23223
    endloop
  endfacet
  facet normal 0.92388 -1.15079e-16 -0.382683
    outer loop
      vertex 13.1276 0 -8.48477
      vertex 12.6046 5 -9.74746
      vertex 13.2322 5 -8.23223
    endloop
  endfacet
  facet normal -0.92388 4.40008e-17 0.382683
    outer loop
      vertex 16.7678 5 -11.7678
      vertex 16.8724 0 -11.5152
      vertex 17.3954 5 -10.2525
    endloop
  endfacet
  facet normal -0.92388 0 0.382683
    outer loop
      vertex 16.7678 5 -11.7678
      vertex 16.7678 0 -11.7678
      vertex 16.8724 0 -11.5152
    endloop
  endfacet
  facet normal 0.92388 0 -0.382683
    outer loop
      vertex 12.5 0 -10
      vertex 12.5 5 -10
      vertex 12.6046 5 -9.74746
    endloop
  endfacet
  facet normal 0.92388 -1.0831e-16 -0.382683
    outer loop
      vertex 13.1276 0 -8.48477
      vertex 12.5 0 -10
      vertex 12.6046 5 -9.74746
    endloop
  endfacet
  facet normal 0.382683 -9.13863e-17 0.92388
    outer loop
      vertex 13.2322 5 -11.7678
      vertex 13.4848 0 -11.8724
      vertex 14.7475 5 -12.3954
    endloop
  endfacet
  facet normal 0.382683 0 0.92388
    outer loop
      vertex 13.2322 5 -11.7678
      vertex 13.2322 0 -11.7678
      vertex 13.4848 0 -11.8724
    endloop
  endfacet
  facet normal -0.382683 -1.64114e-16 -0.92388
    outer loop
      vertex 15 0 -7.5
      vertex 15 5 -7.5
      vertex 15.2525 5 -7.6046
    endloop
  endfacet
  facet normal -0.382683 -2.43697e-16 -0.92388
    outer loop
      vertex 16.5152 0 -8.12763
      vertex 15 0 -7.5
      vertex 15.2525 5 -7.6046
    endloop
  endfacet
  facet normal -0.382683 0 -0.92388
    outer loop
      vertex 16.5152 0 -8.12763
      vertex 16.7678 5 -8.23223
      vertex 16.7678 0 -8.23223
    endloop
  endfacet
  facet normal -0.382683 -3.38468e-18 -0.92388
    outer loop
      vertex 16.5152 0 -8.12763
      vertex 15.2525 5 -7.6046
      vertex 16.7678 5 -8.23223
    endloop
  endfacet
  facet normal 0.92388 0 0.382683
    outer loop
      vertex 13.2322 5 -11.7678
      vertex 13.1276 0 -11.5152
      vertex 13.2322 0 -11.7678
    endloop
  endfacet
  facet normal 0.92388 -2.30158e-16 0.382683
    outer loop
      vertex 13.2322 5 -11.7678
      vertex 12.6046 5 -10.2525
      vertex 13.1276 0 -11.5152
    endloop
  endfacet
  facet normal 0.382683 -1.18464e-16 -0.92388
    outer loop
      vertex 13.4848 0 -8.12763
      vertex 13.2322 5 -8.23223
      vertex 14.7475 5 -7.6046
    endloop
  endfacet
  facet normal 0.382683 0 -0.92388
    outer loop
      vertex 13.4848 0 -8.12763
      vertex 13.2322 0 -8.23223
      vertex 13.2322 5 -8.23223
    endloop
  endfacet
  facet normal 0.382683 -1.64114e-16 -0.92388
    outer loop
      vertex 15 0 -7.5
      vertex 14.7475 5 -7.6046
      vertex 15 5 -7.5
    endloop
  endfacet
  facet normal 0.382683 -1.42156e-16 -0.92388
    outer loop
      vertex 15 0 -7.5
      vertex 13.4848 0 -8.12763
      vertex 14.7475 5 -7.6046
    endloop
  endfacet
  facet normal -0.92388 4.33239e-16 -0.382683
    outer loop
      vertex 16.8724 0 -8.48477
      vertex 16.7678 5 -8.23223
      vertex 17.3954 5 -9.74746
    endloop
  endfacet
  facet normal -0.92388 0 -0.382683
    outer loop
      vertex 16.8724 0 -8.48477
      vertex 16.7678 0 -8.23223
      vertex 16.7678 5 -8.23223
    endloop
  endfacet
  facet normal -0.382683 0 0.92388
    outer loop
      vertex 16.7678 5 -11.7678
      vertex 16.5152 0 -11.8724
      vertex 16.7678 0 -11.7678
    endloop
  endfacet
  facet normal -0.382683 2.36927e-17 0.92388
    outer loop
      vertex 16.7678 5 -11.7678
      vertex 15.2525 5 -12.3954
      vertex 16.5152 0 -11.8724
    endloop
  endfacet
  facet normal -0.92388 0 0.382683
    outer loop
      vertex 17.3954 5 -10.2525
      vertex 17.5 0 -10
      vertex 17.5 5 -10
    endloop
  endfacet
  facet normal -0.92388 4.40008e-17 0.382683
    outer loop
      vertex 17.3954 5 -10.2525
      vertex 16.8724 0 -11.5152
      vertex 17.5 0 -10
    endloop
  endfacet
  facet normal -0.92388 0 -0.382683
    outer loop
      vertex 17.5 0 -10
      vertex 17.3954 5 -9.74746
      vertex 17.5 5 -10
    endloop
  endfacet
  facet normal -0.92388 -6.60012e-16 -0.382683
    outer loop
      vertex 17.5 0 -10
      vertex 16.8724 0 -8.48477
      vertex 17.3954 5 -9.74746
    endloop
  endfacet
  facet normal -0.382683 -9.13863e-17 0.92388
    outer loop
      vertex 15 0 -12.5
      vertex 16.5152 0 -11.8724
      vertex 15.2525 5 -12.3954
    endloop
  endfacet
  facet normal -0.382683 0 0.92388
    outer loop
      vertex 15 5 -12.5
      vertex 15 0 -12.5
      vertex 15.2525 5 -12.3954
    endloop
  endfacet
  facet normal 0.382683 0 0.92388
    outer loop
      vertex 14.7475 5 -12.3954
      vertex 15 0 -12.5
      vertex 15 5 -12.5
    endloop
  endfacet
  facet normal 0.382683 2.36927e-17 0.92388
    outer loop
      vertex 14.7475 5 -12.3954
      vertex 13.4848 0 -11.8724
      vertex 15 0 -12.5
    endloop
  endfacet
endsolid OpenSCAD_Model
