solid OpenSCAD_Model
  facet normal 0 0 -1
    outer loop
      vertex -83.5461 -99.5664 0
      vertex -70.6929 -84.2485 0
      vertex -82.8651 -100.167 0
    endloop
  endfacet
  facet normal 0 0 -1
    outer loop
      vertex -82.8651 -100.167 0
      vertex -70.6929 -84.2485 0
      vertex -70.1166 -84.7565 0
    endloop
  endfacet
  facet normal 0 0 -1
    outer loop
      vertex -82.8651 -100.167 0
      vertex -70.1166 -84.7565 0
      vertex -64.6564 -88.9919 0
    endloop
  endfacet
  facet normal 0 0 -1
    outer loop
      vertex -64.6564 -88.9919 0
      vertex -58.9409 -92.8761 0
      vertex -82.8651 -100.167 0
    endloop
  endfacet
  facet normal 0 0 -1
    outer loop
      vertex -58.9409 -92.8761 0
      vertex -52.9929 -96.3937 0
      vertex -82.8651 -100.167 0
    endloop
  endfacet
  facet normal 0 0 -1
    outer loop
      vertex -52.9929 -96.3937 0
      vertex -46.8357 -99.531 0
      vertex -82.8651 -100.167 0
    endloop
  endfacet
  facet normal 0 0 -1
    outer loop
      vertex -46.8357 -99.531 0
      vertex -40.4937 -102.275 0
      vertex -82.8651 -100.167 0
    endloop
  endfacet
  facet normal 0 0 -1
    outer loop
      vertex -40.4937 -102.275 0
      vertex -33.9919 -104.616 0
      vertex -82.8651 -100.167 0
    endloop
  endfacet
  facet normal 0 0 -1
    outer loop
      vertex -33.9919 -104.616 0
      vertex -27.3559 -106.544 0
      vertex -82.8651 -100.167 0
    endloop
  endfacet
  facet normal 0 0 -1
    outer loop
      vertex -27.3559 -106.544 0
      vertex -20.6119 -108.052 0
      vertex -82.8651 -100.167 0
    endloop
  endfacet
  facet normal 0 0 -1
    outer loop
      vertex -20.6119 -108.052 0
      vertex -13.7867 -109.133 0
      vertex -82.8651 -100.167 0
    endloop
  endfacet
  facet normal 0 0 -1
    outer loop
      vertex -13.7867 -109.133 0
      vertex 0 -130 0
      vertex -82.8651 -100.167 0
    endloop
  endfacet
  facet normal 0 0 -1
    outer loop
      vertex -6.90696 -109.783 0
      vertex 0 -110 0
      vertex 0 -130 0
    endloop
  endfacet
  facet normal 0 0 -1
    outer loop
      vertex -6.90696 -109.783 0
      vertex 0 -130 0
      vertex -13.7867 -109.133 0
    endloop
  endfacet
  facet normal 0 0 -1
    outer loop
      vertex -82.8651 -100.167 0
      vertex 0 -130 0
      vertex -8.16277 -129.743 0
    endloop
  endfacet
  facet normal 0 0 -1
    outer loop
      vertex -82.8651 -100.167 0
      vertex -8.16277 -129.743 0
      vertex -16.2933 -128.975 0
    endloop
  endfacet
  facet normal 0 0 -1
    outer loop
      vertex -82.8651 -100.167 0
      vertex -16.2933 -128.975 0
      vertex -24.3596 -127.697 0
    endloop
  endfacet
  facet normal 0 0 -1
    outer loop
      vertex -82.8651 -100.167 0
      vertex -24.3596 -127.697 0
      vertex -29.2299 -126.609 0
    endloop
  endfacet
  facet normal 0 0 -1
    outer loop
      vertex -46.5099 -130 0
      vertex -29.2299 -126.609 0
      vertex -33.7427 -146.156 0
    endloop
  endfacet
  facet normal 0 0 -1
    outer loop
      vertex -82.8651 -100.167 0
      vertex -29.2299 -126.609 0
      vertex -61.0105 -114.744 0
    endloop
  endfacet
  facet normal 0 0 -1
    outer loop
      vertex -49.2055 -129.124 0
      vertex -61.0105 -114.744 0
      vertex -47.5395 -128.583 0
    endloop
  endfacet
  facet normal 0 0 -1
    outer loop
      vertex -82.8651 -100.167 0
      vertex -61.0105 -114.744 0
      vertex -62.628 -113.92 0
    endloop
  endfacet
  facet normal 0 0 -1
    outer loop
      vertex -82.8651 -100.167 0
      vertex -62.628 -113.92 0
      vertex -69.6575 -109.763 0
    endloop
  endfacet
  facet normal 0 0 -1
    outer loop
      vertex -82.8651 -100.167 0
      vertex -69.6575 -109.763 0
      vertex -76.4121 -105.172 0
    endloop
  endfacet
  facet normal 0 0 -1
    outer loop
      vertex -47.5395 -128.583 0
      vertex -29.2299 -126.609 0
      vertex -46.5099 -130 0
    endloop
  endfacet
  facet normal 0 0 -1
    outer loop
      vertex -61.0105 -114.744 0
      vertex -29.2299 -126.609 0
      vertex -47.5395 -128.583 0
    endloop
  endfacet
  facet normal 0 0 -1
    outer loop
      vertex -49.2055 -130.876 0
      vertex -61.0105 -114.744 0
      vertex -49.2055 -129.124 0
    endloop
  endfacet
  facet normal 0 0 -1
    outer loop
      vertex -47.5395 -131.417 0
      vertex -33.7427 -146.156 0
      vertex -49.2055 -130.876 0
    endloop
  endfacet
  facet normal 0 0 -1
    outer loop
      vertex -46.5099 -130 0
      vertex -33.7427 -146.156 0
      vertex -47.5395 -131.417 0
    endloop
  endfacet
  facet normal 0 0 -1
    outer loop
      vertex -49.2055 -130.876 0
      vertex -33.7427 -146.156 0
      vertex -42.8533 -143.748 0
    endloop
  endfacet
  facet normal 0 0 -1
    outer loop
      vertex -61.0105 -114.744 0
      vertex -49.2055 -130.876 0
      vertex -42.8533 -143.748 0
    endloop
  endfacet
  facet normal 0 0 -1
    outer loop
      vertex -61.0105 -114.744 0
      vertex -42.8533 -143.748 0
      vertex -51.7947 -140.774 0
    endloop
  endfacet
  facet normal 0 0 -1
    outer loop
      vertex -61.0105 -114.744 0
      vertex -51.7947 -140.774 0
      vertex -60.5318 -137.244 0
    endloop
  endfacet
  facet normal 0 0 -1
    outer loop
      vertex -61.0105 -114.744 0
      vertex -60.5318 -137.244 0
      vertex -69.03 -133.172 0
    endloop
  endfacet
  facet normal 0 0 -1
    outer loop
      vertex -61.0105 -114.744 0
      vertex -69.03 -133.172 0
      vertex -70.4014 -132.406 0
    endloop
  endfacet
  facet normal -0.766044 0.642788 0
    outer loop
      vertex -70.6929 -84.2485 6
      vertex -70.6929 -84.2485 0
      vertex -83.5461 -99.5664 6
    endloop
  endfacet
  facet normal -0.766044 0.642788 0
    outer loop
      vertex -83.5461 -99.5664 6
      vertex -70.6929 -84.2485 0
      vertex -83.5461 -99.5664 0
    endloop
  endfacet
  facet normal -0.661312 -0.750111 0
    outer loop
      vertex -83.5461 -99.5664 6
      vertex -83.5461 -99.5664 0
      vertex -82.8651 -100.167 0
    endloop
  endfacet
  facet normal -0.661312 -0.750111 0
    outer loop
      vertex -82.8651 -100.167 6
      vertex -83.5461 -99.5664 6
      vertex -82.8651 -100.167 0
    endloop
  endfacet
  facet normal -0.612907 -0.790155 0
    outer loop
      vertex -82.8651 -100.167 6
      vertex -82.8651 -100.167 0
      vertex -76.4121 -105.172 0
    endloop
  endfacet
  facet normal -0.612907 -0.790155 0
    outer loop
      vertex -76.4121 -105.172 6
      vertex -82.8651 -100.167 6
      vertex -76.4121 -105.172 0
    endloop
  endfacet
  facet normal -0.562083 -0.827081 0
    outer loop
      vertex -76.4121 -105.172 6
      vertex -76.4121 -105.172 0
      vertex -69.6575 -109.763 0
    endloop
  endfacet
  facet normal -0.562083 -0.827081 0
    outer loop
      vertex -69.6575 -109.763 6
      vertex -76.4121 -105.172 6
      vertex -69.6575 -109.763 0
    endloop
  endfacet
  facet normal -0.509041 -0.860742 0
    outer loop
      vertex -69.6575 -109.763 6
      vertex -69.6575 -109.763 0
      vertex -62.628 -113.92 0
    endloop
  endfacet
  facet normal -0.509041 -0.860742 0
    outer loop
      vertex -62.628 -113.92 6
      vertex -69.6575 -109.763 6
      vertex -62.628 -113.92 0
    endloop
  endfacet
  facet normal -0.453991 -0.891007 0
    outer loop
      vertex -62.628 -113.92 6
      vertex -62.628 -113.92 0
      vertex -61.0105 -114.744 0
    endloop
  endfacet
  facet normal -0.453991 -0.891007 0
    outer loop
      vertex -61.0105 -114.744 6
      vertex -62.628 -113.92 6
      vertex -61.0105 -114.744 0
    endloop
  endfacet
  facet normal -0.882948 0.469472 0
    outer loop
      vertex -60.5452 -113.869 8
      vertex -60.5452 -113.869 6
      vertex -70.4014 -132.406 8
    endloop
  endfacet
  facet normal -0.882948 0.469472 0
    outer loop
      vertex -70.4014 -132.406 8
      vertex -60.5452 -113.869 6
      vertex -61.0105 -114.744 6
    endloop
  endfacet
  facet normal -0.882948 0.469472 0
    outer loop
      vertex -70.4014 -132.406 8
      vertex -61.0105 -114.744 6
      vertex -61.0105 -114.744 0
    endloop
  endfacet
  facet normal -0.882948 0.469472 0
    outer loop
      vertex -70.4014 -132.406 8
      vertex -61.0105 -114.744 0
      vertex -70.4014 -132.406 0
    endloop
  endfacet
  facet normal -0.48786 -0.872922 0
    outer loop
      vertex -70.4014 -132.406 8
      vertex -70.4014 -132.406 0
      vertex -69.03 -133.172 0
    endloop
  endfacet
  facet normal -0.48786 -0.872922 0
    outer loop
      vertex -69.03 -133.172 8
      vertex -70.4014 -132.406 8
      vertex -69.03 -133.172 0
    endloop
  endfacet
  facet normal -0.432086 -0.901833 0
    outer loop
      vertex -69.03 -133.172 8
      vertex -69.03 -133.172 0
      vertex -60.5318 -137.244 0
    endloop
  endfacet
  facet normal -0.432086 -0.901833 0
    outer loop
      vertex -60.5318 -137.244 8
      vertex -69.03 -133.172 8
      vertex -60.5318 -137.244 0
    endloop
  endfacet
  facet normal -0.374607 -0.927184 0
    outer loop
      vertex -60.5318 -137.244 8
      vertex -60.5318 -137.244 0
      vertex -51.7947 -140.774 0
    endloop
  endfacet
  facet normal -0.374607 -0.927184 0
    outer loop
      vertex -51.7947 -140.774 8
      vertex -60.5318 -137.244 8
      vertex -51.7947 -140.774 0
    endloop
  endfacet
  facet normal -0.315649 -0.948876 0
    outer loop
      vertex -51.7947 -140.774 8
      vertex -51.7947 -140.774 0
      vertex -42.8533 -143.748 0
    endloop
  endfacet
  facet normal -0.315649 -0.948876 0
    outer loop
      vertex -42.8533 -143.748 8
      vertex -51.7947 -140.774 8
      vertex -42.8533 -143.748 0
    endloop
  endfacet
  facet normal -0.255446 -0.966823 0
    outer loop
      vertex -42.8533 -143.748 8
      vertex -42.8533 -143.748 0
      vertex -33.7427 -146.156 0
    endloop
  endfacet
  facet normal -0.255446 -0.966823 0
    outer loop
      vertex -33.7427 -146.156 8
      vertex -42.8533 -143.748 8
      vertex -33.7427 -146.156 0
    endloop
  endfacet
  facet normal 0.97437 -0.224951 0
    outer loop
      vertex -29.0187 -125.694 8
      vertex -29.2299 -126.609 6
      vertex -29.0187 -125.694 6
    endloop
  endfacet
  facet normal 0.97437 -0.224951 0
    outer loop
      vertex -33.7427 -146.156 8
      vertex -29.2299 -126.609 6
      vertex -29.0187 -125.694 8
    endloop
  endfacet
  facet normal 0.97437 -0.224951 0
    outer loop
      vertex -29.2299 -126.609 0
      vertex -29.2299 -126.609 6
      vertex -33.7427 -146.156 8
    endloop
  endfacet
  facet normal 0.97437 -0.224951 0
    outer loop
      vertex -33.7427 -146.156 0
      vertex -29.2299 -126.609 0
      vertex -33.7427 -146.156 8
    endloop
  endfacet
  facet normal -0.218143 -0.975917 0
    outer loop
      vertex -29.2299 -126.609 6
      vertex -29.2299 -126.609 0
      vertex -24.3596 -127.697 0
    endloop
  endfacet
  facet normal -0.218143 -0.975917 0
    outer loop
      vertex -24.3596 -127.697 6
      vertex -29.2299 -126.609 6
      vertex -24.3596 -127.697 0
    endloop
  endfacet
  facet normal -0.156434 -0.987688 0
    outer loop
      vertex -24.3596 -127.697 6
      vertex -24.3596 -127.697 0
      vertex -16.2933 -128.975 0
    endloop
  endfacet
  facet normal -0.156434 -0.987688 0
    outer loop
      vertex -16.2933 -128.975 6
      vertex -24.3596 -127.697 6
      vertex -16.2933 -128.975 0
    endloop
  endfacet
  facet normal -0.0941084 -0.995562 0
    outer loop
      vertex -16.2933 -128.975 6
      vertex -16.2933 -128.975 0
      vertex -8.16277 -129.743 0
    endloop
  endfacet
  facet normal -0.0941084 -0.995562 0
    outer loop
      vertex -8.16277 -129.743 6
      vertex -16.2933 -128.975 6
      vertex -8.16277 -129.743 0
    endloop
  endfacet
  facet normal -0.0314107 -0.999507 0
    outer loop
      vertex -8.16277 -129.743 6
      vertex -8.16277 -129.743 0
      vertex 0 -130 0
    endloop
  endfacet
  facet normal -0.0314107 -0.999507 0
    outer loop
      vertex 0 -130 6
      vertex -8.16277 -129.743 6
      vertex 0 -130 0
    endloop
  endfacet
  facet normal 1 0 0
    outer loop
      vertex 0 -110 0
      vertex 0 -110 6
      vertex 0 -130 6
    endloop
  endfacet
  facet normal 1 0 0
    outer loop
      vertex 0 -130 0
      vertex 0 -110 0
      vertex 0 -130 6
    endloop
  endfacet
  facet normal 0.0314108 0.999507 0
    outer loop
      vertex -6.90696 -109.783 0
      vertex -6.90696 -109.783 6
      vertex 0 -110 0
    endloop
  endfacet
  facet normal 0.0314108 0.999507 0
    outer loop
      vertex 0 -110 0
      vertex -6.90696 -109.783 6
      vertex 0 -110 6
    endloop
  endfacet
  facet normal 0.0941083 0.995562 0
    outer loop
      vertex -13.7867 -109.133 0
      vertex -13.7867 -109.133 6
      vertex -6.90696 -109.783 0
    endloop
  endfacet
  facet normal 0.0941083 0.995562 0
    outer loop
      vertex -6.90696 -109.783 0
      vertex -13.7867 -109.133 6
      vertex -6.90696 -109.783 6
    endloop
  endfacet
  facet normal 0.156434 0.987688 0
    outer loop
      vertex -20.6119 -108.052 0
      vertex -20.6119 -108.052 6
      vertex -13.7867 -109.133 0
    endloop
  endfacet
  facet normal 0.156434 0.987688 0
    outer loop
      vertex -13.7867 -109.133 0
      vertex -20.6119 -108.052 6
      vertex -13.7867 -109.133 6
    endloop
  endfacet
  facet normal 0.218143 0.975917 0
    outer loop
      vertex -27.3559 -106.544 0
      vertex -27.3559 -106.544 6
      vertex -20.6119 -108.052 0
    endloop
  endfacet
  facet normal 0.218143 0.975917 0
    outer loop
      vertex -20.6119 -108.052 0
      vertex -27.3559 -106.544 6
      vertex -20.6119 -108.052 6
    endloop
  endfacet
  facet normal 0.278991 0.960294 0
    outer loop
      vertex -33.9919 -104.616 0
      vertex -33.9919 -104.616 6
      vertex -27.3559 -106.544 0
    endloop
  endfacet
  facet normal 0.278991 0.960294 0
    outer loop
      vertex -27.3559 -106.544 0
      vertex -33.9919 -104.616 6
      vertex -27.3559 -106.544 6
    endloop
  endfacet
  facet normal 0.338738 0.940881 0
    outer loop
      vertex -40.4937 -102.275 0
      vertex -40.4937 -102.275 6
      vertex -33.9919 -104.616 0
    endloop
  endfacet
  facet normal 0.338738 0.940881 0
    outer loop
      vertex -33.9919 -104.616 0
      vertex -40.4937 -102.275 6
      vertex -33.9919 -104.616 6
    endloop
  endfacet
  facet normal 0.397148 0.917755 0
    outer loop
      vertex -46.8357 -99.531 0
      vertex -46.8357 -99.531 6
      vertex -40.4937 -102.275 0
    endloop
  endfacet
  facet normal 0.397148 0.917755 0
    outer loop
      vertex -40.4937 -102.275 0
      vertex -46.8357 -99.531 6
      vertex -40.4937 -102.275 6
    endloop
  endfacet
  facet normal 0.453991 0.891007 0
    outer loop
      vertex -52.9929 -96.3937 0
      vertex -52.9929 -96.3937 6
      vertex -46.8357 -99.531 0
    endloop
  endfacet
  facet normal 0.453991 0.891007 0
    outer loop
      vertex -46.8357 -99.531 0
      vertex -52.9929 -96.3937 6
      vertex -46.8357 -99.531 6
    endloop
  endfacet
  facet normal 0.509041 0.860742 0
    outer loop
      vertex -58.9409 -92.8761 0
      vertex -58.9409 -92.8761 6
      vertex -52.9929 -96.3937 0
    endloop
  endfacet
  facet normal 0.509041 0.860742 0
    outer loop
      vertex -52.9929 -96.3937 0
      vertex -58.9409 -92.8761 6
      vertex -52.9929 -96.3937 6
    endloop
  endfacet
  facet normal 0.562083 0.827081 0
    outer loop
      vertex -64.6564 -88.9919 0
      vertex -64.6564 -88.9919 6
      vertex -58.9409 -92.8761 0
    endloop
  endfacet
  facet normal 0.562083 0.827081 0
    outer loop
      vertex -58.9409 -92.8761 0
      vertex -64.6564 -88.9919 6
      vertex -58.9409 -92.8761 6
    endloop
  endfacet
  facet normal 0.612907 0.790155 0
    outer loop
      vertex -70.1166 -84.7565 0
      vertex -70.1166 -84.7565 6
      vertex -64.6564 -88.9919 0
    endloop
  endfacet
  facet normal 0.612907 0.790155 0
    outer loop
      vertex -64.6564 -88.9919 0
      vertex -70.1166 -84.7565 6
      vertex -64.6564 -88.9919 6
    endloop
  endfacet
  facet normal 0.661312 0.750111 0
    outer loop
      vertex -70.6929 -84.2485 0
      vertex -70.6929 -84.2485 6
      vertex -70.1166 -84.7565 0
    endloop
  endfacet
  facet normal 0.661312 0.750111 0
    outer loop
      vertex -70.1166 -84.7565 0
      vertex -70.6929 -84.2485 6
      vertex -70.1166 -84.7565 6
    endloop
  endfacet
  facet normal 0.309017 -0.951057 1.16471e-16
    outer loop
      vertex -47.5395 -128.583 0
      vertex -47.5395 -128.583 1.4999
      vertex -49.2055 -129.124 1.4999
    endloop
  endfacet
  facet normal 0.309017 -0.951057 1.16471e-16
    outer loop
      vertex -49.2055 -129.124 0
      vertex -47.5395 -128.583 0
      vertex -49.2055 -129.124 1.4999
    endloop
  endfacet
  facet normal 1 0 0
    outer loop
      vertex -49.2055 -129.124 0
      vertex -49.2055 -129.124 1.4999
      vertex -49.2055 -130.876 1.4999
    endloop
  endfacet
  facet normal 1 0 0
    outer loop
      vertex -49.2055 -130.876 0
      vertex -49.2055 -129.124 0
      vertex -49.2055 -130.876 1.4999
    endloop
  endfacet
  facet normal -0.809017 -0.587785 7.1983e-17
    outer loop
      vertex -46.5099 -130 1.4999
      vertex -47.5395 -128.583 1.4999
      vertex -46.5099 -130 0
    endloop
  endfacet
  facet normal -0.809017 -0.587785 7.1983e-17
    outer loop
      vertex -46.5099 -130 0
      vertex -47.5395 -128.583 1.4999
      vertex -47.5395 -128.583 0
    endloop
  endfacet
  facet normal -0.809017 0.587785 -7.1983e-17
    outer loop
      vertex -46.5099 -130 1.4999
      vertex -46.5099 -130 0
      vertex -47.5395 -131.417 1.4999
    endloop
  endfacet
  facet normal -0.809017 0.587785 -7.1983e-17
    outer loop
      vertex -47.5395 -131.417 1.4999
      vertex -46.5099 -130 0
      vertex -47.5395 -131.417 0
    endloop
  endfacet
  facet normal 0.309017 0.951057 -1.16471e-16
    outer loop
      vertex -47.5395 -131.417 1.4999
      vertex -47.5395 -131.417 0
      vertex -49.2055 -130.876 1.4999
    endloop
  endfacet
  facet normal 0.309017 0.951057 -1.16471e-16
    outer loop
      vertex -49.2055 -130.876 1.4999
      vertex -47.5395 -131.417 0
      vertex -49.2055 -130.876 0
    endloop
  endfacet
  facet normal 0 0 1
    outer loop
      vertex -70.6929 -84.2485 6
      vertex -83.5461 -99.5664 6
      vertex -82.8651 -100.167 6
    endloop
  endfacet
  facet normal 0 0 1
    outer loop
      vertex -69.6575 -109.763 6
      vertex -70.6929 -84.2485 6
      vertex -76.4121 -105.172 6
    endloop
  endfacet
  facet normal 0 0 1
    outer loop
      vertex -76.4121 -105.172 6
      vertex -70.6929 -84.2485 6
      vertex -82.8651 -100.167 6
    endloop
  endfacet
  facet normal 0 0 1
    outer loop
      vertex -62.628 -113.92 6
      vertex -70.6929 -84.2485 6
      vertex -69.6575 -109.763 6
    endloop
  endfacet
  facet normal 0 0 1
    outer loop
      vertex -61.0105 -114.744 6
      vertex -70.6929 -84.2485 6
      vertex -62.628 -113.92 6
    endloop
  endfacet
  facet normal 0 0 1
    outer loop
      vertex -60.5452 -113.869 6
      vertex -70.6929 -84.2485 6
      vertex -61.0105 -114.744 6
    endloop
  endfacet
  facet normal 0 0 1
    outer loop
      vertex -59.3658 -114.528 6
      vertex -70.6929 -84.2485 6
      vertex -60.5452 -113.869 6
    endloop
  endfacet
  facet normal 0 0 1
    outer loop
      vertex -52.0573 -118.03 6
      vertex -70.6929 -84.2485 6
      vertex -59.3658 -114.528 6
    endloop
  endfacet
  facet normal 0 0 1
    outer loop
      vertex -44.5435 -121.066 6
      vertex -70.6929 -84.2485 6
      vertex -52.0573 -118.03 6
    endloop
  endfacet
  facet normal 0 0 1
    outer loop
      vertex -36.8538 -123.624 6
      vertex -70.6929 -84.2485 6
      vertex -44.5435 -121.066 6
    endloop
  endfacet
  facet normal 0 0 1
    outer loop
      vertex -29.0187 -125.694 6
      vertex -70.6929 -84.2485 6
      vertex -36.8538 -123.624 6
    endloop
  endfacet
  facet normal 0 0 1
    outer loop
      vertex -24.3596 -127.697 6
      vertex -70.6929 -84.2485 6
      vertex -29.0187 -125.694 6
    endloop
  endfacet
  facet normal 0 0 1
    outer loop
      vertex -24.3596 -127.697 6
      vertex -29.0187 -125.694 6
      vertex -29.2299 -126.609 6
    endloop
  endfacet
  facet normal 0 0 1
    outer loop
      vertex -70.1166 -84.7565 6
      vertex -70.6929 -84.2485 6
      vertex -24.3596 -127.697 6
    endloop
  endfacet
  facet normal 0 0 1
    outer loop
      vertex -64.6564 -88.9919 6
      vertex -70.1166 -84.7565 6
      vertex -16.2933 -128.975 6
    endloop
  endfacet
  facet normal 0 0 1
    outer loop
      vertex -52.9929 -96.3937 6
      vertex -58.9409 -92.8761 6
      vertex -8.16277 -129.743 6
    endloop
  endfacet
  facet normal 0 0 1
    outer loop
      vertex 0 -110 6
      vertex -6.90696 -109.783 6
      vertex 0 -130 6
    endloop
  endfacet
  facet normal 0 0 1
    outer loop
      vertex -6.90696 -109.783 6
      vertex -13.7867 -109.133 6
      vertex 0 -130 6
    endloop
  endfacet
  facet normal 0 0 1
    outer loop
      vertex -13.7867 -109.133 6
      vertex -20.6119 -108.052 6
      vertex 0 -130 6
    endloop
  endfacet
  facet normal 0 0 1
    outer loop
      vertex -20.6119 -108.052 6
      vertex -27.3559 -106.544 6
      vertex 0 -130 6
    endloop
  endfacet
  facet normal 0 0 1
    outer loop
      vertex -27.3559 -106.544 6
      vertex -33.9919 -104.616 6
      vertex 0 -130 6
    endloop
  endfacet
  facet normal 0 0 1
    outer loop
      vertex -33.9919 -104.616 6
      vertex -40.4937 -102.275 6
      vertex 0 -130 6
    endloop
  endfacet
  facet normal 0 0 1
    outer loop
      vertex -40.4937 -102.275 6
      vertex -46.8357 -99.531 6
      vertex 0 -130 6
    endloop
  endfacet
  facet normal 0 0 1
    outer loop
      vertex 0 -130 6
      vertex -52.9929 -96.3937 6
      vertex -8.16277 -129.743 6
    endloop
  endfacet
  facet normal 0 0 1
    outer loop
      vertex -8.16277 -129.743 6
      vertex -58.9409 -92.8761 6
      vertex -16.2933 -128.975 6
    endloop
  endfacet
  facet normal 0 0 1
    outer loop
      vertex -58.9409 -92.8761 6
      vertex -64.6564 -88.9919 6
      vertex -16.2933 -128.975 6
    endloop
  endfacet
  facet normal 0 0 1
    outer loop
      vertex -16.2933 -128.975 6
      vertex -70.1166 -84.7565 6
      vertex -24.3596 -127.697 6
    endloop
  endfacet
  facet normal 0 0 1
    outer loop
      vertex -46.8357 -99.531 6
      vertex -52.9929 -96.3937 6
      vertex 0 -130 6
    endloop
  endfacet
  facet normal 0 0 1
    outer loop
      vertex -60.5452 -113.869 8
      vertex -70.4014 -132.406 8
      vertex -69.03 -133.172 8
    endloop
  endfacet
  facet normal 0 0 1
    outer loop
      vertex -51.7947 -140.774 8
      vertex -60.5452 -113.869 8
      vertex -60.5318 -137.244 8
    endloop
  endfacet
  facet normal 0 0 1
    outer loop
      vertex -60.5318 -137.244 8
      vertex -60.5452 -113.869 8
      vertex -69.03 -133.172 8
    endloop
  endfacet
  facet normal 0 0 1
    outer loop
      vertex -42.8533 -143.748 8
      vertex -60.5452 -113.869 8
      vertex -51.7947 -140.774 8
    endloop
  endfacet
  facet normal 0 0 1
    outer loop
      vertex -49.2055 -130.876 8
      vertex -60.5452 -113.869 8
      vertex -42.8533 -143.748 8
    endloop
  endfacet
  facet normal 0 0 1
    outer loop
      vertex -29.0187 -125.694 8
      vertex -36.8538 -123.624 8
      vertex -33.7427 -146.156 8
    endloop
  endfacet
  facet normal 0 0 1
    outer loop
      vertex -36.8538 -123.624 8
      vertex -44.5435 -121.066 8
      vertex -33.7427 -146.156 8
    endloop
  endfacet
  facet normal 0 0 1
    outer loop
      vertex -44.5435 -121.066 8
      vertex -52.0573 -118.03 8
      vertex -33.7427 -146.156 8
    endloop
  endfacet
  facet normal 0 0 1
    outer loop
      vertex -46.5099 -130 8
      vertex -47.5395 -131.417 8
      vertex -33.7427 -146.156 8
    endloop
  endfacet
  facet normal 0 0 1
    outer loop
      vertex -33.7427 -146.156 8
      vertex -49.2055 -130.876 8
      vertex -42.8533 -143.748 8
    endloop
  endfacet
  facet normal 0 0 1
    outer loop
      vertex -49.2055 -129.124 8
      vertex -60.5452 -113.869 8
      vertex -49.2055 -130.876 8
    endloop
  endfacet
  facet normal 0 0 1
    outer loop
      vertex -52.0573 -118.03 8
      vertex -47.5395 -128.583 8
      vertex -33.7427 -146.156 8
    endloop
  endfacet
  facet normal 0 0 1
    outer loop
      vertex -52.0573 -118.03 8
      vertex -59.3658 -114.528 8
      vertex -47.5395 -128.583 8
    endloop
  endfacet
  facet normal 0 0 1
    outer loop
      vertex -47.5395 -128.583 8
      vertex -46.5099 -130 8
      vertex -33.7427 -146.156 8
    endloop
  endfacet
  facet normal 0 0 1
    outer loop
      vertex -33.7427 -146.156 8
      vertex -47.5395 -131.417 8
      vertex -49.2055 -130.876 8
    endloop
  endfacet
  facet normal 0 0 1
    outer loop
      vertex -49.2055 -129.124 8
      vertex -59.3658 -114.528 8
      vertex -60.5452 -113.869 8
    endloop
  endfacet
  facet normal 0 0 1
    outer loop
      vertex -49.2055 -129.124 8
      vertex -47.5395 -128.583 8
      vertex -59.3658 -114.528 8
    endloop
  endfacet
  facet normal 0.48786 0.872922 0
    outer loop
      vertex -60.5452 -113.869 6
      vertex -60.5452 -113.869 8
      vertex -59.3658 -114.528 6
    endloop
  endfacet
  facet normal 0.48786 0.872922 0
    outer loop
      vertex -59.3658 -114.528 6
      vertex -60.5452 -113.869 8
      vertex -59.3658 -114.528 8
    endloop
  endfacet
  facet normal 0.255446 0.966823 0
    outer loop
      vertex -36.8538 -123.624 6
      vertex -36.8538 -123.624 8
      vertex -29.0187 -125.694 6
    endloop
  endfacet
  facet normal 0.255446 0.966823 0
    outer loop
      vertex -29.0187 -125.694 6
      vertex -36.8538 -123.624 8
      vertex -29.0187 -125.694 8
    endloop
  endfacet
  facet normal 0 1.22465e-16 1
    outer loop
      vertex -49.6 -132.771 1.4999
      vertex -46.3999 -132.771 1.4999
      vertex -44.7999 -130 1.4999
    endloop
  endfacet
  facet normal 0 1.22465e-16 1
    outer loop
      vertex -47.5395 -131.417 1.4999
      vertex -49.6 -132.771 1.4999
      vertex -44.7999 -130 1.4999
    endloop
  endfacet
  facet normal 0 1.22465e-16 1
    outer loop
      vertex -51.2001 -130 1.4999
      vertex -49.6 -132.771 1.4999
      vertex -49.6 -127.229 1.4999
    endloop
  endfacet
  facet normal 0 1.22465e-16 1
    outer loop
      vertex -49.6 -127.229 1.4999
      vertex -49.2055 -129.124 1.4999
      vertex -46.3999 -127.229 1.4999
    endloop
  endfacet
  facet normal 0 1.22465e-16 1
    outer loop
      vertex -49.6 -127.229 1.4999
      vertex -49.6 -132.771 1.4999
      vertex -49.2055 -129.124 1.4999
    endloop
  endfacet
  facet normal 0 1.22465e-16 1
    outer loop
      vertex -49.2055 -129.124 1.4999
      vertex -47.5395 -128.583 1.4999
      vertex -46.3999 -127.229 1.4999
    endloop
  endfacet
  facet normal 0 1.22465e-16 1
    outer loop
      vertex -46.3999 -127.229 1.4999
      vertex -46.5099 -130 1.4999
      vertex -44.7999 -130 1.4999
    endloop
  endfacet
  facet normal 0 1.22465e-16 1
    outer loop
      vertex -46.5099 -130 1.4999
      vertex -47.5395 -131.417 1.4999
      vertex -44.7999 -130 1.4999
    endloop
  endfacet
  facet normal 0 1.22465e-16 1
    outer loop
      vertex -49.2055 -129.124 1.4999
      vertex -49.6 -132.771 1.4999
      vertex -49.2055 -130.876 1.4999
    endloop
  endfacet
  facet normal 0 1.22465e-16 1
    outer loop
      vertex -47.5395 -128.583 1.4999
      vertex -46.5099 -130 1.4999
      vertex -46.3999 -127.229 1.4999
    endloop
  endfacet
  facet normal 0 1.22465e-16 1
    outer loop
      vertex -47.5395 -131.417 1.4999
      vertex -49.2055 -130.876 1.4999
      vertex -49.6 -132.771 1.4999
    endloop
  endfacet
  facet normal 0.315649 0.948876 0
    outer loop
      vertex -44.5435 -121.066 6
      vertex -44.5435 -121.066 8
      vertex -36.8538 -123.624 6
    endloop
  endfacet
  facet normal 0.315649 0.948876 0
    outer loop
      vertex -36.8538 -123.624 6
      vertex -44.5435 -121.066 8
      vertex -36.8538 -123.624 8
    endloop
  endfacet
  facet normal 0.374607 0.927184 0
    outer loop
      vertex -52.0573 -118.03 6
      vertex -52.0573 -118.03 8
      vertex -44.5435 -121.066 6
    endloop
  endfacet
  facet normal 0.374607 0.927184 0
    outer loop
      vertex -44.5435 -121.066 6
      vertex -52.0573 -118.03 8
      vertex -44.5435 -121.066 8
    endloop
  endfacet
  facet normal 0.432086 0.901833 0
    outer loop
      vertex -59.3658 -114.528 6
      vertex -59.3658 -114.528 8
      vertex -52.0573 -118.03 6
    endloop
  endfacet
  facet normal 0.432086 0.901833 0
    outer loop
      vertex -52.0573 -118.03 6
      vertex -59.3658 -114.528 8
      vertex -52.0573 -118.03 8
    endloop
  endfacet
  facet normal 0.309017 0.951057 -1.16471e-16
    outer loop
      vertex -47.5395 -131.417 8
      vertex -47.5395 -131.417 3.9
      vertex -49.2055 -130.876 8
    endloop
  endfacet
  facet normal 0.309017 0.951057 -1.16471e-16
    outer loop
      vertex -49.2055 -130.876 8
      vertex -47.5395 -131.417 3.9
      vertex -49.2055 -130.876 3.9
    endloop
  endfacet
  facet normal 1 0 0
    outer loop
      vertex -49.2055 -129.124 3.9
      vertex -49.2055 -129.124 8
      vertex -49.2055 -130.876 8
    endloop
  endfacet
  facet normal 1 0 0
    outer loop
      vertex -49.2055 -130.876 3.9
      vertex -49.2055 -129.124 3.9
      vertex -49.2055 -130.876 8
    endloop
  endfacet
  facet normal -0.809017 0.587785 -7.1983e-17
    outer loop
      vertex -46.5099 -130 8
      vertex -46.5099 -130 3.9
      vertex -47.5395 -131.417 8
    endloop
  endfacet
  facet normal -0.809017 0.587785 -7.1983e-17
    outer loop
      vertex -47.5395 -131.417 8
      vertex -46.5099 -130 3.9
      vertex -47.5395 -131.417 3.9
    endloop
  endfacet
  facet normal -0.809017 -0.587785 7.1983e-17
    outer loop
      vertex -46.5099 -130 8
      vertex -47.5395 -128.583 8
      vertex -46.5099 -130 3.9
    endloop
  endfacet
  facet normal -0.809017 -0.587785 7.1983e-17
    outer loop
      vertex -46.5099 -130 3.9
      vertex -47.5395 -128.583 8
      vertex -47.5395 -128.583 3.9
    endloop
  endfacet
  facet normal 0.309017 -0.951057 1.16471e-16
    outer loop
      vertex -47.5395 -128.583 3.9
      vertex -47.5395 -128.583 8
      vertex -49.2055 -129.124 8
    endloop
  endfacet
  facet normal 0.309017 -0.951057 1.16471e-16
    outer loop
      vertex -49.2055 -129.124 3.9
      vertex -47.5395 -128.583 3.9
      vertex -49.2055 -129.124 8
    endloop
  endfacet
  facet normal 0 1 -1.22465e-16
    outer loop
      vertex -46.3999 -132.771 3.9
      vertex -46.3999 -132.771 1.4999
      vertex -49.6 -132.771 3.9
    endloop
  endfacet
  facet normal 0 1 -1.22465e-16
    outer loop
      vertex -49.6 -132.771 3.9
      vertex -46.3999 -132.771 1.4999
      vertex -49.6 -132.771 1.4999
    endloop
  endfacet
  facet normal 0.866025 0.5 -6.12323e-17
    outer loop
      vertex -51.2001 -130 3.9
      vertex -49.6 -132.771 3.9
      vertex -49.6 -132.771 1.4999
    endloop
  endfacet
  facet normal 0.866025 0.5 -6.12323e-17
    outer loop
      vertex -51.2001 -130 1.4999
      vertex -51.2001 -130 3.9
      vertex -49.6 -132.771 1.4999
    endloop
  endfacet
  facet normal 0.866025 -0.5 6.12323e-17
    outer loop
      vertex -49.6 -127.229 1.4999
      vertex -49.6 -127.229 3.9
      vertex -51.2001 -130 3.9
    endloop
  endfacet
  facet normal 0.866025 -0.5 6.12323e-17
    outer loop
      vertex -51.2001 -130 1.4999
      vertex -49.6 -127.229 1.4999
      vertex -51.2001 -130 3.9
    endloop
  endfacet
  facet normal 0 -1 1.22465e-16
    outer loop
      vertex -46.3999 -127.229 1.4999
      vertex -46.3999 -127.229 3.9
      vertex -49.6 -127.229 3.9
    endloop
  endfacet
  facet normal 0 -1 1.22465e-16
    outer loop
      vertex -49.6 -127.229 1.4999
      vertex -46.3999 -127.229 1.4999
      vertex -49.6 -127.229 3.9
    endloop
  endfacet
  facet normal -0.866025 -0.5 6.12323e-17
    outer loop
      vertex -44.7999 -130 3.9
      vertex -46.3999 -127.229 3.9
      vertex -44.7999 -130 1.4999
    endloop
  endfacet
  facet normal -0.866025 -0.5 6.12323e-17
    outer loop
      vertex -44.7999 -130 1.4999
      vertex -46.3999 -127.229 3.9
      vertex -46.3999 -127.229 1.4999
    endloop
  endfacet
  facet normal -0.866025 0.5 -6.12323e-17
    outer loop
      vertex -44.7999 -130 3.9
      vertex -44.7999 -130 1.4999
      vertex -46.3999 -132.771 3.9
    endloop
  endfacet
  facet normal -0.866025 0.5 -6.12323e-17
    outer loop
      vertex -46.3999 -132.771 3.9
      vertex -44.7999 -130 1.4999
      vertex -46.3999 -132.771 1.4999
    endloop
  endfacet
  facet normal 0 -1.22465e-16 -1
    outer loop
      vertex -46.3999 -127.229 3.9
      vertex -44.7999 -130 3.9
      vertex -49.6 -127.229 3.9
    endloop
  endfacet
  facet normal 0 -1.22465e-16 -1
    outer loop
      vertex -46.5099 -130 3.9
      vertex -44.7999 -130 3.9
      vertex -46.3999 -132.771 3.9
    endloop
  endfacet
  facet normal 0 -1.22465e-16 -1
    outer loop
      vertex -49.2055 -130.876 3.9
      vertex -46.3999 -132.771 3.9
      vertex -49.6 -132.771 3.9
    endloop
  endfacet
  facet normal 0 -1.22465e-16 -1
    outer loop
      vertex -49.6 -127.229 3.9
      vertex -49.6 -132.771 3.9
      vertex -51.2001 -130 3.9
    endloop
  endfacet
  facet normal 0 -1.22465e-16 -1
    outer loop
      vertex -47.5395 -131.417 3.9
      vertex -46.3999 -132.771 3.9
      vertex -49.2055 -130.876 3.9
    endloop
  endfacet
  facet normal 0 -1.22465e-16 -1
    outer loop
      vertex -49.6 -127.229 3.9
      vertex -49.2055 -130.876 3.9
      vertex -49.6 -132.771 3.9
    endloop
  endfacet
  facet normal 0 -1.22465e-16 -1
    outer loop
      vertex -47.5395 -128.583 3.9
      vertex -44.7999 -130 3.9
      vertex -46.5099 -130 3.9
    endloop
  endfacet
  facet normal 0 -1.22465e-16 -1
    outer loop
      vertex -49.2055 -129.124 3.9
      vertex -49.6 -127.229 3.9
      vertex -47.5395 -128.583 3.9
    endloop
  endfacet
  facet normal 0 -1.22465e-16 -1
    outer loop
      vertex -49.6 -127.229 3.9
      vertex -44.7999 -130 3.9
      vertex -47.5395 -128.583 3.9
    endloop
  endfacet
  facet normal 0 -1.22465e-16 -1
    outer loop
      vertex -49.6 -127.229 3.9
      vertex -49.2055 -129.124 3.9
      vertex -49.2055 -130.876 3.9
    endloop
  endfacet
  facet normal 0 -1.22465e-16 -1
    outer loop
      vertex -46.5099 -130 3.9
      vertex -46.3999 -132.771 3.9
      vertex -47.5395 -131.417 3.9
    endloop
  endfacet
  facet normal 0 0 -1
    outer loop
      vertex -143.406 -43.8437 0
      vertex -124.261 -37.9905 0
      vertex -142.979 -45.3555 0
    endloop
  endfacet
  facet normal 0 0 -1
    outer loop
      vertex -127.969 -22.5644 0
      vertex -124.261 -37.9905 0
      vertex -127.524 -25.2505 0
    endloop
  endfacet
  facet normal 0 0 -1
    outer loop
      vertex -124.261 -37.9905 0
      vertex -125.687 -33.2079 0
      vertex -127.524 -25.2505 0
    endloop
  endfacet
  facet normal 0 0 -1
    outer loop
      vertex -118.004 -30.4984 0
      vertex -124.261 -37.9905 0
      vertex -127.969 -22.5644 0
    endloop
  endfacet
  facet normal 0 0 -1
    outer loop
      vertex -118.31 -34.0037 0
      vertex -124.261 -37.9905 0
      vertex -118.883 -32.1876 0
    endloop
  endfacet
  facet normal 0 0 -1
    outer loop
      vertex -114.498 -30.8051 0
      vertex -107.905 -21.3658 0
      vertex -106.351 -28.099 0
    endloop
  endfacet
  facet normal 0 0 -1
    outer loop
      vertex -142.979 -45.3555 0
      vertex -124.261 -37.9905 0
      vertex -104.376 -34.7214 0
    endloop
  endfacet
  facet normal 0 0 -1
    outer loop
      vertex -142.979 -45.3555 0
      vertex -104.376 -34.7214 0
      vertex -101.99 -41.2067 0
    endloop
  endfacet
  facet normal 0 0 -1
    outer loop
      vertex -101.99 -41.2067 0
      vertex -99.2016 -47.5294 0
      vertex -142.979 -45.3555 0
    endloop
  endfacet
  facet normal 0 0 -1
    outer loop
      vertex -99.2016 -47.5294 0
      vertex -96.0214 -53.6646 0
      vertex -142.979 -45.3555 0
    endloop
  endfacet
  facet normal 0 0 -1
    outer loop
      vertex -96.0214 -53.6646 0
      vertex -92.4623 -59.5879 0
      vertex -142.979 -45.3555 0
    endloop
  endfacet
  facet normal 0 0 -1
    outer loop
      vertex -92.4623 -59.5879 0
      vertex -88.5383 -65.2761 0
      vertex -142.979 -45.3555 0
    endloop
  endfacet
  facet normal 0 0 -1
    outer loop
      vertex -88.5383 -65.2761 0
      vertex -84.2649 -70.7066 0
      vertex -142.979 -45.3555 0
    endloop
  endfacet
  facet normal 0 0 -1
    outer loop
      vertex -104.636 -77.1445 0
      vertex -84.2649 -70.7066 0
      vertex -99.5858 -83.5624 0
    endloop
  endfacet
  facet normal 0 0 -1
    outer loop
      vertex -109.274 -70.4221 0
      vertex -84.2649 -70.7066 0
      vertex -104.636 -77.1445 0
    endloop
  endfacet
  facet normal 0 0 -1
    outer loop
      vertex -99.8556 -70.4206 0
      vertex -84.2649 -70.7066 0
      vertex -109.274 -70.4221 0
    endloop
  endfacet
  facet normal 0 0 -1
    outer loop
      vertex -129.899 -55.2152 0
      vertex -142.979 -45.3555 0
      vertex -126.747 -54.6595 0
    endloop
  endfacet
  facet normal 0 0 -1
    outer loop
      vertex -142.979 -45.3555 0
      vertex -127.207 -79.4879 0
      vertex -131.947 -71.3436 0
    endloop
  endfacet
  facet normal 0 0 -1
    outer loop
      vertex -142.979 -45.3555 0
      vertex -131.947 -71.3436 0
      vertex -136.167 -62.9178 0
    endloop
  endfacet
  facet normal 0 0 -1
    outer loop
      vertex -142.979 -45.3555 0
      vertex -136.167 -62.9178 0
      vertex -139.849 -54.2437 0
    endloop
  endfacet
  facet normal 0 0 -1
    outer loop
      vertex -142.979 -45.3555 0
      vertex -130.993 -58.2223 0
      vertex -127.207 -79.4879 0
    endloop
  endfacet
  facet normal 0 0 -1
    outer loop
      vertex -118.883 -32.1876 0
      vertex -124.261 -37.9905 0
      vertex -118.004 -30.4984 0
    endloop
  endfacet
  facet normal 0 0 -1
    outer loop
      vertex -130.993 -58.2223 0
      vertex -128.936 -60.6737 0
      vertex -127.207 -79.4879 0
    endloop
  endfacet
  facet normal 0 0 -1
    outer loop
      vertex -101.238 -66.036 0
      vertex -124.69 -57.1109 0
      vertex -99.4219 -65.4633 0
    endloop
  endfacet
  facet normal 0 0 -1
    outer loop
      vertex -142.979 -45.3555 0
      vertex -84.2649 -70.7066 0
      vertex -126.747 -54.6595 0
    endloop
  endfacet
  facet normal 0 0 -1
    outer loop
      vertex -118.004 -30.4984 0
      vertex -108.281 -19.0929 0
      vertex -107.905 -21.3658 0
    endloop
  endfacet
  facet normal 0 0 -1
    outer loop
      vertex -104.376 -34.7214 0
      vertex -124.261 -37.9905 0
      vertex -116.621 -34.883 0
    endloop
  endfacet
  facet normal 0 0 -1
    outer loop
      vertex -104.376 -34.7214 0
      vertex -116.621 -34.883 0
      vertex -114.805 -34.3104 0
    endloop
  endfacet
  facet normal 0 0 -1
    outer loop
      vertex -104.376 -34.7214 0
      vertex -114.805 -34.3104 0
      vertex -106.351 -28.099 0
    endloop
  endfacet
  facet normal 0 0 -1
    outer loop
      vertex -113.926 -32.6213 0
      vertex -106.351 -28.099 0
      vertex -114.805 -34.3104 0
    endloop
  endfacet
  facet normal 0 0 -1
    outer loop
      vertex -114.498 -30.8051 0
      vertex -106.351 -28.099 0
      vertex -113.926 -32.6213 0
    endloop
  endfacet
  facet normal 0 0 -1
    outer loop
      vertex -118.004 -30.4984 0
      vertex -107.905 -21.3658 0
      vertex -116.187 -29.9258 0
    endloop
  endfacet
  facet normal 0 0 -1
    outer loop
      vertex -116.187 -29.9258 0
      vertex -107.905 -21.3658 0
      vertex -114.498 -30.8051 0
    endloop
  endfacet
  facet normal 0 0 -1
    outer loop
      vertex -116.621 -34.883 0
      vertex -124.261 -37.9905 0
      vertex -118.31 -34.0037 0
    endloop
  endfacet
  facet normal 0 0 -1
    outer loop
      vertex -108.281 -19.0929 0
      vertex -118.004 -30.4984 0
      vertex -127.969 -22.5644 0
    endloop
  endfacet
  facet normal 0 0 -1
    outer loop
      vertex -99.4219 -65.4633 0
      vertex -84.2649 -70.7066 0
      vertex -97.7328 -66.3427 0
    endloop
  endfacet
  facet normal 0 0 -1
    outer loop
      vertex -124.69 -57.1109 0
      vertex -102.117 -67.7251 0
      vertex -110.209 -68.866 0
    endloop
  endfacet
  facet normal 0 0 -1
    outer loop
      vertex -97.1602 -68.1588 0
      vertex -84.2649 -70.7066 0
      vertex -98.0395 -69.848 0
    endloop
  endfacet
  facet normal 0 0 -1
    outer loop
      vertex -110.209 -68.866 0
      vertex -101.545 -69.5413 0
      vertex -109.274 -70.4221 0
    endloop
  endfacet
  facet normal 0 0 -1
    outer loop
      vertex -98.0395 -69.848 0
      vertex -84.2649 -70.7066 0
      vertex -99.8556 -70.4206 0
    endloop
  endfacet
  facet normal 0 0 -1
    outer loop
      vertex -101.545 -69.5413 0
      vertex -99.8556 -70.4206 0
      vertex -109.274 -70.4221 0
    endloop
  endfacet
  facet normal 0 0 -1
    outer loop
      vertex -97.7328 -66.3427 0
      vertex -84.2649 -70.7066 0
      vertex -97.1602 -68.1588 0
    endloop
  endfacet
  facet normal 0 0 -1
    outer loop
      vertex -101.545 -69.5413 0
      vertex -110.209 -68.866 0
      vertex -102.117 -67.7251 0
    endloop
  endfacet
  facet normal 0 0 -1
    outer loop
      vertex -126.747 -54.6595 0
      vertex -84.2649 -70.7066 0
      vertex -99.4219 -65.4633 0
    endloop
  endfacet
  facet normal 0 0 -1
    outer loop
      vertex -126.747 -54.6595 0
      vertex -99.4219 -65.4633 0
      vertex -124.69 -57.1109 0
    endloop
  endfacet
  facet normal 0 0 -1
    outer loop
      vertex -124.69 -57.1109 0
      vertex -110.209 -68.866 0
      vertex -125.785 -60.1181 0
    endloop
  endfacet
  facet normal 0 0 -1
    outer loop
      vertex -127.207 -79.4879 0
      vertex -128.936 -60.6737 0
      vertex -125.785 -60.1181 0
    endloop
  endfacet
  facet normal 0 0 -1
    outer loop
      vertex -130.993 -58.2223 0
      vertex -142.979 -45.3555 0
      vertex -129.899 -55.2152 0
    endloop
  endfacet
  facet normal 0 0 -1
    outer loop
      vertex -102.117 -67.7251 0
      vertex -124.69 -57.1109 0
      vertex -101.238 -66.036 0
    endloop
  endfacet
  facet normal 0 0 -1
    outer loop
      vertex -127.207 -79.4879 0
      vertex -125.785 -60.1181 0
      vertex -110.209 -68.866 0
    endloop
  endfacet
  facet normal -0.292372 0.956305 0
    outer loop
      vertex -124.261 -37.9905 6
      vertex -124.261 -37.9905 0
      vertex -143.406 -43.8437 6
    endloop
  endfacet
  facet normal -0.292372 0.956305 0
    outer loop
      vertex -143.406 -43.8437 6
      vertex -124.261 -37.9905 0
      vertex -143.406 -43.8437 0
    endloop
  endfacet
  facet normal -0.962218 -0.27228 0
    outer loop
      vertex -143.406 -43.8437 0
      vertex -142.979 -45.3555 0
      vertex -143.406 -43.8437 6
    endloop
  endfacet
  facet normal -0.962218 -0.27228 0
    outer loop
      vertex -143.406 -43.8437 6
      vertex -142.979 -45.3555 0
      vertex -142.979 -45.3555 6
    endloop
  endfacet
  facet normal -0.943223 -0.332161 0
    outer loop
      vertex -142.979 -45.3555 0
      vertex -139.849 -54.2437 0
      vertex -142.979 -45.3555 6
    endloop
  endfacet
  facet normal -0.943223 -0.332161 0
    outer loop
      vertex -142.979 -45.3555 6
      vertex -139.849 -54.2437 0
      vertex -139.849 -54.2437 6
    endloop
  endfacet
  facet normal -0.920505 -0.390731 0
    outer loop
      vertex -139.849 -54.2437 0
      vertex -136.167 -62.9178 0
      vertex -139.849 -54.2437 6
    endloop
  endfacet
  facet normal -0.920505 -0.390731 0
    outer loop
      vertex -139.849 -54.2437 6
      vertex -136.167 -62.9178 0
      vertex -136.167 -62.9178 6
    endloop
  endfacet
  facet normal -0.894154 -0.447759 0
    outer loop
      vertex -136.167 -62.9178 0
      vertex -131.947 -71.3436 0
      vertex -136.167 -62.9178 6
    endloop
  endfacet
  facet normal -0.894154 -0.447759 0
    outer loop
      vertex -136.167 -62.9178 6
      vertex -131.947 -71.3436 0
      vertex -131.947 -71.3436 6
    endloop
  endfacet
  facet normal -0.864275 -0.50302 0
    outer loop
      vertex -131.947 -71.3436 0
      vertex -127.207 -79.4879 0
      vertex -131.947 -71.3436 6
    endloop
  endfacet
  facet normal -0.864275 -0.50302 0
    outer loop
      vertex -131.947 -71.3436 6
      vertex -127.207 -79.4879 0
      vertex -127.207 -79.4879 6
    endloop
  endfacet
  facet normal 0.529919 -0.848048 0
    outer loop
      vertex -110.209 -68.866 0
      vertex -110.209 -68.866 6
      vertex -127.207 -79.4879 6
    endloop
  endfacet
  facet normal 0.529919 -0.848048 0
    outer loop
      vertex -127.207 -79.4879 0
      vertex -110.209 -68.866 0
      vertex -127.207 -79.4879 6
    endloop
  endfacet
  facet normal -0.857167 -0.515038 0
    outer loop
      vertex -110.209 -68.866 0
      vertex -109.274 -70.4221 0
      vertex -110.209 -68.866 6
    endloop
  endfacet
  facet normal -0.857167 -0.515038 0
    outer loop
      vertex -110.209 -68.866 6
      vertex -109.274 -70.4221 0
      vertex -109.274 -70.4221 6
    endloop
  endfacet
  facet normal -0.823136 -0.567844 0
    outer loop
      vertex -109.274 -70.4221 0
      vertex -104.636 -77.1445 0
      vertex -109.274 -70.4221 6
    endloop
  endfacet
  facet normal -0.823136 -0.567844 0
    outer loop
      vertex -109.274 -70.4221 6
      vertex -104.636 -77.1445 0
      vertex -104.636 -77.1445 6
    endloop
  endfacet
  facet normal -0.785857 -0.618408 0
    outer loop
      vertex -104.636 -77.1445 0
      vertex -99.5858 -83.5624 0
      vertex -104.636 -77.1445 6
    endloop
  endfacet
  facet normal -0.785857 -0.618408 0
    outer loop
      vertex -104.636 -77.1445 6
      vertex -99.5858 -83.5624 0
      vertex -99.5858 -83.5624 6
    endloop
  endfacet
  facet normal 0.642788 -0.766044 0
    outer loop
      vertex -84.2649 -70.7066 0
      vertex -84.2649 -70.7066 6
      vertex -99.5858 -83.5624 6
    endloop
  endfacet
  facet normal 0.642788 -0.766044 0
    outer loop
      vertex -99.5858 -83.5624 0
      vertex -84.2649 -70.7066 0
      vertex -99.5858 -83.5624 6
    endloop
  endfacet
  facet normal 0.785857 0.618408 0
    outer loop
      vertex -84.2649 -70.7066 0
      vertex -88.5383 -65.2761 0
      vertex -88.5383 -65.2761 6
    endloop
  endfacet
  facet normal 0.785857 0.618408 0
    outer loop
      vertex -84.2649 -70.7066 6
      vertex -84.2649 -70.7066 0
      vertex -88.5383 -65.2761 6
    endloop
  endfacet
  facet normal 0.823136 0.567844 0
    outer loop
      vertex -88.5383 -65.2761 0
      vertex -92.4623 -59.5879 0
      vertex -92.4623 -59.5879 6
    endloop
  endfacet
  facet normal 0.823136 0.567844 0
    outer loop
      vertex -88.5383 -65.2761 6
      vertex -88.5383 -65.2761 0
      vertex -92.4623 -59.5879 6
    endloop
  endfacet
  facet normal 0.857167 0.515038 0
    outer loop
      vertex -92.4623 -59.5879 0
      vertex -96.0214 -53.6646 0
      vertex -96.0214 -53.6646 6
    endloop
  endfacet
  facet normal 0.857167 0.515038 0
    outer loop
      vertex -92.4623 -59.5879 6
      vertex -92.4623 -59.5879 0
      vertex -96.0214 -53.6646 6
    endloop
  endfacet
  facet normal 0.887815 0.4602 0
    outer loop
      vertex -96.0214 -53.6646 0
      vertex -99.2016 -47.5294 0
      vertex -99.2016 -47.5294 6
    endloop
  endfacet
  facet normal 0.887815 0.4602 0
    outer loop
      vertex -96.0214 -53.6646 6
      vertex -96.0214 -53.6646 0
      vertex -99.2016 -47.5294 6
    endloop
  endfacet
  facet normal 0.91496 0.403545 0
    outer loop
      vertex -99.2016 -47.5294 0
      vertex -101.99 -41.2067 0
      vertex -101.99 -41.2067 6
    endloop
  endfacet
  facet normal 0.91496 0.403545 0
    outer loop
      vertex -99.2016 -47.5294 6
      vertex -99.2016 -47.5294 0
      vertex -101.99 -41.2067 6
    endloop
  endfacet
  facet normal 0.938493 0.345298 0
    outer loop
      vertex -101.99 -41.2067 0
      vertex -104.376 -34.7214 0
      vertex -104.376 -34.7214 6
    endloop
  endfacet
  facet normal 0.938493 0.345298 0
    outer loop
      vertex -101.99 -41.2067 6
      vertex -101.99 -41.2067 0
      vertex -104.376 -34.7214 6
    endloop
  endfacet
  facet normal 0.958323 0.285688 0
    outer loop
      vertex -104.376 -34.7214 0
      vertex -106.351 -28.099 0
      vertex -106.351 -28.099 6
    endloop
  endfacet
  facet normal 0.958323 0.285688 0
    outer loop
      vertex -104.376 -34.7214 6
      vertex -104.376 -34.7214 0
      vertex -106.351 -28.099 6
    endloop
  endfacet
  facet normal 0.97437 0.224951 0
    outer loop
      vertex -106.351 -28.099 0
      vertex -107.905 -21.3658 0
      vertex -107.905 -21.3658 6
    endloop
  endfacet
  facet normal 0.97437 0.224951 0
    outer loop
      vertex -106.351 -28.099 6
      vertex -106.351 -28.099 0
      vertex -107.905 -21.3658 6
    endloop
  endfacet
  facet normal 0.986572 0.163326 0
    outer loop
      vertex -107.905 -21.3658 0
      vertex -108.281 -19.0929 0
      vertex -108.281 -19.0929 6
    endloop
  endfacet
  facet normal 0.986572 0.163326 0
    outer loop
      vertex -107.905 -21.3658 6
      vertex -107.905 -21.3658 0
      vertex -108.281 -19.0929 6
    endloop
  endfacet
  facet normal -0.173648 0.984808 0
    outer loop
      vertex -108.281 -19.0929 6
      vertex -108.281 -19.0929 0
      vertex -127.969 -22.5644 6
    endloop
  endfacet
  facet normal -0.173648 0.984808 0
    outer loop
      vertex -127.969 -22.5644 6
      vertex -108.281 -19.0929 0
      vertex -127.969 -22.5644 0
    endloop
  endfacet
  facet normal -0.986572 -0.163326 0
    outer loop
      vertex -127.969 -22.5644 0
      vertex -127.524 -25.2505 0
      vertex -127.969 -22.5644 6
    endloop
  endfacet
  facet normal -0.986572 -0.163326 0
    outer loop
      vertex -127.969 -22.5644 6
      vertex -127.524 -25.2505 0
      vertex -127.524 -25.2505 6
    endloop
  endfacet
  facet normal -0.97437 -0.224951 0
    outer loop
      vertex -127.524 -25.2505 0
      vertex -125.687 -33.2079 0
      vertex -127.524 -25.2505 6
    endloop
  endfacet
  facet normal -0.97437 -0.224951 0
    outer loop
      vertex -127.524 -25.2505 6
      vertex -125.687 -33.2079 0
      vertex -125.687 -33.2079 6
    endloop
  endfacet
  facet normal -0.958323 -0.285688 0
    outer loop
      vertex -125.687 -33.2079 0
      vertex -124.261 -37.9905 0
      vertex -125.687 -33.2079 6
    endloop
  endfacet
  facet normal -0.958323 -0.285688 0
    outer loop
      vertex -125.687 -33.2079 6
      vertex -124.261 -37.9905 0
      vertex -124.261 -37.9905 6
    endloop
  endfacet
  facet normal 0.939693 -0.34202 -6.12323e-17
    outer loop
      vertex -129.899 -55.2152 0
      vertex -129.899 -55.2152 2
      vertex -130.993 -58.2223 2
    endloop
  endfacet
  facet normal 0.939693 -0.34202 -6.12323e-17
    outer loop
      vertex -130.993 -58.2223 0
      vertex -129.899 -55.2152 0
      vertex -130.993 -58.2223 2
    endloop
  endfacet
  facet normal 0.173648 -0.984808 6.12323e-17
    outer loop
      vertex -126.747 -54.6595 0
      vertex -126.747 -54.6595 2
      vertex -129.899 -55.2152 2
    endloop
  endfacet
  facet normal 0.173648 -0.984808 6.12323e-17
    outer loop
      vertex -129.899 -55.2152 0
      vertex -126.747 -54.6595 0
      vertex -129.899 -55.2152 2
    endloop
  endfacet
  facet normal -0.766044 -0.642788 1.22465e-16
    outer loop
      vertex -124.69 -57.1109 2
      vertex -126.747 -54.6595 2
      vertex -124.69 -57.1109 0
    endloop
  endfacet
  facet normal -0.766044 -0.642788 1.22465e-16
    outer loop
      vertex -124.69 -57.1109 0
      vertex -126.747 -54.6595 2
      vertex -126.747 -54.6595 0
    endloop
  endfacet
  facet normal -0.939693 0.34202 6.12323e-17
    outer loop
      vertex -124.69 -57.1109 2
      vertex -124.69 -57.1109 0
      vertex -125.785 -60.1181 2
    endloop
  endfacet
  facet normal -0.939693 0.34202 6.12323e-17
    outer loop
      vertex -125.785 -60.1181 2
      vertex -124.69 -57.1109 0
      vertex -125.785 -60.1181 0
    endloop
  endfacet
  facet normal -0.173648 0.984808 -6.12323e-17
    outer loop
      vertex -125.785 -60.1181 2
      vertex -125.785 -60.1181 0
      vertex -128.936 -60.6737 2
    endloop
  endfacet
  facet normal -0.173648 0.984808 -6.12323e-17
    outer loop
      vertex -128.936 -60.6737 2
      vertex -125.785 -60.1181 0
      vertex -128.936 -60.6737 0
    endloop
  endfacet
  facet normal 0.766044 0.642788 -1.22465e-16
    outer loop
      vertex -130.993 -58.2223 2
      vertex -128.936 -60.6737 2
      vertex -128.936 -60.6737 0
    endloop
  endfacet
  facet normal 0.766044 0.642788 -1.22465e-16
    outer loop
      vertex -130.993 -58.2223 0
      vertex -130.993 -58.2223 2
      vertex -128.936 -60.6737 0
    endloop
  endfacet
  facet normal 0.887011 -0.461748 -4.68652e-17
    outer loop
      vertex -118.004 -30.4984 0
      vertex -118.004 -30.4984 3
      vertex -118.883 -32.1876 3
    endloop
  endfacet
  facet normal 0.887011 -0.461748 -4.68652e-17
    outer loop
      vertex -118.883 -32.1876 0
      vertex -118.004 -30.4984 0
      vertex -118.883 -32.1876 3
    endloop
  endfacet
  facet normal 0.953717 0.300706 -1.13143e-16
    outer loop
      vertex -118.883 -32.1876 3
      vertex -118.31 -34.0037 3
      vertex -118.31 -34.0037 0
    endloop
  endfacet
  facet normal 0.953717 0.300706 -1.13143e-16
    outer loop
      vertex -118.883 -32.1876 0
      vertex -118.883 -32.1876 3
      vertex -118.31 -34.0037 0
    endloop
  endfacet
  facet normal 0.300706 -0.953717 4.68652e-17
    outer loop
      vertex -116.187 -29.9258 0
      vertex -116.187 -29.9258 3
      vertex -118.004 -30.4984 3
    endloop
  endfacet
  facet normal 0.300706 -0.953717 4.68652e-17
    outer loop
      vertex -118.004 -30.4984 0
      vertex -116.187 -29.9258 0
      vertex -118.004 -30.4984 3
    endloop
  endfacet
  facet normal -0.461748 -0.887011 1.13143e-16
    outer loop
      vertex -114.498 -30.8051 0
      vertex -114.498 -30.8051 3
      vertex -116.187 -29.9258 3
    endloop
  endfacet
  facet normal -0.461748 -0.887011 1.13143e-16
    outer loop
      vertex -116.187 -29.9258 0
      vertex -114.498 -30.8051 0
      vertex -116.187 -29.9258 3
    endloop
  endfacet
  facet normal -0.953717 -0.300706 1.13143e-16
    outer loop
      vertex -113.926 -32.6213 3
      vertex -114.498 -30.8051 3
      vertex -113.926 -32.6213 0
    endloop
  endfacet
  facet normal -0.953717 -0.300706 1.13143e-16
    outer loop
      vertex -113.926 -32.6213 0
      vertex -114.498 -30.8051 3
      vertex -114.498 -30.8051 0
    endloop
  endfacet
  facet normal -0.887011 0.461748 4.68652e-17
    outer loop
      vertex -113.926 -32.6213 3
      vertex -113.926 -32.6213 0
      vertex -114.805 -34.3104 3
    endloop
  endfacet
  facet normal -0.887011 0.461748 4.68652e-17
    outer loop
      vertex -114.805 -34.3104 3
      vertex -113.926 -32.6213 0
      vertex -114.805 -34.3104 0
    endloop
  endfacet
  facet normal -0.300706 0.953717 -4.68652e-17
    outer loop
      vertex -114.805 -34.3104 3
      vertex -114.805 -34.3104 0
      vertex -116.621 -34.883 3
    endloop
  endfacet
  facet normal -0.300706 0.953717 -4.68652e-17
    outer loop
      vertex -116.621 -34.883 3
      vertex -114.805 -34.3104 0
      vertex -116.621 -34.883 0
    endloop
  endfacet
  facet normal 0.461748 0.887011 -1.13143e-16
    outer loop
      vertex -116.621 -34.883 3
      vertex -116.621 -34.883 0
      vertex -118.31 -34.0037 3
    endloop
  endfacet
  facet normal 0.461748 0.887011 -1.13143e-16
    outer loop
      vertex -118.31 -34.0037 3
      vertex -116.621 -34.883 0
      vertex -118.31 -34.0037 0
    endloop
  endfacet
  facet normal 0.953717 0.300706 -1.13143e-16
    outer loop
      vertex -102.117 -67.7251 3
      vertex -101.545 -69.5413 3
      vertex -101.545 -69.5413 0
    endloop
  endfacet
  facet normal 0.953717 0.300706 -1.13143e-16
    outer loop
      vertex -102.117 -67.7251 0
      vertex -102.117 -67.7251 3
      vertex -101.545 -69.5413 0
    endloop
  endfacet
  facet normal 0.887011 -0.461748 -4.68652e-17
    outer loop
      vertex -101.238 -66.036 0
      vertex -101.238 -66.036 3
      vertex -102.117 -67.7251 3
    endloop
  endfacet
  facet normal 0.887011 -0.461748 -4.68652e-17
    outer loop
      vertex -102.117 -67.7251 0
      vertex -101.238 -66.036 0
      vertex -102.117 -67.7251 3
    endloop
  endfacet
  facet normal 0.300706 -0.953717 4.68652e-17
    outer loop
      vertex -99.4219 -65.4633 0
      vertex -99.4219 -65.4633 3
      vertex -101.238 -66.036 3
    endloop
  endfacet
  facet normal 0.300706 -0.953717 4.68652e-17
    outer loop
      vertex -101.238 -66.036 0
      vertex -99.4219 -65.4633 0
      vertex -101.238 -66.036 3
    endloop
  endfacet
  facet normal -0.461748 -0.887011 1.13143e-16
    outer loop
      vertex -97.7328 -66.3427 0
      vertex -97.7328 -66.3427 3
      vertex -99.4219 -65.4633 3
    endloop
  endfacet
  facet normal -0.461748 -0.887011 1.13143e-16
    outer loop
      vertex -99.4219 -65.4633 0
      vertex -97.7328 -66.3427 0
      vertex -99.4219 -65.4633 3
    endloop
  endfacet
  facet normal -0.953717 -0.300706 1.13143e-16
    outer loop
      vertex -97.1602 -68.1588 3
      vertex -97.7328 -66.3427 3
      vertex -97.1602 -68.1588 0
    endloop
  endfacet
  facet normal -0.953717 -0.300706 1.13143e-16
    outer loop
      vertex -97.1602 -68.1588 0
      vertex -97.7328 -66.3427 3
      vertex -97.7328 -66.3427 0
    endloop
  endfacet
  facet normal -0.887011 0.461748 4.68652e-17
    outer loop
      vertex -97.1602 -68.1588 3
      vertex -97.1602 -68.1588 0
      vertex -98.0395 -69.848 3
    endloop
  endfacet
  facet normal -0.887011 0.461748 4.68652e-17
    outer loop
      vertex -98.0395 -69.848 3
      vertex -97.1602 -68.1588 0
      vertex -98.0395 -69.848 0
    endloop
  endfacet
  facet normal -0.300706 0.953717 -4.68652e-17
    outer loop
      vertex -98.0395 -69.848 3
      vertex -98.0395 -69.848 0
      vertex -99.8556 -70.4206 3
    endloop
  endfacet
  facet normal -0.300706 0.953717 -4.68652e-17
    outer loop
      vertex -99.8556 -70.4206 3
      vertex -98.0395 -69.848 0
      vertex -99.8556 -70.4206 0
    endloop
  endfacet
  facet normal 0.461748 0.887011 -1.13143e-16
    outer loop
      vertex -99.8556 -70.4206 3
      vertex -99.8556 -70.4206 0
      vertex -101.545 -69.5413 3
    endloop
  endfacet
  facet normal 0.461748 0.887011 -1.13143e-16
    outer loop
      vertex -101.545 -69.5413 3
      vertex -99.8556 -70.4206 0
      vertex -101.545 -69.5413 0
    endloop
  endfacet
  facet normal 0 0 1
    outer loop
      vertex -124.261 -37.9905 6
      vertex -143.406 -43.8437 6
      vertex -142.979 -45.3555 6
    endloop
  endfacet
  facet normal 0 0 1
    outer loop
      vertex -136.167 -62.9178 6
      vertex -124.261 -37.9905 6
      vertex -139.849 -54.2437 6
    endloop
  endfacet
  facet normal 0 0 1
    outer loop
      vertex -139.849 -54.2437 6
      vertex -124.261 -37.9905 6
      vertex -142.979 -45.3555 6
    endloop
  endfacet
  facet normal 0 0 1
    outer loop
      vertex -129.288 -57.3062 6
      vertex -124.261 -37.9905 6
      vertex -136.167 -62.9178 6
    endloop
  endfacet
  facet normal 0 0 1
    outer loop
      vertex -129.288 -57.3062 6
      vertex -127.946 -56.1802 6
      vertex -124.261 -37.9905 6
    endloop
  endfacet
  facet normal 0 0 1
    outer loop
      vertex -110.209 -68.866 6
      vertex -124.261 -37.9905 6
      vertex -127.207 -79.4879 6
    endloop
  endfacet
  facet normal 0 0 1
    outer loop
      vertex -109.274 -70.4221 6
      vertex -124.261 -37.9905 6
      vertex -110.209 -68.866 6
    endloop
  endfacet
  facet normal 0 0 1
    outer loop
      vertex -104.636 -77.1445 6
      vertex -124.261 -37.9905 6
      vertex -109.274 -70.4221 6
    endloop
  endfacet
  facet normal 0 0 1
    outer loop
      vertex -99.5858 -83.5624 6
      vertex -124.261 -37.9905 6
      vertex -104.636 -77.1445 6
    endloop
  endfacet
  facet normal 0 0 1
    outer loop
      vertex -104.169 -68.7408 6
      vertex -124.261 -37.9905 6
      vertex -99.5858 -83.5624 6
    endloop
  endfacet
  facet normal 0 0 1
    outer loop
      vertex -88.5383 -65.2761 6
      vertex -124.261 -37.9905 6
      vertex -84.2649 -70.7066 6
    endloop
  endfacet
  facet normal 0 0 1
    outer loop
      vertex -92.4623 -59.5879 6
      vertex -124.261 -37.9905 6
      vertex -88.5383 -65.2761 6
    endloop
  endfacet
  facet normal 0 0 1
    outer loop
      vertex -96.0214 -53.6646 6
      vertex -124.261 -37.9905 6
      vertex -92.4623 -59.5879 6
    endloop
  endfacet
  facet normal 0 0 1
    outer loop
      vertex -99.2016 -47.5294 6
      vertex -124.261 -37.9905 6
      vertex -96.0214 -53.6646 6
    endloop
  endfacet
  facet normal 0 0 1
    outer loop
      vertex -101.99 -41.2067 6
      vertex -124.261 -37.9905 6
      vertex -99.2016 -47.5294 6
    endloop
  endfacet
  facet normal 0 0 1
    outer loop
      vertex -115.136 -36.8263 6
      vertex -124.261 -37.9905 6
      vertex -101.99 -41.2067 6
    endloop
  endfacet
  facet normal 0 0 1
    outer loop
      vertex -117.044 -36.9597 6
      vertex -118.842 -36.3055 6
      vertex -124.261 -37.9905 6
    endloop
  endfacet
  facet normal 0 0 1
    outer loop
      vertex -127.524 -25.2505 6
      vertex -125.687 -33.2079 6
      vertex -118.564 -28.3428 6
    endloop
  endfacet
  facet normal 0 0 1
    outer loop
      vertex -113.209 -29.0954 6
      vertex -112.139 -30.6812 6
      vertex -106.351 -28.099 6
    endloop
  endfacet
  facet normal 0 0 1
    outer loop
      vertex -127.969 -22.5644 6
      vertex -127.524 -25.2505 6
      vertex -108.281 -19.0929 6
    endloop
  endfacet
  facet normal 0 0 1
    outer loop
      vertex -116.725 -27.8155 6
      vertex -114.831 -28.0817 6
      vertex -107.905 -21.3658 6
    endloop
  endfacet
  facet normal 0 0 1
    outer loop
      vertex -127.207 -79.4879 6
      vertex -128.632 -58.9303 6
      vertex -131.947 -71.3436 6
    endloop
  endfacet
  facet normal 0 0 1
    outer loop
      vertex -112.139 -30.6812 6
      vertex -111.807 -32.565 6
      vertex -106.351 -28.099 6
    endloop
  endfacet
  facet normal 0 0 1
    outer loop
      vertex -131.947 -71.3436 6
      vertex -129.288 -57.3062 6
      vertex -136.167 -62.9178 6
    endloop
  endfacet
  facet normal 0 0 1
    outer loop
      vertex -120.934 -33.2032 6
      vertex -120.868 -31.2916 6
      vertex -125.687 -33.2079 6
    endloop
  endfacet
  facet normal 0 0 1
    outer loop
      vertex -126.46 -57.1084 6
      vertex -124.261 -37.9905 6
      vertex -127.946 -56.1802 6
    endloop
  endfacet
  facet normal 0 0 1
    outer loop
      vertex -127.207 -79.4879 6
      vertex -124.261 -37.9905 6
      vertex -126.46 -57.1084 6
    endloop
  endfacet
  facet normal 0 0 1
    outer loop
      vertex -128.632 -58.9303 6
      vertex -129.288 -57.3062 6
      vertex -131.947 -71.3436 6
    endloop
  endfacet
  facet normal 0 0 1
    outer loop
      vertex -127.207 -79.4879 6
      vertex -126.46 -57.1084 6
      vertex -126.884 -58.8081 6
    endloop
  endfacet
  facet normal 0 0 1
    outer loop
      vertex -120.029 -29.5723 6
      vertex -118.564 -28.3428 6
      vertex -125.687 -33.2079 6
    endloop
  endfacet
  facet normal 0 0 1
    outer loop
      vertex -113.447 -35.9283 6
      vertex -115.136 -36.8263 6
      vertex -104.376 -34.7214 6
    endloop
  endfacet
  facet normal 0 0 1
    outer loop
      vertex -120.029 -29.5723 6
      vertex -125.687 -33.2079 6
      vertex -120.868 -31.2916 6
    endloop
  endfacet
  facet normal 0 0 1
    outer loop
      vertex -118.564 -28.3428 6
      vertex -116.725 -27.8155 6
      vertex -107.905 -21.3658 6
    endloop
  endfacet
  facet normal 0 0 1
    outer loop
      vertex -126.884 -58.8081 6
      vertex -128.632 -58.9303 6
      vertex -127.207 -79.4879 6
    endloop
  endfacet
  facet normal 0 0 1
    outer loop
      vertex -107.905 -21.3658 6
      vertex -114.831 -28.0817 6
      vertex -106.351 -28.099 6
    endloop
  endfacet
  facet normal 0 0 1
    outer loop
      vertex -114.831 -28.0817 6
      vertex -113.209 -29.0954 6
      vertex -106.351 -28.099 6
    endloop
  endfacet
  facet normal 0 0 1
    outer loop
      vertex -127.524 -25.2505 6
      vertex -118.564 -28.3428 6
      vertex -107.905 -21.3658 6
    endloop
  endfacet
  facet normal 0 0 1
    outer loop
      vertex -106.351 -28.099 6
      vertex -111.807 -32.565 6
      vertex -104.376 -34.7214 6
    endloop
  endfacet
  facet normal 0 0 1
    outer loop
      vertex -118.842 -36.3055 6
      vertex -120.218 -34.9768 6
      vertex -124.261 -37.9905 6
    endloop
  endfacet
  facet normal 0 0 1
    outer loop
      vertex -111.807 -32.565 6
      vertex -112.27 -34.421 6
      vertex -104.376 -34.7214 6
    endloop
  endfacet
  facet normal 0 0 1
    outer loop
      vertex -112.27 -34.421 6
      vertex -113.447 -35.9283 6
      vertex -104.376 -34.7214 6
    endloop
  endfacet
  facet normal 0 0 1
    outer loop
      vertex -104.376 -34.7214 6
      vertex -115.136 -36.8263 6
      vertex -101.99 -41.2067 6
    endloop
  endfacet
  facet normal 0 0 1
    outer loop
      vertex -117.044 -36.9597 6
      vertex -124.261 -37.9905 6
      vertex -115.136 -36.8263 6
    endloop
  endfacet
  facet normal 0 0 1
    outer loop
      vertex -95.3736 -66.2188 6
      vertex -95.0415 -68.1025 6
      vertex -84.2649 -70.7066 6
    endloop
  endfacet
  facet normal 0 0 1
    outer loop
      vertex -127.524 -25.2505 6
      vertex -107.905 -21.3658 6
      vertex -108.281 -19.0929 6
    endloop
  endfacet
  facet normal 0 0 1
    outer loop
      vertex -103.452 -70.5143 6
      vertex -104.169 -68.7408 6
      vertex -99.5858 -83.5624 6
    endloop
  endfacet
  facet normal 0 0 1
    outer loop
      vertex -104.102 -66.8291 6
      vertex -124.261 -37.9905 6
      vertex -104.169 -68.7408 6
    endloop
  endfacet
  facet normal 0 0 1
    outer loop
      vertex -103.264 -65.1099 6
      vertex -124.261 -37.9905 6
      vertex -104.102 -66.8291 6
    endloop
  endfacet
  facet normal 0 0 1
    outer loop
      vertex -101.798 -63.8803 6
      vertex -124.261 -37.9905 6
      vertex -103.264 -65.1099 6
    endloop
  endfacet
  facet normal 0 0 1
    outer loop
      vertex -99.9597 -63.3531 6
      vertex -124.261 -37.9905 6
      vertex -101.798 -63.8803 6
    endloop
  endfacet
  facet normal 0 0 1
    outer loop
      vertex -98.0655 -63.6193 6
      vertex -124.261 -37.9905 6
      vertex -99.9597 -63.3531 6
    endloop
  endfacet
  facet normal 0 0 1
    outer loop
      vertex -84.2649 -70.7066 6
      vertex -124.261 -37.9905 6
      vertex -98.0655 -63.6193 6
    endloop
  endfacet
  facet normal 0 0 1
    outer loop
      vertex -84.2649 -70.7066 6
      vertex -98.0655 -63.6193 6
      vertex -96.4433 -64.6329 6
    endloop
  endfacet
  facet normal 0 0 1
    outer loop
      vertex -95.0415 -68.1025 6
      vertex -95.5042 -69.9585 6
      vertex -84.2649 -70.7066 6
    endloop
  endfacet
  facet normal 0 0 1
    outer loop
      vertex -84.2649 -70.7066 6
      vertex -95.5042 -69.9585 6
      vertex -99.5858 -83.5624 6
    endloop
  endfacet
  facet normal 0 0 1
    outer loop
      vertex -95.5042 -69.9585 6
      vertex -96.6819 -71.4659 6
      vertex -99.5858 -83.5624 6
    endloop
  endfacet
  facet normal 0 0 1
    outer loop
      vertex -96.6819 -71.4659 6
      vertex -98.3708 -72.3639 6
      vertex -99.5858 -83.5624 6
    endloop
  endfacet
  facet normal 0 0 1
    outer loop
      vertex -98.3708 -72.3639 6
      vertex -100.279 -72.4973 6
      vertex -99.5858 -83.5624 6
    endloop
  endfacet
  facet normal 0 0 1
    outer loop
      vertex -100.279 -72.4973 6
      vertex -102.076 -71.8431 6
      vertex -99.5858 -83.5624 6
    endloop
  endfacet
  facet normal 0 0 1
    outer loop
      vertex -102.076 -71.8431 6
      vertex -103.452 -70.5143 6
      vertex -99.5858 -83.5624 6
    endloop
  endfacet
  facet normal 0 0 1
    outer loop
      vertex -96.4433 -64.6329 6
      vertex -95.3736 -66.2188 6
      vertex -84.2649 -70.7066 6
    endloop
  endfacet
  facet normal 0 0 1
    outer loop
      vertex -125.687 -33.2079 6
      vertex -120.218 -34.9768 6
      vertex -120.934 -33.2032 6
    endloop
  endfacet
  facet normal 0 0 1
    outer loop
      vertex -125.687 -33.2079 6
      vertex -124.261 -37.9905 6
      vertex -120.218 -34.9768 6
    endloop
  endfacet
  facet normal -9.38134e-17 -7.87188e-17 -1
    outer loop
      vertex -126.747 -54.6595 2
      vertex -124.69 -57.1109 2
      vertex -129.899 -55.2152 2
    endloop
  endfacet
  facet normal -9.38134e-17 -7.87188e-17 -1
    outer loop
      vertex -126.46 -57.1084 2
      vertex -124.69 -57.1109 2
      vertex -125.785 -60.1181 2
    endloop
  endfacet
  facet normal -9.38134e-17 -7.87188e-17 -1
    outer loop
      vertex -128.632 -58.9303 2
      vertex -125.785 -60.1181 2
      vertex -128.936 -60.6737 2
    endloop
  endfacet
  facet normal -9.38134e-17 -7.87188e-17 -1
    outer loop
      vertex -129.899 -55.2152 2
      vertex -128.936 -60.6737 2
      vertex -130.993 -58.2223 2
    endloop
  endfacet
  facet normal -9.38134e-17 -7.87188e-17 -1
    outer loop
      vertex -126.884 -58.8081 2
      vertex -125.785 -60.1181 2
      vertex -128.632 -58.9303 2
    endloop
  endfacet
  facet normal -9.38134e-17 -7.87188e-17 -1
    outer loop
      vertex -129.288 -57.3062 2
      vertex -128.632 -58.9303 2
      vertex -128.936 -60.6737 2
    endloop
  endfacet
  facet normal -9.38134e-17 -7.87188e-17 -1
    outer loop
      vertex -127.946 -56.1802 2
      vertex -124.69 -57.1109 2
      vertex -126.46 -57.1084 2
    endloop
  endfacet
  facet normal -9.38134e-17 -7.87188e-17 -1
    outer loop
      vertex -129.288 -57.3062 2
      vertex -129.899 -55.2152 2
      vertex -127.946 -56.1802 2
    endloop
  endfacet
  facet normal -9.38134e-17 -7.87188e-17 -1
    outer loop
      vertex -129.899 -55.2152 2
      vertex -124.69 -57.1109 2
      vertex -127.946 -56.1802 2
    endloop
  endfacet
  facet normal -9.38134e-17 -7.87188e-17 -1
    outer loop
      vertex -129.899 -55.2152 2
      vertex -129.288 -57.3062 2
      vertex -128.936 -60.6737 2
    endloop
  endfacet
  facet normal -9.38134e-17 -7.87188e-17 -1
    outer loop
      vertex -126.46 -57.1084 2
      vertex -125.785 -60.1181 2
      vertex -126.884 -58.8081 2
    endloop
  endfacet
  facet normal 9.38134e-17 7.87188e-17 1
    outer loop
      vertex -120.218 -34.9768 3
      vertex -118.842 -36.3055 3
      vertex -117.044 -36.9597 3
    endloop
  endfacet
  facet normal 9.38134e-17 7.87188e-17 1
    outer loop
      vertex -113.447 -35.9283 3
      vertex -120.218 -34.9768 3
      vertex -115.136 -36.8263 3
    endloop
  endfacet
  facet normal 9.38134e-17 7.87188e-17 1
    outer loop
      vertex -115.136 -36.8263 3
      vertex -120.218 -34.9768 3
      vertex -117.044 -36.9597 3
    endloop
  endfacet
  facet normal 9.38134e-17 7.87188e-17 1
    outer loop
      vertex -116.621 -34.883 3
      vertex -120.218 -34.9768 3
      vertex -113.447 -35.9283 3
    endloop
  endfacet
  facet normal 9.38134e-17 7.87188e-17 1
    outer loop
      vertex -114.805 -34.3104 3
      vertex -116.621 -34.883 3
      vertex -112.27 -34.421 3
    endloop
  endfacet
  facet normal 9.38134e-17 7.87188e-17 1
    outer loop
      vertex -114.498 -30.8051 3
      vertex -113.926 -32.6213 3
      vertex -112.139 -30.6812 3
    endloop
  endfacet
  facet normal 9.38134e-17 7.87188e-17 1
    outer loop
      vertex -120.029 -29.5723 3
      vertex -120.218 -34.9768 3
      vertex -118.564 -28.3428 3
    endloop
  endfacet
  facet normal 9.38134e-17 7.87188e-17 1
    outer loop
      vertex -120.868 -31.2916 3
      vertex -120.218 -34.9768 3
      vertex -120.029 -29.5723 3
    endloop
  endfacet
  facet normal 9.38134e-17 7.87188e-17 1
    outer loop
      vertex -120.934 -33.2032 3
      vertex -120.218 -34.9768 3
      vertex -120.868 -31.2916 3
    endloop
  endfacet
  facet normal 9.38134e-17 7.87188e-17 1
    outer loop
      vertex -118.564 -28.3428 3
      vertex -118.883 -32.1876 3
      vertex -116.725 -27.8155 3
    endloop
  endfacet
  facet normal 9.38134e-17 7.87188e-17 1
    outer loop
      vertex -118.564 -28.3428 3
      vertex -120.218 -34.9768 3
      vertex -118.883 -32.1876 3
    endloop
  endfacet
  facet normal 9.38134e-17 7.87188e-17 1
    outer loop
      vertex -116.725 -27.8155 3
      vertex -118.004 -30.4984 3
      vertex -114.831 -28.0817 3
    endloop
  endfacet
  facet normal 9.38134e-17 7.87188e-17 1
    outer loop
      vertex -118.004 -30.4984 3
      vertex -116.187 -29.9258 3
      vertex -114.831 -28.0817 3
    endloop
  endfacet
  facet normal 9.38134e-17 7.87188e-17 1
    outer loop
      vertex -114.831 -28.0817 3
      vertex -116.187 -29.9258 3
      vertex -113.209 -29.0954 3
    endloop
  endfacet
  facet normal 9.38134e-17 7.87188e-17 1
    outer loop
      vertex -113.209 -29.0954 3
      vertex -114.498 -30.8051 3
      vertex -112.139 -30.6812 3
    endloop
  endfacet
  facet normal 9.38134e-17 7.87188e-17 1
    outer loop
      vertex -112.139 -30.6812 3
      vertex -113.926 -32.6213 3
      vertex -111.807 -32.565 3
    endloop
  endfacet
  facet normal 9.38134e-17 7.87188e-17 1
    outer loop
      vertex -111.807 -32.565 3
      vertex -114.805 -34.3104 3
      vertex -112.27 -34.421 3
    endloop
  endfacet
  facet normal 9.38134e-17 7.87188e-17 1
    outer loop
      vertex -112.27 -34.421 3
      vertex -116.621 -34.883 3
      vertex -113.447 -35.9283 3
    endloop
  endfacet
  facet normal 9.38134e-17 7.87188e-17 1
    outer loop
      vertex -118.883 -32.1876 3
      vertex -118.004 -30.4984 3
      vertex -116.725 -27.8155 3
    endloop
  endfacet
  facet normal 9.38134e-17 7.87188e-17 1
    outer loop
      vertex -116.187 -29.9258 3
      vertex -114.498 -30.8051 3
      vertex -113.209 -29.0954 3
    endloop
  endfacet
  facet normal 9.38134e-17 7.87188e-17 1
    outer loop
      vertex -116.621 -34.883 3
      vertex -118.31 -34.0037 3
      vertex -120.218 -34.9768 3
    endloop
  endfacet
  facet normal 9.38134e-17 7.87188e-17 1
    outer loop
      vertex -113.926 -32.6213 3
      vertex -114.805 -34.3104 3
      vertex -111.807 -32.565 3
    endloop
  endfacet
  facet normal 9.38134e-17 7.87188e-17 1
    outer loop
      vertex -118.31 -34.0037 3
      vertex -118.883 -32.1876 3
      vertex -120.218 -34.9768 3
    endloop
  endfacet
  facet normal 9.38134e-17 7.87188e-17 1
    outer loop
      vertex -103.452 -70.5143 3
      vertex -102.076 -71.8431 3
      vertex -100.279 -72.4973 3
    endloop
  endfacet
  facet normal 9.38134e-17 7.87188e-17 1
    outer loop
      vertex -96.6819 -71.4659 3
      vertex -103.452 -70.5143 3
      vertex -98.3708 -72.3639 3
    endloop
  endfacet
  facet normal 9.38134e-17 7.87188e-17 1
    outer loop
      vertex -98.3708 -72.3639 3
      vertex -103.452 -70.5143 3
      vertex -100.279 -72.4973 3
    endloop
  endfacet
  facet normal 9.38134e-17 7.87188e-17 1
    outer loop
      vertex -99.8556 -70.4206 3
      vertex -103.452 -70.5143 3
      vertex -96.6819 -71.4659 3
    endloop
  endfacet
  facet normal 9.38134e-17 7.87188e-17 1
    outer loop
      vertex -98.0395 -69.848 3
      vertex -99.8556 -70.4206 3
      vertex -95.5042 -69.9585 3
    endloop
  endfacet
  facet normal 9.38134e-17 7.87188e-17 1
    outer loop
      vertex -97.7328 -66.3427 3
      vertex -97.1602 -68.1588 3
      vertex -95.3736 -66.2188 3
    endloop
  endfacet
  facet normal 9.38134e-17 7.87188e-17 1
    outer loop
      vertex -103.264 -65.1099 3
      vertex -103.452 -70.5143 3
      vertex -101.798 -63.8803 3
    endloop
  endfacet
  facet normal 9.38134e-17 7.87188e-17 1
    outer loop
      vertex -104.102 -66.8291 3
      vertex -103.452 -70.5143 3
      vertex -103.264 -65.1099 3
    endloop
  endfacet
  facet normal 9.38134e-17 7.87188e-17 1
    outer loop
      vertex -104.169 -68.7408 3
      vertex -103.452 -70.5143 3
      vertex -104.102 -66.8291 3
    endloop
  endfacet
  facet normal 9.38134e-17 7.87188e-17 1
    outer loop
      vertex -101.798 -63.8803 3
      vertex -102.117 -67.7251 3
      vertex -99.9597 -63.3531 3
    endloop
  endfacet
  facet normal 9.38134e-17 7.87188e-17 1
    outer loop
      vertex -101.798 -63.8803 3
      vertex -103.452 -70.5143 3
      vertex -102.117 -67.7251 3
    endloop
  endfacet
  facet normal 9.38134e-17 7.87188e-17 1
    outer loop
      vertex -99.9597 -63.3531 3
      vertex -101.238 -66.036 3
      vertex -98.0655 -63.6193 3
    endloop
  endfacet
  facet normal 9.38134e-17 7.87188e-17 1
    outer loop
      vertex -101.238 -66.036 3
      vertex -99.4219 -65.4633 3
      vertex -98.0655 -63.6193 3
    endloop
  endfacet
  facet normal 9.38134e-17 7.87188e-17 1
    outer loop
      vertex -98.0655 -63.6193 3
      vertex -99.4219 -65.4633 3
      vertex -96.4433 -64.6329 3
    endloop
  endfacet
  facet normal 9.38134e-17 7.87188e-17 1
    outer loop
      vertex -96.4433 -64.6329 3
      vertex -97.7328 -66.3427 3
      vertex -95.3736 -66.2188 3
    endloop
  endfacet
  facet normal 9.38134e-17 7.87188e-17 1
    outer loop
      vertex -95.3736 -66.2188 3
      vertex -97.1602 -68.1588 3
      vertex -95.0415 -68.1025 3
    endloop
  endfacet
  facet normal 9.38134e-17 7.87188e-17 1
    outer loop
      vertex -95.0415 -68.1025 3
      vertex -98.0395 -69.848 3
      vertex -95.5042 -69.9585 3
    endloop
  endfacet
  facet normal 9.38134e-17 7.87188e-17 1
    outer loop
      vertex -95.5042 -69.9585 3
      vertex -99.8556 -70.4206 3
      vertex -96.6819 -71.4659 3
    endloop
  endfacet
  facet normal 9.38134e-17 7.87188e-17 1
    outer loop
      vertex -102.117 -67.7251 3
      vertex -101.238 -66.036 3
      vertex -99.9597 -63.3531 3
    endloop
  endfacet
  facet normal 9.38134e-17 7.87188e-17 1
    outer loop
      vertex -99.4219 -65.4633 3
      vertex -97.7328 -66.3427 3
      vertex -96.4433 -64.6329 3
    endloop
  endfacet
  facet normal 9.38134e-17 7.87188e-17 1
    outer loop
      vertex -99.8556 -70.4206 3
      vertex -101.545 -69.5413 3
      vertex -103.452 -70.5143 3
    endloop
  endfacet
  facet normal 9.38134e-17 7.87188e-17 1
    outer loop
      vertex -97.1602 -68.1588 3
      vertex -98.0395 -69.848 3
      vertex -95.0415 -68.1025 3
    endloop
  endfacet
  facet normal 9.38134e-17 7.87188e-17 1
    outer loop
      vertex -101.545 -69.5413 3
      vertex -102.117 -67.7251 3
      vertex -103.452 -70.5143 3
    endloop
  endfacet
  facet normal 0.927184 0.374607 -1.16471e-16
    outer loop
      vertex -129.288 -57.3062 6
      vertex -128.632 -58.9303 6
      vertex -128.632 -58.9303 2
    endloop
  endfacet
  facet normal 0.927184 0.374607 -1.16471e-16
    outer loop
      vertex -129.288 -57.3062 2
      vertex -129.288 -57.3062 6
      vertex -128.632 -58.9303 2
    endloop
  endfacet
  facet normal -0.0697563 0.997564 -7.1983e-17
    outer loop
      vertex -126.884 -58.8081 6
      vertex -126.884 -58.8081 2
      vertex -128.632 -58.9303 6
    endloop
  endfacet
  facet normal -0.0697563 0.997564 -7.1983e-17
    outer loop
      vertex -128.632 -58.9303 6
      vertex -126.884 -58.8081 2
      vertex -128.632 -58.9303 2
    endloop
  endfacet
  facet normal -0.970296 0.241922 7.1983e-17
    outer loop
      vertex -126.46 -57.1084 6
      vertex -126.46 -57.1084 2
      vertex -126.884 -58.8081 6
    endloop
  endfacet
  facet normal -0.970296 0.241922 7.1983e-17
    outer loop
      vertex -126.884 -58.8081 6
      vertex -126.46 -57.1084 2
      vertex -126.884 -58.8081 2
    endloop
  endfacet
  facet normal -0.529919 -0.848048 1.16471e-16
    outer loop
      vertex -126.46 -57.1084 2
      vertex -126.46 -57.1084 6
      vertex -127.946 -56.1802 6
    endloop
  endfacet
  facet normal -0.529919 -0.848048 1.16471e-16
    outer loop
      vertex -127.946 -56.1802 2
      vertex -126.46 -57.1084 2
      vertex -127.946 -56.1802 6
    endloop
  endfacet
  facet normal 0.642788 -0.766044 0
    outer loop
      vertex -127.946 -56.1802 2
      vertex -127.946 -56.1802 6
      vertex -129.288 -57.3062 6
    endloop
  endfacet
  facet normal 0.642788 -0.766044 0
    outer loop
      vertex -129.288 -57.3062 2
      vertex -127.946 -56.1802 2
      vertex -129.288 -57.3062 6
    endloop
  endfacet
  facet normal 0.999391 -0.0348993 -9.1009e-17
    outer loop
      vertex -120.868 -31.2916 3
      vertex -120.868 -31.2916 6
      vertex -120.934 -33.2032 6
    endloop
  endfacet
  facet normal 0.999391 -0.0348993 -9.1009e-17
    outer loop
      vertex -120.934 -33.2032 3
      vertex -120.868 -31.2916 3
      vertex -120.934 -33.2032 6
    endloop
  endfacet
  facet normal 0.927184 0.374607 -1.16471e-16
    outer loop
      vertex -120.934 -33.2032 6
      vertex -120.218 -34.9768 6
      vertex -120.218 -34.9768 3
    endloop
  endfacet
  facet normal 0.927184 0.374607 -1.16471e-16
    outer loop
      vertex -120.934 -33.2032 3
      vertex -120.934 -33.2032 6
      vertex -120.218 -34.9768 3
    endloop
  endfacet
  facet normal 0.694658 0.71934 -1.21794e-16
    outer loop
      vertex -118.842 -36.3055 6
      vertex -118.842 -36.3055 3
      vertex -120.218 -34.9768 6
    endloop
  endfacet
  facet normal 0.694658 0.71934 -1.21794e-16
    outer loop
      vertex -120.218 -34.9768 6
      vertex -118.842 -36.3055 3
      vertex -120.218 -34.9768 3
    endloop
  endfacet
  facet normal 0.34202 0.939692 -1.06058e-16
    outer loop
      vertex -117.044 -36.9597 6
      vertex -117.044 -36.9597 3
      vertex -118.842 -36.3055 6
    endloop
  endfacet
  facet normal 0.34202 0.939692 -1.06058e-16
    outer loop
      vertex -118.842 -36.3055 6
      vertex -117.044 -36.9597 3
      vertex -118.842 -36.3055 3
    endloop
  endfacet
  facet normal -0.069757 0.997564 -7.19829e-17
    outer loop
      vertex -115.136 -36.8263 6
      vertex -115.136 -36.8263 3
      vertex -117.044 -36.9597 6
    endloop
  endfacet
  facet normal -0.069757 0.997564 -7.19829e-17
    outer loop
      vertex -117.044 -36.9597 6
      vertex -115.136 -36.8263 3
      vertex -117.044 -36.9597 3
    endloop
  endfacet
  facet normal -0.469471 0.882948 -2.54619e-17
    outer loop
      vertex -113.447 -35.9283 6
      vertex -113.447 -35.9283 3
      vertex -115.136 -36.8263 6
    endloop
  endfacet
  facet normal -0.469471 0.882948 -2.54619e-17
    outer loop
      vertex -115.136 -36.8263 6
      vertex -113.447 -35.9283 3
      vertex -115.136 -36.8263 3
    endloop
  endfacet
  facet normal -0.788011 0.615661 2.54619e-17
    outer loop
      vertex -112.27 -34.421 6
      vertex -112.27 -34.421 3
      vertex -113.447 -35.9283 6
    endloop
  endfacet
  facet normal -0.788011 0.615661 2.54619e-17
    outer loop
      vertex -113.447 -35.9283 6
      vertex -112.27 -34.421 3
      vertex -113.447 -35.9283 3
    endloop
  endfacet
  facet normal -0.970296 0.241922 7.19829e-17
    outer loop
      vertex -111.807 -32.565 6
      vertex -111.807 -32.565 3
      vertex -112.27 -34.421 6
    endloop
  endfacet
  facet normal -0.970296 0.241922 7.19829e-17
    outer loop
      vertex -112.27 -34.421 6
      vertex -111.807 -32.565 3
      vertex -112.27 -34.421 3
    endloop
  endfacet
  facet normal -0.984808 -0.173649 1.06058e-16
    outer loop
      vertex -111.807 -32.565 6
      vertex -112.139 -30.6812 6
      vertex -111.807 -32.565 3
    endloop
  endfacet
  facet normal -0.984808 -0.173649 1.06058e-16
    outer loop
      vertex -111.807 -32.565 3
      vertex -112.139 -30.6812 6
      vertex -112.139 -30.6812 3
    endloop
  endfacet
  facet normal -0.829038 -0.559193 1.21794e-16
    outer loop
      vertex -112.139 -30.6812 6
      vertex -113.209 -29.0954 6
      vertex -112.139 -30.6812 3
    endloop
  endfacet
  facet normal -0.829038 -0.559193 1.21794e-16
    outer loop
      vertex -112.139 -30.6812 3
      vertex -113.209 -29.0954 6
      vertex -113.209 -29.0954 3
    endloop
  endfacet
  facet normal -0.529919 -0.848048 1.16471e-16
    outer loop
      vertex -113.209 -29.0954 3
      vertex -113.209 -29.0954 6
      vertex -114.831 -28.0817 6
    endloop
  endfacet
  facet normal -0.529919 -0.848048 1.16471e-16
    outer loop
      vertex -114.831 -28.0817 3
      vertex -113.209 -29.0954 3
      vertex -114.831 -28.0817 6
    endloop
  endfacet
  facet normal -0.139173 -0.990268 9.1009e-17
    outer loop
      vertex -114.831 -28.0817 3
      vertex -114.831 -28.0817 6
      vertex -116.725 -27.8155 6
    endloop
  endfacet
  facet normal -0.139173 -0.990268 9.1009e-17
    outer loop
      vertex -116.725 -27.8155 3
      vertex -114.831 -28.0817 3
      vertex -116.725 -27.8155 6
    endloop
  endfacet
  facet normal 0.275637 -0.961262 4.98109e-17
    outer loop
      vertex -116.725 -27.8155 3
      vertex -116.725 -27.8155 6
      vertex -118.564 -28.3428 6
    endloop
  endfacet
  facet normal 0.275637 -0.961262 4.98109e-17
    outer loop
      vertex -118.564 -28.3428 3
      vertex -116.725 -27.8155 3
      vertex -118.564 -28.3428 6
    endloop
  endfacet
  facet normal 0.642788 -0.766044 0
    outer loop
      vertex -118.564 -28.3428 3
      vertex -118.564 -28.3428 6
      vertex -120.029 -29.5723 6
    endloop
  endfacet
  facet normal 0.642788 -0.766044 0
    outer loop
      vertex -120.029 -29.5723 3
      vertex -118.564 -28.3428 3
      vertex -120.029 -29.5723 6
    endloop
  endfacet
  facet normal 0.898794 -0.438371 -4.98109e-17
    outer loop
      vertex -120.029 -29.5723 3
      vertex -120.029 -29.5723 6
      vertex -120.868 -31.2916 6
    endloop
  endfacet
  facet normal 0.898794 -0.438371 -4.98109e-17
    outer loop
      vertex -120.868 -31.2916 3
      vertex -120.029 -29.5723 3
      vertex -120.868 -31.2916 6
    endloop
  endfacet
  facet normal 0.927184 0.374607 -1.16471e-16
    outer loop
      vertex -104.169 -68.7408 6
      vertex -103.452 -70.5143 6
      vertex -103.452 -70.5143 3
    endloop
  endfacet
  facet normal 0.927184 0.374607 -1.16471e-16
    outer loop
      vertex -104.169 -68.7408 3
      vertex -104.169 -68.7408 6
      vertex -103.452 -70.5143 3
    endloop
  endfacet
  facet normal 0.999391 -0.0348993 -9.1009e-17
    outer loop
      vertex -104.102 -66.8291 3
      vertex -104.102 -66.8291 6
      vertex -104.169 -68.7408 6
    endloop
  endfacet
  facet normal 0.999391 -0.0348993 -9.1009e-17
    outer loop
      vertex -104.169 -68.7408 3
      vertex -104.102 -66.8291 3
      vertex -104.169 -68.7408 6
    endloop
  endfacet
  facet normal 0.694658 0.71934 -1.21794e-16
    outer loop
      vertex -102.076 -71.8431 6
      vertex -102.076 -71.8431 3
      vertex -103.452 -70.5143 6
    endloop
  endfacet
  facet normal 0.694658 0.71934 -1.21794e-16
    outer loop
      vertex -103.452 -70.5143 6
      vertex -102.076 -71.8431 3
      vertex -103.452 -70.5143 3
    endloop
  endfacet
  facet normal 0.34202 0.939692 -1.06058e-16
    outer loop
      vertex -100.279 -72.4973 6
      vertex -100.279 -72.4973 3
      vertex -102.076 -71.8431 6
    endloop
  endfacet
  facet normal 0.34202 0.939692 -1.06058e-16
    outer loop
      vertex -102.076 -71.8431 6
      vertex -100.279 -72.4973 3
      vertex -102.076 -71.8431 3
    endloop
  endfacet
  facet normal -0.069757 0.997564 -7.19829e-17
    outer loop
      vertex -98.3708 -72.3639 6
      vertex -98.3708 -72.3639 3
      vertex -100.279 -72.4973 6
    endloop
  endfacet
  facet normal -0.069757 0.997564 -7.19829e-17
    outer loop
      vertex -100.279 -72.4973 6
      vertex -98.3708 -72.3639 3
      vertex -100.279 -72.4973 3
    endloop
  endfacet
  facet normal -0.469471 0.882948 -2.54619e-17
    outer loop
      vertex -96.6819 -71.4659 6
      vertex -96.6819 -71.4659 3
      vertex -98.3708 -72.3639 6
    endloop
  endfacet
  facet normal -0.469471 0.882948 -2.54619e-17
    outer loop
      vertex -98.3708 -72.3639 6
      vertex -96.6819 -71.4659 3
      vertex -98.3708 -72.3639 3
    endloop
  endfacet
  facet normal -0.788011 0.615661 2.54619e-17
    outer loop
      vertex -95.5042 -69.9585 6
      vertex -95.5042 -69.9585 3
      vertex -96.6819 -71.4659 6
    endloop
  endfacet
  facet normal -0.788011 0.615661 2.54619e-17
    outer loop
      vertex -96.6819 -71.4659 6
      vertex -95.5042 -69.9585 3
      vertex -96.6819 -71.4659 3
    endloop
  endfacet
  facet normal -0.970296 0.241922 7.19829e-17
    outer loop
      vertex -95.0415 -68.1025 6
      vertex -95.0415 -68.1025 3
      vertex -95.5042 -69.9585 6
    endloop
  endfacet
  facet normal -0.970296 0.241922 7.19829e-17
    outer loop
      vertex -95.5042 -69.9585 6
      vertex -95.0415 -68.1025 3
      vertex -95.5042 -69.9585 3
    endloop
  endfacet
  facet normal -0.984808 -0.173649 1.06058e-16
    outer loop
      vertex -95.0415 -68.1025 6
      vertex -95.3736 -66.2188 6
      vertex -95.0415 -68.1025 3
    endloop
  endfacet
  facet normal -0.984808 -0.173649 1.06058e-16
    outer loop
      vertex -95.0415 -68.1025 3
      vertex -95.3736 -66.2188 6
      vertex -95.3736 -66.2188 3
    endloop
  endfacet
  facet normal -0.829038 -0.559193 1.21794e-16
    outer loop
      vertex -95.3736 -66.2188 6
      vertex -96.4433 -64.6329 6
      vertex -95.3736 -66.2188 3
    endloop
  endfacet
  facet normal -0.829038 -0.559193 1.21794e-16
    outer loop
      vertex -95.3736 -66.2188 3
      vertex -96.4433 -64.6329 6
      vertex -96.4433 -64.6329 3
    endloop
  endfacet
  facet normal -0.529919 -0.848048 1.16471e-16
    outer loop
      vertex -96.4433 -64.6329 3
      vertex -96.4433 -64.6329 6
      vertex -98.0655 -63.6193 6
    endloop
  endfacet
  facet normal -0.529919 -0.848048 1.16471e-16
    outer loop
      vertex -98.0655 -63.6193 3
      vertex -96.4433 -64.6329 3
      vertex -98.0655 -63.6193 6
    endloop
  endfacet
  facet normal -0.139173 -0.990268 9.1009e-17
    outer loop
      vertex -98.0655 -63.6193 3
      vertex -98.0655 -63.6193 6
      vertex -99.9597 -63.3531 6
    endloop
  endfacet
  facet normal -0.139173 -0.990268 9.1009e-17
    outer loop
      vertex -99.9597 -63.3531 3
      vertex -98.0655 -63.6193 3
      vertex -99.9597 -63.3531 6
    endloop
  endfacet
  facet normal 0.275637 -0.961262 4.98109e-17
    outer loop
      vertex -99.9597 -63.3531 3
      vertex -99.9597 -63.3531 6
      vertex -101.798 -63.8803 6
    endloop
  endfacet
  facet normal 0.275637 -0.961262 4.98109e-17
    outer loop
      vertex -101.798 -63.8803 3
      vertex -99.9597 -63.3531 3
      vertex -101.798 -63.8803 6
    endloop
  endfacet
  facet normal 0.642788 -0.766044 0
    outer loop
      vertex -101.798 -63.8803 3
      vertex -101.798 -63.8803 6
      vertex -103.264 -65.1099 6
    endloop
  endfacet
  facet normal 0.642788 -0.766044 0
    outer loop
      vertex -103.264 -65.1099 3
      vertex -101.798 -63.8803 3
      vertex -103.264 -65.1099 6
    endloop
  endfacet
  facet normal 0.898794 -0.438371 -4.98109e-17
    outer loop
      vertex -103.264 -65.1099 3
      vertex -103.264 -65.1099 6
      vertex -104.102 -66.8291 6
    endloop
  endfacet
  facet normal 0.898794 -0.438371 -4.98109e-17
    outer loop
      vertex -104.102 -66.8291 3
      vertex -103.264 -65.1099 3
      vertex -104.102 -66.8291 6
    endloop
  endfacet
endsolid OpenSCAD_Model
