solid OpenSCAD_Model
  facet normal -0.994522 -0.104528 -0
    outer loop
      vertex -12.7 2.7 1.8
      vertex -12.7 2.7 -1.8
      vertex -12.4225 0.0595215 -1.8
    endloop
  endfacet
  facet normal -0.994522 -0.104528 -0
    outer loop
      vertex -12.4225 0.0595215 1.8
      vertex -12.7 2.7 1.8
      vertex -12.4225 0.0595215 -1.8
    endloop
  endfacet
  facet normal 0 0 -1
    outer loop
      vertex 12.7 2.7 -1.8
      vertex 12.4225 0.0595215 -1.8
      vertex 1.49389 0.8625 -1.8
    endloop
  endfacet
  facet normal 0 0 -1
    outer loop
      vertex 1.05626e-16 1.725 -1.8
      vertex 12.7 2.7 -1.8
      vertex 0.8625 1.49389 -1.8
    endloop
  endfacet
  facet normal 0 0 -1
    outer loop
      vertex 6.35 -8.29852 -1.8
      vertex 0.8625 -1.49389 -1.8
      vertex 1.49389 -0.8625 -1.8
    endloop
  endfacet
  facet normal -0 0 -1
    outer loop
      vertex 6.35 -8.29852 -1.8
      vertex 3.92452 -9.37842 -1.8
      vertex 0.8625 -1.49389 -1.8
    endloop
  endfacet
  facet normal -0 0 -1
    outer loop
      vertex 3.92452 -9.37842 -1.8
      vertex 1.32751 -9.93043 -1.8
      vertex 0.8625 -1.49389 -1.8
    endloop
  endfacet
  facet normal 0 0 -1
    outer loop
      vertex 1.32751 -9.93043 -1.8
      vertex -3.16877e-16 -1.725 -1.8
      vertex 0.8625 -1.49389 -1.8
    endloop
  endfacet
  facet normal 0 0 -1
    outer loop
      vertex -1.32751 -9.93043 -1.8
      vertex -0.8625 -1.49389 -1.8
      vertex -3.16877e-16 -1.725 -1.8
    endloop
  endfacet
  facet normal -0 0 -1
    outer loop
      vertex -0.8625 -1.49389 -1.8
      vertex -6.35 -8.29852 -1.8
      vertex -1.49389 -0.8625 -1.8
    endloop
  endfacet
  facet normal 0 0 -1
    outer loop
      vertex -3.92452 -9.37842 -1.8
      vertex -0.8625 -1.49389 -1.8
      vertex -1.32751 -9.93043 -1.8
    endloop
  endfacet
  facet normal 0 0 -1
    outer loop
      vertex -8.49796 -6.73794 -1.8
      vertex -1.49389 -0.8625 -1.8
      vertex -6.35 -8.29852 -1.8
    endloop
  endfacet
  facet normal 0 0 -1
    outer loop
      vertex -10.2745 -4.76487 -1.8
      vertex -1.49389 -0.8625 -1.8
      vertex -8.49796 -6.73794 -1.8
    endloop
  endfacet
  facet normal 0 -0 -1
    outer loop
      vertex -1.725 2.11252e-16 -1.8
      vertex -1.49389 -0.8625 -1.8
      vertex -10.2745 -4.76487 -1.8
    endloop
  endfacet
  facet normal 0 0 -1
    outer loop
      vertex -1.725 2.11252e-16 -1.8
      vertex -10.2745 -4.76487 -1.8
      vertex -11.602 -2.46556 -1.8
    endloop
  endfacet
  facet normal -0 0 -1
    outer loop
      vertex -1.725 2.11252e-16 -1.8
      vertex -11.602 -2.46556 -1.8
      vertex -12.4225 0.0595215 -1.8
    endloop
  endfacet
  facet normal -0 0 -1
    outer loop
      vertex -1.49389 0.8625 -1.8
      vertex -12.4225 0.0595215 -1.8
      vertex -12.7 2.7 -1.8
    endloop
  endfacet
  facet normal 0 0 -1
    outer loop
      vertex 8.49796 -6.73794 -1.8
      vertex 1.49389 -0.8625 -1.8
      vertex 10.2745 -4.76487 -1.8
    endloop
  endfacet
  facet normal 0 0 -1
    outer loop
      vertex -3.92452 -9.37842 -1.8
      vertex -6.35 -8.29852 -1.8
      vertex -0.8625 -1.49389 -1.8
    endloop
  endfacet
  facet normal 0 0 -1
    outer loop
      vertex 11.602 -2.46556 -1.8
      vertex 1.725 0 -1.8
      vertex 12.4225 0.0595215 -1.8
    endloop
  endfacet
  facet normal 0 0 -1
    outer loop
      vertex 1.32751 -9.93043 -1.8
      vertex -1.32751 -9.93043 -1.8
      vertex -3.16877e-16 -1.725 -1.8
    endloop
  endfacet
  facet normal 0 0 -1
    outer loop
      vertex 6.35 -8.29852 -1.8
      vertex 1.49389 -0.8625 -1.8
      vertex 8.49796 -6.73794 -1.8
    endloop
  endfacet
  facet normal 0 0 -1
    outer loop
      vertex 1.725 0 -1.8
      vertex 11.602 -2.46556 -1.8
      vertex 10.2745 -4.76487 -1.8
    endloop
  endfacet
  facet normal 0 0 -1
    outer loop
      vertex 1.49389 -0.8625 -1.8
      vertex 1.725 0 -1.8
      vertex 10.2745 -4.76487 -1.8
    endloop
  endfacet
  facet normal 0 0 -1
    outer loop
      vertex 1.725 0 -1.8
      vertex 1.49389 0.8625 -1.8
      vertex 12.4225 0.0595215 -1.8
    endloop
  endfacet
  facet normal 0 0 -1
    outer loop
      vertex 1.49389 0.8625 -1.8
      vertex 0.8625 1.49389 -1.8
      vertex 12.7 2.7 -1.8
    endloop
  endfacet
  facet normal 0 0 -1
    outer loop
      vertex -0.8625 1.49389 -1.8
      vertex -12.7 2.7 -1.8
      vertex 1.05626e-16 1.725 -1.8
    endloop
  endfacet
  facet normal 0 0 -1
    outer loop
      vertex 1.05626e-16 1.725 -1.8
      vertex 12.7 53.4 -1.8
      vertex 12.7 2.7 -1.8
    endloop
  endfacet
  facet normal 0 0 -1
    outer loop
      vertex -12.7 53.4 -1.8
      vertex 1.05626e-16 1.725 -1.8
      vertex -12.7 2.7 -1.8
    endloop
  endfacet
  facet normal 0 0 -1
    outer loop
      vertex -12.7 53.4 -1.8
      vertex 12.7 53.4 -1.8
      vertex 1.05626e-16 1.725 -1.8
    endloop
  endfacet
  facet normal 0 0 -1
    outer loop
      vertex -1.49389 0.8625 -1.8
      vertex -12.7 2.7 -1.8
      vertex -0.8625 1.49389 -1.8
    endloop
  endfacet
  facet normal 0 0 -1
    outer loop
      vertex -1.725 2.11252e-16 -1.8
      vertex -12.4225 0.0595215 -1.8
      vertex -1.49389 0.8625 -1.8
    endloop
  endfacet
  facet normal 0.207912 -0.978148 0
    outer loop
      vertex 1.32751 -9.93043 1.8
      vertex 1.32751 -9.93043 -1.8
      vertex 3.92452 -9.37842 -1.8
    endloop
  endfacet
  facet normal 0.207912 -0.978148 0
    outer loop
      vertex 3.92452 -9.37842 1.8
      vertex 1.32751 -9.93043 1.8
      vertex 3.92452 -9.37842 -1.8
    endloop
  endfacet
  facet normal -0.587785 -0.809017 -0
    outer loop
      vertex -8.49796 -6.73794 1.8
      vertex -8.49796 -6.73794 -1.8
      vertex -6.35 -8.29852 -1.8
    endloop
  endfacet
  facet normal -0.587785 -0.809017 -0
    outer loop
      vertex -6.35 -8.29852 1.8
      vertex -8.49796 -6.73794 1.8
      vertex -6.35 -8.29852 -1.8
    endloop
  endfacet
  facet normal -0.207912 -0.978148 -0
    outer loop
      vertex -3.92452 -9.37842 1.8
      vertex -3.92452 -9.37842 -1.8
      vertex -1.32751 -9.93043 -1.8
    endloop
  endfacet
  facet normal -0.207912 -0.978148 -0
    outer loop
      vertex -1.32751 -9.93043 1.8
      vertex -3.92452 -9.37842 1.8
      vertex -1.32751 -9.93043 -1.8
    endloop
  endfacet
  facet normal -0.951057 -0.309017 -0
    outer loop
      vertex -12.4225 0.0595215 1.8
      vertex -12.4225 0.0595215 -1.8
      vertex -11.602 -2.46556 -1.8
    endloop
  endfacet
  facet normal -0.951057 -0.309017 -0
    outer loop
      vertex -11.602 -2.46556 1.8
      vertex -12.4225 0.0595215 1.8
      vertex -11.602 -2.46556 -1.8
    endloop
  endfacet
  facet normal 0.587785 -0.809017 0
    outer loop
      vertex 6.35 -8.29852 1.8
      vertex 6.35 -8.29852 -1.8
      vertex 8.49796 -6.73794 -1.8
    endloop
  endfacet
  facet normal 0.587785 -0.809017 0
    outer loop
      vertex 8.49796 -6.73794 1.8
      vertex 6.35 -8.29852 1.8
      vertex 8.49796 -6.73794 -1.8
    endloop
  endfacet
  facet normal -6.69055e-16 -1 -0
    outer loop
      vertex -1.32751 -9.93043 1.8
      vertex -1.32751 -9.93043 -1.8
      vertex 1.32751 -9.93043 -1.8
    endloop
  endfacet
  facet normal -6.69055e-16 -1 -0
    outer loop
      vertex 1.32751 -9.93043 1.8
      vertex -1.32751 -9.93043 1.8
      vertex 1.32751 -9.93043 -1.8
    endloop
  endfacet
  facet normal -0.866025 -0.5 -0
    outer loop
      vertex -11.602 -2.46556 1.8
      vertex -11.602 -2.46556 -1.8
      vertex -10.2745 -4.76487 -1.8
    endloop
  endfacet
  facet normal -0.866025 -0.5 -0
    outer loop
      vertex -10.2745 -4.76487 1.8
      vertex -11.602 -2.46556 1.8
      vertex -10.2745 -4.76487 -1.8
    endloop
  endfacet
  facet normal -0.743145 -0.669131 -0
    outer loop
      vertex -10.2745 -4.76487 1.8
      vertex -10.2745 -4.76487 -1.8
      vertex -8.49796 -6.73794 -1.8
    endloop
  endfacet
  facet normal -0.743145 -0.669131 -0
    outer loop
      vertex -8.49796 -6.73794 1.8
      vertex -10.2745 -4.76487 1.8
      vertex -8.49796 -6.73794 -1.8
    endloop
  endfacet
  facet normal -0.406737 -0.913545 -0
    outer loop
      vertex -6.35 -8.29852 1.8
      vertex -6.35 -8.29852 -1.8
      vertex -3.92452 -9.37842 -1.8
    endloop
  endfacet
  facet normal -0.406737 -0.913545 -0
    outer loop
      vertex -3.92452 -9.37842 1.8
      vertex -6.35 -8.29852 1.8
      vertex -3.92452 -9.37842 -1.8
    endloop
  endfacet
  facet normal 0.951057 -0.309017 0
    outer loop
      vertex 11.602 -2.46556 1.8
      vertex 11.602 -2.46556 -1.8
      vertex 12.4225 0.0595215 -1.8
    endloop
  endfacet
  facet normal 0.951057 -0.309017 0
    outer loop
      vertex 12.4225 0.0595215 1.8
      vertex 11.602 -2.46556 1.8
      vertex 12.4225 0.0595215 -1.8
    endloop
  endfacet
  facet normal 0.994522 -0.104528 0
    outer loop
      vertex 12.4225 0.0595215 1.8
      vertex 12.4225 0.0595215 -1.8
      vertex 12.7 2.7 -1.8
    endloop
  endfacet
  facet normal 0.994522 -0.104528 0
    outer loop
      vertex 12.7 2.7 1.8
      vertex 12.4225 0.0595215 1.8
      vertex 12.7 2.7 -1.8
    endloop
  endfacet
  facet normal 0.406737 -0.913545 0
    outer loop
      vertex 3.92452 -9.37842 1.8
      vertex 3.92452 -9.37842 -1.8
      vertex 6.35 -8.29852 -1.8
    endloop
  endfacet
  facet normal 0.406737 -0.913545 0
    outer loop
      vertex 6.35 -8.29852 1.8
      vertex 3.92452 -9.37842 1.8
      vertex 6.35 -8.29852 -1.8
    endloop
  endfacet
  facet normal 0.743145 -0.669131 0
    outer loop
      vertex 8.49796 -6.73794 1.8
      vertex 8.49796 -6.73794 -1.8
      vertex 10.2745 -4.76487 -1.8
    endloop
  endfacet
  facet normal 0.743145 -0.669131 0
    outer loop
      vertex 10.2745 -4.76487 1.8
      vertex 8.49796 -6.73794 1.8
      vertex 10.2745 -4.76487 -1.8
    endloop
  endfacet
  facet normal 0 0 1
    outer loop
      vertex -1.49389 -0.8625 1.8
      vertex -1.725 2.11252e-16 1.8
      vertex -10.2745 -4.76487 1.8
    endloop
  endfacet
  facet normal 0 -0 1
    outer loop
      vertex -10.2745 -4.76487 1.8
      vertex -1.725 2.11252e-16 1.8
      vertex -11.602 -2.46556 1.8
    endloop
  endfacet
  facet normal 0 -0 1
    outer loop
      vertex -6.35 -8.29852 1.8
      vertex -1.49389 -0.8625 1.8
      vertex -8.49796 -6.73794 1.8
    endloop
  endfacet
  facet normal 0 0 1
    outer loop
      vertex -1.49389 -0.8625 1.8
      vertex -10.2745 -4.76487 1.8
      vertex -8.49796 -6.73794 1.8
    endloop
  endfacet
  facet normal -0 0 1
    outer loop
      vertex -3.16877e-16 -1.725 1.8
      vertex 1.32751 -9.93043 1.8
      vertex 0.8625 -1.49389 1.8
    endloop
  endfacet
  facet normal 0 0 1
    outer loop
      vertex 8.49796 -6.73794 1.8
      vertex 1.49389 -0.8625 1.8
      vertex 6.35 -8.29852 1.8
    endloop
  endfacet
  facet normal 0 0 1
    outer loop
      vertex 1.49389 -0.8625 1.8
      vertex 0.8625 -1.49389 1.8
      vertex 6.35 -8.29852 1.8
    endloop
  endfacet
  facet normal 0 0 1
    outer loop
      vertex -1.32751 -9.93043 1.8
      vertex -3.16877e-16 -1.725 1.8
      vertex -0.8625 -1.49389 1.8
    endloop
  endfacet
  facet normal -0 0 1
    outer loop
      vertex 1.49389 -0.8625 1.8
      vertex 10.2745 -4.76487 1.8
      vertex 1.725 0 1.8
    endloop
  endfacet
  facet normal 0 -0 1
    outer loop
      vertex 1.725 0 1.8
      vertex 12.4225 0.0595215 1.8
      vertex 1.49389 0.8625 1.8
    endloop
  endfacet
  facet normal 0 0 1
    outer loop
      vertex -0.8625 -1.49389 1.8
      vertex -6.35 -8.29852 1.8
      vertex -3.92452 -9.37842 1.8
    endloop
  endfacet
  facet normal 0 0 1
    outer loop
      vertex -0.8625 -1.49389 1.8
      vertex -1.49389 -0.8625 1.8
      vertex -6.35 -8.29852 1.8
    endloop
  endfacet
  facet normal 0 0 1
    outer loop
      vertex -12.7 2.7 1.8
      vertex -12.4225 0.0595215 1.8
      vertex -1.49389 0.8625 1.8
    endloop
  endfacet
  facet normal 0 0 1
    outer loop
      vertex 12.7 2.7 1.8
      vertex 1.05626e-16 1.725 1.8
      vertex 0.8625 1.49389 1.8
    endloop
  endfacet
  facet normal 0 0 1
    outer loop
      vertex -1.725 2.11252e-16 1.8
      vertex -12.4225 0.0595215 1.8
      vertex -11.602 -2.46556 1.8
    endloop
  endfacet
  facet normal 0 0 1
    outer loop
      vertex -1.49389 0.8625 1.8
      vertex -12.4225 0.0595215 1.8
      vertex -1.725 2.11252e-16 1.8
    endloop
  endfacet
  facet normal 0 0 1
    outer loop
      vertex 1.05626e-16 1.725 1.8
      vertex -12.7 2.7 1.8
      vertex -0.8625 1.49389 1.8
    endloop
  endfacet
  facet normal 0 0 1
    outer loop
      vertex -0.8625 1.49389 1.8
      vertex -12.7 2.7 1.8
      vertex -1.49389 0.8625 1.8
    endloop
  endfacet
  facet normal 0 0 1
    outer loop
      vertex 1.05626e-16 1.725 1.8
      vertex -12.7 53.4 1.8
      vertex -12.7 2.7 1.8
    endloop
  endfacet
  facet normal 0 0 1
    outer loop
      vertex 12.7 53.4 1.8
      vertex 1.05626e-16 1.725 1.8
      vertex 12.7 2.7 1.8
    endloop
  endfacet
  facet normal 0 0 1
    outer loop
      vertex 12.7 53.4 1.8
      vertex -12.7 53.4 1.8
      vertex 1.05626e-16 1.725 1.8
    endloop
  endfacet
  facet normal 0 -0 1
    outer loop
      vertex 12.4225 0.0595215 1.8
      vertex 12.7 2.7 1.8
      vertex 1.49389 0.8625 1.8
    endloop
  endfacet
  facet normal 0 -0 1
    outer loop
      vertex 1.49389 0.8625 1.8
      vertex 12.7 2.7 1.8
      vertex 0.8625 1.49389 1.8
    endloop
  endfacet
  facet normal 0 -0 1
    outer loop
      vertex 10.2745 -4.76487 1.8
      vertex 11.602 -2.46556 1.8
      vertex 1.725 0 1.8
    endloop
  endfacet
  facet normal -0 0 1
    outer loop
      vertex 1.725 0 1.8
      vertex 11.602 -2.46556 1.8
      vertex 12.4225 0.0595215 1.8
    endloop
  endfacet
  facet normal 0 -0 1
    outer loop
      vertex 8.49796 -6.73794 1.8
      vertex 10.2745 -4.76487 1.8
      vertex 1.49389 -0.8625 1.8
    endloop
  endfacet
  facet normal 0 -0 1
    outer loop
      vertex 3.92452 -9.37842 1.8
      vertex 6.35 -8.29852 1.8
      vertex 0.8625 -1.49389 1.8
    endloop
  endfacet
  facet normal 0 0 1
    outer loop
      vertex 3.92452 -9.37842 1.8
      vertex 0.8625 -1.49389 1.8
      vertex 1.32751 -9.93043 1.8
    endloop
  endfacet
  facet normal 0 0 1
    outer loop
      vertex 1.32751 -9.93043 1.8
      vertex -3.16877e-16 -1.725 1.8
      vertex -1.32751 -9.93043 1.8
    endloop
  endfacet
  facet normal 0 -0 1
    outer loop
      vertex -1.32751 -9.93043 1.8
      vertex -0.8625 -1.49389 1.8
      vertex -3.92452 -9.37842 1.8
    endloop
  endfacet
  facet normal 0.866025 -0.5 0
    outer loop
      vertex 10.2745 -4.76487 1.8
      vertex 10.2745 -4.76487 -1.8
      vertex 11.602 -2.46556 -1.8
    endloop
  endfacet
  facet normal 0.866025 -0.5 0
    outer loop
      vertex 11.602 -2.46556 1.8
      vertex 10.2745 -4.76487 1.8
      vertex 11.602 -2.46556 -1.8
    endloop
  endfacet
  facet normal -1 0 0
    outer loop
      vertex -12.7 53.4 -1.8
      vertex -12.7 2.7 -1.8
      vertex -12.7 2.7 1.8
    endloop
  endfacet
  facet normal -1 -0 -0
    outer loop
      vertex -12.7 53.4 1.8
      vertex -12.7 53.4 -1.8
      vertex -12.7 2.7 1.8
    endloop
  endfacet
  facet normal 0 1 0
    outer loop
      vertex 12.7 53.4 -1.8
      vertex -12.7 53.4 -1.8
      vertex -12.7 53.4 1.8
    endloop
  endfacet
  facet normal 0 1 0
    outer loop
      vertex 12.7 53.4 1.8
      vertex 12.7 53.4 -1.8
      vertex -12.7 53.4 1.8
    endloop
  endfacet
  facet normal 1 0 0
    outer loop
      vertex 12.7 2.7 1.8
      vertex 12.7 2.7 -1.8
      vertex 12.7 53.4 -1.8
    endloop
  endfacet
  facet normal 1 0 0
    outer loop
      vertex 12.7 53.4 1.8
      vertex 12.7 2.7 1.8
      vertex 12.7 53.4 -1.8
    endloop
  endfacet
  facet normal 0.965926 0.258819 0
    outer loop
      vertex -1.725 2.11252e-16 1.8
      vertex -1.49389 -0.8625 1.8
      vertex -1.49389 -0.8625 -1.8
    endloop
  endfacet
  facet normal 0.965926 0.258819 -0
    outer loop
      vertex -1.725 2.11252e-16 -1.8
      vertex -1.725 2.11252e-16 1.8
      vertex -1.49389 -0.8625 -1.8
    endloop
  endfacet
  facet normal -0.258819 -0.965926 0
    outer loop
      vertex 0.8625 1.49389 -1.8
      vertex 0.8625 1.49389 1.8
      vertex 1.05626e-16 1.725 1.8
    endloop
  endfacet
  facet normal -0.258819 -0.965926 0
    outer loop
      vertex 1.05626e-16 1.725 -1.8
      vertex 0.8625 1.49389 -1.8
      vertex 1.05626e-16 1.725 1.8
    endloop
  endfacet
  facet normal 0.707107 0.707107 0
    outer loop
      vertex -1.49389 -0.8625 1.8
      vertex -0.8625 -1.49389 1.8
      vertex -0.8625 -1.49389 -1.8
    endloop
  endfacet
  facet normal 0.707107 0.707107 -0
    outer loop
      vertex -1.49389 -0.8625 -1.8
      vertex -1.49389 -0.8625 1.8
      vertex -0.8625 -1.49389 -1.8
    endloop
  endfacet
  facet normal -0.258819 0.965926 0
    outer loop
      vertex -3.16877e-16 -1.725 1.8
      vertex 0.8625 -1.49389 1.8
      vertex 0.8625 -1.49389 -1.8
    endloop
  endfacet
  facet normal -0.258819 0.965926 0
    outer loop
      vertex -3.16877e-16 -1.725 -1.8
      vertex -3.16877e-16 -1.725 1.8
      vertex 0.8625 -1.49389 -1.8
    endloop
  endfacet
  facet normal 0.258819 -0.965926 0
    outer loop
      vertex 1.05626e-16 1.725 -1.8
      vertex 1.05626e-16 1.725 1.8
      vertex -0.8625 1.49389 1.8
    endloop
  endfacet
  facet normal 0.258819 -0.965926 0
    outer loop
      vertex -0.8625 1.49389 -1.8
      vertex 1.05626e-16 1.725 -1.8
      vertex -0.8625 1.49389 1.8
    endloop
  endfacet
  facet normal 0.258819 0.965926 0
    outer loop
      vertex -0.8625 -1.49389 1.8
      vertex -3.16877e-16 -1.725 1.8
      vertex -3.16877e-16 -1.725 -1.8
    endloop
  endfacet
  facet normal 0.258819 0.965926 -0
    outer loop
      vertex -0.8625 -1.49389 -1.8
      vertex -0.8625 -1.49389 1.8
      vertex -3.16877e-16 -1.725 -1.8
    endloop
  endfacet
  facet normal 0.965926 -0.258819 0
    outer loop
      vertex -1.49389 0.8625 -1.8
      vertex -1.49389 0.8625 1.8
      vertex -1.725 2.11252e-16 1.8
    endloop
  endfacet
  facet normal 0.965926 -0.258819 0
    outer loop
      vertex -1.725 2.11252e-16 -1.8
      vertex -1.49389 0.8625 -1.8
      vertex -1.725 2.11252e-16 1.8
    endloop
  endfacet
  facet normal -0.965926 0.258819 0
    outer loop
      vertex 1.49389 -0.8625 1.8
      vertex 1.725 0 1.8
      vertex 1.725 0 -1.8
    endloop
  endfacet
  facet normal -0.965926 0.258819 0
    outer loop
      vertex 1.49389 -0.8625 -1.8
      vertex 1.49389 -0.8625 1.8
      vertex 1.725 0 -1.8
    endloop
  endfacet
  facet normal -0.707107 -0.707107 0
    outer loop
      vertex 1.49389 0.8625 -1.8
      vertex 1.49389 0.8625 1.8
      vertex 0.8625 1.49389 1.8
    endloop
  endfacet
  facet normal -0.707107 -0.707107 0
    outer loop
      vertex 0.8625 1.49389 -1.8
      vertex 1.49389 0.8625 -1.8
      vertex 0.8625 1.49389 1.8
    endloop
  endfacet
  facet normal -0.965926 -0.258819 0
    outer loop
      vertex 1.725 0 -1.8
      vertex 1.725 0 1.8
      vertex 1.49389 0.8625 1.8
    endloop
  endfacet
  facet normal -0.965926 -0.258819 0
    outer loop
      vertex 1.49389 0.8625 -1.8
      vertex 1.725 0 -1.8
      vertex 1.49389 0.8625 1.8
    endloop
  endfacet
  facet normal 0.707107 -0.707107 0
    outer loop
      vertex -0.8625 1.49389 -1.8
      vertex -0.8625 1.49389 1.8
      vertex -1.49389 0.8625 1.8
    endloop
  endfacet
  facet normal 0.707107 -0.707107 0
    outer loop
      vertex -1.49389 0.8625 -1.8
      vertex -0.8625 1.49389 -1.8
      vertex -1.49389 0.8625 1.8
    endloop
  endfacet
  facet normal -0.707107 0.707107 0
    outer loop
      vertex 0.8625 -1.49389 1.8
      vertex 1.49389 -0.8625 1.8
      vertex 1.49389 -0.8625 -1.8
    endloop
  endfacet
  facet normal -0.707107 0.707107 0
    outer loop
      vertex 0.8625 -1.49389 -1.8
      vertex 0.8625 -1.49389 1.8
      vertex 1.49389 -0.8625 -1.8
    endloop
  endfacet
endsolid OpenSCAD_Model
