solid OpenSCAD_Model
  facet normal 1 -0 0
    outer loop
      vertex 5.50042 11.5436 -5.12638e-15
      vertex 5.50042 13.4564 -5.97585e-15
      vertex 5.50042 13.4564 3
    endloop
  endfacet
  facet normal 1 0 0
    outer loop
      vertex 5.50042 11.5436 3
      vertex 5.50042 11.5436 -5.12638e-15
      vertex 5.50042 13.4564 3
    endloop
  endfacet
  facet normal -0.104528 0.994522 -2.94438e-16
    outer loop
      vertex 9.51916 7.9251 3
      vertex 11.4215 8.12504 -3.60824e-15
      vertex 9.51916 7.9251 -3.51945e-15
    endloop
  endfacet
  facet normal -0.104528 0.994522 -5.90082e-16
    outer loop
      vertex 9.51916 7.9251 3
      vertex 11.4215 8.12504 3
      vertex 11.4215 8.12504 -3.60824e-15
    endloop
  endfacet
  facet normal 0.913545 -0.406737 2.70857e-16
    outer loop
      vertex 5.50042 13.4564 -5.97585e-15
      vertex 6.27844 15.2039 -6.75188e-15
      vertex 6.27844 15.2039 3
    endloop
  endfacet
  facet normal 0.913545 -0.406737 0
    outer loop
      vertex 5.50042 13.4564 3
      vertex 5.50042 13.4564 -5.97585e-15
      vertex 6.27844 15.2039 3
    endloop
  endfacet
  facet normal 1.50259e-16 -3.62756e-16 -1
    outer loop
      vertex 10 14.9881 3
      vertex 8.24065 14.2594 3
      vertex 7.69995 16.4838 3
    endloop
  endfacet
  facet normal 7.90683e-17 -4.18499e-16 -1
    outer loop
      vertex 7.69995 8.5162 3
      vertex 8.24065 10.7406 3
      vertex 10 10.0119 3
    endloop
  endfacet
  facet normal -4.58445e-17 -4.36181e-16 -1
    outer loop
      vertex 9.51916 17.0749 3
      vertex 11.4215 16.875 3
      vertex 10 14.9881 3
    endloop
  endfacet
  facet normal 0 -4.747e-16 -1
    outer loop
      vertex 14.2024 10.629 3
      vertex 12.4881 12.5 3
      vertex 14.6001 12.5 3
    endloop
  endfacet
  facet normal 0 -4.747e-16 -1
    outer loop
      vertex 12.4881 12.5 3
      vertex 14.2024 14.371 3
      vertex 14.6001 12.5 3
    endloop
  endfacet
  facet normal 2.80911e-17 -5.12982e-16 -1
    outer loop
      vertex 11.4215 8.12504 3
      vertex 11.7594 10.7406 3
      vertex 13.0781 9.08146 3
    endloop
  endfacet
  facet normal -2.53927e-17 -5.55491e-16 -1
    outer loop
      vertex 11.7594 10.7406 3
      vertex 14.2024 10.629 3
      vertex 13.0781 9.08146 3
    endloop
  endfacet
  facet normal -4.37771e-17 -5.037e-16 -1
    outer loop
      vertex 10 10.0119 3
      vertex 11.7594 10.7406 3
      vertex 11.4215 8.12504 3
    endloop
  endfacet
  facet normal 9.8449e-17 -4.48302e-16 -1
    outer loop
      vertex 10 10.0119 3
      vertex 9.51916 7.9251 3
      vertex 7.69995 8.5162 3
    endloop
  endfacet
  facet normal -3.86478e-17 -3.89886e-16 -1
    outer loop
      vertex 7.69995 8.5162 3
      vertex 6.27844 9.79613 3
      vertex 8.24065 10.7406 3
    endloop
  endfacet
  facet normal 0 -4.64327e-16 -1
    outer loop
      vertex 7.5119 12.5 3
      vertex 5.50042 11.5436 3
      vertex 5.50042 13.4564 3
    endloop
  endfacet
  facet normal -2.17663e-16 -4.52187e-16 -1
    outer loop
      vertex 7.69995 16.4838 3
      vertex 8.24065 14.2594 3
      vertex 6.27844 15.2039 3
    endloop
  endfacet
  facet normal 1.51005e-17 -5.01546e-16 -1
    outer loop
      vertex 5.50042 11.5436 3
      vertex 8.24065 10.7406 3
      vertex 6.27844 9.79613 3
    endloop
  endfacet
  facet normal 1.26963e-17 -2.77746e-16 -1
    outer loop
      vertex 11.7594 14.2594 3
      vertex 13.0781 15.9185 3
      vertex 14.2024 14.371 3
    endloop
  endfacet
  facet normal 4.58445e-17 -4.36181e-16 -1
    outer loop
      vertex 9.51916 7.9251 3
      vertex 10 10.0119 3
      vertex 11.4215 8.12504 3
    endloop
  endfacet
  facet normal -1.00739e-16 -2.09283e-16 -1
    outer loop
      vertex 8.24065 14.2594 3
      vertex 5.50042 13.4564 3
      vertex 6.27844 15.2039 3
    endloop
  endfacet
  facet normal -2.26481e-17 -4.95451e-16 -1
    outer loop
      vertex 12.4881 12.5 3
      vertex 14.2024 10.629 3
      vertex 11.7594 10.7406 3
    endloop
  endfacet
  facet normal 2.26481e-17 -4.95451e-16 -1
    outer loop
      vertex 11.7594 14.2594 3
      vertex 14.2024 14.371 3
      vertex 12.4881 12.5 3
    endloop
  endfacet
  facet normal -1.48605e-16 -3.58764e-16 -1
    outer loop
      vertex 11.4215 16.875 3
      vertex 11.7594 14.2594 3
      vertex 10 14.9881 3
    endloop
  endfacet
  facet normal 7.78332e-17 -3.29516e-16 -1
    outer loop
      vertex 11.4215 16.875 3
      vertex 13.0781 15.9185 3
      vertex 11.7594 14.2594 3
    endloop
  endfacet
  facet normal 1.28659e-16 -3.95972e-16 -1
    outer loop
      vertex 9.51916 17.0749 3
      vertex 10 14.9881 3
      vertex 7.69995 16.4838 3
    endloop
  endfacet
  facet normal -1.60905e-17 -4.98168e-16 -1
    outer loop
      vertex 7.5119 12.5 3
      vertex 5.50042 13.4564 3
      vertex 8.24065 14.2594 3
    endloop
  endfacet
  facet normal 1.60905e-17 -4.98168e-16 -1
    outer loop
      vertex 8.24065 10.7406 3
      vertex 5.50042 11.5436 3
      vertex 7.5119 12.5 3
    endloop
  endfacet
  facet normal 0.913545 0.406737 -2.40836e-16
    outer loop
      vertex 6.27844 9.79613 3
      vertex 6.27844 9.79613 -4.35036e-15
      vertex 5.50042 11.5436 -5.12638e-15
    endloop
  endfacet
  facet normal 0.913545 0.406737 -2.40836e-16
    outer loop
      vertex 5.50042 11.5436 3
      vertex 6.27844 9.79613 3
      vertex 5.50042 11.5436 -5.12638e-15
    endloop
  endfacet
  facet normal -0.5 0.866025 -5.1279e-16
    outer loop
      vertex 11.4215 8.12504 3
      vertex 13.0781 9.08146 -4.03298e-15
      vertex 11.4215 8.12504 -3.60824e-15
    endloop
  endfacet
  facet normal -0.5 0.866025 -5.03021e-16
    outer loop
      vertex 11.4215 8.12504 3
      vertex 13.0781 9.08146 3
      vertex 13.0781 9.08146 -4.03298e-15
    endloop
  endfacet
  facet normal 0.309017 0.951057 0
    outer loop
      vertex 7.69995 8.5162 3
      vertex 9.51916 7.9251 -3.51945e-15
      vertex 7.69995 8.5162 -3.78195e-15
    endloop
  endfacet
  facet normal 0.309017 0.951057 -2.70857e-16
    outer loop
      vertex 7.69995 8.5162 3
      vertex 9.51916 7.9251 3
      vertex 9.51916 7.9251 -3.51945e-15
    endloop
  endfacet
  facet normal -0.809017 0.587785 -3.48039e-16
    outer loop
      vertex 13.0781 9.08146 3
      vertex 14.2024 10.629 -4.72021e-15
      vertex 13.0781 9.08146 -4.03298e-15
    endloop
  endfacet
  facet normal -0.809017 0.587785 -3.48245e-16
    outer loop
      vertex 13.0781 9.08146 3
      vertex 14.2024 10.629 3
      vertex 14.2024 10.629 -4.72021e-15
    endloop
  endfacet
  facet normal 0.669131 -0.743145 0
    outer loop
      vertex 6.27844 15.2039 -6.75188e-15
      vertex 7.69995 16.4838 -7.32028e-15
      vertex 7.69995 16.4838 3
    endloop
  endfacet
  facet normal 0.669131 -0.743145 4.4003e-16
    outer loop
      vertex 6.27844 15.2039 3
      vertex 6.27844 15.2039 -6.75188e-15
      vertex 7.69995 16.4838 3
    endloop
  endfacet
  facet normal 0.309017 -0.951057 0
    outer loop
      vertex 7.69995 16.4838 -7.32028e-15
      vertex 9.51916 17.0749 -7.58278e-15
      vertex 9.51916 17.0749 3
    endloop
  endfacet
  facet normal 0.309017 -0.951057 0
    outer loop
      vertex 7.69995 16.4838 3
      vertex 7.69995 16.4838 -7.32028e-15
      vertex 9.51916 17.0749 3
    endloop
  endfacet
  facet normal 0.669131 0.743145 -4.4003e-16
    outer loop
      vertex 6.27844 9.79613 3
      vertex 7.69995 8.5162 -3.78195e-15
      vertex 6.27844 9.79613 -4.35036e-15
    endloop
  endfacet
  facet normal 0.669131 0.743145 0
    outer loop
      vertex 6.27844 9.79613 3
      vertex 7.69995 8.5162 3
      vertex 7.69995 8.5162 -3.78195e-15
    endloop
  endfacet
  facet normal -0.104528 -0.994522 0
    outer loop
      vertex 9.51916 17.0749 3
      vertex 11.4215 16.875 -7.49399e-15
      vertex 11.4215 16.875 3
    endloop
  endfacet
  facet normal -0.104528 -0.994522 -0
    outer loop
      vertex 9.51916 17.0749 3
      vertex 9.51916 17.0749 -7.58278e-15
      vertex 11.4215 16.875 -7.49399e-15
    endloop
  endfacet
  facet normal -0.5 -0.866025 0
    outer loop
      vertex 11.4215 16.875 3
      vertex 13.0781 15.9185 -7.06925e-15
      vertex 13.0781 15.9185 3
    endloop
  endfacet
  facet normal -0.5 -0.866025 -0
    outer loop
      vertex 11.4215 16.875 3
      vertex 11.4215 16.875 -7.49399e-15
      vertex 13.0781 15.9185 -7.06925e-15
    endloop
  endfacet
  facet normal -0.809017 -0.587785 3.48245e-16
    outer loop
      vertex 13.0781 15.9185 3
      vertex 14.2024 14.371 -6.38202e-15
      vertex 14.2024 14.371 3
    endloop
  endfacet
  facet normal -0.809017 -0.587785 -0
    outer loop
      vertex 13.0781 15.9185 3
      vertex 13.0781 15.9185 -7.06925e-15
      vertex 14.2024 14.371 -6.38202e-15
    endloop
  endfacet
  facet normal -0.978148 -0.207912 1.16082e-16
    outer loop
      vertex 14.2024 14.371 -6.38202e-15
      vertex 14.6001 12.5 -5.55112e-15
      vertex 14.6001 12.5 3
    endloop
  endfacet
  facet normal -0.978148 -0.207912 1.23108e-16
    outer loop
      vertex 14.2024 14.371 3
      vertex 14.2024 14.371 -6.38202e-15
      vertex 14.6001 12.5 3
    endloop
  endfacet
  facet normal -0.978148 0.207912 -1.23108e-16
    outer loop
      vertex 14.2024 10.629 3
      vertex 14.6001 12.5 -5.55112e-15
      vertex 14.2024 10.629 -4.72021e-15
    endloop
  endfacet
  facet normal -0.978148 0.207912 -1.16082e-16
    outer loop
      vertex 14.2024 10.629 3
      vertex 14.6001 12.5 3
      vertex 14.6001 12.5 -5.55112e-15
    endloop
  endfacet
  facet normal 0.92388 0.382683 -3.39891e-16
    outer loop
      vertex 7.5119 12.5 5
      vertex 8.24065 10.7406 3
      vertex 7.5119 12.5 3
    endloop
  endfacet
  facet normal 0.92388 0.382683 0
    outer loop
      vertex 7.5119 12.5 5
      vertex 8.24065 10.7406 5
      vertex 8.24065 10.7406 3
    endloop
  endfacet
  facet normal -0.382683 -0.92388 0
    outer loop
      vertex 10 14.9881 3
      vertex 11.7594 14.2594 3
      vertex 11.7594 14.2594 5
    endloop
  endfacet
  facet normal -0.382683 -0.92388 8.2057e-16
    outer loop
      vertex 10 14.9881 5
      vertex 10 14.9881 3
      vertex 11.7594 14.2594 5
    endloop
  endfacet
  facet normal -0.92388 0.382683 0
    outer loop
      vertex 12.4881 12.5 5
      vertex 12.4881 12.5 3
      vertex 11.7594 10.7406 3
    endloop
  endfacet
  facet normal -0.92388 0.382683 0
    outer loop
      vertex 11.7594 10.7406 5
      vertex 12.4881 12.5 5
      vertex 11.7594 10.7406 3
    endloop
  endfacet
  facet normal 0.382683 0.92388 -8.2057e-16
    outer loop
      vertex 10 10.0119 5
      vertex 10 10.0119 3
      vertex 8.24065 10.7406 3
    endloop
  endfacet
  facet normal 0.382683 0.92388 0
    outer loop
      vertex 8.24065 10.7406 5
      vertex 10 10.0119 5
      vertex 8.24065 10.7406 3
    endloop
  endfacet
  facet normal 0.382683 -0.92388 8.16208e-16
    outer loop
      vertex 8.24065 14.2594 5
      vertex 10 14.9881 3
      vertex 10 14.9881 5
    endloop
  endfacet
  facet normal 0.382683 -0.92388 0
    outer loop
      vertex 8.24065 14.2594 5
      vertex 8.24065 14.2594 3
      vertex 10 14.9881 3
    endloop
  endfacet
  facet normal 0.92388 -0.382683 0
    outer loop
      vertex 7.5119 12.5 3
      vertex 8.24065 14.2594 3
      vertex 8.24065 14.2594 5
    endloop
  endfacet
  facet normal 0.92388 -0.382683 3.39891e-16
    outer loop
      vertex 7.5119 12.5 5
      vertex 7.5119 12.5 3
      vertex 8.24065 14.2594 5
    endloop
  endfacet
  facet normal -0.382683 0.92388 -8.2057e-16
    outer loop
      vertex 10 10.0119 5
      vertex 11.7594 10.7406 3
      vertex 10 10.0119 3
    endloop
  endfacet
  facet normal -0.382683 0.92388 0
    outer loop
      vertex 10 10.0119 5
      vertex 11.7594 10.7406 5
      vertex 11.7594 10.7406 3
    endloop
  endfacet
  facet normal -0.92388 -0.382683 0
    outer loop
      vertex 11.7594 14.2594 5
      vertex 12.4881 12.5 3
      vertex 12.4881 12.5 5
    endloop
  endfacet
  facet normal -0.92388 -0.382683 -0
    outer loop
      vertex 11.7594 14.2594 5
      vertex 11.7594 14.2594 3
      vertex 12.4881 12.5 3
    endloop
  endfacet
  facet normal 1 -0 0
    outer loop
      vertex 25.5004 11.5436 -5.12638e-15
      vertex 25.5004 13.4564 -5.97585e-15
      vertex 25.5004 13.4564 3
    endloop
  endfacet
  facet normal 1 0 0
    outer loop
      vertex 25.5004 11.5436 3
      vertex 25.5004 11.5436 -5.12638e-15
      vertex 25.5004 13.4564 3
    endloop
  endfacet
  facet normal -0.104528 0.994522 -2.94438e-16
    outer loop
      vertex 29.5192 7.9251 3
      vertex 31.4215 8.12504 -3.60824e-15
      vertex 29.5192 7.9251 -3.51945e-15
    endloop
  endfacet
  facet normal -0.104528 0.994522 -5.80409e-16
    outer loop
      vertex 29.5192 7.9251 3
      vertex 31.4215 8.12504 3
      vertex 31.4215 8.12504 -3.60824e-15
    endloop
  endfacet
  facet normal 0.913545 -0.406737 2.70857e-16
    outer loop
      vertex 25.5004 13.4564 -5.97585e-15
      vertex 26.2784 15.2039 -6.75188e-15
      vertex 26.2784 15.2039 3
    endloop
  endfacet
  facet normal 0.913545 -0.406737 0
    outer loop
      vertex 25.5004 13.4564 3
      vertex 25.5004 13.4564 -5.97585e-15
      vertex 26.2784 15.2039 3
    endloop
  endfacet
  facet normal 1.50259e-16 -3.62756e-16 -1
    outer loop
      vertex 30 14.9881 3
      vertex 28.2406 14.2594 3
      vertex 27.7 16.4838 3
    endloop
  endfacet
  facet normal 1.26963e-17 -2.77746e-16 -1
    outer loop
      vertex 31.7594 14.2594 3
      vertex 33.0781 15.9185 3
      vertex 34.2024 14.371 3
    endloop
  endfacet
  facet normal -4.58445e-17 -4.36181e-16 -1
    outer loop
      vertex 29.5192 17.0749 3
      vertex 31.4215 16.875 3
      vertex 30 14.9881 3
    endloop
  endfacet
  facet normal 0 -4.747e-16 -1
    outer loop
      vertex 32.4881 12.5 3
      vertex 34.2024 14.371 3
      vertex 34.6001 12.5 3
    endloop
  endfacet
  facet normal 0 -4.747e-16 -1
    outer loop
      vertex 32.4881 12.5 3
      vertex 34.6001 12.5 3
      vertex 34.2024 10.629 3
    endloop
  endfacet
  facet normal -2.53927e-17 -5.55491e-16 -1
    outer loop
      vertex 31.7594 10.7406 3
      vertex 34.2024 10.629 3
      vertex 33.0781 9.08146 3
    endloop
  endfacet
  facet normal 2.80911e-17 -5.12982e-16 -1
    outer loop
      vertex 31.7594 10.7406 3
      vertex 33.0781 9.08146 3
      vertex 31.4215 8.12504 3
    endloop
  endfacet
  facet normal 1.51005e-17 -5.01546e-16 -1
    outer loop
      vertex 28.2406 10.7406 3
      vertex 26.2784 9.79613 3
      vertex 25.5004 11.5436 3
    endloop
  endfacet
  facet normal 9.8449e-17 -4.48302e-16 -1
    outer loop
      vertex 30 10.0119 3
      vertex 29.5192 7.9251 3
      vertex 27.6999 8.5162 3
    endloop
  endfacet
  facet normal -3.86478e-17 -3.89886e-16 -1
    outer loop
      vertex 28.2406 10.7406 3
      vertex 27.6999 8.5162 3
      vertex 26.2784 9.79613 3
    endloop
  endfacet
  facet normal 7.90683e-17 -4.18499e-16 -1
    outer loop
      vertex 30 10.0119 3
      vertex 27.6999 8.5162 3
      vertex 28.2406 10.7406 3
    endloop
  endfacet
  facet normal -2.17663e-16 -4.52187e-16 -1
    outer loop
      vertex 27.7 16.4838 3
      vertex 28.2406 14.2594 3
      vertex 26.2784 15.2039 3
    endloop
  endfacet
  facet normal 0 -4.64327e-16 -1
    outer loop
      vertex 25.5004 11.5436 3
      vertex 25.5004 13.4564 3
      vertex 27.5119 12.5 3
    endloop
  endfacet
  facet normal 4.58445e-17 -4.36181e-16 -1
    outer loop
      vertex 30 10.0119 3
      vertex 31.4215 8.12504 3
      vertex 29.5192 7.9251 3
    endloop
  endfacet
  facet normal -4.37771e-17 -5.037e-16 -1
    outer loop
      vertex 31.7594 10.7406 3
      vertex 31.4215 8.12504 3
      vertex 30 10.0119 3
    endloop
  endfacet
  facet normal -2.26481e-17 -4.95451e-16 -1
    outer loop
      vertex 32.4881 12.5 3
      vertex 34.2024 10.629 3
      vertex 31.7594 10.7406 3
    endloop
  endfacet
  facet normal 2.26481e-17 -4.95451e-16 -1
    outer loop
      vertex 31.7594 14.2594 3
      vertex 34.2024 14.371 3
      vertex 32.4881 12.5 3
    endloop
  endfacet
  facet normal -1.48605e-16 -3.58764e-16 -1
    outer loop
      vertex 31.4215 16.875 3
      vertex 31.7594 14.2594 3
      vertex 30 14.9881 3
    endloop
  endfacet
  facet normal 7.78332e-17 -3.29516e-16 -1
    outer loop
      vertex 31.4215 16.875 3
      vertex 33.0781 15.9185 3
      vertex 31.7594 14.2594 3
    endloop
  endfacet
  facet normal 1.28659e-16 -3.95972e-16 -1
    outer loop
      vertex 29.5192 17.0749 3
      vertex 30 14.9881 3
      vertex 27.7 16.4838 3
    endloop
  endfacet
  facet normal -1.00739e-16 -2.09283e-16 -1
    outer loop
      vertex 25.5004 13.4564 3
      vertex 26.2784 15.2039 3
      vertex 28.2406 14.2594 3
    endloop
  endfacet
  facet normal 1.60905e-17 -4.98168e-16 -1
    outer loop
      vertex 25.5004 11.5436 3
      vertex 27.5119 12.5 3
      vertex 28.2406 10.7406 3
    endloop
  endfacet
  facet normal -1.60905e-17 -4.98168e-16 -1
    outer loop
      vertex 25.5004 13.4564 3
      vertex 28.2406 14.2594 3
      vertex 27.5119 12.5 3
    endloop
  endfacet
  facet normal 0.913545 0.406737 -2.40836e-16
    outer loop
      vertex 26.2784 9.79613 3
      vertex 26.2784 9.79613 -4.35036e-15
      vertex 25.5004 11.5436 -5.12638e-15
    endloop
  endfacet
  facet normal 0.913545 0.406737 -2.40836e-16
    outer loop
      vertex 25.5004 11.5436 3
      vertex 26.2784 9.79613 3
      vertex 25.5004 11.5436 -5.12638e-15
    endloop
  endfacet
  facet normal -0.5 0.866025 -5.1279e-16
    outer loop
      vertex 31.4215 8.12504 3
      vertex 33.0781 9.08146 -4.03298e-15
      vertex 31.4215 8.12504 -3.60824e-15
    endloop
  endfacet
  facet normal -0.5 0.866025 -5.03021e-16
    outer loop
      vertex 31.4215 8.12504 3
      vertex 33.0781 9.08146 3
      vertex 33.0781 9.08146 -4.03298e-15
    endloop
  endfacet
  facet normal 0.309017 0.951057 0
    outer loop
      vertex 27.6999 8.5162 3
      vertex 29.5192 7.9251 -3.51945e-15
      vertex 27.6999 8.5162 -3.78195e-15
    endloop
  endfacet
  facet normal 0.309017 0.951057 -2.70857e-16
    outer loop
      vertex 27.6999 8.5162 3
      vertex 29.5192 7.9251 3
      vertex 29.5192 7.9251 -3.51945e-15
    endloop
  endfacet
  facet normal -0.809017 0.587785 -3.48039e-16
    outer loop
      vertex 33.0781 9.08146 3
      vertex 34.2024 10.629 -4.72021e-15
      vertex 33.0781 9.08146 -4.03298e-15
    endloop
  endfacet
  facet normal -0.809017 0.587785 -3.48245e-16
    outer loop
      vertex 33.0781 9.08146 3
      vertex 34.2024 10.629 3
      vertex 34.2024 10.629 -4.72021e-15
    endloop
  endfacet
  facet normal 0.669131 -0.743145 0
    outer loop
      vertex 26.2784 15.2039 -6.75188e-15
      vertex 27.7 16.4838 -7.32028e-15
      vertex 27.7 16.4838 3
    endloop
  endfacet
  facet normal 0.669131 -0.743145 4.4003e-16
    outer loop
      vertex 26.2784 15.2039 3
      vertex 26.2784 15.2039 -6.75188e-15
      vertex 27.7 16.4838 3
    endloop
  endfacet
  facet normal 0.309017 -0.951057 0
    outer loop
      vertex 27.7 16.4838 -7.32028e-15
      vertex 29.5192 17.0749 -7.58278e-15
      vertex 29.5192 17.0749 3
    endloop
  endfacet
  facet normal 0.309017 -0.951057 0
    outer loop
      vertex 27.7 16.4838 3
      vertex 27.7 16.4838 -7.32028e-15
      vertex 29.5192 17.0749 3
    endloop
  endfacet
  facet normal 0.669131 0.743145 -4.4003e-16
    outer loop
      vertex 26.2784 9.79613 3
      vertex 27.6999 8.5162 -3.78195e-15
      vertex 26.2784 9.79613 -4.35036e-15
    endloop
  endfacet
  facet normal 0.669131 0.743145 0
    outer loop
      vertex 26.2784 9.79613 3
      vertex 27.6999 8.5162 3
      vertex 27.6999 8.5162 -3.78195e-15
    endloop
  endfacet
  facet normal -0.104528 -0.994522 0
    outer loop
      vertex 29.5192 17.0749 3
      vertex 31.4215 16.875 -7.49399e-15
      vertex 31.4215 16.875 3
    endloop
  endfacet
  facet normal -0.104528 -0.994522 -0
    outer loop
      vertex 29.5192 17.0749 3
      vertex 29.5192 17.0749 -7.58278e-15
      vertex 31.4215 16.875 -7.49399e-15
    endloop
  endfacet
  facet normal -0.5 -0.866025 0
    outer loop
      vertex 31.4215 16.875 3
      vertex 33.0781 15.9185 -7.06925e-15
      vertex 33.0781 15.9185 3
    endloop
  endfacet
  facet normal -0.5 -0.866025 -0
    outer loop
      vertex 31.4215 16.875 3
      vertex 31.4215 16.875 -7.49399e-15
      vertex 33.0781 15.9185 -7.06925e-15
    endloop
  endfacet
  facet normal -0.809017 -0.587785 3.48245e-16
    outer loop
      vertex 33.0781 15.9185 3
      vertex 34.2024 14.371 -6.38202e-15
      vertex 34.2024 14.371 3
    endloop
  endfacet
  facet normal -0.809017 -0.587785 -0
    outer loop
      vertex 33.0781 15.9185 3
      vertex 33.0781 15.9185 -7.06925e-15
      vertex 34.2024 14.371 -6.38202e-15
    endloop
  endfacet
  facet normal -0.978148 -0.207912 1.16082e-16
    outer loop
      vertex 34.2024 14.371 -6.38202e-15
      vertex 34.6001 12.5 -5.55112e-15
      vertex 34.6001 12.5 3
    endloop
  endfacet
  facet normal -0.978148 -0.207912 1.23108e-16
    outer loop
      vertex 34.2024 14.371 3
      vertex 34.2024 14.371 -6.38202e-15
      vertex 34.6001 12.5 3
    endloop
  endfacet
  facet normal -0.978148 0.207912 -1.23108e-16
    outer loop
      vertex 34.2024 10.629 3
      vertex 34.6001 12.5 -5.55112e-15
      vertex 34.2024 10.629 -4.72021e-15
    endloop
  endfacet
  facet normal -0.978148 0.207912 -1.16082e-16
    outer loop
      vertex 34.2024 10.629 3
      vertex 34.6001 12.5 3
      vertex 34.6001 12.5 -5.55112e-15
    endloop
  endfacet
  facet normal 0.92388 0.382683 -3.39891e-16
    outer loop
      vertex 27.5119 12.5 5
      vertex 28.2406 10.7406 3
      vertex 27.5119 12.5 3
    endloop
  endfacet
  facet normal 0.92388 0.382683 0
    outer loop
      vertex 27.5119 12.5 5
      vertex 28.2406 10.7406 5
      vertex 28.2406 10.7406 3
    endloop
  endfacet
  facet normal -0.382683 -0.92388 0
    outer loop
      vertex 30 14.9881 3
      vertex 31.7594 14.2594 3
      vertex 31.7594 14.2594 5
    endloop
  endfacet
  facet normal -0.382683 -0.92388 8.2057e-16
    outer loop
      vertex 30 14.9881 5
      vertex 30 14.9881 3
      vertex 31.7594 14.2594 5
    endloop
  endfacet
  facet normal -0.92388 0.382683 0
    outer loop
      vertex 32.4881 12.5 5
      vertex 32.4881 12.5 3
      vertex 31.7594 10.7406 3
    endloop
  endfacet
  facet normal -0.92388 0.382683 0
    outer loop
      vertex 31.7594 10.7406 5
      vertex 32.4881 12.5 5
      vertex 31.7594 10.7406 3
    endloop
  endfacet
  facet normal 0.382683 0.92388 -8.2057e-16
    outer loop
      vertex 30 10.0119 5
      vertex 30 10.0119 3
      vertex 28.2406 10.7406 3
    endloop
  endfacet
  facet normal 0.382683 0.92388 0
    outer loop
      vertex 28.2406 10.7406 5
      vertex 30 10.0119 5
      vertex 28.2406 10.7406 3
    endloop
  endfacet
  facet normal 0.382683 -0.92388 8.16208e-16
    outer loop
      vertex 28.2406 14.2594 5
      vertex 30 14.9881 3
      vertex 30 14.9881 5
    endloop
  endfacet
  facet normal 0.382683 -0.92388 0
    outer loop
      vertex 28.2406 14.2594 5
      vertex 28.2406 14.2594 3
      vertex 30 14.9881 3
    endloop
  endfacet
  facet normal 0.92388 -0.382683 0
    outer loop
      vertex 27.5119 12.5 3
      vertex 28.2406 14.2594 3
      vertex 28.2406 14.2594 5
    endloop
  endfacet
  facet normal 0.92388 -0.382683 3.39891e-16
    outer loop
      vertex 27.5119 12.5 5
      vertex 27.5119 12.5 3
      vertex 28.2406 14.2594 5
    endloop
  endfacet
  facet normal -0.382683 0.92388 -8.2057e-16
    outer loop
      vertex 30 10.0119 5
      vertex 31.7594 10.7406 3
      vertex 30 10.0119 3
    endloop
  endfacet
  facet normal -0.382683 0.92388 0
    outer loop
      vertex 30 10.0119 5
      vertex 31.7594 10.7406 5
      vertex 31.7594 10.7406 3
    endloop
  endfacet
  facet normal -0.92388 -0.382683 0
    outer loop
      vertex 31.7594 14.2594 5
      vertex 32.4881 12.5 3
      vertex 32.4881 12.5 5
    endloop
  endfacet
  facet normal -0.92388 -0.382683 -0
    outer loop
      vertex 31.7594 14.2594 5
      vertex 31.7594 14.2594 3
      vertex 32.4881 12.5 3
    endloop
  endfacet
  facet normal 1 -0 0
    outer loop
      vertex 16.9295 -2.02026e-15 -9.09843
      vertex 16.9295 2 -10.9016
      vertex 16.9295 2 -9.09843
    endloop
  endfacet
  facet normal 1 0 0
    outer loop
      vertex 16.9295 -2.02026e-15 -9.09843
      vertex 16.9295 -2.42064e-15 -10.9016
      vertex 16.9295 2 -10.9016
    endloop
  endfacet
  facet normal -0.959493 0 -0.281733
    outer loop
      vertex 22.6921 2 -8.2699
      vertex 23.2001 2 -10
      vertex 23.2001 -2.22045e-15 -10
    endloop
  endfacet
  facet normal -0.959493 -2.50229e-16 -0.281733
    outer loop
      vertex 22.6921 -1.83629e-15 -8.2699
      vertex 22.6921 2 -8.2699
      vertex 23.2001 -2.22045e-15 -10
    endloop
  endfacet
  facet normal 0.841254 0 -0.540641
    outer loop
      vertex 16.9295 2 -9.09843
      vertex 17.9044 2 -7.58153
      vertex 17.9044 -1.68344e-15 -7.58153
    endloop
  endfacet
  facet normal 0.841254 0 -0.540641
    outer loop
      vertex 16.9295 -2.02026e-15 -9.09843
      vertex 16.9295 2 -9.09843
      vertex 17.9044 -1.68344e-15 -7.58153
    endloop
  endfacet
  facet normal 0.841254 4.80186e-16 0.540641
    outer loop
      vertex 17.9044 -2.75746e-15 -12.4185
      vertex 17.9044 2 -12.4185
      vertex 16.9295 2 -10.9016
    endloop
  endfacet
  facet normal 0.841254 -0 0.540641
    outer loop
      vertex 16.9295 -2.42064e-15 -10.9016
      vertex 17.9044 -2.75746e-15 -12.4185
      vertex 16.9295 2 -10.9016
    endloop
  endfacet
  facet normal 2.26961e-17 -1 1.61852e-16
    outer loop
      vertex 21.3294 2 -12.9109
      vertex 22.6921 2 -11.7301
      vertex 20.4605 2 -11.4172
    endloop
  endfacet
  facet normal 0 -1 2.56683e-16
    outer loop
      vertex 21.4901 2 -10
      vertex 22.6921 2 -11.7301
      vertex 23.2001 2 -10
    endloop
  endfacet
  facet normal -1.99396e-17 -1 1.42195e-16
    outer loop
      vertex 22.6921 2 -8.2699
      vertex 20.4605 2 -8.58283
      vertex 21.4901 2 -10
    endloop
  endfacet
  facet normal -2.26961e-17 -1 1.61852e-16
    outer loop
      vertex 20.4605 2 -8.58283
      vertex 22.6921 2 -8.2699
      vertex 21.3294 2 -7.08909
    endloop
  endfacet
  facet normal 3.09137e-18 -1 2.89664e-16
    outer loop
      vertex 17.9044 2 -7.58153
      vertex 18.7945 2 -9.12414
      vertex 19.5446 2 -6.83247
    endloop
  endfacet
  facet normal 4.34567e-17 -1 2.76452e-16
    outer loop
      vertex 18.7945 2 -9.12414
      vertex 20.4605 2 -8.58283
      vertex 19.5446 2 -6.83247
    endloop
  endfacet
  facet normal 4.00106e-18 -1 2.90189e-16
    outer loop
      vertex 18.7945 2 -9.12414
      vertex 17.9044 2 -7.58153
      vertex 16.9295 2 -9.09843
    endloop
  endfacet
  facet normal -4.00106e-18 -1 2.90189e-16
    outer loop
      vertex 18.7945 2 -10.8759
      vertex 16.9295 2 -10.9016
      vertex 17.9044 2 -12.4185
    endloop
  endfacet
  facet normal -1.69786e-18 -1 1.23143e-16
    outer loop
      vertex 16.9295 2 -9.09843
      vertex 16.9295 2 -10.9016
      vertex 18.7945 2 -10.8759
    endloop
  endfacet
  facet normal -4.34567e-17 -1 2.76452e-16
    outer loop
      vertex 19.5446 2 -13.1675
      vertex 20.4605 2 -11.4172
      vertex 18.7945 2 -10.8759
    endloop
  endfacet
  facet normal 3.98792e-17 -1 2.8439e-16
    outer loop
      vertex 20.4605 2 -11.4172
      vertex 22.6921 2 -11.7301
      vertex 21.4901 2 -10
    endloop
  endfacet
  facet normal -9.50843e-17 -1 2.0396e-16
    outer loop
      vertex 19.5446 2 -6.83247
      vertex 20.4605 2 -8.58283
      vertex 21.3294 2 -7.08909
    endloop
  endfacet
  facet normal 9.50843e-17 -1 2.0396e-16
    outer loop
      vertex 20.4605 2 -11.4172
      vertex 19.5446 2 -13.1675
      vertex 21.3294 2 -12.9109
    endloop
  endfacet
  facet normal 0 -1 1.28342e-16
    outer loop
      vertex 22.6921 2 -8.2699
      vertex 21.4901 2 -10
      vertex 23.2001 2 -10
    endloop
  endfacet
  facet normal -3.09137e-18 -1 2.89664e-16
    outer loop
      vertex 18.7945 2 -10.8759
      vertex 17.9044 2 -12.4185
      vertex 19.5446 2 -13.1675
    endloop
  endfacet
  facet normal 1.74771e-18 -1 1.26758e-16
    outer loop
      vertex 18.7945 2 -9.12414
      vertex 16.9295 2 -9.09843
      vertex 18.7945 2 -10.8759
    endloop
  endfacet
  facet normal -0.654861 -6.15715e-16 -0.75575
    outer loop
      vertex 21.3294 2 -7.08909
      vertex 22.6921 2 -8.2699
      vertex 22.6921 -1.83629e-15 -8.2699
    endloop
  endfacet
  facet normal -0.654861 0 -0.75575
    outer loop
      vertex 21.3294 -1.57409e-15 -7.08909
      vertex 21.3294 2 -7.08909
      vertex 22.6921 -1.83629e-15 -8.2699
    endloop
  endfacet
  facet normal 0.415415 -3.69429e-16 -0.909632
    outer loop
      vertex 17.9044 2 -7.58153
      vertex 19.5446 2 -6.83247
      vertex 19.5446 -1.51711e-15 -6.83247
    endloop
  endfacet
  facet normal 0.415415 0 -0.909632
    outer loop
      vertex 17.9044 -1.68344e-15 -7.58153
      vertex 17.9044 2 -7.58153
      vertex 19.5446 -1.51711e-15 -6.83247
    endloop
  endfacet
  facet normal 0.415415 8.07916e-16 0.909632
    outer loop
      vertex 19.5446 -2.92378e-15 -13.1675
      vertex 19.5446 2 -13.1675
      vertex 17.9044 2 -12.4185
    endloop
  endfacet
  facet normal 0.415415 8.07916e-16 0.909632
    outer loop
      vertex 17.9044 -2.75746e-15 -12.4185
      vertex 19.5446 -2.92378e-15 -13.1675
      vertex 17.9044 2 -12.4185
    endloop
  endfacet
  facet normal -0.959493 0 0.281733
    outer loop
      vertex 23.2001 -2.22045e-15 -10
      vertex 23.2001 2 -10
      vertex 22.6921 2 -11.7301
    endloop
  endfacet
  facet normal -0.959493 0 0.281733
    outer loop
      vertex 22.6921 -2.60461e-15 -11.7301
      vertex 23.2001 -2.22045e-15 -10
      vertex 22.6921 2 -11.7301
    endloop
  endfacet
  facet normal -0.142315 0 0.989821
    outer loop
      vertex 21.3294 -2.8668e-15 -12.9109
      vertex 21.3294 2 -12.9109
      vertex 19.5446 2 -13.1675
    endloop
  endfacet
  facet normal -0.142315 8.79138e-16 0.989821
    outer loop
      vertex 19.5446 -2.92378e-15 -13.1675
      vertex 21.3294 -2.8668e-15 -12.9109
      vertex 19.5446 2 -13.1675
    endloop
  endfacet
  facet normal -0.142315 0 -0.989821
    outer loop
      vertex 19.5446 -1.51711e-15 -6.83247
      vertex 21.3294 2 -7.08909
      vertex 21.3294 -1.57409e-15 -7.08909
    endloop
  endfacet
  facet normal -0.142315 -4.39569e-16 -0.989821
    outer loop
      vertex 19.5446 -1.51711e-15 -6.83247
      vertex 19.5446 2 -6.83247
      vertex 21.3294 2 -7.08909
    endloop
  endfacet
  facet normal -0.654861 0 0.75575
    outer loop
      vertex 22.6921 -2.60461e-15 -11.7301
      vertex 22.6921 2 -11.7301
      vertex 21.3294 2 -12.9109
    endloop
  endfacet
  facet normal -0.654861 0 0.75575
    outer loop
      vertex 21.3294 -2.8668e-15 -12.9109
      vertex 22.6921 -2.60461e-15 -11.7301
      vertex 21.3294 2 -12.9109
    endloop
  endfacet
  facet normal 1 -0 0
    outer loop
      vertex 18.7945 2 -9.12414
      vertex 18.7945 4 -10.8759
      vertex 18.7945 4 -9.12414
    endloop
  endfacet
  facet normal 1 0 0
    outer loop
      vertex 18.7945 2 -9.12414
      vertex 18.7945 2 -10.8759
      vertex 18.7945 4 -10.8759
    endloop
  endfacet
  facet normal -0.809017 0 -0.587785
    outer loop
      vertex 20.4605 2 -8.58283
      vertex 21.4901 4 -10
      vertex 21.4901 2 -10
    endloop
  endfacet
  facet normal -0.809017 0 -0.587785
    outer loop
      vertex 20.4605 2 -8.58283
      vertex 20.4605 4 -8.58283
      vertex 21.4901 4 -10
    endloop
  endfacet
  facet normal 0.309017 0 -0.951057
    outer loop
      vertex 18.7945 4 -9.12414
      vertex 20.4605 4 -8.58283
      vertex 20.4605 2 -8.58283
    endloop
  endfacet
  facet normal 0.309017 0 -0.951057
    outer loop
      vertex 18.7945 2 -9.12414
      vertex 18.7945 4 -9.12414
      vertex 20.4605 2 -8.58283
    endloop
  endfacet
  facet normal 0.309017 -0 0.951057
    outer loop
      vertex 18.7945 2 -10.8759
      vertex 20.4605 4 -11.4172
      vertex 18.7945 4 -10.8759
    endloop
  endfacet
  facet normal 0.309017 0 0.951057
    outer loop
      vertex 18.7945 2 -10.8759
      vertex 20.4605 2 -11.4172
      vertex 20.4605 4 -11.4172
    endloop
  endfacet
  facet normal -0.809017 0 0.587785
    outer loop
      vertex 21.4901 2 -10
      vertex 21.4901 4 -10
      vertex 20.4605 4 -11.4172
    endloop
  endfacet
  facet normal -0.809017 0 0.587785
    outer loop
      vertex 20.4605 2 -11.4172
      vertex 21.4901 2 -10
      vertex 20.4605 4 -11.4172
    endloop
  endfacet
  facet normal -1 0 0
    outer loop
      vertex 0 20 -8.88178e-15
      vertex 0 6 -2.66454e-15
      vertex 0 20 5
    endloop
  endfacet
  facet normal -1 0 0
    outer loop
      vertex 0 6 -20
      vertex 0 -4.44089e-15 -20
      vertex 0 6 -2.66454e-15
    endloop
  endfacet
  facet normal -1 0 0
    outer loop
      vertex 0 6 -2.66454e-15
      vertex 0 0 0
      vertex 0 2.22045e-15 5
    endloop
  endfacet
  facet normal -1 -0 0
    outer loop
      vertex 0 20 5
      vertex 0 6 -2.66454e-15
      vertex 0 2.22045e-15 5
    endloop
  endfacet
  facet normal -1 0 0
    outer loop
      vertex 0 -4.44089e-15 -20
      vertex 0 0 0
      vertex 0 6 -2.66454e-15
    endloop
  endfacet
  facet normal 0 -1 2.22045e-16
    outer loop
      vertex 16.9295 -2.42064e-15 -10.9016
      vertex 0 0 0
      vertex 0 -4.44089e-15 -20
    endloop
  endfacet
  facet normal 0 -1 2.22045e-16
    outer loop
      vertex 19.5446 -1.51711e-15 -6.83247
      vertex 40 0 0
      vertex 0 0 0
    endloop
  endfacet
  facet normal 0 -1 2.22045e-16
    outer loop
      vertex 21.3294 -1.57409e-15 -7.08909
      vertex 40 0 0
      vertex 19.5446 -1.51711e-15 -6.83247
    endloop
  endfacet
  facet normal 0 -1 2.22045e-16
    outer loop
      vertex 16.9295 -2.42064e-15 -10.9016
      vertex 16.9295 -2.02026e-15 -9.09843
      vertex 0 0 0
    endloop
  endfacet
  facet normal 0 -1 2.22045e-16
    outer loop
      vertex 22.6921 -1.83629e-15 -8.2699
      vertex 23.2001 -2.22045e-15 -10
      vertex 40 0 0
    endloop
  endfacet
  facet normal 0 -1 2.22045e-16
    outer loop
      vertex 16.9295 -2.02026e-15 -9.09843
      vertex 17.9044 -1.68344e-15 -7.58153
      vertex 0 0 0
    endloop
  endfacet
  facet normal 0 -1 2.22045e-16
    outer loop
      vertex 17.9044 -1.68344e-15 -7.58153
      vertex 19.5446 -1.51711e-15 -6.83247
      vertex 0 0 0
    endloop
  endfacet
  facet normal 0 -1 2.22045e-16
    outer loop
      vertex 22.6921 -1.83629e-15 -8.2699
      vertex 40 0 0
      vertex 21.3294 -1.57409e-15 -7.08909
    endloop
  endfacet
  facet normal 0 -1 2.22045e-16
    outer loop
      vertex 23.2001 -2.22045e-15 -10
      vertex 40 -4.44089e-15 -20
      vertex 40 0 0
    endloop
  endfacet
  facet normal 0 -1 2.22045e-16
    outer loop
      vertex 22.6921 -2.60461e-15 -11.7301
      vertex 40 -4.44089e-15 -20
      vertex 23.2001 -2.22045e-15 -10
    endloop
  endfacet
  facet normal 0 -1 2.22045e-16
    outer loop
      vertex 19.5446 -2.92378e-15 -13.1675
      vertex 0 -4.44089e-15 -20
      vertex 40 -4.44089e-15 -20
    endloop
  endfacet
  facet normal 0 -1 2.22045e-16
    outer loop
      vertex 40 -4.44089e-15 -20
      vertex 21.3294 -2.8668e-15 -12.9109
      vertex 19.5446 -2.92378e-15 -13.1675
    endloop
  endfacet
  facet normal 0 -1 2.22045e-16
    outer loop
      vertex 40 -4.44089e-15 -20
      vertex 22.6921 -2.60461e-15 -11.7301
      vertex 21.3294 -2.8668e-15 -12.9109
    endloop
  endfacet
  facet normal 0 -1 2.22045e-16
    outer loop
      vertex 17.9044 -2.75746e-15 -12.4185
      vertex 0 -4.44089e-15 -20
      vertex 19.5446 -2.92378e-15 -13.1675
    endloop
  endfacet
  facet normal 0 -1 2.22045e-16
    outer loop
      vertex 16.9295 -2.42064e-15 -10.9016
      vertex 0 -4.44089e-15 -20
      vertex 17.9044 -2.75746e-15 -12.4185
    endloop
  endfacet
  facet normal 0 0 -1
    outer loop
      vertex 40 -4.44089e-15 -20
      vertex 0 -4.44089e-15 -20
      vertex 0 6 -20
    endloop
  endfacet
  facet normal -0 -0 -1
    outer loop
      vertex 40 6 -20
      vertex 40 -4.44089e-15 -20
      vertex 0 6 -20
    endloop
  endfacet
  facet normal 0 1 -1.2287e-16
    outer loop
      vertex 21.6 6 -7.22863
      vertex 0 6 -2.66454e-15
      vertex 40 6 -2.66454e-15
    endloop
  endfacet
  facet normal -6.32816e-17 1 -2.83948e-16
    outer loop
      vertex 18.3999 6 -7.22863
      vertex 16.7999 6 -10
      vertex 0 6 -2.66454e-15
    endloop
  endfacet
  facet normal 1.87825e-32 1 -1.77636e-16
    outer loop
      vertex 16.7999 6 -10
      vertex 0 6 -20
      vertex 0 6 -2.66454e-15
    endloop
  endfacet
  facet normal 6.32816e-17 1 -2.83948e-16
    outer loop
      vertex 18.4 6 -12.7714
      vertex 0 6 -20
      vertex 16.7999 6 -10
    endloop
  endfacet
  facet normal 0 1 -1.2287e-16
    outer loop
      vertex 21.6 6 -12.7714
      vertex 0 6 -20
      vertex 18.4 6 -12.7714
    endloop
  endfacet
  facet normal -6.32816e-17 1 -2.83948e-16
    outer loop
      vertex 40 6 -20
      vertex 21.6 6 -12.7714
      vertex 23.2001 6 -10
    endloop
  endfacet
  facet normal 0 1 -1.2287e-16
    outer loop
      vertex 40 6 -20
      vertex 0 6 -20
      vertex 21.6 6 -12.7714
    endloop
  endfacet
  facet normal -1.87825e-32 1 -1.77636e-16
    outer loop
      vertex 40 6 -2.66454e-15
      vertex 40 6 -20
      vertex 23.2001 6 -10
    endloop
  endfacet
  facet normal 3.41021e-32 1 -1.2287e-16
    outer loop
      vertex 0 6 -2.66454e-15
      vertex 21.6 6 -7.22863
      vertex 18.3999 6 -7.22863
    endloop
  endfacet
  facet normal 6.32816e-17 1 -2.83948e-16
    outer loop
      vertex 40 6 -2.66454e-15
      vertex 23.2001 6 -10
      vertex 21.6 6 -7.22863
    endloop
  endfacet
  facet normal 1 0 0
    outer loop
      vertex 40 6 -2.66454e-15
      vertex 40 2.22045e-15 5
      vertex 40 0 0
    endloop
  endfacet
  facet normal 1 0 -0
    outer loop
      vertex 40 6 -2.66454e-15
      vertex 40 20 5
      vertex 40 2.22045e-15 5
    endloop
  endfacet
  facet normal 1 0 0
    outer loop
      vertex 40 -4.44089e-15 -20
      vertex 40 6 -20
      vertex 40 6 -2.66454e-15
    endloop
  endfacet
  facet normal 1 0 -0
    outer loop
      vertex 40 20 -8.88178e-15
      vertex 40 20 5
      vertex 40 6 -2.66454e-15
    endloop
  endfacet
  facet normal 1 0 0
    outer loop
      vertex 40 -4.44089e-15 -20
      vertex 40 6 -2.66454e-15
      vertex 40 0 0
    endloop
  endfacet
  facet normal 0 4.13466e-16 1
    outer loop
      vertex 28.2406 10.7406 5
      vertex 0 2.22045e-15 5
      vertex 40 2.22045e-15 5
    endloop
  endfacet
  facet normal 4.43386e-17 3.9968e-16 1
    outer loop
      vertex 7.5119 12.5 5
      vertex 0 20 5
      vertex 0 2.22045e-15 5
    endloop
  endfacet
  facet normal -7.73341e-17 4.728e-16 1
    outer loop
      vertex 7.5119 12.5 5
      vertex 0 2.22045e-15 5
      vertex 8.24065 10.7406 5
    endloop
  endfacet
  facet normal 1.05637e-16 4.61076e-16 1
    outer loop
      vertex 8.24065 14.2594 5
      vertex 0 20 5
      vertex 7.5119 12.5 5
    endloop
  endfacet
  facet normal -8.03789e-17 1.94052e-16 1
    outer loop
      vertex 10 14.9881 5
      vertex 0 20 5
      vertex 8.24065 14.2594 5
    endloop
  endfacet
  facet normal 0 3.54428e-16 1
    outer loop
      vertex 30 14.9881 5
      vertex 0 20 5
      vertex 10 14.9881 5
    endloop
  endfacet
  facet normal -5.96895e-32 5.04833e-16 1
    outer loop
      vertex 28.2406 10.7406 5
      vertex 27.5119 12.5 5
      vertex 12.4881 12.5 5
    endloop
  endfacet
  facet normal 0 0 1
    outer loop
      vertex 28.2406 14.2594 5
      vertex 10 14.9881 5
      vertex 11.7594 14.2594 5
    endloop
  endfacet
  facet normal 0 -0 1
    outer loop
      vertex 28.2406 14.2594 5
      vertex 30 14.9881 5
      vertex 10 14.9881 5
    endloop
  endfacet
  facet normal 0 4.13466e-16 1
    outer loop
      vertex 28.2406 10.7406 5
      vertex 11.7594 10.7406 5
      vertex 0 2.22045e-15 5
    endloop
  endfacet
  facet normal 1.29961e-16 3.13754e-16 1
    outer loop
      vertex 0 2.22045e-15 5
      vertex 10 10.0119 5
      vertex 8.24065 10.7406 5
    endloop
  endfacet
  facet normal -3.13382e-16 7.56571e-16 1
    outer loop
      vertex 0 2.22045e-15 5
      vertex 11.7594 10.7406 5
      vertex 10 10.0119 5
    endloop
  endfacet
  facet normal -0 5.04833e-16 1
    outer loop
      vertex 11.7594 10.7406 5
      vertex 28.2406 10.7406 5
      vertex 12.4881 12.5 5
    endloop
  endfacet
  facet normal 8.03789e-17 1.94052e-16 1
    outer loop
      vertex 31.7594 14.2594 5
      vertex 40 20 5
      vertex 30 14.9881 5
    endloop
  endfacet
  facet normal -5.96895e-32 5.04833e-16 1
    outer loop
      vertex 12.4881 12.5 5
      vertex 27.5119 12.5 5
      vertex 11.7594 14.2594 5
    endloop
  endfacet
  facet normal 0 3.54428e-16 1
    outer loop
      vertex 30 14.9881 5
      vertex 40 20 5
      vertex 0 20 5
    endloop
  endfacet
  facet normal 0 5.04833e-16 1
    outer loop
      vertex 27.5119 12.5 5
      vertex 28.2406 14.2594 5
      vertex 11.7594 14.2594 5
    endloop
  endfacet
  facet normal -4.43386e-17 3.9968e-16 1
    outer loop
      vertex 32.4881 12.5 5
      vertex 40 2.22045e-15 5
      vertex 40 20 5
    endloop
  endfacet
  facet normal -1.05637e-16 4.61076e-16 1
    outer loop
      vertex 32.4881 12.5 5
      vertex 40 20 5
      vertex 31.7594 14.2594 5
    endloop
  endfacet
  facet normal 7.73341e-17 4.728e-16 1
    outer loop
      vertex 31.7594 10.7406 5
      vertex 40 2.22045e-15 5
      vertex 32.4881 12.5 5
    endloop
  endfacet
  facet normal -1.29961e-16 3.13754e-16 1
    outer loop
      vertex 30 10.0119 5
      vertex 40 2.22045e-15 5
      vertex 31.7594 10.7406 5
    endloop
  endfacet
  facet normal 3.13382e-16 7.56571e-16 1
    outer loop
      vertex 28.2406 10.7406 5
      vertex 40 2.22045e-15 5
      vertex 30 10.0119 5
    endloop
  endfacet
  facet normal 0 -1 4.44089e-16
    outer loop
      vertex 40 0 0
      vertex 0 2.22045e-15 5
      vertex 0 0 0
    endloop
  endfacet
  facet normal 0 -1 4.44089e-16
    outer loop
      vertex 40 0 0
      vertex 40 2.22045e-15 5
      vertex 0 2.22045e-15 5
    endloop
  endfacet
  facet normal 1.63907e-31 -4.44089e-16 -1
    outer loop
      vertex 5.50042 13.4564 -5.97585e-15
      vertex 0 6 -2.66454e-15
      vertex 0 20 -8.88178e-15
    endloop
  endfacet
  facet normal 1.81522e-33 -4.44089e-16 -1
    outer loop
      vertex 11.4215 8.12504 -3.60824e-15
      vertex 29.5192 7.9251 -3.51945e-15
      vertex 0 6 -2.66454e-15
    endloop
  endfacet
  facet normal 7.4977e-32 -4.44089e-16 -1
    outer loop
      vertex 5.50042 11.5436 -5.12638e-15
      vertex 0 6 -2.66454e-15
      vertex 5.50042 13.4564 -5.97585e-15
    endloop
  endfacet
  facet normal 5.66517e-32 -4.44089e-16 -1
    outer loop
      vertex 6.27844 9.79613 -4.35036e-15
      vertex 0 6 -2.66454e-15
      vertex 5.50042 11.5436 -5.12638e-15
    endloop
  endfacet
  facet normal 4.40468e-32 -4.44089e-16 -1
    outer loop
      vertex 7.69995 8.5162 -3.78195e-15
      vertex 0 6 -2.66454e-15
      vertex 6.27844 9.79613 -4.35036e-15
    endloop
  endfacet
  facet normal 2.16034e-32 -4.44089e-16 -1
    outer loop
      vertex 9.51916 7.9251 -3.51945e-15
      vertex 0 6 -2.66454e-15
      vertex 7.69995 8.5162 -3.78195e-15
    endloop
  endfacet
  facet normal -4.20464e-32 -4.44089e-16 -1
    outer loop
      vertex 11.4215 8.12504 -3.60824e-15
      vertex 0 6 -2.66454e-15
      vertex 9.51916 7.9251 -3.51945e-15
    endloop
  endfacet
  facet normal 0 -4.44089e-16 -1
    outer loop
      vertex 13.0781 9.08146 -4.03298e-15
      vertex 14.2024 10.629 -4.72021e-15
      vertex 26.2784 9.79613 -4.35036e-15
    endloop
  endfacet
  facet normal 0 -4.44089e-16 -1
    outer loop
      vertex 14.2024 10.629 -4.72021e-15
      vertex 14.6001 12.5 -5.55112e-15
      vertex 25.5004 11.5436 -5.12638e-15
    endloop
  endfacet
  facet normal 0 -4.44089e-16 -1
    outer loop
      vertex 14.6001 12.5 -5.55112e-15
      vertex 25.5004 13.4564 -5.97585e-15
      vertex 25.5004 11.5436 -5.12638e-15
    endloop
  endfacet
  facet normal 0 -4.44089e-16 -1
    outer loop
      vertex 29.5192 7.9251 -3.51945e-15
      vertex 40 6 -2.66454e-15
      vertex 0 6 -2.66454e-15
    endloop
  endfacet
  facet normal 0 -4.44089e-16 -1
    outer loop
      vertex 13.0781 15.9185 -7.06925e-15
      vertex 27.7 16.4838 -7.32028e-15
      vertex 26.2784 15.2039 -6.75188e-15
    endloop
  endfacet
  facet normal 0 -4.44089e-16 -1
    outer loop
      vertex 11.4215 16.875 -7.49399e-15
      vertex 29.5192 17.0749 -7.58278e-15
      vertex 27.7 16.4838 -7.32028e-15
    endloop
  endfacet
  facet normal -0 -4.44089e-16 -1
    outer loop
      vertex 40 20 -8.88178e-15
      vertex 29.5192 17.0749 -7.58278e-15
      vertex 0 20 -8.88178e-15
    endloop
  endfacet
  facet normal -2.15462e-31 -4.44089e-16 -1
    outer loop
      vertex 0 20 -8.88178e-15
      vertex 11.4215 16.875 -7.49399e-15
      vertex 9.51916 17.0749 -7.58278e-15
    endloop
  endfacet
  facet normal 7.20545e-32 -4.44089e-16 -1
    outer loop
      vertex 0 20 -8.88178e-15
      vertex 9.51916 17.0749 -7.58278e-15
      vertex 7.69995 16.4838 -7.32028e-15
    endloop
  endfacet
  facet normal 2.14616e-31 -4.44089e-16 -1
    outer loop
      vertex 0 20 -8.88178e-15
      vertex 6.27844 15.2039 -6.75188e-15
      vertex 5.50042 13.4564 -5.97585e-15
    endloop
  endfacet
  facet normal 1.06217e-31 -4.44089e-16 -1
    outer loop
      vertex 0 20 -8.88178e-15
      vertex 7.69995 16.4838 -7.32028e-15
      vertex 6.27844 15.2039 -6.75188e-15
    endloop
  endfacet
  facet normal 0 -4.44089e-16 -1
    outer loop
      vertex 14.2024 14.371 -6.38202e-15
      vertex 25.5004 13.4564 -5.97585e-15
      vertex 14.6001 12.5 -5.55112e-15
    endloop
  endfacet
  facet normal -1.28444e-32 -4.44089e-16 -1
    outer loop
      vertex 31.4215 8.12504 -3.60824e-15
      vertex 40 6 -2.66454e-15
      vertex 29.5192 7.9251 -3.51945e-15
    endloop
  endfacet
  facet normal 0 -4.44089e-16 -1
    outer loop
      vertex 14.2024 10.629 -4.72021e-15
      vertex 25.5004 11.5436 -5.12638e-15
      vertex 26.2784 9.79613 -4.35036e-15
    endloop
  endfacet
  facet normal -1.66958e-31 -4.44089e-16 -1
    outer loop
      vertex 34.6001 12.5 -5.55112e-15
      vertex 40 20 -8.88178e-15
      vertex 40 6 -2.66454e-15
    endloop
  endfacet
  facet normal 0 -4.44089e-16 -1
    outer loop
      vertex 13.0781 9.08146 -4.03298e-15
      vertex 26.2784 9.79613 -4.35036e-15
      vertex 27.6999 8.5162 -3.78195e-15
    endloop
  endfacet
  facet normal 0 -4.44089e-16 -1
    outer loop
      vertex 13.0781 9.08146 -4.03298e-15
      vertex 27.6999 8.5162 -3.78195e-15
      vertex 11.4215 8.12504 -3.60824e-15
    endloop
  endfacet
  facet normal 0 -4.44089e-16 -1
    outer loop
      vertex 27.6999 8.5162 -3.78195e-15
      vertex 29.5192 7.9251 -3.51945e-15
      vertex 11.4215 8.12504 -3.60824e-15
    endloop
  endfacet
  facet normal -3.36405e-32 -4.44089e-16 -1
    outer loop
      vertex 33.0781 9.08146 -4.03298e-15
      vertex 40 6 -2.66454e-15
      vertex 31.4215 8.12504 -3.60824e-15
    endloop
  endfacet
  facet normal -2.78231e-32 -4.44089e-16 -1
    outer loop
      vertex 34.2024 10.629 -4.72021e-15
      vertex 40 6 -2.66454e-15
      vertex 33.0781 9.08146 -4.03298e-15
    endloop
  endfacet
  facet normal -6.21717e-32 -4.44089e-16 -1
    outer loop
      vertex 34.6001 12.5 -5.55112e-15
      vertex 40 6 -2.66454e-15
      vertex 34.2024 10.629 -4.72021e-15
    endloop
  endfacet
  facet normal -1.80847e-31 -4.44089e-16 -1
    outer loop
      vertex 34.2024 14.371 -6.38202e-15
      vertex 40 20 -8.88178e-15
      vertex 34.6001 12.5 -5.55112e-15
    endloop
  endfacet
  facet normal -1.54672e-31 -4.44089e-16 -1
    outer loop
      vertex 33.0781 15.9185 -7.06925e-15
      vertex 40 20 -8.88178e-15
      vertex 34.2024 14.371 -6.38202e-15
    endloop
  endfacet
  facet normal 0 -4.44089e-16 -1
    outer loop
      vertex 27.7 16.4838 -7.32028e-15
      vertex 13.0781 15.9185 -7.06925e-15
      vertex 11.4215 16.875 -7.49399e-15
    endloop
  endfacet
  facet normal -1.17904e-31 -4.44089e-16 -1
    outer loop
      vertex 40 20 -8.88178e-15
      vertex 33.0781 15.9185 -7.06925e-15
      vertex 31.4215 16.875 -7.49399e-15
    endloop
  endfacet
  facet normal 1.3407e-32 -4.44089e-16 -1
    outer loop
      vertex 0 20 -8.88178e-15
      vertex 29.5192 17.0749 -7.58278e-15
      vertex 11.4215 16.875 -7.49399e-15
    endloop
  endfacet
  facet normal -1.02982e-31 -4.44089e-16 -1
    outer loop
      vertex 40 20 -8.88178e-15
      vertex 31.4215 16.875 -7.49399e-15
      vertex 29.5192 17.0749 -7.58278e-15
    endloop
  endfacet
  facet normal 0 -4.44089e-16 -1
    outer loop
      vertex 26.2784 15.2039 -6.75188e-15
      vertex 14.2024 14.371 -6.38202e-15
      vertex 13.0781 15.9185 -7.06925e-15
    endloop
  endfacet
  facet normal 0 -4.44089e-16 -1
    outer loop
      vertex 25.5004 13.4564 -5.97585e-15
      vertex 14.2024 14.371 -6.38202e-15
      vertex 26.2784 15.2039 -6.75188e-15
    endloop
  endfacet
  facet normal 0 1 -7.10543e-16
    outer loop
      vertex 40 20 -8.88178e-15
      vertex 0 20 5
      vertex 40 20 5
    endloop
  endfacet
  facet normal 0 1 -7.10543e-16
    outer loop
      vertex 40 20 -8.88178e-15
      vertex 0 20 -8.88178e-15
      vertex 0 20 5
    endloop
  endfacet
  facet normal 0.866025 0 -0.5
    outer loop
      vertex 16.7999 6 -10
      vertex 18.3999 6 -7.22863
      vertex 18.3999 4 -7.22863
    endloop
  endfacet
  facet normal 0.866025 0 -0.5
    outer loop
      vertex 16.7999 4 -10
      vertex 16.7999 6 -10
      vertex 18.3999 4 -7.22863
    endloop
  endfacet
  facet normal 9.42633e-17 1 -2.14665e-16
    outer loop
      vertex 18.7945 4 -9.12414
      vertex 16.7999 4 -10
      vertex 18.3999 4 -7.22863
    endloop
  endfacet
  facet normal 1.09739e-16 1 -2.57126e-16
    outer loop
      vertex 18.7945 4 -10.8759
      vertex 18.4 4 -12.7714
      vertex 16.7999 4 -10
    endloop
  endfacet
  facet normal 9.10174e-32 1 -3.27935e-16
    outer loop
      vertex 20.4605 4 -8.58283
      vertex 18.3999 4 -7.22863
      vertex 21.6 4 -7.22863
    endloop
  endfacet
  facet normal 1.11324e-16 1 -2.53516e-16
    outer loop
      vertex 18.7945 4 -9.12414
      vertex 18.7945 4 -10.8759
      vertex 16.7999 4 -10
    endloop
  endfacet
  facet normal -7.13017e-17 1 -2.19444e-16
    outer loop
      vertex 20.4605 4 -11.4172
      vertex 18.4 4 -12.7714
      vertex 18.7945 4 -10.8759
    endloop
  endfacet
  facet normal 9.2927e-18 1 -3.20115e-16
    outer loop
      vertex 21.6 4 -12.7714
      vertex 20.4605 4 -11.4172
      vertex 21.4901 4 -10
    endloop
  endfacet
  facet normal 0 1 -3.27935e-16
    outer loop
      vertex 21.6 4 -12.7714
      vertex 18.4 4 -12.7714
      vertex 20.4605 4 -11.4172
    endloop
  endfacet
  facet normal 0 1 -1.60242e-16
    outer loop
      vertex 23.2001 4 -10
      vertex 21.4901 4 -10
      vertex 21.6 4 -7.22863
    endloop
  endfacet
  facet normal 0 1 -3.20484e-16
    outer loop
      vertex 23.2001 4 -10
      vertex 21.6 4 -12.7714
      vertex 21.4901 4 -10
    endloop
  endfacet
  facet normal -2.09134e-16 1 -1.51945e-16
    outer loop
      vertex 21.4901 4 -10
      vertex 20.4605 4 -8.58283
      vertex 21.6 4 -7.22863
    endloop
  endfacet
  facet normal 7.13017e-17 1 -2.19444e-16
    outer loop
      vertex 20.4605 4 -8.58283
      vertex 18.7945 4 -9.12414
      vertex 18.3999 4 -7.22863
    endloop
  endfacet
  facet normal 2.77547e-16 0 -1
    outer loop
      vertex 18.3999 6 -7.22863
      vertex 21.6 6 -7.22863
      vertex 21.6 4 -7.22863
    endloop
  endfacet
  facet normal 2.77547e-16 0 -1
    outer loop
      vertex 18.3999 4 -7.22863
      vertex 18.3999 6 -7.22863
      vertex 21.6 4 -7.22863
    endloop
  endfacet
  facet normal 0.866025 -0 0.5
    outer loop
      vertex 16.7999 4 -10
      vertex 18.4 6 -12.7714
      vertex 16.7999 6 -10
    endloop
  endfacet
  facet normal 0.866025 0 0.5
    outer loop
      vertex 16.7999 4 -10
      vertex 18.4 4 -12.7714
      vertex 18.4 6 -12.7714
    endloop
  endfacet
  facet normal -0.866025 0 -0.5
    outer loop
      vertex 21.6 4 -7.22863
      vertex 23.2001 6 -10
      vertex 23.2001 4 -10
    endloop
  endfacet
  facet normal -0.866025 0 -0.5
    outer loop
      vertex 21.6 4 -7.22863
      vertex 21.6 6 -7.22863
      vertex 23.2001 6 -10
    endloop
  endfacet
  facet normal -0.866025 0 0.5
    outer loop
      vertex 23.2001 4 -10
      vertex 23.2001 6 -10
      vertex 21.6 6 -12.7714
    endloop
  endfacet
  facet normal -0.866025 0 0.5
    outer loop
      vertex 21.6 4 -12.7714
      vertex 23.2001 4 -10
      vertex 21.6 6 -12.7714
    endloop
  endfacet
  facet normal 0 -0 1
    outer loop
      vertex 21.6 4 -12.7714
      vertex 21.6 6 -12.7714
      vertex 18.4 6 -12.7714
    endloop
  endfacet
  facet normal 0 0 1
    outer loop
      vertex 18.4 4 -12.7714
      vertex 21.6 4 -12.7714
      vertex 18.4 6 -12.7714
    endloop
  endfacet
endsolid OpenSCAD_Model
