solid OpenSCAD_Model
  facet normal -1 0 0
    outer loop
      vertex -10 -8.5 0
      vertex -10 -8.5 350
      vertex -10 -4.5 0
    endloop
  endfacet
  facet normal -1 0 0
    outer loop
      vertex -10 -4.5 0
      vertex -10 -8.5 350
      vertex -10 -4.5 350
    endloop
  endfacet
  facet normal 0 -1 0
    outer loop
      vertex -10 -8.5 350
      vertex -10 -8.5 0
      vertex -9.71352 -8.5 0
    endloop
  endfacet
  facet normal 0 -1 0
    outer loop
      vertex -9.71352 -8.5 350
      vertex -10 -8.5 350
      vertex -9.71352 -8.5 0
    endloop
  endfacet
  facet normal 0 0 -1
    outer loop
      vertex -10 -8.5 0
      vertex -10 -4.5 0
      vertex -9.71352 -8.5 0
    endloop
  endfacet
  facet normal 0 0 -1
    outer loop
      vertex -9.71352 -8.5 0
      vertex -10 -4.5 0
      vertex -8.31512 -2.89 0
    endloop
  endfacet
  facet normal 0 0 -1
    outer loop
      vertex -9.71352 -8.5 0
      vertex -8.31512 -2.89 0
      vertex -8.2 -2.89 0
    endloop
  endfacet
  facet normal 0 0 -1
    outer loop
      vertex -9.71352 -8.5 0
      vertex -8.2 -2.89 0
      vertex -8.2 -5.5 0
    endloop
  endfacet
  facet normal 0 0 -1
    outer loop
      vertex -8.2 -6.57 0
      vertex -8.2 -5.5 0
      vertex -6.56 -5.5 0
    endloop
  endfacet
  facet normal 0 0 -1
    outer loop
      vertex -3.9 -2.84 0
      vertex -3.9 -0.21 0
      vertex -3.69 -4.51895e-16 0
    endloop
  endfacet
  facet normal 0 0 -1
    outer loop
      vertex -3.69 -4.51895e-16 0
      vertex -3.9 0.21 0
      vertex -3.9 2.84 0
    endloop
  endfacet
  facet normal 0 0 -1
    outer loop
      vertex -8.2 2.89 0
      vertex -8.31512 2.89 0
      vertex -8.2 5.5 0
    endloop
  endfacet
  facet normal 0 0 -1
    outer loop
      vertex -2.84 3.9 0
      vertex -3.69 -4.51895e-16 0
      vertex -3.9 2.84 0
    endloop
  endfacet
  facet normal 0 0 -1
    outer loop
      vertex -8.2 5.5 0
      vertex -10 4.5 0
      vertex -10 8.5 0
    endloop
  endfacet
  facet normal 0 0 -1
    outer loop
      vertex -6.57 7.66 0
      vertex -3.9 2.84 0
      vertex -6.56 5.5 0
    endloop
  endfacet
  facet normal 0 0 -1
    outer loop
      vertex -6.57 7.66 0
      vertex -6.56 5.5 0
      vertex -7.66 6.57 0
    endloop
  endfacet
  facet normal 0 0 -1
    outer loop
      vertex 1.30933 1.64185 0
      vertex 6.56 5.5 0
      vertex 3.9 2.84 0
    endloop
  endfacet
  facet normal 0 0 -1
    outer loop
      vertex -7.66 -6.57 0
      vertex -2.84 -3.9 0
      vertex -5.5 -6.56 0
    endloop
  endfacet
  facet normal 0 0 -1
    outer loop
      vertex -8.2 8.2 0
      vertex -9.71352 9.38168 0
      vertex -8.5 9.77598 0
    endloop
  endfacet
  facet normal 0 0 -1
    outer loop
      vertex -8.2 6.57 0
      vertex -9.71352 8.5 0
      vertex -9.71352 9.38168 0
    endloop
  endfacet
  facet normal 0 0 -1
    outer loop
      vertex -5.5 8.2 0
      vertex -8.5 10 0
      vertex -4.5 10 0
    endloop
  endfacet
  facet normal 0 0 -1
    outer loop
      vertex -5.5 8.2 0
      vertex -2.89 8.31512 0
      vertex -2.89 8.2 0
    endloop
  endfacet
  facet normal 0 0 -1
    outer loop
      vertex -5.5 8.2 0
      vertex -4.5 10 0
      vertex -2.89 8.31512 0
    endloop
  endfacet
  facet normal 0 0 -1
    outer loop
      vertex -2.84 3.9 0
      vertex -3.9 2.84 0
      vertex -5.5 6.56 0
    endloop
  endfacet
  facet normal 0 0 -1
    outer loop
      vertex -6.57 8.2 0
      vertex -8.5 10 0
      vertex -5.5 8.2 0
    endloop
  endfacet
  facet normal 0 0 -1
    outer loop
      vertex -2.84 3.9 0
      vertex -3.9 -2.84 0
      vertex -3.69 -4.51895e-16 0
    endloop
  endfacet
  facet normal 0 0 -1
    outer loop
      vertex 4.5 10 0
      vertex 5.5 8.2 0
      vertex 2.89 8.31512 0
    endloop
  endfacet
  facet normal 0 0 -1
    outer loop
      vertex -1.89203 -0.911156 0
      vertex -6.56 -5.5 0
      vertex -3.9 -2.84 0
    endloop
  endfacet
  facet normal 0 0 -1
    outer loop
      vertex -1.89203 -0.911156 0
      vertex -3.9 -2.84 0
      vertex -1.89203 0.911156 0
    endloop
  endfacet
  facet normal 0 0 -1
    outer loop
      vertex 6.57 8.2 0
      vertex 8.5 10 0
      vertex 8.5 9.77598 0
    endloop
  endfacet
  facet normal 0 0 -1
    outer loop
      vertex -0.467294 2.04735 0
      vertex 0.21 3.9 0
      vertex 2.84 3.9 0
    endloop
  endfacet
  facet normal 0 0 -1
    outer loop
      vertex -0.467294 -2.04735 0
      vertex -6.56 -5.5 0
      vertex -1.89203 -0.911156 0
    endloop
  endfacet
  facet normal 0 0 -1
    outer loop
      vertex -1.89203 0.911156 0
      vertex 0.21 3.9 0
      vertex -0.467294 2.04735 0
    endloop
  endfacet
  facet normal 0 0 -1
    outer loop
      vertex 2.89 8.2 0
      vertex 2.89 8.31512 0
      vertex 5.5 8.2 0
    endloop
  endfacet
  facet normal 0 0 -1
    outer loop
      vertex 8.2 5.5 0
      vertex 10 4.5 0
      vertex 8.2 2.89 0
    endloop
  endfacet
  facet normal 0 0 -1
    outer loop
      vertex 5.5 8.2 0
      vertex 4.5 10 0
      vertex 8.5 10 0
    endloop
  endfacet
  facet normal 0 0 -1
    outer loop
      vertex 7.66 6.57 0
      vertex 1.30933 1.64185 0
      vertex 2.84 3.9 0
    endloop
  endfacet
  facet normal 0 0 -1
    outer loop
      vertex 7.66 6.57 0
      vertex 2.84 3.9 0
      vertex 5.5 6.56 0
    endloop
  endfacet
  facet normal 0 0 -1
    outer loop
      vertex 8.2 -6.57 0
      vertex 10 -8.5 0
      vertex 8.2 -8.2 0
    endloop
  endfacet
  facet normal 0 0 -1
    outer loop
      vertex -0.467294 -2.04735 0
      vertex -7.66 -6.57 0
      vertex -6.56 -5.5 0
    endloop
  endfacet
  facet normal 0 0 -1
    outer loop
      vertex 8.2 8.2 0
      vertex 8.96352 9.92658 0
      vertex 10 8.5 0
    endloop
  endfacet
  facet normal 0 0 -1
    outer loop
      vertex 8.2 5.5 0
      vertex 10 8.5 0
      vertex 10 4.5 0
    endloop
  endfacet
  facet normal 0 0 -1
    outer loop
      vertex 8.2 2.89 0
      vertex 10 4.5 0
      vertex 8.31512 2.89 0
    endloop
  endfacet
  facet normal 0 0 -1
    outer loop
      vertex 3.9 0.21 0
      vertex 2.1 0 0
      vertex 3.9 2.84 0
    endloop
  endfacet
  facet normal 0 0 -1
    outer loop
      vertex 8.2 6.57 0
      vertex 10 8.5 0
      vertex 8.2 5.5 0
    endloop
  endfacet
  facet normal 0 0 -1
    outer loop
      vertex 6.57 8.2 0
      vertex 8.5 9.77598 0
      vertex 8.96352 9.92658 0
    endloop
  endfacet
  facet normal 0 0 -1
    outer loop
      vertex 6.57 8.2 0
      vertex 8.96352 9.92658 0
      vertex 8.2 8.2 0
    endloop
  endfacet
  facet normal 0 0 -1
    outer loop
      vertex 3.9 -0.21 0
      vertex 1.30933 -1.64185 0
      vertex 3.69 0 0
    endloop
  endfacet
  facet normal 0 0 -1
    outer loop
      vertex 2.89 -8.31512 0
      vertex 8.5 -10 0
      vertex 4.5 -10 0
    endloop
  endfacet
  facet normal 0 0 -1
    outer loop
      vertex 10 -4.5 0
      vertex 8.2 -5.5 0
      vertex 8.31512 -2.89 0
    endloop
  endfacet
  facet normal 0 0 -1
    outer loop
      vertex 0.21 -3.9 0
      vertex 3.9 -0.21 0
      vertex 3.9 -2.84 0
    endloop
  endfacet
  facet normal 0 0 -1
    outer loop
      vertex -2.84 -3.9 0
      vertex 1.30933 -1.64185 0
      vertex 8.19345e-16 -3.69 0
    endloop
  endfacet
  facet normal 0 0 -1
    outer loop
      vertex 8.2 -2.89 0
      vertex 8.31512 -2.89 0
      vertex 8.2 -5.5 0
    endloop
  endfacet
  facet normal 0 0 -1
    outer loop
      vertex 8.2 -5.5 0
      vertex 10 -4.5 0
      vertex 10 -8.5 0
    endloop
  endfacet
  facet normal 0 0 -1
    outer loop
      vertex 5.5 -8.2 0
      vertex 2.89 -8.31512 0
      vertex 2.89 -8.2 0
    endloop
  endfacet
  facet normal 0 0 -1
    outer loop
      vertex 8.5 -9.77598 0
      vertex 10 -8.5 0
      vertex 8.96352 -9.92658 0
    endloop
  endfacet
  facet normal 0 0 -1
    outer loop
      vertex -10 4.5 0
      vertex -8.2 5.5 0
      vertex -8.31512 2.89 0
    endloop
  endfacet
  facet normal 0 0 -1
    outer loop
      vertex 2.84 -3.9 0
      vertex 6.56 -5.5 0
      vertex 5.5 -6.56 0
    endloop
  endfacet
  facet normal 0 0 -1
    outer loop
      vertex 2.89 -8.31512 0
      vertex 8.5 -9.77598 0
      vertex 8.5 -10 0
    endloop
  endfacet
  facet normal 0 0 -1
    outer loop
      vertex 5.5 -8.2 0
      vertex 10 -8.5 0
      vertex 2.89 -8.31512 0
    endloop
  endfacet
  facet normal 0 0 -1
    outer loop
      vertex -8.2 -6.57 0
      vertex -6.56 -5.5 0
      vertex -7.66 -6.57 0
    endloop
  endfacet
  facet normal 0 0 -1
    outer loop
      vertex 6.57 -8.2 0
      vertex 10 -8.5 0
      vertex 5.5 -8.2 0
    endloop
  endfacet
  facet normal 0 0 -1
    outer loop
      vertex 5.5 -6.56 0
      vertex 8.2 -5.5 0
      vertex 5.5 -8.2 0
    endloop
  endfacet
  facet normal 0 0 -1
    outer loop
      vertex 6.56 -5.5 0
      vertex 8.2 -5.5 0
      vertex 5.5 -6.56 0
    endloop
  endfacet
  facet normal 0 0 -1
    outer loop
      vertex -2.84 -3.9 0
      vertex 8.19345e-16 -3.69 0
      vertex -0.21 -3.9 0
    endloop
  endfacet
  facet normal 0 0 -1
    outer loop
      vertex 3.9 -2.84 0
      vertex 6.56 -5.5 0
      vertex 2.84 -3.9 0
    endloop
  endfacet
  facet normal 0 0 -1
    outer loop
      vertex 1.30933 -1.64185 0
      vertex 3.9 -0.21 0
      vertex 8.19345e-16 -3.69 0
    endloop
  endfacet
  facet normal 0 0 -1
    outer loop
      vertex 8.19345e-16 -3.69 0
      vertex 3.9 -0.21 0
      vertex 0.21 -3.9 0
    endloop
  endfacet
  facet normal 0 0 -1
    outer loop
      vertex 2.1 0 0
      vertex 3.69 0 0
      vertex 1.30933 -1.64185 0
    endloop
  endfacet
  facet normal 0 0 -1
    outer loop
      vertex -1.89203 0.911156 0
      vertex -8.19345e-16 3.69 0
      vertex 0.21 3.9 0
    endloop
  endfacet
  facet normal 0 0 -1
    outer loop
      vertex -5.5 -8.2 0
      vertex -6.57 -7.66 0
      vertex -5.5 -6.56 0
    endloop
  endfacet
  facet normal 0 0 -1
    outer loop
      vertex -6.57 -8.2 0
      vertex -9.71352 -8.5 0
      vertex -8.2 -8.2 0
    endloop
  endfacet
  facet normal 0 0 -1
    outer loop
      vertex 2.1 0 0
      vertex 3.9 0.21 0
      vertex 3.69 0 0
    endloop
  endfacet
  facet normal 0 0 -1
    outer loop
      vertex -6.57 -8.2 0
      vertex -5.5 -8.2 0
      vertex -9.71352 -8.5 0
    endloop
  endfacet
  facet normal 0 0 -1
    outer loop
      vertex -5.5 -8.2 0
      vertex -2.89 -8.2 0
      vertex -9.71352 -8.5 0
    endloop
  endfacet
  facet normal 0 0 -1
    outer loop
      vertex -2.89 -8.2 0
      vertex -2.89 -8.31512 0
      vertex -9.71352 -8.5 0
    endloop
  endfacet
  facet normal 0 0 -1
    outer loop
      vertex -4.5 -10 0
      vertex -8.5 -10 0
      vertex -8.5 -9.77598 0
    endloop
  endfacet
  facet normal 0 0 -1
    outer loop
      vertex -6.57 8.2 0
      vertex -5.5 6.56 0
      vertex -6.57 7.66 0
    endloop
  endfacet
  facet normal 0 0 -1
    outer loop
      vertex -7.66 -6.57 0
      vertex -5.5 -6.56 0
      vertex -6.57 -7.66 0
    endloop
  endfacet
  facet normal 0 0 -1
    outer loop
      vertex -8.2 6.57 0
      vertex -10 8.5 0
      vertex -9.71352 8.5 0
    endloop
  endfacet
  facet normal 0 0 -1
    outer loop
      vertex -8.2 5.5 0
      vertex -10 8.5 0
      vertex -8.2 6.57 0
    endloop
  endfacet
  facet normal 0 0 -1
    outer loop
      vertex -8.2 5.5 0
      vertex -8.2 6.57 0
      vertex -6.56 5.5 0
    endloop
  endfacet
  facet normal 0 0 -1
    outer loop
      vertex 1.30933 1.64185 0
      vertex 7.66 6.57 0
      vertex 6.56 5.5 0
    endloop
  endfacet
  facet normal 0 0 -1
    outer loop
      vertex -8.2 6.57 0
      vertex -9.71352 9.38168 0
      vertex -8.2 8.2 0
    endloop
  endfacet
  facet normal 0 0 -1
    outer loop
      vertex -3.9 2.84 0
      vertex -6.57 7.66 0
      vertex -5.5 6.56 0
    endloop
  endfacet
  facet normal 0 0 -1
    outer loop
      vertex 1.30933 1.64185 0
      vertex 3.9 2.84 0
      vertex 2.1 0 0
    endloop
  endfacet
  facet normal 0 0 -1
    outer loop
      vertex -5.5 6.56 0
      vertex -6.57 8.2 0
      vertex -5.5 8.2 0
    endloop
  endfacet
  facet normal 0 0 -1
    outer loop
      vertex -9.71352 -8.5 0
      vertex -8.2 -5.5 0
      vertex -8.2 -6.57 0
    endloop
  endfacet
  facet normal 0 0 -1
    outer loop
      vertex -8.2 -8.2 0
      vertex -9.71352 -8.5 0
      vertex -8.2 -6.57 0
    endloop
  endfacet
  facet normal 0 0 -1
    outer loop
      vertex -4.5 -10 0
      vertex -9.71352 -8.5 0
      vertex -2.89 -8.31512 0
    endloop
  endfacet
  facet normal 0 0 -1
    outer loop
      vertex 0.21 -3.9 0
      vertex 3.9 -2.84 0
      vertex 2.84 -3.9 0
    endloop
  endfacet
  facet normal 0 0 -1
    outer loop
      vertex -7.66 6.57 0
      vertex -6.56 5.5 0
      vertex -8.2 6.57 0
    endloop
  endfacet
  facet normal 0 0 -1
    outer loop
      vertex -2.84 3.9 0
      vertex -0.21 3.9 0
      vertex -1.89203 0.911156 0
    endloop
  endfacet
  facet normal 0 0 -1
    outer loop
      vertex -2.84 3.9 0
      vertex -1.89203 0.911156 0
      vertex -3.9 -2.84 0
    endloop
  endfacet
  facet normal 0 0 -1
    outer loop
      vertex -0.467294 -2.04735 0
      vertex -2.84 -3.9 0
      vertex -7.66 -6.57 0
    endloop
  endfacet
  facet normal 0 0 -1
    outer loop
      vertex -0.467294 2.04735 0
      vertex 2.84 3.9 0
      vertex 1.30933 1.64185 0
    endloop
  endfacet
  facet normal 0 0 -1
    outer loop
      vertex -5.5 -8.2 0
      vertex -6.57 -8.2 0
      vertex -6.57 -7.66 0
    endloop
  endfacet
  facet normal 0 0 -1
    outer loop
      vertex 1.30933 -1.64185 0
      vertex -2.84 -3.9 0
      vertex -0.467294 -2.04735 0
    endloop
  endfacet
  facet normal 0 0 -1
    outer loop
      vertex -1.89203 0.911156 0
      vertex -0.21 3.9 0
      vertex -8.19345e-16 3.69 0
    endloop
  endfacet
  facet normal 0 0 -1
    outer loop
      vertex 8.2 6.57 0
      vertex 6.56 5.5 0
      vertex 7.66 6.57 0
    endloop
  endfacet
  facet normal 0 0 -1
    outer loop
      vertex 5.5 8.2 0
      vertex 8.5 10 0
      vertex 6.57 8.2 0
    endloop
  endfacet
  facet normal 0 0 -1
    outer loop
      vertex 5.5 8.2 0
      vertex 6.57 8.2 0
      vertex 5.5 6.56 0
    endloop
  endfacet
  facet normal 0 0 -1
    outer loop
      vertex 7.66 6.57 0
      vertex 5.5 6.56 0
      vertex 6.57 7.66 0
    endloop
  endfacet
  facet normal 0 0 -1
    outer loop
      vertex 6.57 7.66 0
      vertex 5.5 6.56 0
      vertex 6.57 8.2 0
    endloop
  endfacet
  facet normal 0 0 -1
    outer loop
      vertex 8.2 8.2 0
      vertex 10 8.5 0
      vertex 8.2 6.57 0
    endloop
  endfacet
  facet normal 0 0 -1
    outer loop
      vertex 6.56 5.5 0
      vertex 8.2 6.57 0
      vertex 8.2 5.5 0
    endloop
  endfacet
  facet normal 0 0 -1
    outer loop
      vertex 8.2 -5.5 0
      vertex 6.57 -7.66 0
      vertex 5.5 -8.2 0
    endloop
  endfacet
  facet normal 0 0 -1
    outer loop
      vertex 8.2 -8.2 0
      vertex 10 -8.5 0
      vertex 6.57 -8.2 0
    endloop
  endfacet
  facet normal 0 0 -1
    outer loop
      vertex 6.57 -7.66 0
      vertex 6.57 -8.2 0
      vertex 5.5 -8.2 0
    endloop
  endfacet
  facet normal 0 0 -1
    outer loop
      vertex 8.2 -5.5 0
      vertex 10 -8.5 0
      vertex 8.2 -6.57 0
    endloop
  endfacet
  facet normal 0 0 -1
    outer loop
      vertex 8.2 -5.5 0
      vertex 8.2 -6.57 0
      vertex 7.66 -6.57 0
    endloop
  endfacet
  facet normal 0 0 -1
    outer loop
      vertex 8.2 -5.5 0
      vertex 7.66 -6.57 0
      vertex 6.57 -7.66 0
    endloop
  endfacet
  facet normal 0 0 -1
    outer loop
      vertex 2.89 -8.31512 0
      vertex 10 -8.5 0
      vertex 8.5 -9.77598 0
    endloop
  endfacet
  facet normal 0 0 -1
    outer loop
      vertex -9.71352 -9.38168 0
      vertex -9.71352 -8.5 0
      vertex -8.5 -9.77598 0
    endloop
  endfacet
  facet normal 0 0 -1
    outer loop
      vertex -9.71352 -8.5 0
      vertex -4.5 -10 0
      vertex -8.5 -9.77598 0
    endloop
  endfacet
  facet normal 0 0 -1
    outer loop
      vertex -8.2 8.2 0
      vertex -8.5 10 0
      vertex -6.57 8.2 0
    endloop
  endfacet
  facet normal 0 0 -1
    outer loop
      vertex -8.2 8.2 0
      vertex -8.5 9.77598 0
      vertex -8.5 10 0
    endloop
  endfacet
  facet normal 0 0 1
    outer loop
      vertex -10 -4.5 350
      vertex -10 -8.5 350
      vertex -9.71352 -8.5 350
    endloop
  endfacet
  facet normal 0 0 1
    outer loop
      vertex -8.5 -9.77598 350
      vertex -10 -4.5 350
      vertex -9.71352 -8.5 350
    endloop
  endfacet
  facet normal 0 0 1
    outer loop
      vertex -9.71352 -9.38168 350
      vertex -8.5 -9.77598 350
      vertex -9.71352 -8.5 350
    endloop
  endfacet
  facet normal 0 0 1
    outer loop
      vertex -6.56 -5.5 350
      vertex -8.2 -5.5 350
      vertex -5.5 -6.56 350
    endloop
  endfacet
  facet normal 0 0 1
    outer loop
      vertex -8.5 -10 350
      vertex -4.5 -10 350
      vertex -8.5 -9.77598 350
    endloop
  endfacet
  facet normal 0 0 1
    outer loop
      vertex -5.5 -8.2 350
      vertex -5.5 -6.56 350
      vertex -8.2 -5.5 350
    endloop
  endfacet
  facet normal 0 0 1
    outer loop
      vertex -0.21 -3.9 350
      vertex 8.19345e-16 -3.69 350
      vertex -2.84 -3.9 350
    endloop
  endfacet
  facet normal 0 0 1
    outer loop
      vertex -7.66 -6.57 350
      vertex -5.5 -8.2 350
      vertex -10 -4.5 350
    endloop
  endfacet
  facet normal 0 0 1
    outer loop
      vertex -4.5 -10 350
      vertex -2.89 -8.31512 350
      vertex -5.5 -8.2 350
    endloop
  endfacet
  facet normal 0 0 1
    outer loop
      vertex 2.84 -3.9 350
      vertex 3.9 -2.84 350
      vertex 8.19345e-16 -3.69 350
    endloop
  endfacet
  facet normal 0 0 1
    outer loop
      vertex 8.19345e-16 -3.69 350
      vertex 3.9 -2.84 350
      vertex -2.84 -3.9 350
    endloop
  endfacet
  facet normal 0 0 1
    outer loop
      vertex 0.21 -3.9 350
      vertex 2.84 -3.9 350
      vertex 8.19345e-16 -3.69 350
    endloop
  endfacet
  facet normal 0 0 1
    outer loop
      vertex 2.89 -8.31512 350
      vertex 5.5 -8.2 350
      vertex 2.89 -8.2 350
    endloop
  endfacet
  facet normal 0 0 1
    outer loop
      vertex 1.30933 1.64185 350
      vertex 2.1 0 350
      vertex 3.9 2.84 350
    endloop
  endfacet
  facet normal 0 0 1
    outer loop
      vertex 8.31512 2.89 350
      vertex 10 4.5 350
      vertex 8.2 5.5 350
    endloop
  endfacet
  facet normal 0 0 1
    outer loop
      vertex 4.5 -10 350
      vertex 8.5 -10 350
      vertex 5.5 -8.2 350
    endloop
  endfacet
  facet normal 0 0 1
    outer loop
      vertex 7.66 -6.57 350
      vertex 8.2 -6.57 350
      vertex 6.56 -5.5 350
    endloop
  endfacet
  facet normal 0 0 1
    outer loop
      vertex 6.56 -5.5 350
      vertex 3.9 -2.84 350
      vertex 2.84 -3.9 350
    endloop
  endfacet
  facet normal 0 0 1
    outer loop
      vertex 2.1 0 350
      vertex 1.30933 -1.64185 350
      vertex 3.9 -0.21 350
    endloop
  endfacet
  facet normal 0 0 1
    outer loop
      vertex 5.5 8.2 350
      vertex 6.57 8.2 350
      vertex 8.5 9.77598 350
    endloop
  endfacet
  facet normal 0 0 1
    outer loop
      vertex 10 -8.5 350
      vertex 10 -4.5 350
      vertex 8.2 -5.5 350
    endloop
  endfacet
  facet normal 0 0 1
    outer loop
      vertex 7.66 -6.57 350
      vertex 6.56 -5.5 350
      vertex 2.84 -3.9 350
    endloop
  endfacet
  facet normal 0 0 1
    outer loop
      vertex 8.2 -6.57 350
      vertex 8.2 -5.5 350
      vertex 6.56 -5.5 350
    endloop
  endfacet
  facet normal 0 0 1
    outer loop
      vertex -3.9 -2.84 350
      vertex -2.84 -3.9 350
      vertex 3.9 -2.84 350
    endloop
  endfacet
  facet normal 0 0 1
    outer loop
      vertex 8.2 -8.2 350
      vertex 8.5 -10 350
      vertex 8.5 -9.77598 350
    endloop
  endfacet
  facet normal 0 0 1
    outer loop
      vertex 6.57 -8.2 350
      vertex 6.57 -7.66 350
      vertex 5.5 -6.56 350
    endloop
  endfacet
  facet normal 0 0 1
    outer loop
      vertex 8.31512 2.89 350
      vertex 8.2 5.5 350
      vertex 8.2 2.89 350
    endloop
  endfacet
  facet normal 0 0 1
    outer loop
      vertex -0.467294 2.04735 350
      vertex 1.30933 1.64185 350
      vertex 6.56 5.5 350
    endloop
  endfacet
  facet normal 0 0 1
    outer loop
      vertex -1.89203 0.911156 350
      vertex -3.69 -4.51895e-16 350
      vertex -3.9 -0.21 350
    endloop
  endfacet
  facet normal 0 0 1
    outer loop
      vertex 10 4.5 350
      vertex 10 8.5 350
      vertex 8.2 5.5 350
    endloop
  endfacet
  facet normal 0 0 1
    outer loop
      vertex -0.467294 2.04735 350
      vertex -3.9 0.21 350
      vertex -3.69 -4.51895e-16 350
    endloop
  endfacet
  facet normal 0 0 1
    outer loop
      vertex -2.89 8.31512 350
      vertex -4.5 10 350
      vertex -5.5 8.2 350
    endloop
  endfacet
  facet normal 0 0 1
    outer loop
      vertex -8.5 9.77598 350
      vertex -9.71352 9.38168 350
      vertex -9.71352 8.5 350
    endloop
  endfacet
  facet normal 0 0 1
    outer loop
      vertex 8.5 10 350
      vertex 4.5 10 350
      vertex 2.89 8.31512 350
    endloop
  endfacet
  facet normal 0 0 1
    outer loop
      vertex 8.5 10 350
      vertex 2.89 8.31512 350
      vertex 2.89 8.2 350
    endloop
  endfacet
  facet normal 0 0 1
    outer loop
      vertex 8.2 -8.2 350
      vertex 8.5 -9.77598 350
      vertex 8.96352 -9.92658 350
    endloop
  endfacet
  facet normal 0 0 1
    outer loop
      vertex 8.5 10 350
      vertex 2.89 8.2 350
      vertex 5.5 8.2 350
    endloop
  endfacet
  facet normal 0 0 1
    outer loop
      vertex 2.1 0 350
      vertex 3.9 -0.21 350
      vertex 3.69 0 350
    endloop
  endfacet
  facet normal 0 0 1
    outer loop
      vertex 6.57 8.2 350
      vertex 8.2 8.2 350
      vertex 8.96352 9.92658 350
    endloop
  endfacet
  facet normal 0 0 1
    outer loop
      vertex 8.2 8.2 350
      vertex 8.2 6.57 350
      vertex 10 8.5 350
    endloop
  endfacet
  facet normal 0 0 1
    outer loop
      vertex 2.84 3.9 350
      vertex 0.21 3.9 350
      vertex -8.19345e-16 3.69 350
    endloop
  endfacet
  facet normal 0 0 1
    outer loop
      vertex 7.66 6.57 350
      vertex 5.5 6.56 350
      vertex 2.84 3.9 350
    endloop
  endfacet
  facet normal 0 0 1
    outer loop
      vertex -9.71352 8.5 350
      vertex -10 8.5 350
      vertex -10 4.5 350
    endloop
  endfacet
  facet normal 0 0 1
    outer loop
      vertex -2.89 8.31512 350
      vertex -5.5 8.2 350
      vertex -2.89 8.2 350
    endloop
  endfacet
  facet normal 0 0 1
    outer loop
      vertex -8.2 2.89 350
      vertex -8.2 5.5 350
      vertex -8.31512 2.89 350
    endloop
  endfacet
  facet normal 0 0 1
    outer loop
      vertex -4.5 10 350
      vertex -8.5 10 350
      vertex -5.5 8.2 350
    endloop
  endfacet
  facet normal 0 0 1
    outer loop
      vertex -6.56 5.5 350
      vertex -5.5 6.56 350
      vertex -5.5 8.2 350
    endloop
  endfacet
  facet normal 0 0 1
    outer loop
      vertex -5.5 8.2 350
      vertex -8.5 10 350
      vertex -8.5 9.77598 350
    endloop
  endfacet
  facet normal 0 0 1
    outer loop
      vertex -10 4.5 350
      vertex -8.31512 2.89 350
      vertex -8.5 9.77598 350
    endloop
  endfacet
  facet normal 0 0 1
    outer loop
      vertex -6.56 5.5 350
      vertex -3.9 2.84 350
      vertex -5.5 6.56 350
    endloop
  endfacet
  facet normal 0 0 1
    outer loop
      vertex -10 4.5 350
      vertex -8.5 9.77598 350
      vertex -9.71352 8.5 350
    endloop
  endfacet
  facet normal 0 0 1
    outer loop
      vertex -8.2 5.5 350
      vertex -8.5 9.77598 350
      vertex -8.31512 2.89 350
    endloop
  endfacet
  facet normal 0 0 1
    outer loop
      vertex -8.2 5.5 350
      vertex -6.56 5.5 350
      vertex -5.5 8.2 350
    endloop
  endfacet
  facet normal 0 0 1
    outer loop
      vertex -8.2 6.57 350
      vertex -8.5 9.77598 350
      vertex -8.2 5.5 350
    endloop
  endfacet
  facet normal 0 0 1
    outer loop
      vertex -2.84 3.9 350
      vertex -5.5 6.56 350
      vertex -3.9 2.84 350
    endloop
  endfacet
  facet normal 0 0 1
    outer loop
      vertex 2.84 3.9 350
      vertex -3.9 0.21 350
      vertex -0.467294 2.04735 350
    endloop
  endfacet
  facet normal 0 0 1
    outer loop
      vertex 2.84 3.9 350
      vertex -8.19345e-16 3.69 350
      vertex -3.9 0.21 350
    endloop
  endfacet
  facet normal 0 0 1
    outer loop
      vertex -6.57 -7.66 350
      vertex -6.57 -8.2 350
      vertex -4.5 -10 350
    endloop
  endfacet
  facet normal 0 0 1
    outer loop
      vertex -3.9 2.84 350
      vertex -3.9 0.21 350
      vertex -8.19345e-16 3.69 350
    endloop
  endfacet
  facet normal 0 0 1
    outer loop
      vertex -0.467294 2.04735 350
      vertex 7.66 6.57 350
      vertex 2.84 3.9 350
    endloop
  endfacet
  facet normal 0 0 1
    outer loop
      vertex -5.5 -6.56 350
      vertex -2.84 -3.9 350
      vertex -6.56 -5.5 350
    endloop
  endfacet
  facet normal 0 0 1
    outer loop
      vertex -5.5 -8.2 350
      vertex -8.2 -5.5 350
      vertex -10 -4.5 350
    endloop
  endfacet
  facet normal 0 0 1
    outer loop
      vertex 2.1 0 350
      vertex 3.69 0 350
      vertex 3.9 0.21 350
    endloop
  endfacet
  facet normal 0 0 1
    outer loop
      vertex -3.9 2.84 350
      vertex -8.19345e-16 3.69 350
      vertex -0.21 3.9 350
    endloop
  endfacet
  facet normal 0 0 1
    outer loop
      vertex -6.57 7.66 350
      vertex -7.66 6.57 350
      vertex -5.5 8.2 350
    endloop
  endfacet
  facet normal 0 0 1
    outer loop
      vertex -3.9 2.84 350
      vertex -0.21 3.9 350
      vertex -2.84 3.9 350
    endloop
  endfacet
  facet normal 0 0 1
    outer loop
      vertex 8.2 -8.2 350
      vertex 6.57 -8.2 350
      vertex 8.5 -10 350
    endloop
  endfacet
  facet normal 0 0 1
    outer loop
      vertex -7.66 6.57 350
      vertex -8.2 6.57 350
      vertex -8.2 5.5 350
    endloop
  endfacet
  facet normal 0 0 1
    outer loop
      vertex -8.2 8.2 350
      vertex -8.5 9.77598 350
      vertex -8.2 6.57 350
    endloop
  endfacet
  facet normal 0 0 1
    outer loop
      vertex -6.57 8.2 350
      vertex -8.5 9.77598 350
      vertex -8.2 8.2 350
    endloop
  endfacet
  facet normal 0 0 1
    outer loop
      vertex -5.5 8.2 350
      vertex -8.5 9.77598 350
      vertex -6.57 8.2 350
    endloop
  endfacet
  facet normal 0 0 1
    outer loop
      vertex -8.2 -6.57 350
      vertex -7.66 -6.57 350
      vertex -10 -4.5 350
    endloop
  endfacet
  facet normal 0 0 1
    outer loop
      vertex -5.5 8.2 350
      vertex -6.57 8.2 350
      vertex -6.57 7.66 350
    endloop
  endfacet
  facet normal 0 0 1
    outer loop
      vertex -5.5 8.2 350
      vertex -7.66 6.57 350
      vertex -8.2 5.5 350
    endloop
  endfacet
  facet normal 0 0 1
    outer loop
      vertex -0.467294 -2.04735 350
      vertex -1.89203 -0.911156 350
      vertex -3.9 -2.84 350
    endloop
  endfacet
  facet normal 0 0 1
    outer loop
      vertex -8.5 -9.77598 350
      vertex -8.2 -8.2 350
      vertex -10 -4.5 350
    endloop
  endfacet
  facet normal 0 0 1
    outer loop
      vertex -8.5 -9.77598 350
      vertex -4.5 -10 350
      vertex -8.2 -8.2 350
    endloop
  endfacet
  facet normal 0 0 1
    outer loop
      vertex -8.2 -8.2 350
      vertex -8.2 -6.57 350
      vertex -10 -4.5 350
    endloop
  endfacet
  facet normal 0 0 1
    outer loop
      vertex -6.57 -7.66 350
      vertex -5.5 -8.2 350
      vertex -7.66 -6.57 350
    endloop
  endfacet
  facet normal 0 0 1
    outer loop
      vertex -1.89203 -0.911156 350
      vertex -1.89203 0.911156 350
      vertex -3.9 -0.21 350
    endloop
  endfacet
  facet normal 0 0 1
    outer loop
      vertex -4.5 -10 350
      vertex -5.5 -8.2 350
      vertex -6.57 -7.66 350
    endloop
  endfacet
  facet normal 0 0 1
    outer loop
      vertex -8.2 -8.2 350
      vertex -4.5 -10 350
      vertex -6.57 -8.2 350
    endloop
  endfacet
  facet normal 0 0 1
    outer loop
      vertex -3.9 -2.84 350
      vertex -6.56 -5.5 350
      vertex -2.84 -3.9 350
    endloop
  endfacet
  facet normal 0 0 1
    outer loop
      vertex -0.467294 2.04735 350
      vertex 6.56 5.5 350
      vertex 7.66 6.57 350
    endloop
  endfacet
  facet normal 0 0 1
    outer loop
      vertex -1.89203 0.911156 350
      vertex -0.467294 2.04735 350
      vertex -3.69 -4.51895e-16 350
    endloop
  endfacet
  facet normal 0 0 1
    outer loop
      vertex 3.9 2.84 350
      vertex 6.56 5.5 350
      vertex 1.30933 1.64185 350
    endloop
  endfacet
  facet normal 0 0 1
    outer loop
      vertex 7.66 6.57 350
      vertex 6.57 7.66 350
      vertex 5.5 6.56 350
    endloop
  endfacet
  facet normal 0 0 1
    outer loop
      vertex 3.9 0.21 350
      vertex 3.9 2.84 350
      vertex 2.1 0 350
    endloop
  endfacet
  facet normal 0 0 1
    outer loop
      vertex 3.9 -2.84 350
      vertex 1.30933 -1.64185 350
      vertex -3.9 -2.84 350
    endloop
  endfacet
  facet normal 0 0 1
    outer loop
      vertex 3.9 -2.84 350
      vertex 3.9 -0.21 350
      vertex 1.30933 -1.64185 350
    endloop
  endfacet
  facet normal 0 0 1
    outer loop
      vertex 1.30933 -1.64185 350
      vertex -0.467294 -2.04735 350
      vertex -3.9 -2.84 350
    endloop
  endfacet
  facet normal 0 0 1
    outer loop
      vertex 8.2 6.57 350
      vertex 7.66 6.57 350
      vertex 6.56 5.5 350
    endloop
  endfacet
  facet normal 0 0 1
    outer loop
      vertex -8.31512 -2.89 350
      vertex -10 -4.5 350
      vertex -8.2 -2.89 350
    endloop
  endfacet
  facet normal 0 0 1
    outer loop
      vertex 8.96352 9.92658 350
      vertex 8.5 9.77598 350
      vertex 6.57 8.2 350
    endloop
  endfacet
  facet normal 0 0 1
    outer loop
      vertex 10 8.5 350
      vertex 8.96352 9.92658 350
      vertex 8.2 8.2 350
    endloop
  endfacet
  facet normal 0 0 1
    outer loop
      vertex 8.2 5.5 350
      vertex 8.2 6.57 350
      vertex 6.56 5.5 350
    endloop
  endfacet
  facet normal 0 0 1
    outer loop
      vertex 8.2 5.5 350
      vertex 10 8.5 350
      vertex 8.2 6.57 350
    endloop
  endfacet
  facet normal 0 0 1
    outer loop
      vertex -8.2 -5.5 350
      vertex -8.2 -2.89 350
      vertex -10 -4.5 350
    endloop
  endfacet
  facet normal 0 0 1
    outer loop
      vertex 5.5 -8.2 350
      vertex 6.57 -8.2 350
      vertex 5.5 -6.56 350
    endloop
  endfacet
  facet normal 0 0 1
    outer loop
      vertex 5.5 -8.2 350
      vertex 8.5 -10 350
      vertex 6.57 -8.2 350
    endloop
  endfacet
  facet normal 0 0 1
    outer loop
      vertex 5.5 -6.56 350
      vertex 7.66 -6.57 350
      vertex 2.84 -3.9 350
    endloop
  endfacet
  facet normal 0 0 1
    outer loop
      vertex 6.57 -7.66 350
      vertex 7.66 -6.57 350
      vertex 5.5 -6.56 350
    endloop
  endfacet
  facet normal 0 0 1
    outer loop
      vertex 8.2 -6.57 350
      vertex 8.2 -8.2 350
      vertex 10 -8.5 350
    endloop
  endfacet
  facet normal 0 0 1
    outer loop
      vertex 10 -8.5 350
      vertex 8.2 -5.5 350
      vertex 8.2 -6.57 350
    endloop
  endfacet
  facet normal 0 0 1
    outer loop
      vertex 8.96352 -9.92658 350
      vertex 10 -8.5 350
      vertex 8.2 -8.2 350
    endloop
  endfacet
  facet normal 0 0 1
    outer loop
      vertex 2.89 -8.31512 350
      vertex 4.5 -10 350
      vertex 5.5 -8.2 350
    endloop
  endfacet
  facet normal 0 0 1
    outer loop
      vertex -2.89 -8.2 350
      vertex -5.5 -8.2 350
      vertex -2.89 -8.31512 350
    endloop
  endfacet
  facet normal 0 0 1
    outer loop
      vertex 5.5 8.2 350
      vertex 8.5 9.77598 350
      vertex 8.5 10 350
    endloop
  endfacet
  facet normal 0 0 1
    outer loop
      vertex 8.2 -2.89 350
      vertex 10 -4.5 350
      vertex 8.31512 -2.89 350
    endloop
  endfacet
  facet normal 0 0 1
    outer loop
      vertex 8.2 -2.89 350
      vertex 8.2 -5.5 350
      vertex 10 -4.5 350
    endloop
  endfacet
  facet normal 0 0 1
    outer loop
      vertex 5.5 8.2 350
      vertex 6.57 7.66 350
      vertex 6.57 8.2 350
    endloop
  endfacet
  facet normal 0 0 1
    outer loop
      vertex 5.5 8.2 350
      vertex 5.5 6.56 350
      vertex 6.57 7.66 350
    endloop
  endfacet
  facet normal 0 0 1
    outer loop
      vertex -3.9 -0.21 350
      vertex -3.9 -2.84 350
      vertex -1.89203 -0.911156 350
    endloop
  endfacet
  facet normal -1 0 0
    outer loop
      vertex -9.71352 -9.38168 0
      vertex -9.71352 -9.38168 350
      vertex -9.71352 -8.5 0
    endloop
  endfacet
  facet normal -1 0 0
    outer loop
      vertex -9.71352 -8.5 0
      vertex -9.71352 -9.38168 350
      vertex -9.71352 -8.5 350
    endloop
  endfacet
  facet normal -0.309017 -0.951056 0
    outer loop
      vertex -9.71352 -9.38168 350
      vertex -9.71352 -9.38168 0
      vertex -8.5 -9.77598 0
    endloop
  endfacet
  facet normal -0.309017 -0.951056 0
    outer loop
      vertex -8.5 -9.77598 350
      vertex -9.71352 -9.38168 350
      vertex -8.5 -9.77598 0
    endloop
  endfacet
  facet normal -1 0 0
    outer loop
      vertex -8.5 -10 0
      vertex -8.5 -10 350
      vertex -8.5 -9.77598 0
    endloop
  endfacet
  facet normal -1 0 0
    outer loop
      vertex -8.5 -9.77598 0
      vertex -8.5 -10 350
      vertex -8.5 -9.77598 350
    endloop
  endfacet
  facet normal 0 -1 0
    outer loop
      vertex -8.5 -10 350
      vertex -8.5 -10 0
      vertex -4.5 -10 0
    endloop
  endfacet
  facet normal 0 -1 0
    outer loop
      vertex -4.5 -10 350
      vertex -8.5 -10 350
      vertex -4.5 -10 0
    endloop
  endfacet
  facet normal 0.722991 -0.690858 0
    outer loop
      vertex -2.89 -8.31512 0
      vertex -2.89 -8.31512 350
      vertex -4.5 -10 350
    endloop
  endfacet
  facet normal 0.722991 -0.690858 0
    outer loop
      vertex -4.5 -10 0
      vertex -2.89 -8.31512 0
      vertex -4.5 -10 350
    endloop
  endfacet
  facet normal 1 2.22045e-16 0
    outer loop
      vertex -2.89 -8.2 350
      vertex -2.89 -8.31512 350
      vertex -2.89 -8.31512 0
    endloop
  endfacet
  facet normal 1 2.22045e-16 0
    outer loop
      vertex -2.89 -8.2 0
      vertex -2.89 -8.2 350
      vertex -2.89 -8.31512 0
    endloop
  endfacet
  facet normal -2.22045e-16 1 0
    outer loop
      vertex -2.89 -8.2 350
      vertex -2.89 -8.2 0
      vertex -5.5 -8.2 350
    endloop
  endfacet
  facet normal -2.22045e-16 1 0
    outer loop
      vertex -5.5 -8.2 350
      vertex -2.89 -8.2 0
      vertex -5.5 -8.2 0
    endloop
  endfacet
  facet normal 1 2.22045e-16 0
    outer loop
      vertex -5.5 -6.56 350
      vertex -5.5 -8.2 350
      vertex -5.5 -8.2 0
    endloop
  endfacet
  facet normal 1 2.22045e-16 0
    outer loop
      vertex -5.5 -6.56 0
      vertex -5.5 -6.56 350
      vertex -5.5 -8.2 0
    endloop
  endfacet
  facet normal 0.707107 -0.707107 0
    outer loop
      vertex -2.84 -3.9 0
      vertex -2.84 -3.9 350
      vertex -5.5 -6.56 350
    endloop
  endfacet
  facet normal 0.707107 -0.707107 0
    outer loop
      vertex -5.5 -6.56 0
      vertex -2.84 -3.9 0
      vertex -5.5 -6.56 350
    endloop
  endfacet
  facet normal 2.22045e-16 -1 0
    outer loop
      vertex -0.21 -3.9 0
      vertex -0.21 -3.9 350
      vertex -2.84 -3.9 350
    endloop
  endfacet
  facet normal 2.22045e-16 -1 0
    outer loop
      vertex -2.84 -3.9 0
      vertex -0.21 -3.9 0
      vertex -2.84 -3.9 350
    endloop
  endfacet
  facet normal 0.707107 -0.707107 0
    outer loop
      vertex 8.19345e-16 -3.69 0
      vertex 8.19345e-16 -3.69 350
      vertex -0.21 -3.9 350
    endloop
  endfacet
  facet normal 0.707107 -0.707107 0
    outer loop
      vertex -0.21 -3.9 0
      vertex 8.19345e-16 -3.69 0
      vertex -0.21 -3.9 350
    endloop
  endfacet
  facet normal -0.707107 -0.707107 0
    outer loop
      vertex 0.21 -3.9 0
      vertex 0.21 -3.9 350
      vertex 8.19345e-16 -3.69 350
    endloop
  endfacet
  facet normal -0.707107 -0.707107 0
    outer loop
      vertex 8.19345e-16 -3.69 0
      vertex 0.21 -3.9 0
      vertex 8.19345e-16 -3.69 350
    endloop
  endfacet
  facet normal 2.22045e-16 -1 0
    outer loop
      vertex 2.84 -3.9 0
      vertex 2.84 -3.9 350
      vertex 0.21 -3.9 350
    endloop
  endfacet
  facet normal 2.22045e-16 -1 0
    outer loop
      vertex 0.21 -3.9 0
      vertex 2.84 -3.9 0
      vertex 0.21 -3.9 350
    endloop
  endfacet
  facet normal -0.707107 -0.707107 0
    outer loop
      vertex 5.5 -6.56 0
      vertex 5.5 -6.56 350
      vertex 2.84 -3.9 350
    endloop
  endfacet
  facet normal -0.707107 -0.707107 0
    outer loop
      vertex 2.84 -3.9 0
      vertex 5.5 -6.56 0
      vertex 2.84 -3.9 350
    endloop
  endfacet
  facet normal -1 -2.22045e-16 0
    outer loop
      vertex 5.5 -8.2 350
      vertex 5.5 -6.56 350
      vertex 5.5 -8.2 0
    endloop
  endfacet
  facet normal -1 -2.22045e-16 0
    outer loop
      vertex 5.5 -8.2 0
      vertex 5.5 -6.56 350
      vertex 5.5 -6.56 0
    endloop
  endfacet
  facet normal -2.22045e-16 1 0
    outer loop
      vertex 5.5 -8.2 350
      vertex 5.5 -8.2 0
      vertex 2.89 -8.2 350
    endloop
  endfacet
  facet normal -2.22045e-16 1 0
    outer loop
      vertex 2.89 -8.2 350
      vertex 5.5 -8.2 0
      vertex 2.89 -8.2 0
    endloop
  endfacet
  facet normal -1 -2.22045e-16 0
    outer loop
      vertex 2.89 -8.31512 350
      vertex 2.89 -8.2 350
      vertex 2.89 -8.31512 0
    endloop
  endfacet
  facet normal -1 -2.22045e-16 0
    outer loop
      vertex 2.89 -8.31512 0
      vertex 2.89 -8.2 350
      vertex 2.89 -8.2 0
    endloop
  endfacet
  facet normal -0.722991 -0.690858 0
    outer loop
      vertex 4.5 -10 350
      vertex 2.89 -8.31512 350
      vertex 4.5 -10 0
    endloop
  endfacet
  facet normal -0.722991 -0.690858 0
    outer loop
      vertex 4.5 -10 0
      vertex 2.89 -8.31512 350
      vertex 2.89 -8.31512 0
    endloop
  endfacet
  facet normal 0 -1 0
    outer loop
      vertex 4.5 -10 350
      vertex 4.5 -10 0
      vertex 8.5 -10 0
    endloop
  endfacet
  facet normal 0 -1 0
    outer loop
      vertex 8.5 -10 350
      vertex 4.5 -10 350
      vertex 8.5 -10 0
    endloop
  endfacet
  facet normal 1 0 0
    outer loop
      vertex 8.5 -10 350
      vertex 8.5 -10 0
      vertex 8.5 -9.77598 0
    endloop
  endfacet
  facet normal 1 0 0
    outer loop
      vertex 8.5 -9.77598 350
      vertex 8.5 -10 350
      vertex 8.5 -9.77598 0
    endloop
  endfacet
  facet normal -0.309017 -0.951056 0
    outer loop
      vertex 8.5 -9.77598 350
      vertex 8.5 -9.77598 0
      vertex 8.96352 -9.92658 0
    endloop
  endfacet
  facet normal -0.309017 -0.951056 0
    outer loop
      vertex 8.96352 -9.92658 350
      vertex 8.5 -9.77598 350
      vertex 8.96352 -9.92658 0
    endloop
  endfacet
  facet normal 0.809017 -0.587785 0
    outer loop
      vertex 8.96352 -9.92658 350
      vertex 8.96352 -9.92658 0
      vertex 10 -8.5 0
    endloop
  endfacet
  facet normal 0.809017 -0.587785 0
    outer loop
      vertex 10 -8.5 350
      vertex 8.96352 -9.92658 350
      vertex 10 -8.5 0
    endloop
  endfacet
  facet normal 1 0 0
    outer loop
      vertex 10 -8.5 350
      vertex 10 -8.5 0
      vertex 10 -4.5 0
    endloop
  endfacet
  facet normal 1 0 0
    outer loop
      vertex 10 -4.5 350
      vertex 10 -8.5 350
      vertex 10 -4.5 0
    endloop
  endfacet
  facet normal 0.690858 0.722991 0
    outer loop
      vertex 10 -4.5 350
      vertex 10 -4.5 0
      vertex 8.31512 -2.89 350
    endloop
  endfacet
  facet normal 0.690858 0.722991 0
    outer loop
      vertex 8.31512 -2.89 350
      vertex 10 -4.5 0
      vertex 8.31512 -2.89 0
    endloop
  endfacet
  facet normal 0 1 0
    outer loop
      vertex 8.31512 -2.89 350
      vertex 8.31512 -2.89 0
      vertex 8.2 -2.89 350
    endloop
  endfacet
  facet normal 0 1 0
    outer loop
      vertex 8.2 -2.89 350
      vertex 8.31512 -2.89 0
      vertex 8.2 -2.89 0
    endloop
  endfacet
  facet normal -1 0 0
    outer loop
      vertex 8.2 -2.89 350
      vertex 8.2 -2.89 0
      vertex 8.2 -5.5 350
    endloop
  endfacet
  facet normal -1 0 0
    outer loop
      vertex 8.2 -5.5 350
      vertex 8.2 -2.89 0
      vertex 8.2 -5.5 0
    endloop
  endfacet
  facet normal 0 1 0
    outer loop
      vertex 8.2 -5.5 350
      vertex 8.2 -5.5 0
      vertex 6.56 -5.5 350
    endloop
  endfacet
  facet normal 0 1 0
    outer loop
      vertex 6.56 -5.5 350
      vertex 8.2 -5.5 0
      vertex 6.56 -5.5 0
    endloop
  endfacet
  facet normal 0.707107 0.707107 0
    outer loop
      vertex 3.9 -2.84 350
      vertex 6.56 -5.5 350
      vertex 6.56 -5.5 0
    endloop
  endfacet
  facet normal 0.707107 0.707107 0
    outer loop
      vertex 3.9 -2.84 0
      vertex 3.9 -2.84 350
      vertex 6.56 -5.5 0
    endloop
  endfacet
  facet normal 1 0 0
    outer loop
      vertex 3.9 -0.21 0
      vertex 3.9 -0.21 350
      vertex 3.9 -2.84 350
    endloop
  endfacet
  facet normal 1 0 0
    outer loop
      vertex 3.9 -2.84 0
      vertex 3.9 -0.21 0
      vertex 3.9 -2.84 350
    endloop
  endfacet
  facet normal 0.707107 0.707107 0
    outer loop
      vertex 3.69 0 350
      vertex 3.9 -0.21 350
      vertex 3.9 -0.21 0
    endloop
  endfacet
  facet normal 0.707107 0.707107 0
    outer loop
      vertex 3.69 0 0
      vertex 3.69 0 350
      vertex 3.9 -0.21 0
    endloop
  endfacet
  facet normal 0.707107 -0.707107 0
    outer loop
      vertex 3.9 0.21 0
      vertex 3.9 0.21 350
      vertex 3.69 0 350
    endloop
  endfacet
  facet normal 0.707107 -0.707107 0
    outer loop
      vertex 3.69 0 0
      vertex 3.9 0.21 0
      vertex 3.69 0 350
    endloop
  endfacet
  facet normal 1 0 0
    outer loop
      vertex 3.9 2.84 0
      vertex 3.9 2.84 350
      vertex 3.9 0.21 350
    endloop
  endfacet
  facet normal 1 0 0
    outer loop
      vertex 3.9 0.21 0
      vertex 3.9 2.84 0
      vertex 3.9 0.21 350
    endloop
  endfacet
  facet normal 0.707107 -0.707107 0
    outer loop
      vertex 6.56 5.5 0
      vertex 6.56 5.5 350
      vertex 3.9 2.84 350
    endloop
  endfacet
  facet normal 0.707107 -0.707107 0
    outer loop
      vertex 3.9 2.84 0
      vertex 6.56 5.5 0
      vertex 3.9 2.84 350
    endloop
  endfacet
  facet normal 0 -1 0
    outer loop
      vertex 8.2 5.5 0
      vertex 8.2 5.5 350
      vertex 6.56 5.5 350
    endloop
  endfacet
  facet normal 0 -1 0
    outer loop
      vertex 6.56 5.5 0
      vertex 8.2 5.5 0
      vertex 6.56 5.5 350
    endloop
  endfacet
  facet normal -1 0 0
    outer loop
      vertex 8.2 5.5 350
      vertex 8.2 5.5 0
      vertex 8.2 2.89 350
    endloop
  endfacet
  facet normal -1 0 0
    outer loop
      vertex 8.2 2.89 350
      vertex 8.2 5.5 0
      vertex 8.2 2.89 0
    endloop
  endfacet
  facet normal 0 -1 0
    outer loop
      vertex 8.31512 2.89 0
      vertex 8.31512 2.89 350
      vertex 8.2 2.89 350
    endloop
  endfacet
  facet normal 0 -1 0
    outer loop
      vertex 8.2 2.89 0
      vertex 8.31512 2.89 0
      vertex 8.2 2.89 350
    endloop
  endfacet
  facet normal 0.690858 -0.722991 0
    outer loop
      vertex 10 4.5 0
      vertex 10 4.5 350
      vertex 8.31512 2.89 350
    endloop
  endfacet
  facet normal 0.690858 -0.722991 0
    outer loop
      vertex 8.31512 2.89 0
      vertex 10 4.5 0
      vertex 8.31512 2.89 350
    endloop
  endfacet
  facet normal 1 0 0
    outer loop
      vertex 10 4.5 350
      vertex 10 4.5 0
      vertex 10 8.5 0
    endloop
  endfacet
  facet normal 1 0 0
    outer loop
      vertex 10 8.5 350
      vertex 10 4.5 350
      vertex 10 8.5 0
    endloop
  endfacet
  facet normal 0.809017 0.587785 0
    outer loop
      vertex 10 8.5 0
      vertex 8.96352 9.92658 0
      vertex 8.96352 9.92658 350
    endloop
  endfacet
  facet normal 0.809017 0.587785 0
    outer loop
      vertex 10 8.5 350
      vertex 10 8.5 0
      vertex 8.96352 9.92658 350
    endloop
  endfacet
  facet normal -0.309017 0.951056 0
    outer loop
      vertex 8.5 9.77598 0
      vertex 8.5 9.77598 350
      vertex 8.96352 9.92658 0
    endloop
  endfacet
  facet normal -0.309017 0.951056 0
    outer loop
      vertex 8.96352 9.92658 0
      vertex 8.5 9.77598 350
      vertex 8.96352 9.92658 350
    endloop
  endfacet
  facet normal 1 0 0
    outer loop
      vertex 8.5 9.77598 350
      vertex 8.5 9.77598 0
      vertex 8.5 10 0
    endloop
  endfacet
  facet normal 1 0 0
    outer loop
      vertex 8.5 10 350
      vertex 8.5 9.77598 350
      vertex 8.5 10 0
    endloop
  endfacet
  facet normal 0 1 0
    outer loop
      vertex 4.5 10 0
      vertex 4.5 10 350
      vertex 8.5 10 0
    endloop
  endfacet
  facet normal 0 1 0
    outer loop
      vertex 8.5 10 0
      vertex 4.5 10 350
      vertex 8.5 10 350
    endloop
  endfacet
  facet normal -0.722991 0.690858 0
    outer loop
      vertex 4.5 10 350
      vertex 4.5 10 0
      vertex 2.89 8.31512 350
    endloop
  endfacet
  facet normal -0.722991 0.690858 0
    outer loop
      vertex 2.89 8.31512 350
      vertex 4.5 10 0
      vertex 2.89 8.31512 0
    endloop
  endfacet
  facet normal -1 -2.22045e-16 0
    outer loop
      vertex 2.89 8.2 350
      vertex 2.89 8.31512 350
      vertex 2.89 8.2 0
    endloop
  endfacet
  facet normal -1 -2.22045e-16 0
    outer loop
      vertex 2.89 8.2 0
      vertex 2.89 8.31512 350
      vertex 2.89 8.31512 0
    endloop
  endfacet
  facet normal 2.22045e-16 -1 0
    outer loop
      vertex 5.5 8.2 0
      vertex 5.5 8.2 350
      vertex 2.89 8.2 350
    endloop
  endfacet
  facet normal 2.22045e-16 -1 0
    outer loop
      vertex 2.89 8.2 0
      vertex 5.5 8.2 0
      vertex 2.89 8.2 350
    endloop
  endfacet
  facet normal -1 -2.22045e-16 0
    outer loop
      vertex 5.5 6.56 350
      vertex 5.5 8.2 350
      vertex 5.5 6.56 0
    endloop
  endfacet
  facet normal -1 -2.22045e-16 0
    outer loop
      vertex 5.5 6.56 0
      vertex 5.5 8.2 350
      vertex 5.5 8.2 0
    endloop
  endfacet
  facet normal -0.707107 0.707107 0
    outer loop
      vertex 5.5 6.56 350
      vertex 5.5 6.56 0
      vertex 2.84 3.9 350
    endloop
  endfacet
  facet normal -0.707107 0.707107 0
    outer loop
      vertex 2.84 3.9 350
      vertex 5.5 6.56 0
      vertex 2.84 3.9 0
    endloop
  endfacet
  facet normal -2.22045e-16 1 0
    outer loop
      vertex 2.84 3.9 350
      vertex 2.84 3.9 0
      vertex 0.21 3.9 350
    endloop
  endfacet
  facet normal -2.22045e-16 1 0
    outer loop
      vertex 0.21 3.9 350
      vertex 2.84 3.9 0
      vertex 0.21 3.9 0
    endloop
  endfacet
  facet normal -0.707107 0.707107 0
    outer loop
      vertex 0.21 3.9 350
      vertex 0.21 3.9 0
      vertex -8.19345e-16 3.69 350
    endloop
  endfacet
  facet normal -0.707107 0.707107 0
    outer loop
      vertex -8.19345e-16 3.69 350
      vertex 0.21 3.9 0
      vertex -8.19345e-16 3.69 0
    endloop
  endfacet
  facet normal 0.707107 0.707107 0
    outer loop
      vertex -8.19345e-16 3.69 350
      vertex -8.19345e-16 3.69 0
      vertex -0.21 3.9 350
    endloop
  endfacet
  facet normal 0.707107 0.707107 0
    outer loop
      vertex -0.21 3.9 350
      vertex -8.19345e-16 3.69 0
      vertex -0.21 3.9 0
    endloop
  endfacet
  facet normal -2.22045e-16 1 0
    outer loop
      vertex -0.21 3.9 350
      vertex -0.21 3.9 0
      vertex -2.84 3.9 350
    endloop
  endfacet
  facet normal -2.22045e-16 1 0
    outer loop
      vertex -2.84 3.9 350
      vertex -0.21 3.9 0
      vertex -2.84 3.9 0
    endloop
  endfacet
  facet normal 0.707107 0.707107 0
    outer loop
      vertex -2.84 3.9 350
      vertex -2.84 3.9 0
      vertex -5.5 6.56 350
    endloop
  endfacet
  facet normal 0.707107 0.707107 0
    outer loop
      vertex -5.5 6.56 350
      vertex -2.84 3.9 0
      vertex -5.5 6.56 0
    endloop
  endfacet
  facet normal 1 2.22045e-16 0
    outer loop
      vertex -5.5 8.2 350
      vertex -5.5 6.56 350
      vertex -5.5 6.56 0
    endloop
  endfacet
  facet normal 1 2.22045e-16 0
    outer loop
      vertex -5.5 8.2 0
      vertex -5.5 8.2 350
      vertex -5.5 6.56 0
    endloop
  endfacet
  facet normal 2.22045e-16 -1 0
    outer loop
      vertex -2.89 8.2 0
      vertex -2.89 8.2 350
      vertex -5.5 8.2 350
    endloop
  endfacet
  facet normal 2.22045e-16 -1 0
    outer loop
      vertex -5.5 8.2 0
      vertex -2.89 8.2 0
      vertex -5.5 8.2 350
    endloop
  endfacet
  facet normal 1 2.22045e-16 0
    outer loop
      vertex -2.89 8.31512 350
      vertex -2.89 8.2 350
      vertex -2.89 8.2 0
    endloop
  endfacet
  facet normal 1 2.22045e-16 0
    outer loop
      vertex -2.89 8.31512 0
      vertex -2.89 8.31512 350
      vertex -2.89 8.2 0
    endloop
  endfacet
  facet normal 0.722991 0.690858 0
    outer loop
      vertex -4.5 10 350
      vertex -2.89 8.31512 350
      vertex -2.89 8.31512 0
    endloop
  endfacet
  facet normal 0.722991 0.690858 0
    outer loop
      vertex -4.5 10 0
      vertex -4.5 10 350
      vertex -2.89 8.31512 0
    endloop
  endfacet
  facet normal 0 1 0
    outer loop
      vertex -8.5 10 0
      vertex -8.5 10 350
      vertex -4.5 10 0
    endloop
  endfacet
  facet normal 0 1 0
    outer loop
      vertex -4.5 10 0
      vertex -8.5 10 350
      vertex -4.5 10 350
    endloop
  endfacet
  facet normal -1 0 0
    outer loop
      vertex -8.5 9.77598 0
      vertex -8.5 9.77598 350
      vertex -8.5 10 0
    endloop
  endfacet
  facet normal -1 0 0
    outer loop
      vertex -8.5 10 0
      vertex -8.5 9.77598 350
      vertex -8.5 10 350
    endloop
  endfacet
  facet normal -0.309017 0.951056 0
    outer loop
      vertex -9.71352 9.38168 0
      vertex -9.71352 9.38168 350
      vertex -8.5 9.77598 0
    endloop
  endfacet
  facet normal -0.309017 0.951056 0
    outer loop
      vertex -8.5 9.77598 0
      vertex -9.71352 9.38168 350
      vertex -8.5 9.77598 350
    endloop
  endfacet
  facet normal -1 0 0
    outer loop
      vertex -9.71352 8.5 0
      vertex -9.71352 8.5 350
      vertex -9.71352 9.38168 0
    endloop
  endfacet
  facet normal -1 0 0
    outer loop
      vertex -9.71352 9.38168 0
      vertex -9.71352 8.5 350
      vertex -9.71352 9.38168 350
    endloop
  endfacet
  facet normal 0 1 0
    outer loop
      vertex -10 8.5 0
      vertex -10 8.5 350
      vertex -9.71352 8.5 0
    endloop
  endfacet
  facet normal 0 1 0
    outer loop
      vertex -9.71352 8.5 0
      vertex -10 8.5 350
      vertex -9.71352 8.5 350
    endloop
  endfacet
  facet normal -1 0 0
    outer loop
      vertex -10 4.5 0
      vertex -10 4.5 350
      vertex -10 8.5 0
    endloop
  endfacet
  facet normal -1 0 0
    outer loop
      vertex -10 8.5 0
      vertex -10 4.5 350
      vertex -10 8.5 350
    endloop
  endfacet
  facet normal -0.690858 -0.722991 0
    outer loop
      vertex -8.31512 2.89 0
      vertex -8.31512 2.89 350
      vertex -10 4.5 350
    endloop
  endfacet
  facet normal -0.690858 -0.722991 0
    outer loop
      vertex -10 4.5 0
      vertex -8.31512 2.89 0
      vertex -10 4.5 350
    endloop
  endfacet
  facet normal 1.22465e-16 -1 0
    outer loop
      vertex -8.2 2.89 0
      vertex -8.2 2.89 350
      vertex -8.31512 2.89 350
    endloop
  endfacet
  facet normal 1.22465e-16 -1 0
    outer loop
      vertex -8.31512 2.89 0
      vertex -8.2 2.89 0
      vertex -8.31512 2.89 350
    endloop
  endfacet
  facet normal 1 1.22465e-16 0
    outer loop
      vertex -8.2 5.5 350
      vertex -8.2 2.89 350
      vertex -8.2 2.89 0
    endloop
  endfacet
  facet normal 1 1.22465e-16 0
    outer loop
      vertex -8.2 5.5 0
      vertex -8.2 5.5 350
      vertex -8.2 2.89 0
    endloop
  endfacet
  facet normal 1.22465e-16 -1 0
    outer loop
      vertex -6.56 5.5 0
      vertex -6.56 5.5 350
      vertex -8.2 5.5 350
    endloop
  endfacet
  facet normal 1.22465e-16 -1 0
    outer loop
      vertex -8.2 5.5 0
      vertex -6.56 5.5 0
      vertex -8.2 5.5 350
    endloop
  endfacet
  facet normal -0.707107 -0.707107 0
    outer loop
      vertex -3.9 2.84 0
      vertex -3.9 2.84 350
      vertex -6.56 5.5 350
    endloop
  endfacet
  facet normal -0.707107 -0.707107 0
    outer loop
      vertex -6.56 5.5 0
      vertex -3.9 2.84 0
      vertex -6.56 5.5 350
    endloop
  endfacet
  facet normal -1 -1.22465e-16 0
    outer loop
      vertex -3.9 0.21 350
      vertex -3.9 2.84 350
      vertex -3.9 0.21 0
    endloop
  endfacet
  facet normal -1 -1.22465e-16 0
    outer loop
      vertex -3.9 0.21 0
      vertex -3.9 2.84 350
      vertex -3.9 2.84 0
    endloop
  endfacet
  facet normal -0.707107 -0.707107 0
    outer loop
      vertex -3.69 -4.51895e-16 0
      vertex -3.69 -4.51895e-16 350
      vertex -3.9 0.21 350
    endloop
  endfacet
  facet normal -0.707107 -0.707107 0
    outer loop
      vertex -3.9 0.21 0
      vertex -3.69 -4.51895e-16 0
      vertex -3.9 0.21 350
    endloop
  endfacet
  facet normal -0.707107 0.707107 0
    outer loop
      vertex -3.69 -4.51895e-16 350
      vertex -3.69 -4.51895e-16 0
      vertex -3.9 -0.21 350
    endloop
  endfacet
  facet normal -0.707107 0.707107 0
    outer loop
      vertex -3.9 -0.21 350
      vertex -3.69 -4.51895e-16 0
      vertex -3.9 -0.21 0
    endloop
  endfacet
  facet normal -1 -1.22465e-16 0
    outer loop
      vertex -3.9 -2.84 350
      vertex -3.9 -0.21 350
      vertex -3.9 -2.84 0
    endloop
  endfacet
  facet normal -1 -1.22465e-16 0
    outer loop
      vertex -3.9 -2.84 0
      vertex -3.9 -0.21 350
      vertex -3.9 -0.21 0
    endloop
  endfacet
  facet normal -0.707107 0.707107 0
    outer loop
      vertex -3.9 -2.84 350
      vertex -3.9 -2.84 0
      vertex -6.56 -5.5 350
    endloop
  endfacet
  facet normal -0.707107 0.707107 0
    outer loop
      vertex -6.56 -5.5 350
      vertex -3.9 -2.84 0
      vertex -6.56 -5.5 0
    endloop
  endfacet
  facet normal -1.22465e-16 1 0
    outer loop
      vertex -6.56 -5.5 350
      vertex -6.56 -5.5 0
      vertex -8.2 -5.5 350
    endloop
  endfacet
  facet normal -1.22465e-16 1 0
    outer loop
      vertex -8.2 -5.5 350
      vertex -6.56 -5.5 0
      vertex -8.2 -5.5 0
    endloop
  endfacet
  facet normal 1 1.22465e-16 0
    outer loop
      vertex -8.2 -2.89 350
      vertex -8.2 -5.5 350
      vertex -8.2 -5.5 0
    endloop
  endfacet
  facet normal 1 1.22465e-16 0
    outer loop
      vertex -8.2 -2.89 0
      vertex -8.2 -2.89 350
      vertex -8.2 -5.5 0
    endloop
  endfacet
  facet normal -1.22465e-16 1 0
    outer loop
      vertex -8.2 -2.89 350
      vertex -8.2 -2.89 0
      vertex -8.31512 -2.89 350
    endloop
  endfacet
  facet normal -1.22465e-16 1 0
    outer loop
      vertex -8.31512 -2.89 350
      vertex -8.2 -2.89 0
      vertex -8.31512 -2.89 0
    endloop
  endfacet
  facet normal -0.690858 0.722991 0
    outer loop
      vertex -8.31512 -2.89 350
      vertex -8.31512 -2.89 0
      vertex -10 -4.5 350
    endloop
  endfacet
  facet normal -0.690858 0.722991 0
    outer loop
      vertex -10 -4.5 350
      vertex -8.31512 -2.89 0
      vertex -10 -4.5 0
    endloop
  endfacet
  facet normal 2.22045e-16 -1 0
    outer loop
      vertex -6.57 8.2 0
      vertex -6.57 8.2 350
      vertex -8.2 8.2 350
    endloop
  endfacet
  facet normal 2.22045e-16 -1 0
    outer loop
      vertex -8.2 8.2 0
      vertex -6.57 8.2 0
      vertex -8.2 8.2 350
    endloop
  endfacet
  facet normal 1 2.22045e-16 0
    outer loop
      vertex -8.2 8.2 350
      vertex -8.2 6.57 350
      vertex -8.2 6.57 0
    endloop
  endfacet
  facet normal 1 2.22045e-16 0
    outer loop
      vertex -8.2 8.2 0
      vertex -8.2 8.2 350
      vertex -8.2 6.57 0
    endloop
  endfacet
  facet normal -1 -2.22045e-16 0
    outer loop
      vertex -6.57 7.66 350
      vertex -6.57 8.2 350
      vertex -6.57 7.66 0
    endloop
  endfacet
  facet normal -1 -2.22045e-16 0
    outer loop
      vertex -6.57 7.66 0
      vertex -6.57 8.2 350
      vertex -6.57 8.2 0
    endloop
  endfacet
  facet normal -0.707107 0.707107 0
    outer loop
      vertex -6.57 7.66 350
      vertex -6.57 7.66 0
      vertex -7.66 6.57 350
    endloop
  endfacet
  facet normal -0.707107 0.707107 0
    outer loop
      vertex -7.66 6.57 350
      vertex -6.57 7.66 0
      vertex -7.66 6.57 0
    endloop
  endfacet
  facet normal -2.22045e-16 1 0
    outer loop
      vertex -7.66 6.57 350
      vertex -7.66 6.57 0
      vertex -8.2 6.57 350
    endloop
  endfacet
  facet normal -2.22045e-16 1 0
    outer loop
      vertex -8.2 6.57 350
      vertex -7.66 6.57 0
      vertex -8.2 6.57 0
    endloop
  endfacet
  facet normal 1.22465e-16 -1 0
    outer loop
      vertex -7.66 -6.57 0
      vertex -7.66 -6.57 350
      vertex -8.2 -6.57 350
    endloop
  endfacet
  facet normal 1.22465e-16 -1 0
    outer loop
      vertex -8.2 -6.57 0
      vertex -7.66 -6.57 0
      vertex -8.2 -6.57 350
    endloop
  endfacet
  facet normal 1 1.22465e-16 0
    outer loop
      vertex -8.2 -6.57 350
      vertex -8.2 -8.2 350
      vertex -8.2 -8.2 0
    endloop
  endfacet
  facet normal 1 1.22465e-16 0
    outer loop
      vertex -8.2 -6.57 0
      vertex -8.2 -6.57 350
      vertex -8.2 -8.2 0
    endloop
  endfacet
  facet normal -0.707107 -0.707107 0
    outer loop
      vertex -6.57 -7.66 0
      vertex -6.57 -7.66 350
      vertex -7.66 -6.57 350
    endloop
  endfacet
  facet normal -0.707107 -0.707107 0
    outer loop
      vertex -7.66 -6.57 0
      vertex -6.57 -7.66 0
      vertex -7.66 -6.57 350
    endloop
  endfacet
  facet normal -1 -1.22465e-16 0
    outer loop
      vertex -6.57 -8.2 350
      vertex -6.57 -7.66 350
      vertex -6.57 -8.2 0
    endloop
  endfacet
  facet normal -1 -1.22465e-16 0
    outer loop
      vertex -6.57 -8.2 0
      vertex -6.57 -7.66 350
      vertex -6.57 -7.66 0
    endloop
  endfacet
  facet normal -1.22465e-16 1 0
    outer loop
      vertex -6.57 -8.2 350
      vertex -6.57 -8.2 0
      vertex -8.2 -8.2 350
    endloop
  endfacet
  facet normal -1.22465e-16 1 0
    outer loop
      vertex -8.2 -8.2 350
      vertex -6.57 -8.2 0
      vertex -8.2 -8.2 0
    endloop
  endfacet
  facet normal 0.62349 -0.781831 0
    outer loop
      vertex -0.467294 2.04735 0
      vertex -0.467294 2.04735 350
      vertex -1.89203 0.911156 350
    endloop
  endfacet
  facet normal 0.62349 -0.781831 0
    outer loop
      vertex -1.89203 0.911156 0
      vertex -0.467294 2.04735 0
      vertex -1.89203 0.911156 350
    endloop
  endfacet
  facet normal 1 0 0
    outer loop
      vertex -1.89203 0.911156 0
      vertex -1.89203 0.911156 350
      vertex -1.89203 -0.911156 350
    endloop
  endfacet
  facet normal 1 0 0
    outer loop
      vertex -1.89203 -0.911156 0
      vertex -1.89203 0.911156 0
      vertex -1.89203 -0.911156 350
    endloop
  endfacet
  facet normal -0.222521 -0.974928 0
    outer loop
      vertex 1.30933 1.64185 0
      vertex 1.30933 1.64185 350
      vertex -0.467294 2.04735 350
    endloop
  endfacet
  facet normal -0.222521 -0.974928 0
    outer loop
      vertex -0.467294 2.04735 0
      vertex 1.30933 1.64185 0
      vertex -0.467294 2.04735 350
    endloop
  endfacet
  facet normal -0.900969 -0.433884 0
    outer loop
      vertex 2.1 0 350
      vertex 1.30933 1.64185 350
      vertex 2.1 0 0
    endloop
  endfacet
  facet normal -0.900969 -0.433884 0
    outer loop
      vertex 2.1 0 0
      vertex 1.30933 1.64185 350
      vertex 1.30933 1.64185 0
    endloop
  endfacet
  facet normal -0.900969 0.433884 0
    outer loop
      vertex 2.1 0 350
      vertex 2.1 0 0
      vertex 1.30933 -1.64185 350
    endloop
  endfacet
  facet normal -0.900969 0.433884 0
    outer loop
      vertex 1.30933 -1.64185 350
      vertex 2.1 0 0
      vertex 1.30933 -1.64185 0
    endloop
  endfacet
  facet normal -0.222521 0.974928 0
    outer loop
      vertex 1.30933 -1.64185 350
      vertex 1.30933 -1.64185 0
      vertex -0.467294 -2.04735 350
    endloop
  endfacet
  facet normal -0.222521 0.974928 0
    outer loop
      vertex -0.467294 -2.04735 350
      vertex 1.30933 -1.64185 0
      vertex -0.467294 -2.04735 0
    endloop
  endfacet
  facet normal 0.62349 0.781831 0
    outer loop
      vertex -0.467294 -2.04735 350
      vertex -0.467294 -2.04735 0
      vertex -1.89203 -0.911156 350
    endloop
  endfacet
  facet normal 0.62349 0.781831 0
    outer loop
      vertex -1.89203 -0.911156 350
      vertex -0.467294 -2.04735 0
      vertex -1.89203 -0.911156 0
    endloop
  endfacet
  facet normal 0 -1 0
    outer loop
      vertex 8.2 8.2 0
      vertex 8.2 8.2 350
      vertex 6.57 8.2 350
    endloop
  endfacet
  facet normal 0 -1 0
    outer loop
      vertex 6.57 8.2 0
      vertex 8.2 8.2 0
      vertex 6.57 8.2 350
    endloop
  endfacet
  facet normal 1 0 0
    outer loop
      vertex 6.57 8.2 0
      vertex 6.57 8.2 350
      vertex 6.57 7.66 350
    endloop
  endfacet
  facet normal 1 0 0
    outer loop
      vertex 6.57 7.66 0
      vertex 6.57 8.2 0
      vertex 6.57 7.66 350
    endloop
  endfacet
  facet normal -1 0 0
    outer loop
      vertex 8.2 8.2 350
      vertex 8.2 8.2 0
      vertex 8.2 6.57 350
    endloop
  endfacet
  facet normal -1 0 0
    outer loop
      vertex 8.2 6.57 350
      vertex 8.2 8.2 0
      vertex 8.2 6.57 0
    endloop
  endfacet
  facet normal 0 1 0
    outer loop
      vertex 8.2 6.57 350
      vertex 8.2 6.57 0
      vertex 7.66 6.57 350
    endloop
  endfacet
  facet normal 0 1 0
    outer loop
      vertex 7.66 6.57 350
      vertex 8.2 6.57 0
      vertex 7.66 6.57 0
    endloop
  endfacet
  facet normal 0.707107 0.707107 0
    outer loop
      vertex 7.66 6.57 350
      vertex 7.66 6.57 0
      vertex 6.57 7.66 350
    endloop
  endfacet
  facet normal 0.707107 0.707107 0
    outer loop
      vertex 6.57 7.66 350
      vertex 7.66 6.57 0
      vertex 6.57 7.66 0
    endloop
  endfacet
  facet normal 0.707107 -0.707107 0
    outer loop
      vertex 7.66 -6.57 0
      vertex 7.66 -6.57 350
      vertex 6.57 -7.66 350
    endloop
  endfacet
  facet normal 0.707107 -0.707107 0
    outer loop
      vertex 6.57 -7.66 0
      vertex 7.66 -6.57 0
      vertex 6.57 -7.66 350
    endloop
  endfacet
  facet normal 1 2.22045e-16 0
    outer loop
      vertex 6.57 -7.66 350
      vertex 6.57 -8.2 350
      vertex 6.57 -8.2 0
    endloop
  endfacet
  facet normal 1 2.22045e-16 0
    outer loop
      vertex 6.57 -7.66 0
      vertex 6.57 -7.66 350
      vertex 6.57 -8.2 0
    endloop
  endfacet
  facet normal 2.22045e-16 -1 0
    outer loop
      vertex 8.2 -6.57 0
      vertex 8.2 -6.57 350
      vertex 7.66 -6.57 350
    endloop
  endfacet
  facet normal 2.22045e-16 -1 0
    outer loop
      vertex 7.66 -6.57 0
      vertex 8.2 -6.57 0
      vertex 7.66 -6.57 350
    endloop
  endfacet
  facet normal -1 -2.22045e-16 0
    outer loop
      vertex 8.2 -8.2 350
      vertex 8.2 -6.57 350
      vertex 8.2 -8.2 0
    endloop
  endfacet
  facet normal -1 -2.22045e-16 0
    outer loop
      vertex 8.2 -8.2 0
      vertex 8.2 -6.57 350
      vertex 8.2 -6.57 0
    endloop
  endfacet
  facet normal -2.22045e-16 1 0
    outer loop
      vertex 8.2 -8.2 350
      vertex 8.2 -8.2 0
      vertex 6.57 -8.2 350
    endloop
  endfacet
  facet normal -2.22045e-16 1 0
    outer loop
      vertex 6.57 -8.2 350
      vertex 8.2 -8.2 0
      vertex 6.57 -8.2 0
    endloop
  endfacet
endsolid OpenSCAD_Model
